<mxfile host="app.diagrams.net" agent="Mozilla/5.0 (X11; Linux x86_64) AppleWebKit/537.36 (KHTML, like Gecko) Chrome/130.0.0.0 Safari/537.36" version="25.0.3">
  <diagram name="Page-1" id="yeQsdORRPlUrJRd8_OVy">
    <mxGraphModel dx="1687" dy="887" grid="1" gridSize="10" guides="1" tooltips="1" connect="1" arrows="1" fold="1" page="1" pageScale="1" pageWidth="827" pageHeight="1169" math="0" shadow="0">
      <root>
        <mxCell id="0" />
        <mxCell id="1" parent="0" />
        <mxCell id="NUtuvDR6UvhZ3oM0A1vR-2" value="" style="endArrow=none;html=1;rounded=0;strokeWidth=3;strokeColor=#484747;" edge="1" parent="1">
          <mxGeometry width="50" height="50" relative="1" as="geometry">
            <mxPoint x="184.25" y="290" as="sourcePoint" />
            <mxPoint x="184" y="150" as="targetPoint" />
          </mxGeometry>
        </mxCell>
        <mxCell id="NUtuvDR6UvhZ3oM0A1vR-3" value="" style="shape=image;imageAspect=0;aspect=fixed;verticalLabelPosition=bottom;verticalAlign=top;image=data:image/png,iVBORw0KGgoAAAANSUhEUgAADbQAAANqCAYAAADvhSz3AAAACXBIWXMAAC4jAAAuIwF4pT92AAAgAElEQVR4nOzdzXEbWZou4LcnZocFEUEDCA8ID5jXAtGD4lhQug5AbDowGgtKbcGwLaiUBVfygDIAEeKC676LBItUtX5KUiK//HmeiAyqWBHiuxCIRJ7znu9v//rXvwIAAAAAAAAAAAAAAAAAx/Yf1QEAAAAAAAAAAAAAAAAAWAaFNgAAAAAAAAAAAAAAAAAGodAGAAAAAAAAAAAAAAAAwCAU2gAAAAAAAAAAAAAAAAAYhEIbAAAAAAAAAAAAAAAAAINQaAMAAAAAAAAAAAAAAABgEAptAAAAAAAAAAAAAAAAAAxCoQ0AAAAAAAAAAAAAAACAQSi0AQAAAAAAAAAAAAAAADAIhTYAAAAAAAAAAAAAAAAABqHQBgAAAAAAAAAAAAAAAMAgFNoAAAAAAAAAAAAAAAAAGIRCGwAAAAAAAAAAAAAAAACDUGgDAAAAAAAAAAAAAAAAYBAKbQAAAAAAAAAAAAAAAAAMQqENAAAAAAAAAAAAAAAAgEEotAEAAAAAAAAAAAAAAAAwCIU2AAAAAAAAAAAAAAAAAAah0AYAAAAAAAAAAAAAAADAIBTaAAAAAAAAAAAAAAAAABiEQhsAAAAAAAAAAAAAAAAAg1BoAwAAAAAAAAAAAAAAAGAQCm0AAAAAAAAAAAAAAAAADEKhDQAAAAAAAAAAAAAAAIBBKLQBAAAAAAAAAAAAAAAAMAiFNgAAAAAAAAAAAAAAAAAGodAGAAAAAAAAAAAAAAAAwCAU2gAAAAAAAAAAAAAAAAAYhEIbAAAAAAAAAAAAAAAAAINQaAMAAAAAAAAAAAAAAABgEAptAAAAAAAAAAAAAAAAAAxCoQ0AAAAAAAAAAAAAAACAQSi0AQAAAAAAAAAAAAAAADAIhTYAAAAAAAAAAAAAAAAABqHQBgAAAAAAAAAAAAAAAMAgFNoAAAAAAAAAAAAAAAAAGIRCGwAAAAAAAAAAAAAAAACDUGgDAAAAAAAAAAAAAAAAYBAKbQAAAAAAAAAAAAAAAAAMQqENAAAAAAAAAAAAAAAAgEEotAEAAAAAAAAAAAAAAAAwCIU2AAAAAAAAAAAAAAAAAAah0AYAAAAAAAAAAAAAAADAIBTaAAAAAAAAAAAAAAAAABiEQhsAAAAAAAAAAAAAAAAAg1BoAwAAAAAAAAAAAAAAAGAQCm0AAAAAAAAAAAAAAAAADEKhDQAAAAAAAAAAAAAAAIBBKLQBAAAAAAAAAAAAAAAAMAiFNgAAAAAAAAAAAAAAAAAGodAGAAAAAAAAAAAAAAAAwCAU2gAAAAAAAAAAAAAAAAAYhEIbAAAAAAAAAAAAAAAAAINQaAMAAAAAAAAAAAAAAABgEAptAAAAAAAAAAAAAAAAAAxCoQ0AAAAAAAAAAAAAAACAQSi0AQAAAAAAAAAAAAAAADAIhTYAAAAAAAAAAAAAAAAABqHQBgAAAAAAAAAAAAAAAMAgFNoAAAAAAAAAAAAAAAAAGIRCGwAAAAAAAAAAAAAAAACDUGgDAAAAAAAAAAAAAAAAYBAKbQAAAAAAAAAAAAAAAAAMQqENAAAAAAAAAAAAAAAAgEEotAEAAAAAAAAAAAAAAAAwCIU2AAAAAAAAAAAAAAAAAAah0AYAAAAAAAAAAAAAAADAIBTaAAAAAAAAAAAAAAAAABiEQhsAAAAAAAAAAAAAAAAAg1BoAwAAAAAAAAAAAAAAAGAQCm0AAAAAAAAAAAAAAAAADEKhDQAAAAAAAAAAAAAAAIBBKLQBAAAAAAAAAAAAAAAAMAiFNgAAAAAAAAAAAAAAAAAGodAGAAAAAAAAAAAAAAAAwCAU2gAAAAAAAAAAAAAAAAAYhEIbAAAAAAAAAAAAAAAAAINQaAMAAAAAAAAAAAAAAABgEAptAAAAAAAAAAAAAAAAAAxCoQ0AAAAAAAAAAAAAAACAQSi0AQAAAAAAAAAAAAAAADAIhTYAAAAAAAAAAAAAAAAABqHQBgAAAAAAAAAAAAAAAMAgFNoAAAAAAAAAAAAAAAAAGIRCGwAAAAAAAAAAAAAAAACDUGgDAAAAAAAAAAAAAAAAYBAKbQAAAAAAAAAAAAAAAAAMQqENAAAAAAAAAAAAAAAAgEEotAEAAAAAAAAAAAAAAAAwCIU2AAAAAAAAAAAAAAAAAAah0AYAAAAAAAAAAAAAAADAIBTaAAAAAAAAAAAAAAAAABiEQhsAAAAAAAAAAAAAAAAAg1BoAwAAAAAAAAAAAAAAAGAQCm0AAAAAAAAAAAAAAAAADEKhDQAAAAAAAAAAAAAAAIBBKLQBAAAAAAAAAAAAAAAAMAiFNgAAAAAAAAAAAAAAAAAGodAGAAAAAAAAAAAAAAAAwCAU2gAAAAAAAAAAAAAAAAAYhEIbAAAAAAAAAAAAAAAAAINQaAMAAAAAAAAAAAAAAABgEAptAAAAAAAAAAAAAAAAAAxCoQ0AAAAAAAAAAAAAAACAQSi0AQAAAAAAAAAAAAAAADAIhTYAAAAAAAAAAAAAAAAABqHQBgAAAAAAAAAAAAAAAMAgFNoAAAAAAAAAAAAAAAAAGIRCGwAAAAAAAAAAAAAAAACDUGgDAAAAAAAAAAAAAAAAYBAKbQAAAAAAAAAAAAAAAAAMQqENAAAAAAAAAAAAAAAAgEEotAEAAAAAAAAAAAAAAAAwCIU2AAAAAAAAAAAAAAAAAAah0AYAAAAAAAAAAAAAAADAIBTaAAAAAAAAAAAAAAAAABiEQhsAAAAAAAAAAAAAAAAAg1BoAwAAAAAAAAAAAAAAAGAQCm0AAAAAAAAAAAAAAAAADEKhDQAAAAAAAAAAAAAAAIBBKLQBAAAAAAAAAAAAAAAAMAiFNgAAAAAAAAAAAAAAAAAGodAGAAAAAAAAAAAAAAAAwCAU2gAAAAAAAAAAAAAAAAAYhEIbAAAAAAAAAAAAAAAAAINQaAMAAAAAAAAAAAAAAABgEAptAAAAAAAAAAAAAAAAAAxCoQ0AAAAAAAAAAAAAAACAQSi0AQAAAAAAAAAAAAAAADAIhTYAAAAAAAAAAAAAAAAABqHQBgAAAAAAAAAAAAAAAMAgFNoAAAAAAAAAAAAAAAAAGIRCGwAAAAAAAAAAAAAAAACDUGgDAAAAAAAAAAAAAAAAYBAKbQAAAAAAAAAAAAAAAAAMQqENAAAAAAAAAAAAAAAAgEEotAEAAAAAAAAAAAAAAAAwCIU2AAAAAAAAAAAAAAAAAAah0AYAAAAAAAAAAAAAAADAIBTaAAAAAAAAAAAAAAAAABiEQhsAAAAAAAAAAAAAAAAAg1BoAwAAAAAAAAAAAAAAAGAQCm0AAAAAAAAAAAAAAAAADEKhDQAAAAAAAAAAAAAAAIBB/Gd1AACAmdgmWR+u7eF7z//8+N/nPf28D0nu/vS9d0k+Hv589+z/P/8+AAAAAAAAAAAAAECZv/3rX/+qzgAAMAWbw9Uc/vvx68XwUX7YfbpyW5K06Upu7559BQAAAAAAAAAAAAA4KoU2AIBPbfJUXNse/tzXVLWxe5+u3Namm+72LopuAAAAAAAAAAAAAECPFNoAgCVb56m49vj1pDDPWL3PU7mtjZIbAAAAAAAAAAAAAPCDFNoAgCXZpCuuPV5ndVEm722eym1tusluAAAAAAAAAAAAAABfpdAGAMzZOsllFNiG8D7JbbpyW1uahD5t072OgPn7GBM4HzXVAaBYWx1gAdbp7rNgKdxnLNB+t/J5cto+nt48eN3yw/a71Sbd4WJMyOnNQ1ud4Xvsdyv31TM1tX+LMHZ+X86D340AAADM0X9WBwAA6Nk2XYntMsl5cZYlOT9cr5Lcp9sI/Vhwu6sKxU97neSiOgQwiLdR5Hr0e3UAKPZ/otR2bNv4XcOyfcjT58T22VfFt3nxeXLafD7gZ12le07ItPytOsB3cl89X1P7twhj5/flPPjdCAAAwOwotAEAc/A4he0yprCNwUmSF4cr6aa3vUlXcLuriQQAAMBInOXps/tj4el56eFDumLb8+tuqHAAAAAAAAAAHJ9CGwAwVU26k34v0xWoGK/zJP99uJTbABizTXUAGIFNdQBg8R4Lby+efe+x5NYeLpPcAACA7HerbZL1EX/E3enNw90R/35YjP1u1VRnoF+nNw9tdQYAAGDaFNoAgCnZJHkZk9im7Hm57W2eym0fCzMBwKNNdQAYgU11AIDP+HPJ7UO6Ytvt4avPlAAAsAD73Wqdbp2wOVzHXi/8e5LrI/8MmL1Dme336hz06p/pnskAAAD8MIU2AGDsHhemXqYrQzEfF4frdbpNiK/jlH0AgGrHPNUcoC9nSX45XEm3ieo2DkwBAIDZORRhmnTrhdYKYZqa6gD0rq0OAAAATJ9CGwAwVts8TWM7Kc7CcZ3kaSPi49S2N4V5AFguRR7o7sMBpubF4fotXbntTbpyGwAAMDH73WqTpwJbE+uEMAdNdQB611YHAAAApk+hDQAYm6uYxrZkj1PbrtNtQHwdp+sDMBxFHgCYvsdy232ePlfeFeYBAAC+Yb9bPZbXLtNNZAbm5aI6AL26P715eFcdAgAAmD6FNgBgDNbpSmxXsUhF5yzJq3T/Ll6n24R4V5gHAGApbC4B5uIkya+H65/pPlu2lYEAAIDOfrfapiuwNekOpABmar9bNdUZ6F1bHQAAAJgHhTYAoNImT0W2k9IkjNVJumLbqyT/SDe57a4wDwAAANPzOLXtbbrPlW1lGAAAWJr9brXO0wS2Jg64hCVpqgPQu7Y6AAAAMA8KbQBAhU26DWS/1MZgYn45XH9Pd7L+x9o4AMzQtjoAjMQ2ybvqEABHcJHk9yi2AQDA0R2msF0ervPiOECdpjoAvbutDgAAAMyDQhsAMKRNFNn4ea/STfZ7HcU2APq1rg4AI+G1AMydYhsAAPRsv1tt8ukUtpPCOMB4XFQHoFcfTm8e7qpDAAAA86DQBgAMYZ2ugPQyFq/ox0m6YttVus2HbwqzAADMzaY6AMBAHott/0j3zMKBKQAA8B32u1WTpwKbKWzAJw6/I5iXtjoAAAAwHwptAMCxXUeRjeM5S/JbumLbyyTvStMAMHWb6gAwEpvqAAAD+yXdJtzrdJPAAQCAzzhMYXsssL0oDQNMQVMdgN611QEAAID5UGgDAI7lMt0msLPqICzCRZL/l+R/0m1AdKo+AD/CfQt01tUBAAqcJPnvdAemXMWBKQAAFT5UB+BT+91qna6Q8lhi8/wM+B5NdQB611YHAAAA5kOhDQDo2ybJm3QFIxjar+kWVV8muS3OAgAwVdvqAACFztMdmPL3dAemAABwPO/TbYxvk7w7vXm4qwxDZ79bbfNUYLPeB/wMv0Pm5YP3agAAoE8KbQBAX9bpSkSvqoOweGdJ/jfJP9Odqm9aGwB/hYlUAMBzr9Jt4L1KclcZBABgJu5zKK4laU9vHtrSNPzhMIXtscB2mW56McBP2e9WTXUGetdWBwAAAOZFoQ0A6EOTbirbWW0M+MSLdJsOL+PhOgDfZiIVPHFyMkDnIt2G66uYAg4A8L3e51BeSzd97V1tHJ47FE0eS2znpWGAuWqqA9A7z0YAAIBeKbQBAD9jna7I9qI4B3zJSZLfk/xPkuuY1gYAAMD3OUk3Bfx/0k2mBwDg897m0wlsnsePyH632uSpwNbEFDbg+JrqAPSurQ4AAADMi0IbAPCjLtOV2Sx4MQW/pls0uUq3mA4AwNdt0k27BaDza7qJrpdxWAoAwIc8TV9rTV8bn/1utc5Tee0yyVllHmCRLqoD0Kv3yuoAAEDfFNoAgO+1TvI6yS/VQeA7nadbXH+ZrowJAM811QFgZDZRaAP4s4t0G7cv47AUAGBZ3uapwPbu9ObhrjQNn7XfrbZ5KrApkgBl9rtVU52B3rXVAQAAgPlRaAMAvsc2yW2c4sh0nST5Ld2/5ZfFWQAAxmxdHQBgpM7SbeK6jM1cAMA83edQXEs3fa0tTcMXHaawXeZpEpv1O2AsmuoA9K6tDgAAAMyPQhsA8FddJ3lVHQJ68mu6Uttlko/FWQAAxujxMAsA/t1Jkt+T/FdMAAcApu99nqavtaavjdth6lGTbn3jvDQMwJc11QHoXVsdAAAAmB+FNgDgW9bpNrJeVAeBnl2kW6S/PHwFYNk21QEAgMn57fD1TWUIAIDv9DaH8lqSd6c3Dw59G7H9brXJU4GtSXe4AsDY2VswL2/dLwAAAMeg0AYAfM3jVIaz6iBwJGfpFu0v41Q5gKXbVAeAkWmqAwBMhFIbADBmH3IorqWbvuZwtwnY71aP5bXLWKMDJuYwSZJ5aasDAAAA86TQBgB8yVWeNmXBnJ0k+T3Jf8UGRAAAAL6fUhsAMBZvcyivpZu+dleahr9kv1tt0xXYmiQvSsMA/LymOgC9a6sDAAAA86TQBgB8zpskv1SHgIHZgAiwbOvqADAy2+oAABPjMyUAMLT7fDp9rS1Nw1+2363WeZrA1sQUNmBemuoA9Ms9BgAAcCwKbQDAc+skt0kuqoNAkd/SLbJc1cYAoMB5dQAYmZPqAAATpNQGABzT+zxNX2tNX5uWwxS2y8PlORQwZ/YazMvb6gAAAMB8KbQBAI/W6RZBLaKxdI/TCa8qQwAAjMAmyV1xBoCpUWoDAPryNofyWpJ3pzcPH0vT8EMORbY2Do4BFmC/WzXVGehdWx0AAACYL4U2ACBJLKbBp5TaAAAU2gB+1G/ppqe8qw4CAEzGhxyKa+mmr7mPmI91rL8By9FUB6B3t9UBAACA+VJoAwCU2eDzlNoAlqOpDgAjta4OADBhbbp7DJvRAYDPeZtDeS1dgc30NQDmoKkOQK/ulewBAIBjUmgDgGW7SvI6ymzwJUptAMCSbeMEXoAfdZLkTbrNfDaoA8Cy3edQXEvy7vTmoa0MAwBHdFEdgF611QEAAIB5U2gDgOW6SvJbdQiYgF/SbT58WR0EAACASTlPVwxuinMAAMN6n0N5Ld30tbvSNAAwgP1u1VRnoHdtdQAAAGDeFNoAYJmuoswG3+PXdJsP3hTnAOA4NtUBYKSa6gAAM3CR5PpwAQDzc59DcS1PE9hMZwVgiZrqAPSurQ4AAADMm0IbACzPVZTZ4Ec8vm7eVIYA4Cg21QEAgFl7lW6j+211EADgp33Ip9PX3tXGAYDRaKoD0Kt79zkAAMCxKbQBwLJcRZkNfsZv6TYqeHgPACzBpjoAwIy8SbJNclcbAwD4Tm/zbAKb6WsA8EUX1QHolUN5AACAo1NoA4DluIwyG/ShTXfCoFIbwHysqwPASJ1VBwCYkZN0pbamNgYA8BX3ORTXkrw7vXloK8MAwFTsd6umOgO9a6sDAAAA86fQBgDLsE23aQr4ec83ITqNF2AettUBYMTWcc8D0JeLJNeHCwCo9z6H8lq66Wt3pWkAYLqa6gD0rq0OAAAAzJ9CGwDM3zbdw8aT4hwwJ+fpSm2XxTkAAI7t8fMEAP14leQ2pn4DwNDucyiu5WkCm8M7AKAfTXUAevVB0R8AABiCQhsAzNs6ymxwLC/iZH0AAAC+35uYEAsAx/Yhn5bXlMkB4HguqgPQq7Y6AAAAsAwKbQAwX8pscHyv0p3qe1sdBICfYrEdvqyJDQwAfTuPA1IAoG9vcyivJWlNXwOAYex3q6Y6A71rqwMAAADLoNAGAPP1Jt0GKeC43qQ7Wf+uNgYAAAAT8ird4SimxQDAj7lL8n/TTV9ra6NwbPvdapvuwJWPpzcPb2rTAPAnTXUAetdWBwAAAJZBoQ0A5ul1khfVIWAhTtJtQtxWBwEAOAL3OADH8zo2/gHADzm9ebhL917KTB1KbFdJLpOcHb79j3SHzAEwHk11AHr1/nCfBQAAcHQKbQAwP1dJfq0OAQtznuT6cAEwLco68HXr6gAAM3aR5GVsxgcASPLFEttznuMAjM9FdQB61VYHAAAAlkOhDQDmZRuboKDKq3QP+NvaGAB8J2Ud+LpNdQCAmbtON2XkY20MAIAa+93qMt10ny+V2J47P3ogAP6y/W7VVGegd211AAAAYDkU2gBgPtbpNkCdFOeAJXuTrlhqIyIAMBff2kwIwM85SVdqe1mcAwBgMIcS2+P1Xeta+92qOb15aI+RC4DvZnLm/LTVAQAAgOVQaAOA+XgdJ1NCtbPYiAgwNSa0wbeto7APcEy/pnuuc1ecAwDgaH6mxPYn29hsDzAWTXUAevX+9ObBc2AAAGAwCm0AMA9XSX6pDgEk6TYi3saCOsBUOEEWvs1mQYDjexMbAQGAGdnvVut05bUmP19ie86zHIDxaKoD0Ku2OgAAALAsCm0AMH2bdKd4A+PxJt2iuhPsAAAA+Csu0m0EbGtjAAD8uGcltsskL470Y5oj/b0AfIf9brVNf2VlxuG2OgAAALAsCm0AMH238aAYxuYsyXWSl8U5AAD6YEIbwDCuY4M2ADAxA5XYnjvb71br05sHB8oB1GqqA9Cv05uHtjoDAACwLAptADBt10nOq0MAn/Vruklt74pzAPB1TXUAmIB1dQCAhTClDQCYhP1utclTie2iIIKDVwDqNdUB6NXb6gAAAMDyKLQBwHRtk7yqDgF81Zt0r1UAgCnbVAcAWJDr2BQIAIzQsxLbVeoPW2yi0AZQrakOQK/a6gAAAMDyKLQBwHS9qQ4AfNN5kpdJXlcHAQD4CZvqAAALYkobADAaIyuxPecgOYBC+91qm+SkOge9aqsDAAAAy6PQBgDT9DLjWjgEvuw6XQH1Y20MAL7ABij4tnV1AICFuY6T7gGAIoeSwlW6IttZbZov8jwHoFZTHYBe3Z/ePLTVIQAAgOVRaAOA6dmk29gETMNJutfsy+IcAHyeU2Th2xymATAsU9oAOLa3Sd49Xqc3D++K81BsIiW25872u9X69ObBQXIANZrqAPSqrQ4AAAAsk0IbAEzP69h4DVPza7rX7l1xDgAAAKbhOjYIAtAP5TU+a79bNekKbFMpsf3ZNjbgA1RpqgPQq7Y6AAAAsEwKbQAwLU2SF9UhgB/yOt3GAADGY10dACakiY0NAEO6SLKJg1EA+D7Ka3zVfrd6LLBdZvqHJzbxORVgcIepnlN/D+FTbXUAAABgmRTaAGBaXlcHAH7Yi1hgBxibbXUAAICvuE5yVZwBgPF6n0/La21tHMZqZiW25zzXAajRVAegV/cOQQAAAKootAHAdFwlOa8OAfyU61jkAQCmaRvFfIChXaabKPuxOggA5e7T3Y+/e/x6evPg/YHP2u9W63T3EU3mV2J7rqkOALBQTXUAetVWBwAAAJZLoQ0ApmGdrggDTNtFTGkDAKZpXR0AYIFO0h1w9Lo4BwDDe5un6Wvt6c3DXW0cxu5Zie0yyYviOEM52e9WG68PgME11QHoVVsdAAAAWC6FNgCYhpdJzqpDAL24joUegLFoqgPAhGyqAwAs1MsotAHM3eP0tTbd5LW2MgzTsdAS259tk9xVhwBYiv1utc18J38u1W11AAAAYLkU2gBg/NbpNi8B82BKGwAwRZvqAAALdRafIQHm5n0O5bWYvsZ32u9Wm3QFtibLLbE9t42N+ABDaqoD0KsP7kUBAIBKCm0AMH4v45QzmJvrWPABAKZlXR0AYMGuotAGMGVv8+kEto+laZicZyW2qyTnpWHGp6kOALAwTXUAetVWBwAAAJZNoQ0Axs10NpgnU9oAxmFbHQAmxKZJgDq/pHs+pAABMH73eSqvtac3D+9K0zBZSmx/mWc7AMNqqgPQq7Y6AAAAsGwKbQAwbqazwXxdx6IPQDUTpwCAqbhM8qY6BAD/5kM+nb6mwMYP2+9W23QFtiZKbH/VyX632pzePNxVBwGYu8P7lL0L89JWBwAAAJZNoQ0Axst0Npi3i3Snx9rkAgBMhXsXgDovo9AGMAbPC2ytEg0/61mJ7TLJWW2aydomuasOAbAATXUAevXBvSwAAFBNoQ0AxusyTjiDuXuZbrMCADU21QFgYkw1BKhznu7e5a42BsDiKLDROyW23jVJbqtDACxAUx2AXnnvBAAAyim0AcB4XVcHAI7ul3Sv9bvaGACLZdMYfJ9NdQCAhbtM8ro6BMDMKbBxFPvd6jLde7nDDPu3rQ4AsBBNdQB61VYHAAAAUGgDgHFyKicsx1UUWAGAadhUBwBYuKsotAH07T5PBbZbBTb6pMQ2mIvqAABzd5gu6r1sXtrqAAAAAAptADBOL6sDAIN5GYU2AGAa1tUBABbuPF25+K42BsDkvU1ym24C27vqMMzHfrdap5teo8Q2sP1utfV6BjiqpjoAvXp/evPwsToEAACAQhsAjM8mTpOEJTlJd8r+m9oYAIvTVAeACdpWBwAglzGlDeB7vc9hCtvpzcNtcRZm5lBieyywvSiOs2TbJAptAMfTVAegV211AAAAgEShDQDGyHQ2WJ6rKLQBAADwbVdRaAP4lvscJrClK7HdlaZhdpTYRskBLADH1VQHoFdtdQAAAIBEoQ0AxuiqOgAwuIt00xnvamMAAHyVSdIA9c7j8yPA57xPV2K7Pb15MKWJ3u13q026AlsTJbYxUmgDOJL9brVNclKdg1611QEAAAAShTYAGJvLeBgMS/UyJjQCDMlGJwBgqpqY8g1wn24j7mOJ7WNtHOboWYntKl2pnPFyAAvA8TTVAejVW/fOAADAWCi0AcC4XFUHAMpcRaENYEjr6gAwUdskJl4A1LqMQhuwTB/yVGBri7MwU0ps07XfrbYmNAIcRVMdgF611QEAAAAeKbQBwHisk7yoDgGUOUm3UeK2OggAwFcogwLUa6oDAAzofboS7+3pzcNdbRTmar9bbdM9m72MEtuUOYAF4Dia6gD0qq0OAAAA8EihDQDG47I6AFDuKgptAEPZVAeAidpUBwAgJ+k2FLa1MQCO5p95msT2sToM83QosV2lW5s5q01DT5qYYgvQq8P75Ul1Dvpj0jEAADAmCm0AMB4KbcCLdFNPbNQBOL5NdQCYqE11AACSdBEg5EwAACAASURBVM+R2uoQAD1SYuPolNhmb1sdAGCGmuoA9OptdQAAAIDnFNoAYBzW6YosAJdxiiwAAABf11QHAPhJ93kqsN1Wh2G+9rvVZbpnrk2U2ObuvDoAwAw11QHolftuAABgVBTaAGAcTGcDHr2MQhsAMF5NdQAAknQbtk34BqbIJDaO7lmJ7TLJSXEcBrTfrZrTm4e2OgfAjDTVAehVWx0AAADgOYU2ABgHhTbg0XmSTZK72hgAs3dRHQAA4Cc1cbo6MA1KbBydEhsH29isD9CL/W61jffUObk/vXl4Vx0CAADgOYU2ABiHpjoAMCqXSV5XhwAA+IxtdQAA/tBEoQ0Yr/dJ3qQrsd3VRmGO9rvVOk8FthfFcRgPn1kB+tNUB6BXbXUAAACAP1NoA4B6TZxsBnzqKgptAMA4+ewCMB42bANj9fr05uG6OgSzt03yW3UIRsf9EUB/muoA9KqtDgAAAPBn/1EdAADwIBj4N+dJNtUhAGbM5ib4OZvqAAAkSS6qAwB8zunNw8fqDMBinVcHAJiRpjoAvWqrAwAAAPyZQhsA1LusDgCMUlMdAGDG1tUBYOI21QEA+ENTHQAAYEz2u1VTnQFg6va71TbJSXUOenN/evPwrjoEAADAnym0AUCtdZwWCXyesisAMFZKoQDj0VQHAAAYmaY6AMAMNNUB6NVtdQAAAIDPUWgDgFpNdQBgtF7EZnGAY9lUB4CJ21YHAOAPficDAHzK/RHAz2uqA9CrtjoAAADA5yi0AUAti2rA1zTVAQBmalMdAACgJ54tAQB8yv0RwM9rqgPQq7Y6AAAAwOcotAFAraY6ADBql9UBAAA+o6kOAMAfzmK6NwDAc2f73cr9EcAP2u9W2yQn1TnozYfTm4e76hAAAACfo9AGALUuqgMAo9ZUBwAAAGD0TCEBAPiU+yOAH9dUB6BXbXUAAACAL1FoA4A6FtOAbzmL3xUAx9BUB4CJc38CMC5NdQAAgJFpqgMATFhTHYBetdUBAAAAvkShDQDq2AQK/BVNdQAAgD85qQ4AwCc8YwIA+JT7I4Af11QHoFe31QEAAAC+RKENAOpYTAP+iqY6AADAZ2yqAwDwh011AACAkbEGB/AD9rvVNg6zmpP3pzcPH6tDAAAAfIlCGwDUsZgG/BVNdQCAGXIfNk731QH4LpvqAAD84bw6AADAyJztd6t1dQiACWqqA9CrtjoAAADA1yi0AUCdi+oAwCScxOIRQN+cMDtOTZK/V4cAgIlS2AcA+FRTHQD+P3t3dxTHtbaP+y6Xz+YA3iIAxhGAI1A7AvNGIByB5QTGmAQsRyAUwcYR7FEERhH8hgCm/nDA+f9goddf+uCjZ57unuuqouQtGbjLW8x0r173emCEuuoA9GpZHQAAAOBzFNoAoMa8OgAwKl11AADYsPdJrpK8rg7Cg3XVAQD4m3l1AADGZ72YHa8Xs4v1YnZTnQU2QOEf4PG66gD0alkdAAAA4HO+rg4AADtqXh0AGJWuOgDAhMyrA/BRF/e/3iT5Pcn3dVEAYJSOk1xWhwBg+NaL2TzJ6f3HYWUW2LCuOgDAmKwXs+Mke9U56M37g/M7hxYAAACDptAGADWcCgk8htcMgP7MqwPwUVd/+efLKLSNgesTgGGZVwcAYLjWi9l+kpMkr5IcFceBbXHfCvA4XXUAeuXQGwAAYPC+qg4AADtqvzoAMCp78fAdgGlbfuKfGS73NADDMq8OAMDwrBezk/Vidpnk/0vyJsps7Ja9+4mEADxMVx2AXi2rAwAAAHyJCW0AUKOrDgCMTpe/T68B4GmUcIbn/T/+9yrJbVqhm+GaVwcA4G8cggJAkmS9mB0nOb3/cF/FrjtOW2cA4Mu66gD05+D8blmdAQAA4EsU2gAAYBy6JK+rQwBMgM3ew7P6yO9dJXmx5Rw8zmF1AAD+RmEBYIfdT6E6SfIqrtXhr46TXFaHABi6+0K8+8rpeFcdAAAA4CEU2gCghs25fMr7JEfVIRgkBQwApupjE0iXcc08BvtJbqpDAPB/jmOyN8DOWC9m+2klttO4f4JP6aoDAIxEVx2AXi2rAwAAADyEQhsAwHbdpi0gX93/usrHp5J8ML//6NI2ph3HCbu76jA2jQMwTR/beG8z/jgcx+YIgCHZrw4AwOatF7OTtCLby+osMAIOigN4mK46AL1aVgcAAAB4CIU2ANg+D892z22SyyQXefzi8er+46+fd5z2UOE0prntmi7t7xIAT+dabHg+VtZebTsEAEzAvDoAAJuxXsyO09aDT5PslYaBcdlbL2bHB+d3Ds4B+LyuOgC9uT04v1tWhwAAAHgIhTYA2D6nZe+O2ySv7z/6nKp1df/xOm1T/qu0E3ltZJi+4yi0ATyXa7HhWX7k92w0G4cuTvsFGJJ5dQAA+rNezOZp676vkhzWpoFRO451BoBPui/Oe848HcvqAAAAAA+l0AYAsBm/pP8i28dcpZ3Ku5+2seHnDX8/anXVAQBgi97HNFoAAGCHrBez/bQS22mSF7VpYDKOqwMADFxXHYBeLasDAAAAPJRCGwBsX1cdgI16n7bZYNunfd4kOUtykVak+37L35/t8OAd4Pnm1QH4m/ef+bNVFNqGzrUJu+467bVqKPbjdXPXddUBAHia9WJ2klZke1mdBSbIvSvA53XVAejVsjoAAADAQym0AQD05/e0Mtump7J9zipt48NJWrltrzAL/dtL26Ra+XcMYOwOqwPwN597T7uKkv7Q7VcHgGIXaQeLDM08bTPaSbyOAsBgrRez47T15NNYx4VNMu0Q4PO66gD05vbg/G7bB+8CAAA82VfVAQAAJuJt2mbBoRSNLtMePnxu6gnj5DRZAKZk9cQ/Yxjm1QGAj1qlle1OknyTdvgKu0HRGGDg1ovZfL2YvVovZqskfyT5McpssHH3BVIA/uH+9dG1yHQsqwMAAAA8hgltALB9NhdNz4fJbENzlVZqWyY5Kk1Cn7p4GAHwVK7Dhmf1xD9jGEw8hOFbxRTvXeLeH2CA1ovZftp78WlMioIqx2nPTAD4u646AL26rA4AAADwGAptALB9ToGclvcZZpntg5sotU3NvDoAwIi5DhsXG80A+vNhivcySm0AsBXrxexDqfxldRbAmhDAJ3TVAejVsjoAAADAYyi0AQA8z2laaWzIlNqmZZsP3hUJWoHQ9Jnpep/hv4Zvi593qiw/82d+Psehi40SMBZXaZvq/1sdBACmar2YHaetGZ9GiRyGpKsOADBQXXUAenN9cH63qg4BAADwGAptAABP90vGUwC4SdtE8UdxDp5vm6XEV1v8XkN1luTn6hBszKsoYcDQvUvyojoEwIQs0+5lXeNO1zzJqjgDwE5ZL2bztNL4qzgYCYbKYX8A/3B/DaOAPx3L6gAAAACP9VV1AACAkbpN8ro6xCNdpW1cZPy2OaUNYEq8fg7PqjoAz+bnCsbnLMl1dQg2Zl4dAGAXrBez/fVidrpezC6T/L8kv0aZDQZtvZh11RkABqarDkCvltUBAAAAHkuhDQDgaV6nTT0bm7PYuDgF+9UBAEbK6+fwrL7w58stZOB5/FzBOJ1WBwCAMVovZifrxewi7V7mTZLvSwMBj+FAFoC/66oD0KtldQAAAIDH+ro6AADACI1xOttfnaVttmC8ungoAQAMw7w6APAkyyTvkxwV5wCAwVsvZsdpZfCTmMIGY6bQBvB3XXUAenN9cH63qg4BAADwWAptAACPd5lxTmf74CKtkLdXnIOnm1cHABipeXUA/uYhU2OXSX7ecA6eZ14dAHiy13HYCQB81Hoxm6cV2E6jAA5TodAGcO/+WkdRfzouqwMAAAA8hUIbAMDjTWFB+CLJj9UheLJ5dQCAkZpXB+BvVtUB6MV+dQDgyS7jsBMA+D/rxWw/rcR2kuT74jhA/5RTAf7UVQegV8vqAAAAAE/xVXUAAIARmkKhbVkdgGdxkiwAu2JZHYAvsiEQxusmXmcBIOvF7GS9mF2kHbrxJspsMFnrxayrzgAwEF11AHq1rA4AAADwFCa0AQA8zrvqAD1ZVgfgWUxQAHgak6SG5aY6AAC5jE37AOyg9WJ2nOQ0bRrbYW0aYIuO4/kIQKLQNiXvD87vrLUDAACjpNAGAPA4V9UBenKT5DaKUWPWxYN3gMcySWpYHnpd9S7Ji00G4dm6uC6BsVpWBwCAbVkvZvO0Attp3B/CrjquDgBQ7f6aSKF/OpbVAQAAAJ5KoQ0A4HFW1QF6dBWbw8fMlCEAAOC5VkmuYyMbABO1Xsz200psJzGVFDCRCCDxWjg1y+oAAAAAT/VVdQAAgJGZyoQ2xs9JsgDsCtdfw+e6BMZtWR0AAPq2XsxO1ovZRVp5+02U2YDm8L7oCrDLuuoA9Ofg/O6yOgMAAMBTmdAGAADj5KE7wON01QH4l4cW1W42moI+uC6BcVtVBwCAPqwXs+Mkp2nT2EwfBT7lOA51AHZbVx2A3ryrDgAAAPAcCm0AAI+zqg4A90xCAWDsHlpUU2gbPoU2GLdlkp+rQwDAU6wXs3lage00yVFpGGAsuii0ATvq/tpJ8X86ltUBAAAAnkOhDQDgcVbVAQAAdsxDJ7lRR9Eexm1VHQAAHmO9mO2nldhOknxfHAcYH/ewwC7rqgPQq2V1AAAAgOdQaAMAgHF6UR0AYGTm1QEAYKBW1QEA4CHWi1mXNontJMleaRhgzBTagF3WVQegPwfnd8vqDAAAAM+h0AYAAADsgnl1AP5l2fO/Rx1Fexi/6ySH1SEA4J/Wi9k8yau0Epv3KqAPh+vFbP/g/O6mOghAga46AL15Vx0AAADguRTaAAAe5zjJVXUIuNfFJn8AAOD5VlESAGAg1ovZftokttMkR6VhgKk6jrV1YMfcHxTg3n86LqsDAAAAPJdCGwBsnxMfx22/OgAA8CTew8fN5KDhc/ADAADPsl7MTtMmsX1fHAWYvi4KbcDu6aoD0KtldQAAAIDnUmgDgO27igfyQD/m1QEARuS4OgDPsopC29ApjcK4rZK8qA4BwO5ZL2Zd2iS2kyR7pWGAXdJVBwAo0FUHoDe3B+d3DhcDAABGT6ENAADGa14dAACe6F11AHo3rw4APMuqOgAAu2O9mM2TvEorsTm4Aqjg4CNgF3XVAejNsjoAAABAHxTaAAAep4sFYgCAbVvG5KChm1cHAABguNaL2X7aJLbTJEelYQCSvfViNj84v1tVBwHYhvsDBRwkMB3L6gAAAAB9UGgDAIDxcooswMMpQ8Fm7VcHAAB6cRubI+nRejE7TZvE9n1xFIB/Oo5JxcDu6KoD0KtldQAAAIA+KLQBADyOAhFDYuM4ALtiVR2AL3KdDADjdZvkMsnlwfndZXUYxm+9mB0neZVWZNsrjgPwKcdp738Au6CrDkBvrg/O766qQwAAAPRBoQ0A4HEUiAAAnu+xD9xXmwgBALDDrtM28S+V2NiAkyQvq0MAfEFXHQBgi7rqAPRmWR0AAACgLwptALB9q+oAPMuL6gDwF/4+AjzMvDoA/3JTHYDeuS4BgOH7UGK7cKI/AJg0DuyG9WI2T3JYnYPeLKsDAAAA9EWhDQC2b1UdgGc7zuOnigAAdebVAXg2114AAE+jxAYAH7e3XszmB+d3q+ogABvWVQegV8vqAAAAAH1RaAMAeDyFNgCA7TLRbRxcJwPAMCixAcDDHMdBlMD0ddUB6M21IjYAADAlCm0AAI93XB0A/mIeD9wBvmS/OgC9uE2yVx2Cz/KzBgB1lNgA4PG6tPdPgCnrqgPQm2V1AAAAgD4ptAEAPF5XHQD+Yh6FNoAvUUYfnuUTPucqyYuec9AvhTYA2C4lNgB4HmtGwKStF7N5ksPqHPRmWR0AAACgTwptALB9y+oAPNtR2mbdm+ogAAAwIMdxsj0AbJoSGwD0x8E5wNR11QHolbVXAABgUhTaAACe5iTJRXUIAIAdsoqNZgDAblJiA4ANWS9mx95fgQnrqgPQm/cH53cO3AUAACZFoQ0A4Gm6KLQxDMcx+RHgS7rqAPRiVR2AL+qqAwDAhCixAcB2HCfxXgtMVVcdgN4sqwMAAAD0TaENAGrcJtmrDsGznFQHgHv71QEAAACAXiixAcD2HVcHANiE9WI2T3JYnYPeLKsDAAAA9E2hDQBqXCV5UR2CZ9lLK7VdVgcBABih5RM+Z9VzBvpnEyAAPJ4SGwDUci8LTFVXHYBeLasDAAAA9E2hDQDg6RTaAGAc5tUB6MWqOgBfZAo1ADzMbdqa0mslNgAo5wBKYKq66gD05v3B+d1NdQgAAIC+KbQBADzdSZL9JBaPAWDYDqsDwA6ZR/kQAD7mQ4nt8uD8zgFJADAg68XsWMkcmKCuOgC9cQ8JAABMkkIbANRYxomPU7CXVmq7KM7BbuuqAwDAlthYNg7zKLQBwAdKbAAwDl2sOwATsl7M5nHQ25QsqwMAAABsgkIbAMDzvIpCGwAM2X51AHpjKu44+JkDgORtlNgAYEyOqwMA9KyrDkB/Ds7vltUZAAAANkGhDQBq2Iw7HUdpDwSWtTEAgE+wIWl4rqsDsFHHaZNoAGDX/J4/p7FZ+wOAcbF+BExNVx2A3ryrDgAAALApCm0AUOOqOgC9Oo1CGwDAQ62e8bnv0w4UAAAYAiU2AJgGaw3A1HTVAejNsjoAAADApii0AQA838skZ3ne5mwAAL7MRvHh66oDAMCGvU9ykeRCiQ0ApmO9mHUH53fL6hwAz7VezOZJDqtz0JvL6gAAAACbotAGADVMaJues7RJbQDAsHTVAQAAGL0PJbbLg/O7VW0UAGBDjmMKDjANXXUAenN7cH5nbwkAADBZCm0AUMPpzdNjShsAwOZdJXlRHYLPmlcHAICeXKedhP9aiQ0AdsJxdQCAnnTVAejNsjoAAADAJim0AUCd6ySH1SHo1VlMaWP7PGQHYJc4GGL43OMAMGa3+bPE5hR8ANgt1tqBqeiqA9CbZXUAAACATVJoA4A6q9jsOTUvk1zEwjLbtVcdAGDgbEYanlV1ADZuP8qHAIzL2ySXB+d3l9VBAIAyR9UBAJ5rvZjNYw/ClCyrAwAAAGzSV9UBAGCHraoDsBFn1QEAgL/Zrw7Av6yKPpftUSQFYAzeJ/khyf8cnN+dKrMBAOvFrKvOAPBMXXUAenNrcjgAADB1JrQBQJ1VdQA24kWS07RJbQAA9GtVHQAAGLXrtDWbi4Pzu1VtFABggLqYhgOMW1cdgN4sqwMAAABsmkIbANRZVQdgY14nuUxyUx0EADChDQp0seECgOG4TVunuTg4v1sWZwEAhs3EcWDsuuoA9MYUcQAAYPIU2gCgzqo6ABuzl+QsyaviHABAclQdgF6tqgMAAKPxPveHDh2c3zl0CAB4CIU2YLTWi9k8yWF1DnqzrA4AAACwaQptAFDnqjoAG/Vj2qlpy+IcAABTsqoOwIPYAAhAldskF0leH5zfrWqjAAAjdLhezPaV4YGR6qoD0Jtr97QAAMAuUGgDgDoehk3fRdpmXv9fAwCwS/arAwCwc35Pm8R2UR0EABi94zisEBinrjoAvVlWBwAAANgGhTYAqPUuyYvqEGzMYZKzJK+KcwDAruqqA/BRy2d+/m2SvR5ysDnz6gAA7ITrtMOELpxcDwD0qIsiATBOXXUAerOsDgAAALANCm0AUGsVhbap+zHJZSw6AwD05SquoYfusDoAAJP2e1qJ7bI6CAAwScfVAQAea72YzWNNbkqW1QEAAAC2QaENAGqtqgOwFRdpD0BvinP800UshgMAsBn7Gd71LwDjdZu2jvHaNDYAYMMU2oAx6qoD0Jv37nsBAIBdodAGALWWSX6uDsHGHaZtujopzvFPF9UBAGDDbECCOsdxeAIAz/cubRrbRXUQAGBnHK4Xs7kyATAyXXUAerOsDgAAALAtX1UHAIAdt6oOwNZ8n+RVdQgA2DH71QHYiGV1AABg494m+fbg/K5TZgMACjgkCRibrjoAvVlWBwAAANgWhTYAqLVKclsdgq35NR6CAgCwG7rqAACMznWSX5L8z8H53enB+d1VdSAAYGd5lgOMxnoxmyc5rM5Bb5bVAQAAALbl6+oAAECukryoDsHWLJPMk9zUxgCAnWBCGwDA8L1LcmESGwAwIF11AIBH6KoD0Jv3B+d39hEAAAA7Q6ENAOoptO2WvSSX8WABALbBadrD9NxpK6s+QrBx8+oAAAze27Qi27I6CADAP1hTAsakqw5Ab5bVAQAAALbpq+oAAMCzN/QyPi+SXFSHAAAo8twTZld9hGDj5tUBABik2yS/Jfnm4PzuVJkNABiovfViNq8OAfBAXXUAerOsDgAAALBNJrQBQD2Ftt30Mm1B+qI2BgAAbMR+dQAABuU6bQ3k9cH53XPL7QAA23Ach+oAA3dfvj2szkE/Ds7vLqszAAAAbJNCGwDUU2jbXW/SHoYua2MAwGS9qA4AO+yoOgAAg3Cd5Ozg/O6iOggAwCMdJ1EsAIauqw5Ab95VBwAAANg2hTYAGIZ3seF6V12mPWhQbAQAeJhldQAA4ItWSS4U2QCAEeuqAwA8QFcdgN4sqwMAAABsm0IbAAzDMgptu2ovrdR2nOSmOAsAAPSpi40YADvp4PzutDoDAMAzeW4HjEFXHYDeLKsDAAAAbNtX1QEAgCSmc+26w7QF6v3iHAAwJcfVAQAAAAAYr/ViZn0JGKz1YjZPe87MBByc3y2rMwAAAGybQhsADMOyOgDljtImtQEA/VAUn7br6gA8iI1/AAAAjJn7WmDIuuoA9Ob36gAAAAAVFNoAYBhukryvDkG5F0kuqkMAAGxQX9e8q56+DpulWAoAAMCYKbQBQ9ZVB6A3y+oAAAAAFRTaAGA4ltUBGISXUWoDgD7MqwPwUTfVAdiqeXUAAAAAeAaFNmDIvEZNx7I6AAAAQAWFNgAYjmV1AAbjZZLX1SEAYOTm1QEAP4cAAACM2ovqAAAfs17M9pMcVeegF7cH53dX1SEAAAAqKLQBwHAsqwMwKD8mOa0OAQAwUB7wj8N+dQAAAAB4jvViZgISMERddQB6s6wOAAAAUEWhDQCG4ybJ++oQDMqbKLUBAHzMTXUAHsQp0QAAAIydQhswRF11AHqzrA4AAABQRaENAIZlWR2AwVFqA4Cn6aoDAAAAADB6Cm3AEHXVAejNsjoAAABAla+rAwAAf3OZ5MfqEAzOm/tfLypDAMDIvEqyXx2Cf+lrstpFdvNB/0nGd79wnOSqOgQAAAA8UVcdAOCv1ovZfpKj6hz04vrg/M7aKQAAsLMU2gBgWJZJbpPsFedgeJTaAOBxPASettX9x65Zph2CcZnx3DMolgIAADBmSiPA0HTVAejNsjoAAABApa+qAwAA/7KsDsBgvUlyWh0CAIBSyyTzJO9qYzzYvDoAAAAAPMd6MeuqMwD8RVcdgN4sqwMAAABUUmgDgOG5rA7AoCm1AQBwk7Zx5afiHA8xrw4AAAAAz3RcHQDgL7rqAPRmWR0AAACgkkIbAAyPQhtfotQGAECSvE7ybZLr6iCfsV8dAAAAAJ5JoQ0YhPVitp/kqDoHvbg+OL9bVYcAAACopNAGAMNzk+R9dQgGT6kNAIAkuUrbWPd7dZBPsOkPAACAsXNvCwxFVx2A3iyrAwAAAFRTaAOAYbqoDsAoKLUBAJC0QzFOkvyQ5LY4CwAAAEyNaUjAUHTVAejNZXUAAACAagptADBMFi95KKU2AAA+uEjb1DKkic8vqgMAAADAc60Xs646A0AU2qZkWR0AAACgmkIbAAzTKsPahMqwKbUBAPDBVdrGlt+KcwAAAMCUHFcHAHbbejHbj4mRU/H+4PzupjoEAABANYU2ABiui+oAjMqbJGfVIQAAGISbJK+S/G+S2+IsiU1/AAAAjF9XHQDYeV11AHqzrA4AAAAwBAptADBcF9UBGJ2f4+8NAAB/ukwrk70rzrFf/P2BL5tXBwAAgIFzWAtQrasOQG+W1QEAAACGQKENAIbrJsnv1SEYnZdRagOApBV5TqtDwACs0ja7/FKYYV74vYGHmVcH4Nmu017rr6qDAABM1OF6MXNgC1Cpqw5Ab5bVAQAAAIZAoQ0Ahu2yOgCjpNQGAO3U7Ddp74k2G0FyluS7JLcF33te8D2BxzFtYrzeJfkh7bX2LO2AJAAANsN1M1DivlB7VJ2DXrw7OL9z7w4AABCFNgAYuovUbDhl/JTaANh1h/e/vkybVGLDEbSTf+fZ/iRopVIYtnmSveoQPMptkt+SfJN2Qv9FZRgAgB3SVQcAdlZXHYDeLKsDAAAADIVCGwAMnyltPNWHDfw2EAOw6w6T/JHkVXUQGICbJCdJftri91QohWHzMzoe79Omse2nXdesStMAAOwe185Ala46AL1ZVgcAAAAYCoU2ABi+19UBGLWjtEVxpTYAdkn3id//Nd4X4YPXSb5NK0cAu+2kOgCfdZvkbdpr9nFMYwMAqKTQBlTpqgPQj4Pzu2V1BgAAgKFQaAOA4buKTaY8j1IbAPzpRdo0k642BgzCVdrPwtsNfx8b/mDYFNqG6TptmuY8yWnaazYAALUO14uZZy1AhaPqAPTiXXUAAACAIVFoA4BxMKWN5/pQapvXxgCArfhSeWYvyX+TnG0+CgzeTVpR4oe0KUCbsLehrws832n8jA7N70m+S7t/f532Og1bs17M9teLmaIrAHyaQ1sAeKpldQAAAIAhUWgDgHG4zOY2l7I7jtJOdPewFYCpe+hJ2T+nvTfONxcFRuMi7TpxU9Oh5xv6usDzvKoOQJK25vNLkm/SJuYtS9Owk+6LbGdp04y9NgDAp3XVAQAYrcvqAAAAAEOi0AYA43CTtsEUnmsvbWOcUhsAU/bQQlvyZ+HbFApoG9iPk/y2ga8938DXBJ7nNO19kDrv0yZk7qdNjl1VhmE3/aPI9nNMbQSAL+mqAwAwSrcH53dX1SEAAACGRKENAMbjjlw7OAAAIABJREFUdXUAJkOpDYCpe+x73F6S/6Rdbz2mDAdT9SrJ/6bfKdF+tmBY9mOdodLbJN+mXbNc1EZhVymyAcCTebYCwFMsqwMAAAAMjUIbAIzHKsnv1SGYjL0kf6SdyA8AND9G6Rs+uEybqvaup6/n5wqG5TLKK9t2neSXJP+Tdi/uVHZKKLIBwLPtrRezeXUIAEZnWR0AAABgaBTaAGBcnJ5O395EqQ2A6XnxjM89SnuwfNpLEhi3myRdWgEDmI6LPO+9ksd5l+SHtJLwWdprK2ydIhsA9MqhLQA81rI6AAAAwNAotAHAuCzT34QE+ECpDQD+bi/t/fEyyX5xFhiCsyTfpk0XeqqulyTAc+ynldleFufYBbdJ3ib5Ju3176IyDLtNkQ0ANkKhDYDHuD04vzOpHQAA4B8U2gBgfC6qAzBJb2ICIADTMO/xa32f5Co2KUHy58/C79VBgCc5TjskR5lts66T/JR2PXKaViCCEopsALBRXXUAAEblsjoAAADAECm0AcD4XOR5kxHgU36MwiQA4zfv+esdJvkjyauevy6M0U2Sk7Syxu0jP1cxFGrM0+7z/khyVJpk2t4l+d+0/96v014voYQiGwBshXtcAB5jWR0AAABgiBTaAGCczqoDMFkvo9QGwLjtb+jr/pr20HlTXx/G5HXaafTvH/E5NtPDdp2k3dv9v5jKtim3Sd4m+SbtNdFp65RSZAOArdpbL2bz6hAAjMayOgAAAMAQKbQBwDhdxJQ2Nudl2kY8G/YBGKNNnpD9Im2DcLfB7wFjcZX2s/D2EZ8z30gSYD/t5/FV2r3cTZL/RJFtU67TJlXOk5ymXRtAGUU2ACjTVQcAYBSuD87vVtUhAAAAhujr6gAAwJOdJXlTHYLJ+j7tpLgubTMkANDsJflvkl9iai7cpJU5LtMO3fjSBvp5FD+YltPUbmLdT3JU+P13zbu017qL2hjQrBez/bQi66sosQFAhU0eqgTAdCyrAwAAAAyVQhsAjNdF2ibqw9oYTNhRlNoAGJ9tbSb6OcnJ/cdqS98Thuoy7WfvMp8v15gAzNQcxj35Lnib5HXaZEoop8gGAIOh0AbAQyyrAwAAAAzVV9UBAIBnOasOwOR9KLXNa2MAwINtszBzlLa5/WSL3xOGapW2me+Xz/w7NvsBY3Gd9nr2P2mT+JTZKLdezPbXi9lZ2nvuz1FmA4BqL6oDADAKy+oAAAAAQ6XQBgDjdpG2yQo26cNmfRuQARiD+Za/316S/6RNbjF9CtqhG98luS3OAfAU75P8kHY9cRbTyhkARTYAGK71Yua5CQCf8/7g/G5VHQIAAGCoFNoAYPzOqgOwE/bSTo/zcBaAoTss+r4/xnslfLBMK4O8+8fv+/kAhuptWhn3OO3wICinyAYAo+A+F4DPWVYHAAAAGDKFNgAYv4v8e6MobIJSGwB83lHae+Wr4hwwBDdJuiQ//eX3TDEEhuQ2yW9JvklyGpvMGAhFNgAYFc9LAPicZXUAAACAIVNoA4BpOKsOwM74UGo7rY0BAB/VVQdIe6/8NclllHcgSV4n+TbJddrUNoBq12ll23laCX1VGQY+UGQDgFFSaAPgc5bVAQAAAIbs6+oAAEAvlkl+T/J9cQ52w16SN/f/fFGYAwCG7PskV0lO7n+FXXaVtsnvdXUQYKe9S3sduqwOAn+1Xsz208qVr6LEBgBj86I6AACD9f7g/O6mOgQAAMCQmdAGANPxqjoAO+dNTGoDYFiGdir2YZI/YpouJMlNXDsCNd6mTYrsoszGwKwXs9O04reJbAAwUuvFbGjrUQAMw7I6AAAAwNAptAHAdKyS/FYdgp2j1AbAkOxXB/iEn9MeXg81HwBMzW2SX5J8k3bPaloqg7JezE7Xi9kqbV3lsDgOAPA8XXUAAAbJoToAAABfoNAGANNylrZpC7bpTZLX1SEAIMMujL1IO4Cgq40BAJN2neSHJPO0NZJVYRb4F0U2AJgkE9oA+JeD87tldQYAAIChU2gDgGm5SfKqOgQ76cckF9UhANh5Q99AtJfkv1EEB4C+vcufRbaLtPURGAxFNgCYtKGvRwGwfe+qAwAAAIzB19UBAIDeXSQ5TZsCAtv08v7X08oQADACP6ZNajuJyTEA8Bxv09ZBlrUx4OPWi9lp2rRAJTYAmK6j6gAADM6yOgAAAMAYmNAGANNkShtVXia5TLJfHQSAnTSmE7GPklylldoAgIe7TfJbkm/SDlRZVoaBjzGRDQB2y3ox66ozADAoy+oAAAAAY6DQBgDTdJW2uQsqfJ+2SK/UBsC27VUHeKS9JP9JmyzjfRMAPu86yS9J5mkH+awqw8DHKLIBwM4a0yFLAGzYwfndsjoDAADAGCi0AcB0naWdWg4VjqLUBsB2zasDPMPLtPdNm58A4N+uk/yQ9l5/luSmMgx8jCIbAOw8azoAfPB7dQAAAICxUGgDgOm6SXJaHYKddpR2Yr4HuQBsw7w6wDN9KIO/Ks4BAEPxLsl3ae/xF6VJ4BMU2QCAe56DAPDBsjoAAADAWCi0AcC0XcYJYNTai4kzAPBQe0l+TbuGM+UUgF31Nsm3SbrYBMZAKbIBAP9wtF7MrOUAkFjLAAAAeDCFNgCYvldJbqtDsNM+lNpOa2MAMHFddYAefZ/kKgrhAOyO2yS/Jfkm7d7xqjQNfIIiGwDwGdZxALg9OL+zpgEAAPBACm0AMH2rJGfFGWAvbbPXaXEOABiLwyR/xHUcANN2m+SXJPO0A3lWlWHgUxTZAIAH6KoDAFBuWR0AAABgTBTaAGA3vE7yrjoEpG38OqsOAcAkTfUU7J/THoLvF+cAgD5dJ/kh7f3tLMlNaRr4BEU2AOARpro2BcDDLasDAAAAjMnX1QEAgK05TXKVNikLKv2cdvr+aW0MACZmyoWvF2kTa06TXJYmAYDneZfk4v4DBmu9mJ2mlS2V2ACAh1JoA8D6PQAAwCOY0AYAu2MVk7EYjpdpC/pTLh8AsF1Tf0/ZS/KftMm7ADA275J8l6SLMhsDZiIbAPAMh+vFbOrrUwB82vXB+d2qOgQAAMCYKLQBwG55neT36hBw7/sky0y/gADAdhxVB9iSH9Om7s6LcwDAQ7xN8k1akW1ZmgQ+Q5ENAOiJKW0Au2tZHQAAAGBsFNoAYPecJrmtDgH3jtIW9z3kBYCHO0ortZ0W5wCAj7nNn0W207SJ8TBIimwAQM+66gAAlFlWBwAAABgbhTYA2D03sfmZYVFqA+C5uuoABfbSNl5fxLRTAIbhNskvaVNET6PIxoApsgEAG+I5B8DuWlYHAAAAGBuFNgDYTZdJfqsOAX+xl7bI39XGAIDReRnFcABqXefPIttZ2kE6MEiKbADAhnXVAQAocX1wfreqDgEAADA2Cm0AsLvOkryvDgF/sZfkvzFBEIDHm1cHKHaU5I8kr6qDALBTrpP8EEU2RmC9mHWKbADAFuytF7N5dQgAtm5ZHQAAAGCMFNoAYHfdRHGIYXoTfzcBeJx5dYCB+DVtEu9+dRAAJu19/iyyXZQmgS+4L7It0w7QUWQDALbhuDoAAFt3WR0AAABgjBTaAGC3XSX5qToEfMSb2BgJwMMpcP3p+7RrvK44BwDT8y7Jd2kbdC9qo8Dn/aPI9qI4DgCwWxTaAHbPsjoAAADAGCm0AQCvk/xeHQI+4mVskgTgYWwU+rvDtM3bZ8U5AJiGD0W2LjZoMXCKbADAAHTVAQDYqvcH53c31SEAAADGSKENAEiS0yTX1SHgI16mbZg0eQcAHu/neB8F4OneJvk2imyMgCIbADAgDl4C2C3L6gAAAABjpdAGACTJTZKT6hDwCS9iMz4An2ej0Ke9SLKKaz0AHu5tkm/SDr+5qo0Cn6fIBgAM0N56MZtXhwBga5bVAQAAAMZKoQ0A+OAqyU/VIeATjqLUBsCn7VUHGLi9JP9J8ro6CACD9tci26o0CXyBIhsAMHAOXwLYHcvqAAAAAGOl0AYA/NXrJL9Xh4BPOErbVOlBMAB/Na8OMCI/ph1iMC/OAcBw3Cb5LYpsjIQiGwAwEp5jAOyGdwfndzfVIQAAAMZKoQ0A+KfTJO+rQ8An7KWdcudhMAAfzKsDjMxRWqnttDgHALVuk/yS9j76KopsDJwiGwAwMl11AAC2YlkdAAAAYMy+rg4AAAzOTdoG52VaeQiG5kOprUvbkA8APM5ekjdp76Wv0q7/ANgNt2nT2V/H6z8jsF7MuiRnUWIDAMbFtQvAblhWBwAAABgzE9oAgI+5StvcDEP1odR2UpwDgHpddYARexmTTwF2xV8nsp1FmY2BM5ENABi79WJmvQVg4g7O75bVGQAAAMZMoQ0A+JSLJL9Vh4DP2Evyn7SJggDA0xwl+SMOMwCYKkU2RkWRDQCYEIU2gGl7Vx0AAABg7L6uDgAADNqrtAduNhAxZG/uf72oDAFAGZuD+vFr2rS70yg7AEzBbZLX9x9e1xm89WLWpZUurUEBAFNhzQpg2i6rAwAAAIydQhsA8CUnSa6SHFYHgc9QagPYXfvVASbk+ySrtOu/ZWkSAJ7qOu2+SJGNUVBkAwAmTKENYNqW1QEAAADGTqENAPiSm/y5qXmvNgp8llIbwG5SaOvXXpL/JvklbXM5AONwnfa6fVEbAx5GkQ0A2AGucwCm6/bg/O6qOgQAAMDYfVUdAAAYhaskr6pDwAO8SXJaHQKArTqqDjBRP6cdaDCvjQHAF1wn+SHt9fqiNAk8wHox69aL2TKtQG+TNwAwaevFzJQ2gGlSZgMAAOiBQhsA8FAXaZM6YOiU2gCgHy/SHsyfVAcB4F8U2RgVRTYAYEcptAFMk9d3AACAHii0AQCPcZbkbXUIeIA3SV5XhwBg4zw03ry9JP+J91WAobhN8lMU2RgJRTYAYMd11QEA2Ig9UzgBAACeT6ENAHisV0neV4eAB/gxNngCTN1+dYAd8mPatDYP6QFq3KZNTZ9HyZgRUGQDAEhiHQVgyrrqAAAAAGOn0AYAPNZN2uLsdXEOeIiXSU6rQwCwMfPqADvmKMky3lsBtumvRbaztHtyGIOzKLIBABxVBwBgY7rqAAAAAGOn0AYAPMVNkpO0jXUwdG9i4z3AVM2rA+ygvbT31ouYkAewSYpsAAAwDV11AAA2whROAACAZ1JoAwCe6ipKQoyHUhsA9Otl2vWgh/YA/VJkAwCAabF2AjBNh+vFbF4dAgAAYMwU2gCA57hM8kN1CHggpTaA6emqA+y4wyR/JHlVHQRgAhTZAABgmhTaAKarqw4AAAAwZgptAMBzXST5rToEPJBSGwD079e0gw72q4MAjNRvUWQDAICpOqwOAMDGdNUBAAAAxkyhDQDow6skb6tDwAMptQFMhxOuh+P7JKvqEAAj8zbJN2n31IpsAAAAAOPSVQcAAAAYM4U2AKAvp0neV4eAB3oTDxgApmCvOgB/4/8PgIf5UGQ7jTIwAAAAwFgdrhezeXUIAACAsVJoAwD61EWpjfG4jMk+AGO2Xx0AAB7p9yiyAQAAAEyJ580AAABPpNAGAPTpJslJktvqIPAAe0mW8ZABYKy8fgMwFu+SfJd2v7yqjQIAAABAj7rqAAAAAGOl0AYA9G2Vtmir1MYYfCi1mfIDAAD07UORrUu77wAAAABgWrrqAAAAAGOl0AYAbMJVLNwyHkptAOPUVQcAeKJVkuvqEGzUdZL/jSIbAAAAwNQdrRczz5kBAACeQKENANiUqyQ/VIeABzqKjaYAAGzHKsk8yS8x2XpqrtPug+dJLmujAAAAALAlXXUAAACAMVJoAwA26SJKbYzHUdrfWQDGYV4dAOCZzpIcJ3lbnIPnu03yU9p700VpEgAAAAC2rasOAAAAMEYKbQDApl2kbeyDMXiZ5HV1CAAeZF4dAKAHqySnSb5L8r40CU9xmzZpbx73EQAAAAC76rg6AAAAwBgptAEA2/A6pg4wHj+mbSoGYNj2qwMA9GiZtvHlp7SSFMP3och2luSmNAkAAAAAlV5UBwAAABgjhTYAYFtOo9TGeLxJ0lWHAOCzjqoDAGzA67SSlHun4Xqb5JsosgEAAABwb72YddUZAAAAxkahDQDYptPYmMl4XKZNyQAAgG26Sbt3+jbJu9oo/MXvaUW20ySr0iQAAAAADE1XHQAAAGBsFNoAgG17leR9dQh4gL0kF0n2i3MA8G8Kx8AuuErbCPNDktvaKDvtXZLvkpxEkQ0AAACAj+uqAwAAAIyNQhsAsG03aYu5Sm2MwVFaqQ2AYVE2BnbJRZJ5kt9qY+yc67QiW5dkWZoEAAAAgKF7UR0AAABgbBTaAIAKSm2MyfdJXleHAOBv5tUBALbsJm3a9TdpE8PYnOu0qXjzKLIBAAAA8EDrxayrzgAAADAmCm0AQBWlNsbkxySn1SEA+D/z6gAARVZp91H/m1a8oj+3SX5Je4+5KE0CAAAAwBgdVwcAAAAYE4U2AKDSh1KbjZiMwet4CAEAwDBcpl2b/lIdZCI+FNnOamMAAAAAMGJddQAAAIAxUWgDAKrdJDlJOw0fhmwvbVLDfnEOADwUBkjavdRZkm+SvKuNMlpv0/77naX99wQAAACAp+qqAwAAAIyJQhsAMARXaYu7Sm0M3VFaqQ0AAIZilXY/9V1Mv36od2lFttO0/34AAAAA8Fx768XsuDoEAADAWCi0AQBDodTGWHyf5FV1CIAd54EwwL8tk8yT/BL3VZ/yLq3410WRDQAAAID+ddUBAAAAxkKhDQAYEqU2xuLXKFMAVNqrDgAwYGdp16q/F+cYkuskP6Tdby5LkwAAAAAwZV11AAAAgLFQaAMAhkapjbG4TLJfHQJgB3ntBfiyVZKTtGltu+w2yU9pk+suSpMAAAAAsAscigoAAPBACm0AwBAptTEGh0leV4cA2EEeBgN82WnaJLKfa2OU+iWtyOaaHQAAAIBtOVwvZvPqEAAAAGOg0AYADJVSG2PwMm2zMAAAVNtPuzZdJXmT5EVlmEJvk3yT5CzJTW0UAAAAAHZQVx0AAABgDBTaAIAhU2pjDF6nTX4AYDtMaAP4u/208tYqrch2WBmm0Lsk3+bPUh8AAAAAVOiqAwAAAIyBQhsAMHRKbQzdXpKL6hAAO2S/OgDAQPz/7N3dUVxXGjbs+52aMw6gigDoiQA5ArYjkByBcARCCWBEAsIRqB3ByBG4FcGICAYFQL1wwPH3HSzxWjMjQ0P/PPvnuqooz4+EbqPu1Xvvte61ZmnXoVdJfkm7Lp2iL0l+TLtv/FwbBQAAAAAU2gAAAJah0AYADIFSG313lHYqBgCbN6sOAFDsRVqR7d9JXme6RbbbJD+nfS4sSpMAAAAAwJ8Ork93ZtUhAAAA+k6hDQAYCqU2+u6XtMXFAGzWrDoAg9Il+Rgn+zEOXVpx619pRbapuk3yLn+eUAcAAAAAfdNVBwAAAOg7hTYAYEiU2ui7eXUAAOB/vEwrASmeM1THSa6S/JF2MvCU/ZZWZDtLclOaBAAAAAD+mufRAAAAj1BoAwCGRqmNPjtMW1wLwOZMvczB03z++s/DtFLbcVkSeJq9JCdpRbYPSQ5K09T7lOQfae9hRTYAAAAA+q6rDgAAANB3Cm0AwBAptdFnv8SOewDQF98WX3bTikEXRVlgGXtpGyRcJXkfRbYvSX5Mu/+7Kk0CAAAAAMs7vD7d2asOAQAA0GcKbQDAUCm10WcWygNshsIw6/Am7bQ2iwnok1mSeZL/m7ZBwm5lmB64TfJz2s9lUZoENqNLe88DAAAA49VVBwAAAOgzhTYAYMiU2uiroyQn1SEARkgBiXU5SruWVJKkWpdWavl3ktelSfrhNsm7/Fnwg7GZJfmY5I+09/xxZRgAAABgo7rqAAAAAH2m0AYADJ1SG311lrZYEYD1UWjjOS7/4n8/SDv56XhrSeBPr9Jef/elFpLf0kqmZ0luaqPARpylPcN4+V//GwAAADBOXXUAAACAPlNoAwDGQKmNPtpNclEdAmBknKbFczxUjNlN8iE+s9muLsk/004KJPmU5Ie0culVaRLYjC7ttf1L2ufOtw6iWA0AYG4HgLE6rA4AAADQZwptAMBYKLXRRy9j5z0AGII3aadlOQUQtudLkp/Srpc/10aBjZgl+Zh2EuPBA7/ubBthAAB6zP0AAKN1fbrTVWcAAADoK4U2AGBMlNroo3l1AIAR6aoDMGpHadeTTgKEzbpN8i5/ln1gjM7SPlNeLvFrndIGAEzdojoAAGxQVx0AAACgrxTaAICxUWqjbw5ix30AqPSUnd4P0hbSHW8kCfBrWpHtrDYGbEyX5CrJL0l2n/D7zjaQBQBgSC6rAwDAhnTVAQAAAPpKoQ0AGCOlNvrmJG3hLgCrmVUHYJBunvjrd5N8SHKxgSwwVZ+S/CPtuvip70kYglnaiYN/pJWjn8opbQDA1D1lMxoAGJKj6gAAAAB9pdAGAIzVfanNrp70wW7suA+wDs9ZIA7P9SbttLa94hwwZF+S/Jg/T62CMTpLewbxcg3fBwBgqhTaAB5mznvArk93uuoMAAAAfaTQBgCMmVIbffI67fUIwPMoFVHhKO2a8kV1EBiY2yRv006tWpQmgc3p0oqav6RtYrIqp7QBAFOm0AbwMOPksHXVAQAAAPpIoQ0AGLubKLXRH2fVAQAGTKGI57pa8fcfpBVyjlcNAhPxLq3IdlGcAzZlluRjkj+y/tNjz9b8/QAAhkJRA+Bhi+oArMT8BgAAwHcotAEAU6DURl8cJXlVHQIAJuZqDd9jN8mHKOjAQ35P8o+0Qs5NbRTYmJO0xdYvN/T9D+KeEQCYoP3zu5skX6pzAPSY4u+wddUBAAAA+kihDQCYCqU2+sJCeIDnsYMpffAmbTfkveIc0CeXSX5MK+Fc1UaBjenSFg++Tys5b9LJhr8/AEBfKWsA/IX987vPSW6rc/Bsu9enO+Y4AAAA/otCGwAwJUpt9MFBkuPqEAADpEBEXxylLbKzAIGpu03yc9p7YVEbBTZmL8k8yR9JDrf0Zx7FZwwAME0KbQAPM04OW1cdAAAAoG8U2gCAqbkvtf1WnINpO6sOADBAs+oADNbVBr7nQVqB53gD3xuG4Ne0cXleGwM26iTtM+R10Z8NADA1i+oAAD23qA7ASrrqAAAAAH2j0AYATNFN2uJjpTaqHESpDeCpZtUBGKyrDX3f3SQfklxs6PtDH31K8o+0ss1NcRbYlC5t1/v3aWN9hddxOi0AMD1OHgJ42KI6ACvpqgMAAAD0jUIbADBlx1Fqo85JLFAEgDF4k7aYxOc6Y/YlyY9pC2+uSpPA5uylnTr4R5LD2ihJnNIGAEzM/vndTdq9BwDfp/g7bLvXpzuz6hAAAAB9otAGAEzdcZTaqLEbCxQBnuKoOgA84ChtQcmL6iCwZrdJ3qadkrkoTQKbdZJW1nxdnONbx9UBAAAKKGsA/AXF31HoqgMAAAD0iUIbAIBSG3Wc0gYA23G7hT/jIK3wc7yFPwu24de0IttFcQ7YpC5t0fT7tE1H+uQgyavqEAAAW6bQBvCwRXUAVtJVBwAAAOgThTYAgOY4yc/VIZgcp7QBLMepV6xqWwvidpN8iAIQw/YpyQ9p16k3xVlgU/aSzJP8keSwNsqDjqsDAABs2aI6AEDPKf4OW1cdAAAAoE8U2gAA/jSPUhvbd1wdAGAAnGbJ0LxJW4TntcuQfEnyU/48sQrG6iTJVZLXxTmW8TI+SwCAaXEvAvCwRXUAVnJwfbozqw4BAADQFwptAAD/aR6lNrbrIEptAI+xkJshOkpbiOeEQfruNsm7JLMkH2ujwEZ1aePy+7QTNYfiuDoAAMC27J/f3aRttgHAd+yf3yn+Dl9XHQAAAKAvFNoAAP7XPEptbNdZdQCAnlMIYlU3RX/uQdquycdFfz485re0MfasOAds0l7aff4fSQ5rozzLcXUAAIAtU9YAeNin6gCsxHwHAADAVwptAADfN49SG9vjlDYA2KzKxXC7ST4kuSjMAP/tMsmPadegV6VJYLNO0l7jr4tzrOIw7QRFAICpUGgDeNiiOgAr6aoDAAAA9IVCGwDAX5tHqY3tOa4OANBjdixlDN6kLTbZK87BtN2m3eO8iMVPjFuXthD6fVqxeOheVQcAANiiRXUAgJ5T/B22w+vTHc+IAQAAotAGAPCYeZTa2I6j2JEP4K+Y3GUsjtIWnChpUuHXtFOe5rUxYKP20l7jf6SdbDYWx9UBAAC2SFED4GGL6gCsrKsOAAAA0AcKbQAAj5tHqY3tOK4OANBTs+oADN5NdYBvHKQtOjmujcGEfEryjyQn6dd7AdbtJMlVktfFOTbhMK6HAICJ2D+/u0nypToHQF8ZJ0ehqw4AAADQBwptAADLmUepjc17HYsUAb7noDoAg9e33d13k3xIclEdhFH7kuSntAUyV6VJYLO6tHH+fdr4OlavqgMAAGxR3+7jAfrGODlsXXUAAACAPlBoAwBY3jxKbWzecXUAAGBr3qSd1rZXnINxuU3yLsmLJB+Ls8Am7aXdp/+RdoLZ2HXVAQAAtkhRA+Bhi+oArOTw+nTHM2EAAGDyFNoAAJ5mHqU2NuukOgBAz3TVAWDDjtIW6r2oDtJTro2e5ve019JZkpvaKLBRJ2knD74uzrFNL6sDAABskUIbwMOMk8PneTAAADB5Cm0AAE83j1Ibm7Mbp7QBwNQcpO2qfFwbo3fmSd5XhxiIL0l+TPIqreQDY9WlLdp7n3bvNDWvqgMAAGyJogbAA/bP7xbVGVhZVx0AAACgmkIbAMDzzKPUxuYcVwcA6BG7lLIOi+oAS9hN8iHJRXWQnphnWicvPddtkndJZhnG6xyeay9tXPgjyWFtlFKuiwCASdg/v7tKu98B4K99qg7ASrrqAAAAANUU2gAAnm8epTY24yhtUTIAbQE7TMmbtGLSlF/78yizLeO3tGvGs9oYsHEnaScPGhcsdgMApsVhgCe1AAAgAElEQVQpbQAPM04O21F1AAAAgGoKbQAAq5lHqY3NOKkOANATUy71MF1HaQtSpngSzzxKK4+5TPJj2qm+N7VRYKO6tLHwfdoplljsBgBMy6I6AEDPLaoDsJrr052uOgMAAEAlhTYAgNXNo9TG+h1XBwDoiSkWeiBJDtIWpRzXxtiqeZTZHnKb5G3auLiojQIbtZc2HvyR5LA2Si911QEAALbEyUMADzNODl9XHQAAAKCSQhsAwHrMo9TGeu0meVUdAgBG5FN1gGfYTfIhyUV1kC2YR5ntIb8lmWUarwWm7STJVYwHD5lVBwAA2BJFDYAH7J/fXSX5Up2DlXTVAQAAACoptAEArM88Sm2s13F1AIAeOKoOAD3wJu1Err3iHJsyj/LKX7lM8mPadeFNbRTYqC5twfL7tDIvf21WHQAAYBu+FjVuq3MA9Jzy77C9qA4AAABQSaENAGC95lFqY31eZrwL1wGApzlKW6AytkUO8yizfc9tkrdpf9+L2iiwUbO0ceCPJIelSYajqw4AALBFihoADzNODtvu9enO2J73AgAALE2hDQBg/eZJfqsOwWi8qg4AUGhWHQB65iCt3HRcG2Nt5lFm+57f0sa/i+IcsGlnaQvvjANPY9MTAGBKFtUBAHpuUR2AlXXVAQAAAKootAEAbMZxlNpYj5PqAACFZtUBGJWx7Fa8m+RDhl92mkeJ5b9dJvkx7V7ipjYKbNSrJFdJfkkb03gaJ9kBAFMylnt5gI3YP79bVGdgZV11AAAAgCoKbQAAm3McpTZWdxiFDmC6nEDCOo2tIPQmbQfmIb5P5lFm+9ZtkrdJXsSu2ozbLO01/s+0EycBAOAxCm0Aj7usDsBKuuoAAAAAVRTaAAA26zhKbazuVXUAgCIvqgNAzx2lLe4b0ntlHmW2b/2WVvIZ+ol78JC9tNf4v9PGLQAAWMr++d1V2iYgAPy1RXUAVrJ7fbozpOe7AAAAa6PQBgCwecexMx6rOa4OAAD01kHaopXj2hhLmUeZ7d5lkh/T/t7GdnogfOskyVXaqZIAAPAcTmkDeJhxcvgU2gAAgElSaAMA2I4uSm0832HayR0AU2MSl3Ua88KO3SQf0u9TvuZRZrt3f6reojgHbFKX9lp/nzZGsV5ddQAAgC1aVAcA6LlFdQBW1lUHAAAAqKDQBgCwHTdRamM1r6oDABTYqw7AqEzhFKw3aQtY+vbemUeZ7VtTeC0yXbMkH5P8kbYxBwAArGrMG9QArGz//O4qyW11DlbSVQcAAACooNAGALA9N2mlJBMKPMdxdQCAArPqADBAR/nzBLA+mEeZDaZgL8lZkn8neVkbBQCAkVFoA3icsXLYDq5Pd2bVIQAAALZNoQ0AYLuu0nZYU2rjqQ7Tv9NWADbtoDoADNRB2kltx7UxlNlgIo7T7nV/qY0BAMAYOXkIYCmL6gCsrKsOAAAAsG0KbQAA2/c5HkjzPK+qAwDAgE1tl+LdJB+SXBT9+fMos8HYdWlj64e0MQcAADZlavf0AE+1qA7AyrrqAAAAANum0AYAUONzkp+rQzA4Cm3AlHTVARidm+oARd6kLWjZ5kmv8yizwZjN0saVP9JOkgYAgE1TaAN4mHFy+F5UBwAAANg2hTYAgDrzKLXxNF11AABgkI7SFrVsY1HEPMpsMFZ7aac+/jttXAEAgG1R1AB4wP753U2Sy+ocrOTw+nRnm5uSAQAAlFNoAwCoNU/yW3UIBmM3TmkDpsNupLBeB2knKh1v8M+YR5kNxuosyVXaqY8AALBtCm0AjzNWDl9XHQAAAGCbFNoAAOodR6mN5XXVAQC2xE6kbMKX6gDFdpN8SDthad3mUWaDMXqVVmT7JW0MAQCArds/v1PSAHjcojoAK+uqAwAAAGyTQhsAQD+cJLmsDsEgdNUBALZEoY1NuKoO0BNv0ha4rOt9No8yG4xNlzZO/DPthEcAAKj2qToAQM8p/w5fVx0AAABgmxTaAAD64SbtAfXUTw3hcYdJZtUhALbgRXUAGLmjtEUuq77X5lFmgzGZpb2v/0gbJwAAoC8UNQAe8PU0y9vqHKzk8Pp0x2Z/AADAZCi0AQD0x02SVzHRwOO66gAAwCgcpJ3AdPzM3z+PMhuMxV6SsyT/jvc1AAD9pNAG8Dhj5fDZ7A8AAJgMhTYAgH75nOcvKGY6uuoAAFtg0pZNuKoO0EO7ST4kuXji75tH6QXG4iRtfPylOAcAADxESQPgcYvqAKysqw4AAACwLX+vDgAAwP/4mORtkvfVQeitrjoAwBbsVgdglK6qA/TYm7Qi6dkSv/Y4ymwwBsdp7/mD2hgAAPC4/fO7z9enO9UxAPpO+Xf4uuoAAAAA26LQBgDQTxdpC4otFOZ7DpLMYlE+MF6z6gAwUUdJ/qgOAWxcl1ZkO6qNAQAAT/YprmMBHrKoDsDKfM4BAACTodAGANBfx2mltsPiHPRTl2RenAFgU2bVAQBghGZp9xAWRgEAMFSf43oW4C/tn9/dXJ/ufInT2Aft+nSn2z+/W1TnYBReJNl74L9/z1X+c2Pdmzj9EQCADVFoAwDoty7tYeFubQx6qItCGwA81U11AIBC81j8CwDAsFlMDfC4RZLX1SFYSRen7bGcvbSS2n1Rrfv6z01tmvwlbf3Kfcnt6uvXYkN/HgAAI6fQBgDQbzdpDx3/VZyD/umqAwBsUFcdgNGy8A0AAACGy309wOM+R6Ft6LrqAPTWi7TXx/0/t30a48E3f+bL//r/vqSNP4tv/gkwZvdl4vty8VMtvvnPTsMEJkuhDQCg/z4n+TnJh+og9MpBklnajmcAAAAAADBq++d3n69Pd6pjAPTdojoAK3vOonjG69XXry7bL7A9xX3Z7dui2+9pY9LHWNcADNeL73ztruH7/vLA/3d/Iua9z2mlt7+yWPLXAfSOQhsAwDDM0x5Q2k2Pb72IB7/AOJmsBQAAAOB7PiU5qg4B0FfKv6Owe32682L//M5JLdPVJTlOK7KtozRR5eXXr/dJLtPWvQyl3Hb89YvNmX/9eq7FWlLU6Vb4vccZzuvzJMM7eWyW9vdzXyauGIe/PREzefwe+Nty3G3az/xj/jw1E6C3FNoAAIbjJG2B/2F1EHqjS3sAATA2e9UBGC070gEAAMCwfY5CG8BjlH+Hr4sF6FOzl1aeOEu/T2J7rsO0Ytv7tDHqIv1e6zCLcXTTFiv+/qH//XR5/s9gluH8+w9l3v9+DD7J8Nfl7aa9Pu5fI1/Sxtx5zJUDPaTQBgDb9yLDuVnj+65Ss2PUTdoOO4sMexcu1scJRsBYuVZiUywAAAAAgGFzbw/wOOXf4evSFp8zfntpBYqTTGcdyH3R4ktagW9eGQaKzKoDkKStuzpJ8ro6yAYdpJWJz9KKxCdRbAN6RKENALbvIh4eD927tJu8Cp/TSm3/LPrz6RdjCTBWQ9/1DAAAAIDNUGgDeNwiyZvqEKykqw7AVpxlWkW2/3aQ5EPaz+Esim1My6w6wMR1aePOlNZd7aYV916lrV89K00D8NXfqgMAAPBkH5P8Wh2C3nBKGwAAAAAAk7B/fqfQBvA4Y+Xw7V6f7pgHHq8uyVWSXzLdMtu37ottn6PMyXR01QEmapa27u6PTKvM9q3dtM+fz7HmDOgBhTYAgGE6SXJZHYJe8HABGJuuOgCjd1sdAAAAAFiJ+RGAB+yf310l+VKdg5V11QFYu738WaQ4KM7SR4dpP5uLtJ8VjNmsOsAEnSX5d5KXxTn64jDJv9LWIAKUUWgDABiu41iQjUIbADyV3YkBAABg2NzbAzzOWDl85oHH5UXa+1KR4nFvkiziPcC4KbVuz4v8eSom/+t9knkUiYEiCm0AAMP1OW33GKbNQ1xgbGbVAQAAAADoNSUNgMctqgOwsq46AGtznHYKjgLL8g7TxrHj2hiwUV11gAk4i/F3Ga/TxlylNmDrFNoAAIbtIsnv1SEodVQdAGDNZtUBAAAAAOg1hTaAxxkrh+/g+nRnVh2Clc2TfKgOMVC7aT+7k+ogsCHKQ5uzl+RjnMr2FPdFYq9LYKsU2gAAhu84yW11CEo5pQ0YEw9IAQAAAPhL++d3i+oMAH1nrByNrjoAK5mnnXrDat6n/SxhbKz12YxZWjHrZW2MQVJqA7ZOoQ0AYPhu0kptTNesOgDAGnlwz6YtqgMAAAAAK7usDgAwAJ+qA7CyrjoAz/Y5ymzr9DpKbYyPefH1e5E2/h5WBxkwpTZgqxTaAADG4WOS36tDUMZDLgAAAAAApuRzdQCAATBWDl9XHYBnmUeZYhNex2bPjMusOsDIvEgrYu0W5xiDw7S1iAAbp9AGADAex0luq0NQQqENGBNjGgAAAACPUdIAeJyxcvgOrk93nJAyLPM4mW2TPiR5VR0C1kTxdX2U2dbvKMlFdQhg/BTaAADG4yZ2o5qqWXUAgDXykBkAAACAxyhpADxuUR2AteiqA7C0kyizbcM81kgwHjZ7Xd1e2rhgncH6vYm1iMCGKbQBAIzLxyS/V4dg6+zaBIzFrDoAk7CoDgAAAACsZv/8blGdAaDv9s/vrpLcVudgZV11AJbSJXlfHWIidtPKKzAGs+oAI/Ax1k1t0kW8ToENUmgDABif45iYmCK7NgFjMKsOAAAAAMBgXFYHABiARXUAVtZVB+BRe2mFCrbnKMlZdQhYA2t9VnOWNh6wObvxGQdskEIbAMD43MSDuymaVQcAANgAGzUAAADwVz5XBwAYAGPl8B1en+7sVYfgQfO0Bf9s10msk2D4FNqer0vyS3WIiTiMtYjAhii0AQCM00XsTDo1HnIBY9BVBwB65fe4xgEAAOCvKWkAPG5RHYC16KoD8JdeJXlZHWKidqNgwfDNqgMM1F5amZjt+SXmbYENUGgDABivk+oAbNWsOgAADITFbv13m+SntIUAV7VRAAAA6DH3+ACP2D+/W1RnYC0sIO8nhYp6r6PwybAdVgcYqLMkB9UhJuiiOgAwPgptAADjtUjyW3UItmZWHQBgDUzIsg031QF40K9p1zUfi3MAAADQc0oaAEu7rA7AyrrqAHzXSdopYdQ6qw4AKzJH/jSzJG+qQ0zUUZLj6hDAuCi0AQCM21naCReMnwdcwBjsVQcAynxJ8mPaAgClQwAAAJalpAHwuEV1AFZ2VB2A/zFL8kt1CJK098esOgSsYFYdYGDm1QEm7iLWdQBrpNAGADBuV3Hc91TY+Q0YAw8+YZrepU3WLWpjAAAAMECfqwMADICxcgSuT3e66gz8h7PqAPyHs+oAsAIbWC+vi5J3td20DUoB1kKhDQBg/C7ilLap8JALGLrD6gBMht3b++EyyQ8x0QwAAMDzKWkAPM5YOQ5ddQD+n1mS19Uh+A+vYuNMhstan+UpUvXDSYy5wJootAEAjN9NLBKeCg8LAGA5N9UBJu42ydu0CTqLaQAAAFiF+0qAR+yf332ODVDHoKsOwP+jUNE/u2mlNhgia32WM0vysjoESZzSBqyRQhsAwDRcJPlSHYKNs2sTMGTGMJiGT2nv94vqIAAAAIyCQhvAcoyXw3dUHYAkrXhyXB2C71JoY6iM78tRoOoXp7QBa6HQBgAwHWfVAdg4DwqAITOGwbjdn8rWJbkqTQLrsRe7YgMAQLn987ub2NAPYBmL6gCs7vp0x+aA9V6lnUxD/7yM+UaGa1YdYACOqwPwH5zSBqyFQhsAwHTMY1J37GbVAQBWMKsOwKTYjXi7fk97jzuVjbF4kTaOdMU5AACAxn0+wOMW1QFYi646ABbv95xT2hiqWXWAnlMm7ientAErU2gDAJgWi4jHbVYdAGAFs+oATMpNdYCJuE3yU9okk585Y3GctgDsoDYGAADwDYU2gMcZK8ehqw4wcbMkh9UheFBXHQCeqasO0HPKqv20GyfnASv6e3UAAAC2ap7kLHatGSu73gBQrasOsKRZdYAJ+C1tVz5FNsZknuR1dQgAAOB/LJL8Uh0CoM/2z+9urk93LqOMM3RddYCJU6joP39HDNWsOkDPeW/310lssA+sQKENAGBabtJuIk3sjpMJKGDIuuoArMUf1QEo9yV/nmAFYzFL8jGutwEAoK+cOgSwnM/xfGPodq9Pd17sn9/57KtxXB2AR+0meRHXhwzPrDpAj72Ijdv77CCtcPixOggwTH+rDgAAwNbNqwMAADBKv6ZNKi2Kc8A6dbHYCwAAem3//O4mbYMVAB6m4DEOXXWAiZrFM8KheFEdAJ7hqDpAjzmdrf+OqwMAw6XQBgAwPVdJfq8OwcZ4OAsMlfELhutLkh+TnKSdCAxjcZJ28qSdPwEAoP+UNAAet6gOwFqYT6nRVQdgad4jDNWsOkBPddUBeNTLJHvVIYBhUmgDAJimeXUANsYDAmColAVgmN7FqWyMz16Sj0neVwcBAACWptAG8Ij98ztj5Th01QEmqqsOwNIU2hiqWXWAnvKeHobj6gDAMCm0AQBM08e0kzQAoA+UcWF4LpP8kOQsTmVjXO4Lmi+LcwAAAE+zqA4AMBCfqgOwsoPr051ZdYgJ6qoDsLSj6gDwTF11gB6axca4Q3FcHQAYJoU2AIDp+lgdgI2wMxEwRMYuGJb7U9ns6MzYHKctgj2sjbExyqcAAIyZe1SA5SyqA7AWXXWAiZklOagOwZPYTJMhmlUH6KFZdQCWdhjrPoBnUGgDAJiui+oAbIQHswDApnx7KhuMzUWSDxn3Tp/HSX6rDgEAAJuwf353k+RLdQ6AAVAAHoeuOsDEjHWB/mXaqY2X1UE2YKx/Z4zbrDpAD3XVAXiS4+oAwPAotAEATNdVxvlgEoDh6aoDAI9yKhtjtZf2un5THWQLbtImE39KclsbBQAANsI9K8DjFtUBWIuuOsDEjKkc9VuSH5P8n7R/r+7rP/9P2oZ2bzOOTQJm1QHgGY6qA/TQrDoAT/KqOgAwPAptAADTNq8OwNrNqgMAAKPiVDbG7EXaRh+HxTm27WPav/un6iAAALBmCm0Aj3Ci5WgcXJ/u7FWHmJCuOsAafEryj7QNrxZ/8Ws+J7lIW3Pwc4a9KdasOgA8k7H9P82qA/AkB/F3BjyRQhsAwLQtqgOwdrPqAADPMKsOAPyP27SdWJ3KxlidJPlXkt3qIEWu0hbivKuNAQAAa7WoDgAwEIvqAKxFVx1gQmbVAVb0W9rr5eoJv2ee9u/9+9rTAA8Z04mQTJNT2oAnUWgDAJi2z7EDHwD1ZtUBgP/wKW3C7KI6CGzAXtpijPfFOfriLO0UxsviHAAAsA42ZAFYjvFyHLrqABNyUB1gBZ/STmV7jpu0YsJva0uzPV11AHgmhbb/dFQdgCc7rg4ADItCGwAAi+oAAEzeXnUAIMmfp7J1edpOrTAUL9Luf14X5+ibz2nv+1+LcwAAwEr2z+9uYhM/gGUotI1DVx1gIrrqACu4zXqKBcdpxThg82bVAWBFh7H+A3gChTYAAD5WB2Ct7NYEDNFhdQDAqWyM3qu0MpvPnO+7SXKS5Ke0hS4AADBUShoAj9g/v1tUZ2AtDq9PdywY5yHzrG/zuuN4bgjbYM0PY/CqOgAwHAptAAAsqgOwVrvVAQCAQXEqG1NwkeSfca28jI9pO8DacRkAgKFSaANYjnv/ceiqA0xAVx1gBevcwO5qzd9v05SCGCqv3Wm4TfJr2iaDP379+jnJ75Wh1qirDgAMh0IbAAA3Sb5UhwBgsjyUhzpOZWPs9tI28HhTnGNobtImG9/GrssAAAyPQhvAcoyX49BVB6C3vmT9m9jN1/z9NsnmZgzVbtrcBuP8OdwmeZf273aStsng4uvXPO1ks38kuSxJtz5ddQBgOBTaAABInNIGQJ0xPoiGvnMqG1PwIm1h1lF1kAG7SBsnhj5xCgDAtChoACxnUR2AtbBp4ObNqgM80yauia7iWSFsg7G9GdvP4TZtzuXskV93lfbvPuTT2g4y3M9PYMsU2gAASEzwAlBnVh0AJsapbEzBcZJ/pU2YsZrPaWPGr9VBAABgGfvnd1dx0jDAMswPj4PNnDZvVh3gmTb1Hr/a0PcF/jS2Ihd/ltmeMjYfp522OVRddQBgGP5eHQAAgF4wYTEus3iQDAzHrDoATMRt2o5/imyM2V7aa/x1dZAROkny8evXbnEWAAB4jNOaAR6xf353dX268yU2BBq869Odbv/8blGdg8n4nORldQi+6zLJTXWIJ7iqDtBjs+oArN1Znr427+br7/uw7jBbopgJLEWhDQCAJFlUB2CtZvHwDwD402XaLn42MWDMZmllq8PiHGO2SPs5z2PRCgAA/baIQhvAMj5HoW0MupjvB9qmZIvqEKyFItC4fMnzNxydp5Xahni91lUHAIbhb9UBAADojdvqAABMUlcdAEbuXdrElzIbY/Yq7TWuzLZ5N2k/77dxDwkAQH+5BwZYjvFyHLrqACOnJA9sm0LbuHws/v1VzNkBS1FoAwDgngkLAIDxuEzyQ9qufTBmZ0n+mWS3OMfUXKRNql9WBwEAgO8w3wGwnEV1ANZC4QpgXHaT7FWHYG1WLaQN+f62qw4A9J9CGwAA966qAwAwSbPqADBCTmVjCvbSJgF/qQ4yYVdpY8274hwAAPAf9s/vruJEYYBH7Z/fLaozsB7XpztddQYA1sopbeOx6nzt1TpCFPE6Bh6l0AYAwL2r6gAATNJBdQAYEaeyMRX3hc2X1UFI0sacH5N8Kc4BAADfsskLwHKcvj4OFowDjItxfTxuqgMU8joGHqXQBgDAvSnfQANQY686AIzIr3EqG9NwnGQRhei+WaSNQb8X5wAAgHuL6gAAA7GoDsBadNUBAFgr8+iMwaw6ANB/Cm0AANyz+BmAbbMjF6zuS9rJSCfVQWAL5kk+JNktzsH33SR5leSnJLfFWQAAwJwHwHKMl+PQVQcAYK266gCwBkfVAYD+U2gDAAAAgGG6P5VtUZwDNm2WtrjqdXEOlvMxbWz6VB0EAIBJU9AAWM6iOgBrsXt9umMTQYDxmFUHoDeGfm87qw4A9JtCGwAAAFDF5Co8z23+PJXtpjgLbFqXNll3WJyDp7lK+7t7VxsDAICp2j+/u4qTgwEeZbwcla46AABrc1AdgN4Y+lzwrDoA0G8KbQAA3LuqDgDA5OxVB4AB+j3twf+iNgZsxUmSP5LsVgfh2c6S/JDkS3EOAACmaeg72QNsy6I6AGvRVQcAYK266gCwBjY5Bh6k0AYAwL2r6gAATM6sOgAMyG2Sn5K8yvB34oPH7CX5mOR9dRDW4nPahOWv1UEAAJicRXUAgIFQAB4HC8YBxmVWHQDWwCbHwIMU2gAAAIAqs+oAMBCf0t4vH4tzwDa8SFt0+rI4B+t1k3bi3k9pBV0AANgGBQ2A5SyqA7AWB9enO7PqEACszaw6AKyBwj3wIIU2AAAYH7vbAMA43CZ5m6SLU9mYhuO0BVSHtTHYoI9pk/CfinMAADANCm0AyzFejkdXHQCAtemqA9Abl9UBVmANG/AghTYAABgfC96BoTiqDgA9dpm2Y91FdRDYkoskH5LsVgdh427SJuLfFucAAGDk9s/vruKEYIBH7Z/f3WTYC6X5U1cdAIC1mVUHoDeGvA5sVh0A6DeFNgAAAADol3dpZbar4hywDXtpu4C/qQ7C1l0k+SEWzAEAsFlOHQJYjvFyHLrqAACszUF1AFgDr2PgQQptAAAAQIUX1QGgh76klTvOinPAttwXNw+Lc1Dnc9pCq1+LcwAAMF4KGgDLWVQHYC0Ork93ZtUhAFibrjoAAGySQhsAAABQYa86APTMr2nlHgvtmIqTJP9KslsdhHI3aa+HH5PcFmcBAGB83GcDLMd4OR42FAQYj1l1AFiDWXUAoL8U2gAAAIAKCm3Q3Cb5Ka3McVOcBbZhL8k8yfviHPTPIm1S8/faGAAAjIyCBsAS9s/vPsdGM2PRVQcAYG1m1QFgDWbVAYD+UmgDAAAAKtghFJJPaQ/wPxbngG15kVZael2cg/66SfIqydtYRAcAwBp8LWgAsBxj5jh01QEAWJuuOgAAbJJCGwAA9xQLAAC2523aJJRT2ZiKV2lltsPiHAzDRdoYeVmcAwCAcfhUHQBgIBbVAViLw+vTnb3qEACsxaw6AL1gTR8wWgptAADc81AbgG3qqgNAkcskP6SVNWAqLpL8M8ludRAG5XPaJO276iAAAAyeE4cAlmO8HI+uOgAAa3FQHYBeML8GjNbfqwMAAAAAwET8muQsTmVjOvaSfExyVB2EQTtL2yF+HpP3AAA8j4IGwHIW1QFYmy7tuRwAw/ci07ynuYoN7xIb1AMjp9AGAAAAVJhVB4Atuk1yHAsImJYXaa95BSTWYZH2mponeVmaBACAIZri4k+AJ9s/v7u5Pt35Es9zxuBFdQAA1maWad7TXKVteDd1PtOBUftbdQAAAABgkkyIMxWf0iaalNmYkuMk/4qxnvW6SfIqyc9pRWEAAFjK/vndFBd/AjzXojoAa3FUHQCAtVFomjZ//8CoKbQBAHDPDTAA27JXHQC25G2SLq2EAVOwl3aC1ofiHIzbPO3+9VNxDgAAhsX1I8BylIBH4vp0p6vOAMBaWM81bf7+gVFTaAMA4J5yAQDb4qErY/clyQ9JLqqDwBbN0nbwfl0bg4m4SisMv6uNAQDAgChoACxnUR2AtemqAwCwFrPqAJTqqgOswaI6ANBfCm0AAAAAsD6/pZU2LZRjSl6lveYPq4MwOWdpBeIvxTkAAOg/9+kAS9g/vzNejkdXHQCAtTD3Ml1dkoPqEACbpNAGAADjY6IJ6DsntDFGt0l+TnKc5KY2CmzVWZJ/JtktzsF0fU67tvitOggAAL3muTnA8j5VB2AtjqoDALA25ten6aw6wBq4rgQe9PfqAAAA9MZedQDWxiJ6oO985jA2l2lFNovjmJK9JPMkL4tzQNLugY6TfEx7XSpYAgDwH/bP7z5fn+5UxwAYikWUoUbh+nSn22QmYwcAACAASURBVD+/W1TnYFQW1QGWZC6SsZnFPOTUdBnH9dhVdQCg3xTaAAC4ZzcfALZlVh0A1ujXtN3xFMqZkhdpxaGD6iCFLtOKU/TLx7TX5zzjmOgFAGC9PsV1IsAyLJgfjxcZTgGJYVjEawoq3M/LMA17Gc/f96I6ANBvf6sOAAAAAEzOrDoArMFtkp+SnESZjWk5Tpt8mnKZ7de0yeOr4hx831XazqVva2MAANBDChoAyzFejkdXHQCAtbBJ+XTcl9F3i3Osy6I6ANBvCm0AAAAA8DSXsRMi0zRP8iHjmUR7qm+LrPTfRZIf0sZsAABIFDQAlrJ/fneV5Et1Dtaiqw4AwFrMqgOwFa/SCmCHxTnW5UtsDgk8QqENAAAA2Laj6gCwAiczMUV7aQs/X1cHKaTIOkyf0xZu/VqcAwCAflBoA1ieMXMcdq9Pd5zqAzB8Yyk48X2ztPmnf2Zcm0qaUwMepdAGAMA9D7LHwekDALAZTmZiqrq0AueUJ0sVWYftJm3s/iltLAcAYKL2z++UMwCWt6gOwNp01QEAWAvrusZlL8lx2jXXv5O8rAyzIRfVAYD+U2gDAODemHZ4mbKb6gAAj5hVB4BncDITU3WS5I9M915BkXVcPqZdh/xenAMAgFo2hQNYjhLweHTVAQBYi73qAKxklvaZfJZWYvu/ST4kOaoKtGGfYqNIYAkKbQAAAMA2zaoDwBM5mYkp2ksr/7yvDlLoUxRZx+gmyaskb+O0NgCAqVLQAFjC/vndojoDa9NVBwBgLbrqAPyls7T5h8V3vv6/r1//TttE8peMt8T2rXl1AGAYFNoAAACAbbJzHEPhZCam6kXaBNvL4hyV3qVNDF/VxmCDLtL+jp3OAQAwPQptAMv7VB2Atdi9Pt2ZVYcANu6P/Fmc6fNXt6F//ymYVQfgQbtpRbX//pqiL1FoA5ak0AYAAONyUx0A4BEvqgPAEi7jZCam6TitzHZYG6PMbZIf03bSZPw+p431v1YHAQBgqxTaAJZnzByPrjoAACubVQeAJZ1VBwCGQ6ENAADGxcQSAKzmtziZiWm6SPIhbQfJKfqUNhm8qI1BgZO0IuOX6iAAAGze/vndojoDwIAsqgOwNl11AABWNtXTvhiWT3E6G/AECm0AAADANjmhjb66TfJz2glVTjxlSvbSFie9Kc5R6V3aoh7v/elapF2j/F6cAwCA7bisDgAwEDbSHI+uOgAAazGrDgCPOKkOAAyLQhsAAACwTXvVAeA7LtMm9Oe1MWDrXqSdRjjVXT1v007mOivOQT/cJHmVVm6+Lc4CAMBmKWgALGH//O4q7pHH4uD6dGdWHQKAlc2qA8AD3sX9NvBECm0AADAuV9UBAB4xqw4A/+X3tDKbh+tMzUmSfyXZrQ5S5FPaZ9KiNgY9NE8rezq1AwBgvDwDAFjeojoAa9NVBwBgZV11APgLl7GBJPAMCm0AsH0myeijrjoAa3NVHQDgEQfVAeAbb9NO47mpDgJbtJdW2HlfnKPSu7R7IO99/spVWqntXXEOAAA2w1wdwPKMmePxojoAACubVQeA77iNtYfAM/29OgAATJAFcwAAUOv+obrFGEzNi7Qy22Fxjiq3aSXWRXEOhuMs7fUyj1I+AMBo7J/fLa5Pd6pjAAzFIskv1SFYi646AL3UZfyvjXlsDMx4zOL1TL/cz7tbEws8i0IbAACMy1V1AIAHdNUBIMmnOJWNaXqVNnG/W5yjivc+z7VIK4NeJHldGwUAgDW6zHQ3+wBYmhLwqBxen+7s7Z/feT7Gt7qMv7S6iHUUjMdRbNpHv5zEJrLACv5WHQAAAFirq+oAANBjv8YOcUzTWZJ/Zrpltnfx3mc1N0mOk/yUttsoAADDZ8EdwPIuqwOwNl11AABWNqsOAF/9nLaZJsCzKbQBwPZZQAcATNWL6gBM1m1aCeGkOghs2V7aTp1j32H3r9wm+TGt0Afr8DHteuZTdRAAAFam0AawvEV1ANamqw4AwMpm1QEgymzAmii0AcD2mSCjj7rqAKzFl+oAAI/Yqw7AJF2mXet8LM4B2/Yi7f7zqDpIkU9pk7qL2hiM0FXa58q72hgAAKzIfB3A8oyZ49FVBwBgZVOd96EfbpP8EGU2YE0U2gAASBQMxuKqOgDAI3zesG2/pU3QW3DB1Bwn+VeSg+IcVd6lvfedkM4mnaVN2l4W5wAA4Bn2z+8W1RkABsTz1fE4rA4AAAzWZf7cUBNgLRTaAABI2s0mAGyazxu26W1aqUehhSnZS9sR8UNxjipf0gpGZ8U5mI7PaeXJX4tzAADwPDYnAFjC/vnd57TTOBiB69OdrjoDADA4v6bNh1zVxgDGRqENALZvUR0AvsNx9OOwqA4AAD1wm+THJBfVQWDLZmnXg69rY5T5PXaFpMZNkpMkP8XiPgCAoXH/ALA8Y+Z4dNUBAIDB+JI2934SG8kCG6DQBgBAVx0AgMlQoGbTLvNnqQempEtbVHRYnKPK2ySvYiKNWh/TPoM+FecAAGB5yhkAy1tUB2BtuuoAAMAgvEvbTHJRnAMYMYU2AKhhx+5h66oDrNmr6gCszVV1AAAo9FvaA3WFFqbmLMkfSXaLc1T4kuSHOJGR/rhJe2bwNp79AAAMgUIbwPIW1QFYG5sPAgAPuUzyj7Q5SHPvwEYptAFADRNkw3aUcZXajqsDsDZX1QEAHjCrDsCo/RzXNEzPXtqJUL9UBynye1qJ1f01fXSR9tzgsjgHAAAPcz8BsDxj5ohcn+501RkAgN46jA3ygS1RaAMAeJ6PaYsnh+440zzJYazsigP02aw6AKN0m3Y607w4B2zbfZHrZXWQIm/TJtJc/9Jnn9Peq79WBwEA4Pv2z+9u0k5+BuARX8dMG7eMR1cdAADotfcxBw9sgUIbANRYVAdgZbtpf49DL7WdVQdgreyMCPTZXnUARucyrSjp84+pOU67FzmojVHiS1qJ9aI6CDzBSZIf00rYAAD0j+cKAMszZo7H0Nc5AACb9zpKbcCGKbQBADzffaltqEdsn2Sai2DHyuJIoO9MjrJOv6W9ppzOxNTMk3zINE9Z/j1/nkwHQ7NIK2H/XhsDAIDvcI8BsLxFdQDWpqsOAAAMwuvYaBLYIIU2AKixqA7A2uwm+WfajduQTp6ZxelsY2PSHYCp+DnthCqYkr20673X1UGKvE3bSESJlSG7SXsdv40NSQAA+mRRHQBgQMxHjsfu9emOjQgBgGW8ifl5YEMU2gAA1uNN2gP8IZzWtpfkY6Z5qsOYWdwL9J2JUVZ1m+SHtBOqYEq6JFdJDmtjlPiS9r638yNjcpF2XXRZHQQAgCTKGQBL2z+/M2aOS1cdAAAYjA9RagM2QKENAGosqgOwEQdpp7Ut0u+HvxeZ5mLYsTOBBPTdkE4ypX8u006Y9XnH1Jwk+SPT3Izi97TSj/c9Y3SV9vp+V5wDAGDy9s/vbtI20wBgOZ+qA7A2XXUAAGBQPsT1A7BmCm0AUOe2OgAbc5S26HSRft3E3Z/M9ro6CBtxVR0A4BGz6gAM1m9pi/6dRsqU3F+7v68OUuRt2unX3veM3VmSH2MBNQBANRtpACxvUR2AtemqAwAAg/Mxbe4eYC0U2gCgjsmx8bsvtn1OO3K78mSaF2mTCy8LM7BZV9UBAB5xUB2AQfo57ToKpmTK1+6XSX5IO1UapmKR9r7/vTgHAMCUmbMDWJ4xczx2r093ZtUhAIBB2U0yT+06SGBEFNoAoM5VdQC25jDtyO2rtBu6V1v8s/fSdnz/19ccjJfJIwDG5Dat1DIvzgHbdpxWbpnitftvabtCu65lim7SnhX8lPYZCADAdi2qAwAMyKI6AGvVVQcAAAbnMObxgTVRaAOAOlfVAdi63SSvk/wzbbHaPJs7uW2WVmS7SvLLBr4//XNTHQDgAV11AAblMu2kGqUWpuYibSOM3eogRT7HNS18TPsM/FQdBABgYjyDAFjS/vndTZIv1TlYm646AAAwSC/T1iYCrEShDQDqLKoDUOq+3PYhyf9NmyydpxXcumd+zy7Jydfv9e+0IttUF8NOjcWOAIzF/QlNV7UxYKv20u4P3xTnqPY+7Z5oExt+wJBcpX0WvquNAQAwHcoZAE+2qA7A2nTVAQCAwfolriWAFf29OgAATJjdHvnW4dev19/8b7f583XyvdMKZl+/9r7+XqbrqjoAwCNm1QEYhLdpJ1TBlLxIWwBkI4rmddrP5FVc48JZ2oltH5Mc1EYBAJiEz3HdBbCsz/nPeW2G6+D6dGe2f353VR0EABikedrc3n+vawRYikIbANS5SSssWbjIX9lNcvT1Px899Av/f/bu7ijOK10b8D1Tc8YBVHUAYkcgHIHaERhHYBSB5QQQ6gRGjsAoAuMI3IrAEMFuBUB9cNDH8x0ssaWR9UND9/u8P9dVRcnjsfEtBO/PWutei8lbVQcA+IbD6gD02m3aKbUXxTmgay/STiXjvz1NWxR1HLt9w2XaRPBZnOIIALBrl0l+qA4BMBA27x2XedpidACATT1Je444Ls4BDNQ/qwMAwMQZ6AW2YVkdAOAbDqoD0FtXaZPlymxMyUHaxI4y25ftJ/kzrcQDU3eTVoD9Ma0EDgDAbiyrAwAMxWyxXlZnYKuOqgMAAIP2QxTagAdSaAOAWsvqAMAorKoDAHyDyVA+521amc0mD0zNUZKfqkMMxMu0wqtiNLSfhcO0+ycAANtnfAJgM95Px2NeHQAAGLzXMZ8HPIBCGwDUMjkGbMOqOgAAbOhN2iT5TXEOoP9+SNsMRjka2n1zHhskAQBs3WyxvknyrjoHwIBY6zAeT69P9yxABwAe40mSF9UhgOFRaAOAWgZ5gcey+yEwBEoIfOx5kpPqEMCgPE0r8BwX5wAAAMbNvB3A/S2rA7BV8+oAAMDgvUxyWB0CGJZ/VQcAgIlbJblNsl+cAxiuVXUAgHvwrEPSnnvnsTgMeJj9JL8neZXkrDYKwOgdXJ/uzatDsDuzxXpZnQGgpy7TTokG4NuM847LPMlFdQgAYPDOYnNbYAMKbQBQbxmTY8DDmSwC+u6wOgAbuyuLHL7/OMiHU/bm7389ymZFxau0k5VWj48HTNzLtGvRcZKb2igAo/U0yZ/VIdipf1QHAOgp4+0A9zRbrFfXp3vvkjypzsJWzKsDAACj8FOS8zjNF7gnhTYAqGe3R+AxTLADfXdYHYCN3d1bVvlQQPvSzqxHaYW3w/y9/Pbs/a9vo3gCbNeztGvVcTwPAwAA2+P9AmAzl1FoG4un16d7B7PF2jg+wPbcZrMNQhmus/cfn24Ue/j+49nf/5VRexGFNuCeFNoAoN4ybYd5gIdYVgcAYHQ2mbC20Auo8iTtWfhF2k6PAAAAj/L+tCGLTgHubxmb947JUcw9A2zTZaZXZJq6m3y4ly4/+f+O0kpu84z/+emHtCLfqjYGMAT/rA4AABgQBB7sqjoAwD3MqwOwMSU1YCj2k/yW5HV1EAAAYDSMiwDcn2vmuMyrAwCMjPskH7tMm886TvKPJD8m+aM00W6dVQcAhkGhDQD64W11AGCQDH4BsAubnNAG0Ac/p20Wc1CcAwAAGL5ldQCAoZgt1svqDGzVvDoAwMjcJHlXHYLeukgrt/1PkldJbmvjbN1xzNsB96DQBgD9sKwOAAySQhswBEfVAdiISRVgqJ6lPR+77wAAAI9h3B1gM1fVAdiaZ9UBAEZoVR2A3lulnWZ2mORNZZAt208rtQF8lUIbAPTDsjoAMEjL6gAA92DXrWFZVQcAeIQnSf5KclKcAwAAGC6FNoDNLKsDsD3Xp3vz6gwAI7OsDsBg3KTNb32f8ZzWptAGfNO/qgMAAEnay+tt2s4UAPdlYh0YAoW2YVlVBwDYgt+SzKPYBgAAbGi2WK+uT/fM2QHcn/nKcZlH+QKG6pcM45o8hIzbtKoOwOAs8+F+PPT30h+qAwD9p9AGAP2xjId44P7eVgcAuKen1QHYyKo6AMCW/JTkKG3S76Y2CgAAMDCXSZ5VhwAYiGV1ALZqXh0AeLDLuCb30ao6AIN0mfGU2o6TXFSHAPrrn9UBAID/48Ed2MSyOgAAo6T0AYzJ07TJ4qPiHAAAwLAsqwMADMVssV4lua3OwdYYRwPYrmV1AAbrMslJdYgt8GwBfJVCGwD0x7I6ADAoy+oAAPcwrw7Axi6rAwBs2X6SvzKOST8AAKAbxkcANrOsDsDW7F+f7ll4DrBdV9UBGKyLJG+rQzzSvDoA0G//qg4AAPyfVdoL7NPiHMAwLKsDADBKTmgDxuq3tEmzF3GtAwAAvk6hDWAzl0l+qA7B1szjXjglyw3/+XmSZ9uPAaO2ivWAPNzrDPu6qygPfJVCGwD0y0W8wALfNvTdd4DpOKwOwMZMUgNj9lPaxNlx2gQyAADA38wW69X16d5t2onPAHzbMsnL6hBszTxt8TzTsMxmpbazDLtYARUUv3mMZXWAR/JeDXzVP6sDAAD/5aI6ADAIy+oAAPd0WB2AjdxWBwDowNO0yeN5cQ4AAKDfbPoDcE+zxXpZnYGtmlcHABgZ7xY8xk2Sq+oQj+SUNuCLFNoAoF8uk7yrDgH03rI6AMA9HVQHYCMmU4Cp2E/yZ5IX1UEAAIDeWlYHABiYoS+05oP969M9C88BtmdVHYDBu6kO8EjWjQBfpNAGAP3jlDbgW5bVAQDuyYQnAH327yTnMZEGAAD8nY1/ADbjujku5ncAtsc9EgC+QKENAPrnvDoA0Gt/VAcAYLSW1QEACvyUdv07rI0BAAD0jEWnAJtZVgdgq+bVAQBG5m11AADoo39VBwAA/uYyybskT6qDAL20rA4AsAE7eAIwBE/T3sVP4tR0AAAgyWyxXl2f7t0m2a/OAjAQisDjMq8OADAyqyTPqkMMzGHavM1QnKf9OQOwAYU2AOin10n+XR0C6CULbIEhseBnWJbVAQAK7Sf5PcmrJGe1UQAAgJ64jEWnAPcyW6wvFYFH5cn16d7hbLFeVQcBGIlVdYABOkzysjrEBpbx5wywsX9WBwAAPkthBficdzH4AQzHYXUAAHiAl2nv5AfVQQAAgHJOGwLYjOvmuMyrAwCMyLI6AAD0kUIbAPTTKsnb6hBA7yi7AkNyWB2AjVlsAND8kDa5fFScAwAAqGWsBGAzy+oAbNW8OgDAiKyqAwBAHym0AUB/nVcHAHpnWR0AgFG7qQ4A0CNP056/j4tzAAAAdRTaADazrA7AVtnsCWB7Vkluq0MAQN8otAFAf53HiyzwwW2c0AYMy7w6APd2m+T76hAAPbSf5PckZ8U5AACAArPFWqENYDOum+Py9Pp076A6BMCIuE8CwCcU2gCg386rAwC9ocwGwC7cppUPl7UxAHrtZdp10gIeAACYnrfVAQCGYrZY3yR5V52DrZpXBwAYEYU2APiEQhsA9Nvr6gBAbyi0AUNzWB2Ab7pKchSTJwD38SztenlUHQQAAOiUcROAzSyrA7BV8+oAACOyqg4AAH2j0AYA/baKnR+BdnqOQhswNIfVAfiqq7SJ6FVtDIBBeZK2KOukNgYAANAhhTaAzbhujsu8OgDAiLhHAsAnFNoAoP+c0gYoswFDdFAdgC/6I20S+qY4B8AQ7Sf5Ld7VAQBgKiw6BdjMsjoAW/X0+nTPfA/Adni3AIBPKLQBQP9dJHlXHQIopdAGDNHT6gB81pskx1FmY5rmcbIW2/NzkhfVIQAAgN2aLdYWnQJswHVzlI6qAwCMxE2S2+oQANAnCm0AMAxn1QGAMrdRaANgO15FmYfpOkvyZ5LD2hiMjN2pAQBgGt5WBwAYGNfNcZlXBwAYEcVvAPiIQhsADMN57NACU3VeHQDgAezW2T/PY5MEpukwyTLJy9oYAAAADJhFpwCbWVYHYKvm1QEARmRZHQAA+kShDQCG43V1AKDEeXUAgAdwYk1/3KaV2c6Lc0CF47RFh8+qgwBM0LI6AADAFim0AWzGdXNcjK8CbM+qOgAA9IlCGwAMx+s4pQ2m5iomfIBhOqwOQJL27DiPMhvT9DrJ70n2q4MATNFssT5L8mOMZQEA42CcHmAzy+oAbNf16d68OgPASKyqAwBAnyi0AcBw3MQpbTA1fuaBoTqsDkDepZXZLLhiag7Tvu9/Ls4BMHmzxfoiyVHaZi0AAIM1W6yNrwBsYLZY36SNUTMe8+oAACOxrA4AAH2i0AYAw+KUNpiO2yQX1SEAGKSrtMXjFlsxNcdp3/dPq4MA0MwW69VssT5K8mt1FgCAR3pbHQBgYIxPj8u8OgDAiCh9A8B7Cm0AMCxOaYPpuEj7mQcYonl1gAl7m/b1dw9hal4n+T3JfnUQAP5utli/SPJjbNQEAAyXYgbAZpbVAdiqo+oAACPi3QIA3lNoA4DhcUobTIPyKgCbehNlNqbnMG3i7+fiHAB8w2yxvki7bjvdBAAYIotOATbjujku+9ene0ptANvhHgkA7ym0AcDw3CR5UR0C2Km3MYAFDJtJze69SXJSHQI6dpz2zPS0OggA9zNbrG9mi/U8yavqLAAAG1pVBwAYktlivazOwNbNqwMAjIT1QADwnkIbAAzTeZJ31SGAnTmvDgDwSPvVASbmeZTZmJ6zJL/H9QZgkGaL9VmS75PcFkcBALgXxQyAB3FC97jMqwMAjMSqOgAA9IVCGwAM10l1AGAn3kWhDRi2g+oAE/M87htMy0GSZZKXxTkAeKT3i8IPY4EjADAcV9UBAAbGCTTjMq8OADAS7o8A8J5CGwAM1zIW/MAYnVUHAHiko+oAE3Gb5LsoszEtR2m7Vj4rzgHAlswW65vZYj1P8qo6CwDAPVh4CrCZZXUAtmr/+nTPHBDAdtgsAwCi0AYAQ3dSHQDYqtskF9UhAOi927SdUC2iYkpeJPkryX51EAC2b7ZYnyX5Pu3UcgCAvjIWA7AZ183xmVcHABgJ90gAiEIbAAzdKnawhjF5neSmOgTAI82rA4zcVdopVSY5mIqDtJMI/12cA4Admy3Wy7TnnD+KowAAfInxGIANzBbrVdoGbYyHE9oAtmNVHQAA+kChDQCG73XsXg1jcJv28wwAX3KVVhhc1caAzhwlWSb5qTgHAB2ZLdY3s8X6OMkv1VkAAD71voAPwGaW1QHYqnl1AICRWFYHAIA+UGgDgOG7SXJSHQJ4NKezAWNxWB1gpN6kTRS7VzAVx2mTeU+LcwBQYLZYv07yXWziBAD0z1V1AICBcbrluDy5Pt07rA4BMAKr6gAA0AcKbQAwDsskv1aHAB7M6WzAmBxWBxihN2kbGCizMRVnSX5Psl+cA4BCs8X6Mu20zj+qswAAfEQxA2Azy+oAbN28OgDACKyqAwBAHyi0AcB4nKWVYoDhcTobMCYH1QFG5pc4jZfpOEhykeRldRAA+mG2WN/MFuvjtGciAIA+UGgD2MBssV5WZ2Dr5tUBAEbibXUAAKim0AYA43GT5Lg6BLCxd2mFVICxeFodYESexwmeTMdR2qLAH6qDANA/s8X6dZLvklxVZwEAJk+hDWBz3uXGZV4dAGAkvFsAMHkKbQAwLsskv1aHADZyVh0AgN65TfJjkvPiHNCV47R3mSfFOQDosdlifZm2aO5NcRQAYMKcNATwIMvqAGzVk+vTvYPqEAAjsKoOAADVFNoAYHzOYoczGIqrKCsA43JUHWAEbtMWal8U54CunCX5Pcl+cQ4ABmC2WN/MFuuTtJNsb4vjAADTZR4OYDNOoBmfeXUAgBFwfxwXZW+AB1BoA4DxuUlyUh0CuJcX1QEAtswg7eNcpU0Cm7xgCg7Sipsvq4MAMDyzxfo87bnJYnIAoIKxG4DNLKsDsHXz6gB807w6APBN3ivGZZeb//peAUZLoQ0AxukyyS/VIYCvehOTN8D4HFYHGDBlNqbkMO056IfaGAAM2Wyxvkx7fnpTHAUAmB7jNwAbmC3Wqzhle2zm1QH4pl0WK4DtuIn745gc7vBz3+zwcwOUUmgDgPF6neSP6hDAZ93G6WzAOB1WBxiot2mTvwaimYJ52sK/p8U5ABiB2WJ9M1usT5I8j8UfAEB3FNoANufaOS5Pr0/3DqpD8FX7SY6rQwDf5P44HvPqAABDpNAGAON2knbaB9AvZ1FaAKB5E2U2puMkyZ9pE+kAsDWzxfo8bedx42AAwM7NFutldQaAAVpWB2Dr5tUB+KZdFNoOd/A5YcqW1QHYmidxOibAxhTaAGDcbtIWjdqhGvrjKu0ERYAxmlcHGJhf057VYArOk/xWHQKA8Zot1qvZYn2U9owFALBrivQAm1lWB2DrLNrvv5+y/QLatj8fTN2qOgBbdVIdAGBoFNoAYPwu42UJ+uSkOgAAvfA8yYvqENCBg7TFKj8V5wBgImaL9YskP8YGTwDAbl1WBwAYGNfN8ZlXB+Betr3Z7rMtfz6YulV1ALbqJIq/ABtRaAOAabhI8kt1CCCvYrIGGLfD6gAD8TzttCoYu8O0MpsJbgA6NVusL9J2indyCgCwK6vqAABDMlusb+IdbWyM+w7DD0mOt/S5Trb0eYAPltUB2Kr9bL9InAx/HYa1csAXKbQBwHS8TvKmOgRM2FWSs+oQADv2pDpAz90m+S7KbEzDUdrkxNPqIECSdlriYXUI6NJssV7NFuujJL9WZwEARmlZHQBggCxmHpnr0715dQbu5TxtzP6xzrbwOYC/e1cdoKeG+tzwQ7a/HmC+5c/XtZvqAEB//as6AADQqZO0BWx2yoJu3WZ7u54B9NVBdYCeu00baB7qwDts4iTJb9UhgP/yIsnLOCWUCZot1i+uT/cuklyk7ZALALANxngANrdM8lN1CLZqHiXvIdhP+3Oa5+HPMGexsWXfnWRYpZdlXD/uXMbP1+cMuQR197zzIo//fZzE9wcwYgptADA9x2kDAk5KgO68SLKqDgGwY9vY2XGsrtImkIY86A739SLJv6tDAH8zf//rb2n37Bd1UaB7hH/LHAAAHH9JREFUs8V6eX26d5hWarPREwDwaLPF+ub6dO9dLCwE2IQy8PjMqwNwb/tJ/kryS5LXG/67J2mbZdFvQywML6sD9MRl2qlejMtPaes0X6SNSz9krcA8m1+z+8YJhMBX/bM6AADQuZu0l52r4hwwFW/iBASAKVNmY0rOo8wGffXxSao/p02QH9ZEgRqzxfpmtljPk7yqzgIAjIZiBsAGZou16+b42DRmeP6d9gxzfI9/9jCthPHbLgMB3itGbD/tGvr/0q6nL9LWDhx85d85zIcDC/58/zmGbFUdAOg3hTYAmKabtBef2+ogMHJXcfIBMB1OaPu7N2lfF2U2xu4gbRJmiLt/wlR8ekr709x/4QqMymyxPkvyfYyLAQCPZ+EpwObeVgdgu65P98wPDc/TJL+nlQzO005gm3/0cXea0P/GqVHQhVV1ADrxQ1qp+M+0gtt/3n9cppXXbt7/7/9Nu0aPpTRurQTwVQptADBdq7SBKIt3YDdu0wZ+vZgDU/G1XcSm6E3afQDG7iBtksWkNgzPftqk6OvqINC12WK9TNvp1kJKAOAxltUBAAZoWR2ArZtXB+DBnqRtVPdbWsHi7uPfMeYPXbJRxpe9qw7Qgadp5bWhn8T2Jb6/ga9SaAOAabuMUhvsyot4KQem5bA6QI/8EmU2puEobQHKpyc/AcPyc9q7i920mZTZYn0zW6znSV5VZwEABsscAMDmXDvHZ14dYMeuqgMAk+Ba83mr6gA8mo3gga9SaAMAlNpg+14lOa8OAdCxw+oAPfE8TrphGpTZYFyepv1Mn9TGgO7NFuuzJN9lGrv9AgBbNFusb+IZAmBTy+oAbN28OsCOWYgPdEHhm7HyvQ18lUIbAJAotcE2vUlyVh0CgM7dJvk+Cs1Mwzxt4cl+bQxgy/aT/JbkIslBcRbo1Gyxvjul8I/qLADA4FicB7ABZeBR2r8+3TuqDrFDq+oAwCSsqgP0lPet4fNnCHyVQhsAcOcy7WQVR5jDw10leVEdAqDIs+oAhW7zoeADY3eS5M8os8GY/ZA2RjDmhUjwN7PF+ma2WB8n+aU6CwAwKBbnAWxuWR2ArZtXB9ihVXUAYBKW1QF6yimZw/Yu/gyBb1BoAwA+dpM20KjUBpu7Svv58SIOMC1313+Ll5iCk7TTm4Dxe5Lkrzh9mgmaLdavk3wXJwYAAPezrA4AMEDG08dnzBsj+X4FurCqDtBTy+oAPIp7KPBNCm0AwKfuSm1/FOeAIbk7mUeZDZiqMU9Ufo0yG1PyOspsMEUv0yaMD2tjQLdmi/XdKYXGxwCAbzEuBLC5ZXUAtm5eHWCH3OuBLqyqA/TUqjoAj7KsDgD0n0IbAPA5N0mOk7ypDgIDoMwGkBxUByjwR1z/mY7zJD9XhwDKPEtbuHNcHQS6NFusb2aL9XGSX9Le/QEA/ma2WN/Eya4AG3m/iQjj8uT6dO+wOsSOrGJcAOjG2+oAPbSKa/CQLasDAP2n0AYAfM1JkufVIaDH7spsJl2AqZtaoe1N2qJ+ZTbG7iDJRZKfqoMA5faT/J5WcJ3afZ+Jmy3Wr9Pe/a+KowAA/WWOAGBzFu2Pz7w6wA4tqwMAk+C94vN8XYbpNv7sgHtQaAMAvuU8yfex2wl8SpkN4IOj6gAdepVW+oexO0ibpP+hOAfQLz+lvQNN6d4Pd6cHzNM2NgAA+JR5AoDNuXaOz7w6wA4tqwMAk7CqDtBTy+oAPMhFdQBgGBTaAID7WKYtVrMTNTTKbADT9DzJWXUI6MBh2jvA09oYQE89SfJX3BOZmNlifTNbrE/Snglt/AQAfGxZHQBggJbVAdi6eXWAHVpWBwAmwRqkz1OMGqZldQBgGBTaAID7WsVO1JC0Yuc8BpIAPjavDrBjt2kLl8+Lc0AXjtKec5TZgG95mXa9OCzOAZ2aLdbnac+/Nn4CAO6YLwDYnGvn+Dy5Pt07qA6xI5dJ3lWHAEbPvfHzLmODsSFSRATuRaENANjETZKT2Ima6VJmA5ieu1M5z2tjQCeO0nbL2y/OAQzH07T3o5PiHNCp2WJ9GRs/AQDvzRbrm1jkDrCR2WK9imvnGM2rA+yQhfnArt3EerwvcQ0elj/Svp8BvkmhDQB4iPPYiZrp+SPt+94LN8DfHVYH2JF3UWRmOk6S/BVlNhirXU6C7yf5LW1Ceay7cMPfzBbrm9lifZLkx1hoAgAkq+oAAANk7H185tUBduh1dQBgEtwbP0+hbVjOqwMAw6HQBgA81GXaCQ6vqoNAB94kOY4yG8CXPKkOsANXac86Jg2YgpO0MgowXl3cz354/9+Zd/Dfgt6YLdYXac+NNn4CgGlbVgcAGKBldQC2bl4dYIdWSd5WhwBGz9z0513EpmJD8S4KiMAGFNoAgMc6S/J92ssIjNHztEXeAHzeGE9iuYpTOZmO8yizAdvzJMmfsWM1EzNbrFezxfooya/VWQCAMhaeAmzOtXN8nl6f7o1x3ujOeXUAYPTcG7/svDoA93JeHQAYFoU2AGAblmk7UVu0w5jcJvkuXrQBvuWoOsCWvUn7PSmzMQXnSX6qDgGM0s/5cLI7TMZssX6R5MfYLRgApsjCU4ANzRbrZXUGdmJeHWCHzmOzZ2C3VtUBesxGev13G39OwIYU2gCAbblJ8iKtAHRVnAUe622Sw5iABpiaN3EqJ9NwkPaco8wG7NLTJH+ljRXAZMwW64u0MqfxMQCYkNlivYpSO8BDvK0OwNbNqwPs2Fl1AGDUltUBemyVNp9Pf72OjYOBDSm0AQDbdrcD+y8xcccwvUobZPeCDXA/Yzl55XmU2ZiGg7TJsKfFOYDp+HfadeegOAd0ZrZYr2aL9VGSX6uzAACdskkewOZcO8dnLPNGX3Iep7QBu+Ua82Vn1QH4IqezAQ+i0AYA7MrrtBOu7IzCUFylnTB4VpwDYGjGsDj9edoEJIzdUdruhcpsMD3Vi8OepV1/jotzQKdmi/WLJN/Hpk8AMBXL6gAAA1Q9ZsH2PasO0IGz6gDAqK2qA/TYKtYi9tVZbB4PPIBCGwCwSzdpJ518n+RtbRT4ql/TTmUzYQKwucPqAI9wm1ZmPi/OAV2Ypy2s26+NARTpwyTifpLf0+67YyjEw73MFutl2jOzsTEAGD9zDACbW1YHYPuuT/fm1Rl27Dze8x/D6VPwdcvqAD13FhuI9c1VnM4GPJBCGwDQhWXaAtofY2CKfrk7le1F+rHAE2CIDqsDPNBtlJmZjpMkf0aZDeiHn9Luv/PiHNCZ2WJ9M1us50leVWcBAHbKOBPAhmaL9SoWpY/RvDpAB15UBxiod0mOq0NAz3mv+LpVlKf6xj0ReDCFNgCgSxdpi96fR7GNWrdpi8iOYiAIYIqu4h7AdJwl+a06BMAnnqQVbc+Kc0CnZov1WZLvY7EmAIySUgbAgy2rA7B18+oAHbiMjWse4izta2fNEHzZqjrAAJylzflT71U8ywGPoNAGAFQ4j2Ibdd6klRjOinMAjMWz6gAbukqbSF3VxoBOnCd5WR0C4Ctepi1gOaoOAl2ZLdbLtHGxt7VJAIAdsYESwOZcO8dnaHNHD3UWhYpNvEubt0iUH+Br3Bfv5zg2FKl2FevvgEdSaAMAKp1HsY3uvE3bBf0kSgwAU/Umrcx2U5wDdu0gbTL4p+IcQH8sqwN8xdO0fC+Kc0BnZov1zWyxnsdO7gAwRsvqAAADtKwOwPZdn+7NqzN0RKHi/k4++uuLqhAwEMqy37bKf19X6NZt2j0Q4FEU2gCAPjjPh2KbF3K27V3a99Y8JkMAtu2wOsAG3qQNaCuzMXZ3Zbap7IALjMN+kn+nXb8OaqNAd2aL9VmS72KjJwAYE6cpAGzo/UnWjM9RdYCOrGJB/338mv9er3ERRUD4mlV1gIG4iE3Dqszj+xTYAoU2AKBPztMGNb9PW3QOj3FXZDtM+94CYPsOqwPc06vYnY1pOEqbOHhanAPgoZ7FIiAmZrZYX6bdw/+ozgIAbIVCG8DD2Ph2fObVATq0TFubwOddJTn7zN93Sht8mfeK+zuLdYZdex7fo8CWKLQBAH20TFt0/j9pC9DtysQmFNkAujOEE1Se5/OTZDA2x2nP0fvFOQAeaz/J72nvc0N41oBHmy3WN7PF+jjJL9VZAIDHmS3Wq5jXAngIi6LHZ14doGPn8V7/Obdp639uPvP/KbTBly2rAwzMSZTauvI81uMBW6TQBgD02SptAfpB2suQnar5mrdJfowiG0CXjqoDfMVt2n3hvDgHdOEkrfyhzAZ8ybI6wAP8lLaYbV6cAzozW6xfJ/kubbMeAGC4lDIANresDsDW7V+f7vV5HmkXXkeh4lMn+fKz0UVsBABfsqoOMEAncQ3eNWU2YOsU2gCAoThPO3Xif9J2tbKwh6QNbr5JW+w1jx28AGhu477AdJwn+a06BMCOPEnyZ9piIJiE2WJ9mbZxhI2dAGC4ltUBAAZIGXic5tUBCpykLfinfR2+NVdnLg8+b1UdYKBO4rTMXbCZMLAzCm0AwNCs0hayHaaVmH6NctsUXaUNfh7m6zt6AbBbfdxZ813aBKl7A2N3kDbR+1N1EIAO/Jx2b+/jswds3Wyxvpkt1sdpiy/sVA4Aw2NcCmBD7zf38P4zPvPqAEXOo9R231N8FNrgy95WBxio12nlK88V23G3/sL1GtgJhTYAYMguk7yIcttUvEv7M/4ubRHjeZKbykAA5KA6wCeu0u4RFg0xdgdpu73/UJwDGJahT94+TfJX2jgATMJssX6dtljgqjgKALAZY1MAD+P6OT5T3pzoPG1tw9DH5B7ivmW2pBUkpvg1gvtYVQcYsIu0e5BS4OP8EesvgB37V3UAAIAtuSu33RXcjt9/PCvMxOPdpg0y3H1A15bVAdipVXWAEThPv35OXkfZmWk4juejh1pWB0i7/7yqDsFWLKsDbOgyw3hHfpe/P6ctP/rrg7T3/k//GRil2WJ9eX26N0971nUyKwAMwGyxXl2f7lXHABiiZYYxdsH9Pbk+3TucLdar6iBFLtPGsS4yje/t2yQn2Xzu4iLGPOBzLuNn4zFWaZuFvUhylmS/MMvQ3KZ9zV4X5wAmQKENABijVdoL1eu0hW7ztEW/8yRPqkJxb+/yYYH2sjYKZBnfh/A159UBYKLOqwPwKKu0SSAYo093O73Mf5fNb/L3nTyXuwwEYzBbrG+SnFyf7i3TxrssvgCA/nubaSxcB9imZZKX1SHYunmmPaZ9k/Y1OMu4v7+v0spsDznFZxmlHfgcp2Jtx+u0NWhnca25jz/SSoCr4hzARCi0AQBjd5P/Pr3iMG2w8O5Dwa3ebT6Uhi7ihRgAAKBrV9m8eLaK9zfo1GyxPr8+3btMWwj4tDgOAPB1QzkhGaBPLNwfp3mmXWi7c5b2dTjP+J4Rfk37/d1845/7koskv20tDYyH++L2rNJKt+dp16uxXYe34W3a12ZZGwOYGoU2AGBqVvkwSJi0gttR2iDqUbywduE2bdBlGadfAQAAdOVF2inmnyurAQMxW6wvr0/35mnjWNBX5zHmx+5dJvm+OgRbsaoOsCN3pwAwbKvqAFvgeslgzBbrm+vTPd+v4/PQktMYrdLWphynPSsMfQPmd2kFkeUjP89N2olAPzzy88DY3KStsdqvDjIiy3zYBP8s1gkmbcPD11E+B4r84z//+U91BgCAvjn65MPL6+Nc5UOB7TIWTgIAAAAAAAAA03aSVqgYWrHtNq38cLbFz3mS3Z3S9n02L92dJXm59SR87FUe9z00hMXvj/09Ju17d8jr1h7y89elw7TNAE8yveLgH2nX8mVxDmDinNAGAPB3nytdHb7/mH/010MeMNiFu5PX7j5W8dILAAAAAAAAAPCp8/cfJ+8/+r4G5a7I9jrbP3nvIrsrtMGQXab/14YhW6UV2l6knZ55knGfFvkuH+49q8ogAHcU2gAA7meVzxe0DtJOcfvcr087S9edd/nwtVilDZzcRHENAAAAAAAAAGBT5+8/jtLKFMfp16ltV2kltotsv8h25ybttKAxF0ngIT7dkJ3duXj/kbTr8HHaxvd9uh4/xFXaur7z+H4CekihDQDgcT4uc1184Z+5K7jdld3yyV8n7cS3qhfgu5LaneX7X2/y4UX2rrgGAAAAAAAAAMB2XebDSUF35bZ5ajZTvkpbA3Oe7k7xuYhCG3xqVR1goj4utx2mXYvnadfmvm9wf5V2P1m+/1gVZgH4JoU2AIDd+3h3ky+V3j7n8P3HNn1cUgMAAAAAAAAAoF/uym1JWzdylA9liqMk+1v+7719/9+8K0Gstvz57+MiyW8F/13os2V1ALLKh5M078zzYV3fPG1j+66Lbrdp1+zV+49lbFgPDJBCGwBAf61ilxQAAAAAAAAAgKlavf/4eAPlg7Ri22E+bJR89P7v3+dzJa380KdNkW+S/Jr2+9j2593UKq3kx+6sHvnvD+HPZ7Wlz/NHvv2z3VdjLVctv/D3767Nyd83sr/PNfpTHxfUVvnv6zfAKPzjP//5T3UGAAAAAAAAAAAAAAAAACbgn9UBAAAAAAAAAAAAAAAAAJgGhTYAAAAAAAAAAAAAAAAAOqHQBgAAAAAAAAAAAAAAAEAnFNoAAAAAAAAAAAAAAAAA6IRCGwAAAAAAAAAAAAAAAACdUGgDAAAAAAAAAAAAAAAAoBMKbQAAAAAAAAAAAAAAAAB0QqENAAAAAAAAAAAAAAAAgE4otAEAAAAAAAAAAAAAAADQCYU2AAAAAAAAAAAAAAAAADqh0AYAAAAAAAAAAAAAAABAJxTaAAAAAAAAAAAAAAAAAOiEQhsAAAAAAAAAAAAAAAAAnVBoAwAAAAAAAAAAAAAAAKATCm0AAAAAAAAAAAAAAAAAdEKhDQAAAAAAAAAAAAAAAIBOKLQBAAAAAAAAAAAAAAAA0AmFNgAAAAAAAAAAAAAAAAA6odAGAAAAAAAAAAAAAAAAQCcU2gAAAAAAAAAAAAAAAADohEIbAAAAAAAAAAAAAAAAAJ1QaAMAAAAAAAAAAAAAAACgEwptAAAAAAAAAAAAAAAAAHRCoQ0AAAAAAAAAAAAAAACATii0AQAAAAAAAAAAAAAAANAJhTYAAAAAAAAAAAAAAAAAOqHQBgAAAAAAAAAAAAAAAEAnFNoAAAAAAAAAAAAAAAAA6IRCGwAAAAAAAAAAAAAAAACdUGgDAAAAAAAAAAAAAAAAoBMKbQAAAAAAAAAAAAAAAAB0QqENAAAAAAAAAAAAAAAAgE4otAEAAAAAAAAAAAAAAADQCYU2AAAAAAAAAAAAAAAAADqh0AYAAAAAAAAAAAAAAABAJxTaAAAAAAAAAAAAAAAAAOiEQhsAAAAAAAAAAAAAAAAAnVBoAwAAAAAAAAAAAAAAAKATCm0AAAAAAAAAAAAAAAAAdEKhDQAAAAAAAAAAAAAAAIBOKLQBAAAAAAAAAAAAAAAA0AmFNgAAAAAAAAAAAAAAAAA6odAGAAAAAAAAAAAAAAAAQCcU2gAAAAAAAAAAAAAAAADohEIbAAAAAAAAAAAAAAAAAJ1QaAMAAAAAAAAAAAAAAACgEwptAAAAAAAAAAAAAAAAAHRCoQ0AAAAAAAAAAAAAAACATii0AQAAAAAAAAAAAAAAANAJhTYAAAAAAAAAAAAAAAAAOqHQBgAAAAAAAAAAAAAAAEAnFNoAAAAAAAAAAAAAAAAA6IRCGwAAAAAAAAAAAAAAAACdUGgDAAAAAAAAAAAAAAAAoBMKbQAAAAAAAAAAAAAAAAB0QqENAAAAAAAAAAAAAAAAgE4otAEAAAAAAAAAAAAAAADQCYU2AAAAAAAAAAAAAAAAADqh0AYAAAAAAAAAAAAAAABAJxTaAAAAAAAAAAAAAAAAAOiEQhsAAAAAAAAAAAAAAAAAnVBoAwAAAAAAAAAAAAAAAKATCm0AAAAAAAAAAAAAAAAAdEKhDQAAAAAAAAAAAAAAAIBOKLQBAAAAAAAAAAAAAAAA0AmFNgAAAAAAAAAAAAAAAAA6odAGAAAAAAAAAAAAAAAAQCcU2gAAAAAAAAAAAAAAAADohEIbAAAAAAAAAAAAAAAAAJ1QaAMAAAAAAAAAAAAAAACgEwptAAAAAAAAAAAAAAAAAHRCoQ0AAAAAAAAAAAAAAACATii0AQAAAAAAAAAAAAAAANAJhTYAAAAAAAAAAAAAAAAAOqHQBgAAAAAAAAAAAAAAAEAnFNoAAAAAAAAAAAAAAAAA6IRCGwAAAAAAAAAAAAAAAACdUGgDAAAAAAAAAAAAAAAAoBMKbQAAAAAAAAAAAAAAAAB0QqENAAAAAAAAAAAAAAAAgE4otAEAAAAAAAAAAAAAAADQCYU2AAAAAAAAAAAAAAAAADqh0AYAAAAAAAAAAAAAAABAJxTaAAAAAAAAAAAAAAAAAOiEQhsAAAAAAAAAAAAAAAAAnVBoAwAAAAAAAAAAAAAAAKATCm0AAAAAAAAAAAAAAAAAdEKhDQAAAAAAAAAAAAAAAIBOKLQBAAAAAAAAAAAAAAAA0AmFNgAAAAAAAAAAAAAAAAA6odAGAAAAAAAAAAAAAAAAQCcU2gAAAAAAAAAAAAAAAADohEIbAAAAAAAAAAAAAAAAAJ1QaAMAAAAAAAAAAAAAAACgEwptAAAAAAAAAAAAAAAAAHRCoQ0AAAAAAAAAAAAAAACATii0AQAAAAAAAAAAAAAAANAJhTYAAAAAAAAAAAAAAAAAOqHQBgAAAAAAAAAAAAAAAEAnFNoAAAAAAAAAAAAAAAAA6IRCGwAAAAAAAAAAAAAAAACdUGgDAAAAAAAAAAAAAAAAoBMKbQAAAAAAAAAAAAAAAAB0QqEN4P+3b8cCAAAAAIP8rWexqzwCAAAAAAAAAAAAAABgIbQBAAAAAAAAAAAAAAAAsBDaAAAAAAAAAAAAAAAAAFgIbQAAAAAAAAAAAAAAAAAshDYAAAAAAAAAAAAAAAAAFkIbAAAAAAAAAAAAAAAAAAuhDQAAAAAAAAAAAAAAAICF0AYAAAAAAAAAAAAAAADAQmgDAAAAAAAAAAAAAAAAYCG0AQAAAAAAAAAAAAAAALAQ2gAAAAAAAAAAAAAAAABYCG0AAAAAAAAAAAAAAAAALIQ2AAAAAAAAAAAAAAAAABZCGwAAAAAAAAAAAAAAAAALoQ0AAAAAAAAAAAAAAACAhdAGAAAAAAAAAAAAAAAAwEJoAwAAAAAAAAAAAAAAAGAhtAEAAAAAAAAAAAAAAACwENoAAAAAAAAAAAAAAAAAWAhtAAAAAAAAAAAAAAAAACyENgAAAAAAAAAAAAAAAAAWQhsAAAAAAAAAAAAAAAAAC6ENAAAAAAAAAAAAAAAAgIXQBgAAAAAAAAAAAAAAAMBCaAMAAAAAAAAAAAAAAABgIbQBAAAAAAAAAAAAAAAAsBDaAAAAAAAAAAAAAAAAAFgIbQAAAAAAAAAAAAAAAAAshDYAAAAAAAAAAAAAAAAAFkIbAAAAAAAAAAAAAAAAAAuhDQAAAAAAAAAAAAAAAICF0AYAAAAAAAAAAAAAAADAQmgDAAAAAAAAAAAAAAAAYCG0AQAAAAAAAAAAAAAAALAQ2gAAAAAAAAAAAAAAAABYCG0AAAAAAAAAAAAAAAAALIQ2AAAAAAAAAAAAAAAAABZCGwAAAAAAAAAAAAAAAAALoQ0AAAAAAAAAAAAAAACAhdAGAAAAAAAAAAAAAAAAwEJoAwAAAAAAAAAAAAAAAGAhtAEAAAAAAAAAAAAAAACwCJUg7wiyPP08AAAAAElFTkSuQmCC;" vertex="1" parent="1">
          <mxGeometry width="400" height="100" as="geometry" />
        </mxCell>
        <mxCell id="NUtuvDR6UvhZ3oM0A1vR-5" value="" style="shape=image;imageAspect=0;aspect=fixed;verticalLabelPosition=bottom;verticalAlign=top;image=data:image/png,iVBORw0KGgoAAAANSUhEUgAABVoAAAVaCAYAAAAbx8LnAAAACXBIWXMAAC4jAAAuIwF4pT92AAAgAElEQVR4nOzd31Gb1/r34W/27DMdmN9QgJUKTCqwUoFJBSYVxGlAITQQp4LgCoIriFxBoIKIAjQbDjj2e7CkF+z4j8SStJ5Huq4ZDd6ODPfGGEYfLd3PN+/fvw8AAAAAAI/3n9YDAAAAAAD0ndAKAAAAAFBJaAUAAAAAqCS0AgAAAABUEloBAAAAACoJrQAAAAAAlYRWAAAAAIBKQisAAAAAQCWhFQAAAACgktAKAAAAAFBJaAUAAAAAqCS0AgAAAABUEloBAAAAACoJrQAAAAAAlYRWAAAAAIBKQisAAAAAQCWhFQAAAACgktAKAAAAAFBJaAUAAAAAqCS0AgAAAABUEloBAAAAACoJrQAAAAAAlYRWAAAAAIBKQisAAAAAQCWhFQAAAACgktAKAAAAAFBJaAUAAAAAqCS0AgAAAABUEloBAAAAACoJrQAAAAAAlYRWAAAAAIBKQisAAAAAQCWhFQAAAACgktAKAAAAAFBJaAUAAAAAqCS0AgAAAABUEloBAAAAACoJrQAAAAAAlYRWAAAAAIBKQisAAAAAQCWhFQAAAACgktAKAAAAAFBJaAUAAAAAqCS0AgAAAABUEloBAAAAACoJrQAAAAAAlYRWAAAAAIBKQisAAAAAQCWhFQAAAACgktAKAAAAAFBJaAUAAAAAqCS0AgAAAABUEloBAAAAACoJrQAAAAAAlYRWAAAAAIBKQisAAAAAQCWhFQAAAACgktAKAAAAAFBJaAUAAAAAqCS0AgAAAABUEloBAAAAACoJrQAAAAAAlYRWAAAAAIBKQisAAAAAQCWhFQAAAACgktAKAAAAAFBJaAUAAAAAqCS0AgAAAABUEloBAAAAACoJrQAAAAAAlYRWAAAAAIBKQisAAAAAQCWhFQAAAACgktAKAAAAAFBJaAUAAAAAqCS0AgAAAABUEloBAAAAACoJrQAAAAAAlYRWAAAAAIBKQisAAAAAQCWhFQAAAACgktAKAAAAAFBJaAUAAAAAqCS0AgAAAABUEloBAAAAACoJrQAAAAAAlYRWAAAAAIBKQisAAAAAQCWhFQAAAACgktAKAAAAAFBJaAUAAAAAqCS0AgAAAABUEloBAAAAACoJrQAAAAAAlYRWAAAAAIBKQisAAAAAQCWhFQAAAACgktAKAAAAAFBJaAUAAAAAqCS0AgAAAABUEloBAAAAACoJrQAAAAAAlYRWAAAAAIBKQisAAAAAQCWhFQAAAACgktAKAAAAAFBJaAUAAAAAqCS0AgAAAABUEloBAAAAACoJrQAAAAAAlYRWAAAAAIBKQisAAAAAQCWhFQAAAACgktAKAAAAAFBJaAUAAAAAqCS0AgAAAABUEloBAAAAACoJrQAAAAAAlYRWAAAAAIBKQisAAAAAQCWhFQAAAACgktAKAAAAAFBJaAUAAAAAqCS0AgAAAABUEloBAAAAACoJrQAAAAAAlYRWAAAAAIBKQisAAAAAQCWhFQAAAACgktAKAAAAAFBJaAUAAAAAqCS0AgAAAABUEloBAAAAACoJrQAAAAAAlYRWAAAAAIBKQisAAAAAQCWhFQAAAACgktAKAAAAAFBJaAUAAAAAqCS0AgAAAABUEloBAAAAACoJrQAAAAAAlYRWAAAAAIBKQisAAAAAQCWhFQAAAACgktAKAAAAAFBJaAUAAAAAqCS0AgAAAABUEloBAAAAACoJrQAAAAAAlYRWAAAAAIBKQisAAAAAQCWhFQAAAACgktAKAAAAAFBJaAUAAAAAqCS0AgAAAABUEloBAAAAACoJrQAAAAAAlYRWAAAAAIBKQisAAAAAQCWhFQAAAACgktAKAAAAAFBJaAUAAAAAqCS0AgAAAABUEloBAAAAACoJrQAAAAAAlYRWAAAAAIBKQisAAAAAQCWhFQAAAACgktAKAAAAAFBJaAUAAAAAqCS0AgAAAABUEloBAAAAACoJrQAAAAAAlYRWAAAAAIBKQisAAAAAQCWhFQAAAACgktAKAAAAAFBJaAUAAAAAqCS0AgAAAABUEloBAAAAACoJrQAAAAAAlYRWAAAAAIBKQisAAAAAQCWhFQAAAACgktAKAAAAAFBJaAUAAAAAqCS0AgAAAABUEloBAAAAACoJrQAAAAAAlYRWAAAAAIBKQisAAAAAQCWhFQAAAACgktAKAAAAAFBJaAUAAAAAqCS0AgAAAABUEloBAAAAACoJrQAAAAAAlYRWAAAAAIBKQisAAAAAQCWhFQAAAACgktAKAAAAAFBJaAUAAAAAqCS0AgAAAABUEloBAAAAACoJrQAAAAAAlYRWAAAAAIBKQisAAAAAQCWhFQAAAACgktAKAAAAAFBJaAUAAAAAqCS0AgAAAABUEloBAAAAACoJrQAAAAAAlYRWAAAAAIBKQisAAAAAQCWhFQAAAACgktAKAAAAAFBJaAUAAAAAqCS0AgAAAABUEloBAAAAACoJrQAAAAAAlYRWAAAAAIBKQisAAAAAQCWhFQAAAACgktAKAAAAAFBJaAUAAAAAqCS0AgAAAABUEloBAAAAACoJrQAAAAAAlYRWAAAAAIBKQisAAAAAQCWhFQAAAACgktAKAAAAAFBJaAUAAAAAqCS0AgAAAABUEloBAAAAACoJrQAAAAAAlYRWAAAAAIBKQisAAAAAQCWhFQAAAACgktAKAAAAAFBJaAUAAAAAqCS0AgAAAABUEloBAAAAACoJrQAAAAAAlYRWAAAAAIBKQisAAAAAQCWhFQAAAACgktAKAAAAAFBJaAUAAAAAqCS0AgAAAABUEloBAAAAACoJrQAAAAAAlYRWAAAAAIBKQisAAAAAQCWhFQAAAACgktAKAAAAAFBJaAUAAAAAqCS0AgAAAABUEloBAAAAACoJrQAAAAAAlYRWAAAAAIBKQisAAAAAQCWhFQAAAACgktAKAAAAAFBJaAUAAAAAqCS0AgAAAABUEloBAAAAACoJrQAAAAAAlYRWAAAAAIBKQisAAAAAQCWhFQAAAACgktAKAAAAAFBJaAUAAAAAqCS0AgAAAABUEloBAAAAACoJrQAAAAAAlYRWAAAAAIBKQisAAAAAQCWhFQAAAACgktAKAAAAAFBJaAUAAAAAqCS0AgAAAABUEloBAAAAACoJrQAAAAAAlYRWAAAAAIBKQisAAAAAQCWhFQAAAACgktAKAAAAAFBJaAUAAAAAqCS0AgAAAABUEloBAAAAACoJrQAAAAAAlYRWAAAAAIBKQisAAAAAQCWhFQAAAACgktAKAAAAAFBJaAUAAAAAqCS0AgAAAABUEloBAAAAACoJrQAAAAAAlYRWAAAAAIBKQisAAAAAQCWhFQAAAACgktAKAAAAAFBJaAUAAAAAqCS0AgAAAABUEloBAAAAACoJrQAAAAAAlYRWAAAAAIBKQisAAAAAQCWhFQAAAACgktAKAAAAAFBJaAUAAAAAqCS0AgAAAABUEloBAAAAACoJrQAAAAAAlYRWAAAAAIBKQisAAAAAQCWhFQAAAACgktAKAAAAAFBJaAUAAAAAqCS0AgAAAABUEloBAAAAACoJrQAAAAAAlYRWAAAAAIBKQisAAAAAQCWhFQAAAACgktAKAAAAAFBJaAUAAAAAqCS0AgAAAABUEloBAAAAACoJrQAAAAAAlYRWAAAAAIBKQisAAAAAQCWhFQAAAACgktAKAAAAAFBJaAUAAAAAqCS0AgAAAABUEloBAAAAACoJrQAAAAAAlYRWAAAAAIBKQisAAAAAQCWhFQAAAACgktAKAAAAAFBJaAUAAAAAqCS0AgAAAABUEloBAAAAACoJrQAAAAAAlYRWAAAAAIBKQisAAAAAQCWhFQAAAACgktAKAAAAAFBJaAUAAAAAqCS0AgAAAABUEloBAAAAACoJrQAAAAAAlYRWAAAAAIBKQisAAAAAQCWhFQAAAACgktAKAAAAAFBJaAUAAAAAqCS0AgAAAABUEloBAAAAACoJrQAAAAAAlYRWAAAAAIBKQisAAAAAQCWhFQAAAACgktAKAAAAAFBJaAUAAAAAqCS0AgAAAABUEloBAAAAACoJrQAAAAAAlYRWAAAAAIBK/209AAAAJMlsPDhIcvTgt0afuNtRkoNP/P5lkpsH//tm/ns5PLubrGdCAAD4vG/ev3/fegYAAPbAbDwYJhnmPpaO5v/pKMmTLYzwLsl0fpskuTw8u7v5wv0BAGBpQisAAGs1D6pHD27DJM8ajvQlVyknXydJJodnd9Om0wAA0FtCKwAAjzaPqqPcR9XnLedZg6uU6Hp+eHZ32XgWAAB6RGgFAGBps/HgKCWsLm7beMl/K7dJLlKi66TxLAAAdJzQCgDAZ+1ZWP2S65To+tp6AQAAPkVoBQDg/5uNB4uLVB3P3z5tOU9HvUs55XreehAAALpDaAUA2HPzPauLsPqi6TD9cpvkdcop15vWwwAA0JbQCgCwhx7E1ZMkz5oOsxveJDm1VgAAYH8JrQAAe2K+FmARV5+3nWZnCa4AAHtKaAUA2HGz8WCUEldftp1krwiuAAB7RmgFANhB89Orr1ICqwtatfNr7HAFANgLQisAwA6ZjQdHKYHV6dXuuE053fq69SAAAGyO0AoAsANm48FJ7F7tuqskrw7P7iatBwEAYP2EVgCAHpsH1tNYD9Anb1KCq3UCAAA7RGgFAOghgbX3bpOcHJ7dXbQeBACA9RBaAQB6RGDdOW9TgqvTrQAAPSe0AgD0wGw8GCU5j8C6i5xuBQDYAUIrAECHzcaDoySv4yJX+8DpVgCAHhNaAQA6aDYeHKSsCPip8Shs13WS48Ozu8vWgwAAsJr/tB4AAIAPzcaD4yTTiKz76GmSv2fjwWnrQQAAWI0TrQAAHTE/xXqe5EXjUegGqwQAAHpEaAUA6ID5KdbzJE8aj0K3WCUAANATQisAQENOsbKE2ySvDs/uzlsPAgDA5wmtAACNzMaDoyQXKXs54Wt+Pzy7e9V6CAAAPk1oBQBoYDYevEryW+s56B17WwEAOkpoBQDYovmqgNdJXraehd66SjISWwEAukVoBQDYktl4MExZFfCs8Sj0n4tkAQB0jNAKALAF832skyRPGo/C7rhNOdkqtgIAdMB/Wg8AALDrZuPBSZK/I7KyXk+STGbjwXHrQQAAEFoBADZqftGrP1rPwc56kuTPecwHAKAhqwMAADZkNh6cx0Wv2J4fD8/uzlsPAQCwr5xoBQDYAJGVBv5wshUAoB0nWgEA1kxk/cB1kun815dJbh78t+mD/7aMoyQHD/73wfz3Fr9+9pgBd5CTrQAADQitAABrMhsPDpJMsn/B7yolmF7mPp5eHp7d3Xz+j2zObDwYJnl4O5q/3ae/F7EVAGDLhFYAgDXYo8h6lRJUJykx9bLtOKuZjQdHKeH1KMkou/33JbYCAGyR0AoAsAaz8eAyuxntrlKi6iTJpNUp1U2ZB/LRg9uu/R2KrQAAWyK0AgBU2sGdrG9TwurF4dndtO0o2zVfO3CcEl1fNB1mfb4/PLubtB4CAGDXCa0AABV2KLJeJXmdEld36tTqY81Pu57Mb30+6XqbZNS3NQ8AAH0jtAIAPNIORNbbJOdJXu/bydVVzXe7vko57fqk8TiPIbYCAGyY0AoA8Aiz8eBVkt9az/FI10lO4/TqyuanXI9TPn9P206zsquU2OrvHABgA4RWAIAVzcaDkyR/tJ7jEa6TnLo40nrMvw5O06/gKrYCAGyI0AoAsIL5S8j/bj3Him5TAuvr1oPsoh4G1zeHZ3cnrYcAANg1QisAwJLmV6S/TL92dP6eElmdYNyweXB9nX58ffx6eHZ32noIAIBdIrQCACxhvptzkv5cff42yfHh2d2k9SD7ZP518irJL61nWcKP1kgAAKyP0AoAsITZeHCR5EXrOZb0LiWyOsXayPz083mS520n+aLblH2tl60HAQDYBUIrAMBXzMaDV0l+az3HA+/mb6fz203KSoMkuRRYu2P+tXOa7q4TuE5y5GsGAKCe0AoA8AWz8WCU5K8tfshFRL1MCajT+e3GycN+6sHp1reHZ3fHrYcAAOg7oRUA4DPm+zanWd9pxOvch9Np7k+iiqh7YDYenKa7u1tdHAsAoJLQCgDwGY/Yy3qVB/H04Vsvzf6koyQHa36f0/mtk+YnpC/SzVUC37t4GgDA4wmtAACf8Jm9rLcp8XQ6v+1LSD1IiaILw/ntc/994SjdC4qLU8UPPdxxu7D4u/3Uf6syPyk9SfJsne93DW6TDHf8axkAYGOEVgCAT5iNB+d5EFN37KTfwzA6zH00fXjCtIuRtJXblFOo5ymBdC3mX2Mv1/X+1sS+VgCARxJaAQB2y3B+exhTR/O34mm9d0lOsqb1BB3d2/rz4dnd69ZDAAD0jdAKANAvi4A6/MTtaZuR9tKvSV6nrBaoMhsPTpL8Uft+1ug2ycgF2gAAViO0AgB0z8cxdTT/va7t9Nx31ymnWye176iDsfXq8OzuU3t3AQD4DKEVAKCdYe5D6uLXz1sNw6O9TQmuVadbZ+PBKGUXbFfWO/x6eHZ32noIAIC+EFoBADZvcUJ1cRtGUN01azndOhsPjubvoyux9TsrBAAAliO0AgCs1zD3QXUUF6DaN78mOa15B7Px4DjJn2uZpp4VAgAASxJaAQAeb5j7mHoUp1Qp3iU5TsUqgY7tbLVCAABgCUIrAMByDnIfVRdvnVTlc25Tvk4e/bL7DsXW2yRHh2d309aDAAB0mdAKAPBpD4PqKMnTlsPQS7dJXiU5f+w7mI0Hr5P8tK6BKrw7PLsbtR4CAKDLhFYAgGL04GYFAOv0c5LXj/3Ds/HgIsmL9Y3zaD8cnt1dtB4CAKCrhFYAYB8t1gAsbs8azsJ+eJPk5DF/cDYeHCSZpP3X6XXKCoFH754FANhlQisAsA+EVbqgJrYOU/a9tt4L7MJYAACfIbQCALtqNL8dR1ilO2pi63GSP9c6zeN868JYAAD/9p/WAwAArMlRyoWHLpK8T/JXkl8istItL/PIi2PN96P+vtZpHue09QAAAF3kRCsA0FeLdQDH87dPWw4DK6o52XqZ9k8gfH94djdZw/sZPfj1Ot4fAEAz/209AADACoYpYfU4yfO2o0CVl/O3J4/4s8dpv6/1NB9G0lUdJ3mdfz9B8jblVPokybTi/QMAbJ0TrQBA141yH1edWmXX/JwSHFcyGw9eJflt/eOs5LGnWk+S/LHE/a5SoutFSlgGAOg0oRUA6JqD3K8DOE77q6zDpv2YR+xtnY0Hk7Q92f3u8OxutOKfOUg5qbrqv+vrlOB6HtEVAOgooRUA6IJFXD1O8qLxLLBttylPLKwUEGfjwTDtVwj8eHh2d77C/U+y3GnWL7nN/UnXi8r3BQCwNv9pPQAAsLeGSV6lhKL/pcQXkZV99CRlJ+nBKn/o8OxumrIrtaVVP/5wDR/zScqO2z+T3KSccj1ew/sFAKgitAIA2zTMfVz9J2XHZOurp0MXPMkjTmcent29Ttll2srT2XjQMnJ+KroeNZwHANhjQisAsGkHEVdhGc/zuBOqr9Y8xyY//iZf6r+Irn+n7IF9HdEVANgiO1oBgE2wcxUe7/uUVQJLm40H5ymRsZXvD8/uJkved5rk6eZG+ZfrlOh6Mf/YAAAb4UQrALBOxykxw85VeLzzrLivNeUk7O3aJ1nt4y9r2xeweppykv6flIB9ktU/vwAAX+VEKwBQ6yjlpcPHaXv1c9glb1KC4NJm48Fpkl82McySvp1foOtrjlJe3t/SbUrwPc+Kp4cBAD7HiVYA4DGGKSfYpinB5GVEVlinl0lGK/6Z1+nHqdbLlJfzt7TY5/pXyvex05TvawAAjya0AgCrOEk5/fVPysm5be5ZhH1znhVe4n54dneTEltbOZ6NB8vOO9nkICt6mvL97J+UU67HbccBAPpKaAUAvuYoJfjcpOxdfd50GtgfT1PWcizt8OzuNO1Oiz7J8usOtr2ndVkvkvwZp1wBgEewoxUA+JSDlFNdr5I8azwL7LtvU8LfUmbjwUnKkyItXB+e3Q2XvG9fHoi8TXmyqatxGADoCKEVAHjIha2ge95lxX2ts/FgmnarPb47PLu7XOJ+FyknSPviOiW4vk454Q8A8AGrAwCAg5SX+17Gha2gi55n9Qtjna9/jKUtu+6gbydEF7tc/5fy+T1qOg0A0DlCKwDsr2FKLJimvMzYigDorvMV7/86ye0G5ljGsheTmmxyiA17mfLE1CTL76UFAHac0AoA++c4JQ78E6dXoS+eZoWgd3h2d5MSW1t4MhsPlomt0yRXG55l056nPFE1Tbl41kHLYQCAtoRWANgPBykv552mXFH7edNpgMc4XfH+5xuYYVknS95vssEZtmmxVmCa8nkfNpwFAGhEaAWA3TbM/XqA39Lu4jhAvVVPtU6TvNnUMF/xYjYeLHO6c7LpQbbsScorBf5J2UE7ajoNALBVQisA7KZRrAeAXXS64v3PNzDDspZZH9C3C2Kt4kWSv1K+Fy+7txYA6DGhFQB2y0nK6dW/Yj0A7KKnWSHaHZ7dTZJcb2yaLxsteb93mxyiA56nrGyZxoWzAGCnCa0A0H8HKafcpikXZbEeAHbbqxXv3+qiWMsG4ckmh+iQp7m/cNZJXDgLAHaO0AoA/TXMfWD9JQIr7IvnSY5WuP/5hub4miez8WC0xP0mG56jax4G19MIrgCwM4RWAOifYUo4+SclsNq/Cvtn6VOth2d3N2l3UaxlTrVONj1ERz1J+R4+jeAKADtBaAWA/hjmPrC+bDoJ0NpxVgtzrS46NVryfru+p/VLBFcA2BFCKwB03yjlxJfACiw8yWoXxbpIcru5cT7r2Ww8WCYcTjY9SA8IrgDQc0IrAHTXKCU+/JWykxHgoVUvitXlU62TDc/QJ4IrAPSU0AoA3TOKwAp83bOUlSLLer2hOb5mtMR9JhueoY8eBtdVozoA0MA379+/bz0DAFCMUk4viavsi3Xv5TzK/l0c7uesEFBn48E05ar323R1eHZ3tMT9JvH970uuU35GnLcdAwD4nP+2HgAAEFjpvKskNw/+9+Sj/z6d3z728f1aGubfpz8//r2P/3cf/k2u+rLySba/6/nZkve7TD8+5608TfJHys+LV2m3CgIA+AyhFQDaGUVgpY1FOL1JiVv5wq93xTSfjsHLGs3fHqScnM387cH8tmxMXLebr9/lAxdpcFG92XgwOjy7m3zlbpMkP21+mt57muTPlBPhp+nWExoAsNesDgCA7RumPDjeeuxgLyxejj+Zv73Mv6MqmzOav11E2IdvN7HW4NusGJBn48HNhmb5kp8Pz+6+tuJgmOSfLcyya96mnHCdNp4DAPaeE60AsD3DCKzUexhSF/FURO2OyUdvP7YIr6PcB9hhHrc39dc8Lq61ONU6ytd3yU5T9pBue4ds372Y396kBNdVTzkDAGsitALA5h2kPPj9pfUg9Mbipf2T3L/kfRFU6bdFEJ984r+Nch9fFwH2UysJblOetFn6IlgfmWT7oXWZi2El5fMjtD7OyyTHKV8Xp21HAYD9ZHUAAGzOIrC+yv5dCZ3lXKWEpelHb+Ghh+H1MvenmR9lNh4cJPnfOgZbxeHZ3TdL3O00npRah+u4YBYAbJ3QCgCbcZISDJzMIinRY5oSyARVmpuNB5fZ/gW8vl/iglijJH9tfpS98S4luPp+AwBbYHUAAKzXKOVlm62uQE57D0+pTuIl/3TTJNv/PnWUz++uXRAE1+t5kr+T/J7y5J/vRQCwQUIrAKzHMMl5yoNa9sd1ShhavJx70nIYWMFFkp+2/DGHS9znJi6ItQk/5f6VFo/d7QsAfIXVAQBQ5yDlgeu2gwVtvMv9KdVJnA6jx2bjwbYfCLw7PLsbLXG/STxptUlXKesEJo3nAICd40QrADzeq5TI6kJXu+k296dUJ/GSZnbPu2w3aB4teb9JhNZNepayB/dNys8xTxgBwJoIrQCwulHKmgAvbd0t1/kwrE7bjQJbMcl2g+ayT0p5UmM7XiY5Tomt521HAYDd8J/WAwBAjwxT9hr+FZF1F9ymnOj6Mcm3KX+/JynBYdpoJtimybY/4Gw8GC1xt+mGx+DekyR/pHwtDJtOAgA7wIlWAPi6g5QTP69iTUDfvY1VALDQ4t/AcIn7XKY8EeL77fY8T/JPkl9TVuIAAI/gRCsAfNko5UH/L/Ggv4+ukvye5Psk36S8TPZ1RFbI4dndTcq/kW0aLnm/i00OwWf9knKieNR2DADoJ6EVAD5tGGsC+ug25dTqYh3AUVxdG75k2086DJe8n9DaztOUn32vU17RAQAsSWgFgH87TYkPLxrPwXKuU06t/pASBY5jzyosa7Lljzdc8n4XKf+2aeenlJ+Fx60HAYC+sKMVAO6NUk7wPGs8B193lRJiLmINANTY9r+foxXu+yrJn5sahKU8Tfk7eJtyscCbptMAQMd98/79+9YzAEBrBymnWH9qPAdfdpVyUvUiTqvC2szGg60+IDg8u/tmhbtPUi7URHu3KbHVWgcA+AyrAwDYd8cp0U5k7aarJD/nft/q64issG7vtvnBZuPBcIW7H6cEPtp7knK69SJ2twLAJwmtAOyrg5QHi3+mPHikO8RV2K7plj/ecIX73qSsdRFbu+NFysqJUeM5AKBzhFYA9tGrlLDgYlfdcR1xFVrZ9p7WVU9DLqKe2NodT5P8lfK92ulWAJgTWgHYJ8OUfX+/xSnWLrhN8nuS71L+bsRVaKPLF8RauJz/ua2uOeCrfsr93w0A7D2hFYB98SrlwaCLqrT3NskPKaegFn8vQDt9+Tc4TTnZ+mOcbu2Sp0n+TrmoJADsNaEVgF03jFOsXbDYu/p/KRe3cdVq6IjDs7ubbDdcjir//HnK9/YfU7630A2/pPy8HbYdAwDaEVoB2GVOsbZ1m+RNymqAxd7Vm6YTAZ/Tl1OtC/V/QG0AACAASURBVDcpwfUo5XvM73HKtQuep3wtHbceBABaEFoB2EUHcYq1pauUk2bDJCfpX8CBfbTNf6frvnjSZcoTawcp33vscW3rSZI/U0K4C2UBsFeEVgB2zXHKHj+nWLfr49Or53F6Ffpkm/9en23wfZ+nrCb4NuV7klOu7bxMedLThbIA2BtCKwC74iDlAfafcYp1m65Tdq8O4/Qq9Nmk9QBrNk35njRMOeV63XCWffYs5WvrpO0YALAdQisAu+AoJfC9bD3IHnmX5IeUiGH3KvTfVv8Nz8aDbb2kfLHLdZjk+5RTrmzXkyR/xCoBAPaA0ApA350m+TvJ08Zz7IPFeoBvU16ae9F0GmBtDs/utn0avcXLyScpJyu/TfJrrBXYNqsEANh5QisAfTVMecD2S9sx9sJ1SpQYpkSKacNZgM3Zl/A4TXmSbhhrBbZtsUrguPEcALARQisAfXScsirABa826zolQgxTooT1ALDb9m3H8sO1Aj+krERh856k7FM/bTwHAKzdf1sPAAArep3kp9ZD7Lh3KZ9nqwGodZTP72Qczm+PcZkvh//JI9/vvtvmkylH6dbf08X8Nko5uW/n9+b9kvL5Po4n8gDYEUIrAH0xTHkQ/KzxHLvsXcoJo0nbMeiYYe6D6MNfH+TDXYvDdHdX8m0+PK1589H/nnzm1/vmMsmLLX2srl4UaTK/nc5vgutmPc/97tx9O1ENwA4SWgHog+OUl3c+aTzHrnqbcoJ10ngOtm80f7s4eTrMfUjdpdUcT/Lv/z8Pg+Kndj0/jLOLE7Q3D34tCu22aUr8e/Xg5mfQZiz2to7i3xUAPSe0AtB1VgVszpuUE1vTtmOwQcP5bRFSF293KaJuysM4+6XP12Kv5yT3AXaafv67msQFBj92k/J98nUE1016kvKE6ijWCADQY0IrAF11kLIqQBBaP4F194zyYVQdxpqNbflSjL1KiUaT3EfYr+2X3RdHX79Lpwium/csJbYeN54DAB5NaAWgiw5SwoRQtF7vUuKAl2b21yKiHuU+rnZ1Lyr338M+jrCLtQSL069dCbDTLX6sru5o/RrBdbNepIRWF2MEoJe+ef/+fesZAOBjF9neBVn2gYtc9dMoJagu4qrT3bvvOiV2TvJhiN2a2XiwrQcH7w7P7kZb+libdBDBdd2uc78rGgB6xYlWALrmOCLrugis/bE4oboIq05z76en89vDqL44/TpJo/jKFznhun5PUy5Edt52DABYndAKQNecth5gB1ynfB7P247BZwzzYVh1UpUvWVyU6+HXyXXu4+sk610Hch3rKB5DcF2v4/gZBkAPWR0AQJccJfm79RA9dpv7B/p0x+KU6mh+E7FYt6uUf/fnte9oNh5Msp34f3t4dtfXPa3LsFKg3v+l/d5iAFjJf1oPAAAPjFoP0GO/ppyUFFnbO0qJKxcpkeDvJH8keRmRlc14lvI1Nkl/dlvuenxcnHA9SvKm7Si9NWo9AACsSmgFoEuGrQfoobdJvk15QO/kTxvD/Dus/paya3jXYxLd8jxljcBRxfvwfWS9pin7Rr9N+X7N8mq+jgGgCaEVgC7xoGp5V0m+T9ljN207yt45yP3+wGmSfyKs0h1PUk62Pvb76Tr3vXJvmvJ94/uUCxXydcPWAwDAqlwMCwD65Tbl9OR54zn2zVFKJDlOeZk2dNkitg7jhGrXTFJeEn+csurFOpHPG7YeAABW5UQrAF0yaT1Ax/2e8sDzvO0Ye+Eg5eW+57lfB/BLRFb640nsbO6yi5Tv57+mPIEGAOwAoRWALpm2HqCjrpJ8l3KS1em0zRmmfI4nSf6X+wtYWQdAX72MU4Fdd5ryd/R72zEAgHUQWgHokovWA3TMbZKfU162bm/iZhylnPq7zP2u1edNJ4L1erXi/SebGOJTZuPBcFsfq+NuUv6evov9rQ9NWw8AAKsSWgHokpskb1oP0RFvU045eenv+i3i6jRlJcBPsRKA3XXceoAvGLYeoGMuU/a3/pDkuu0onTBtPQAArEpoBaBrTlsP0Nh1ylWpj2NNwDp9Kq66CA374GkEzb65SPme9WvrQRqbtB4AAFYltALQNdOUl8vvo99THlxPGs+xK8RVKIatB2BlNylPPH6b/VwncBs/CwHoIaEVgC56nfLS+X2xOMXqYlf1hhFX4WMHrQfg0abZz3UCdrYD0EtCKwBddZLkqvUQW/BrShyctB2j14YpkXpxQStxFT501HoAqu3bOoHz1gMAwGMIrQB01U1KbL1tPMemXKdcYfq08Rx9dpISH/5J8ltc0ArWwan67lqsE/guu71O4F08+QhATwmtAHTZZcpJxV2z2MV62XqQHjpKOel0k+SPJC+aTgM75vDszvel7rtMWSfwc3bzychd/LkPwJ4QWgHouvMkb1oPsSZ2sT7OQcrnbJqyd/VlkictB4KeGbYegI14nfLk0y7tNP81noQEoMeEVgD64CT939f6NuUB8aTxHH1ynLIa4H8pqwHsXYXHGbYegI2Zpnyv/CH9P916nRKPAaC3hFYA+uI4/XwQeZvkx5T5nWL9umHKDsJpkj9jNQDAMi5Svn/2+XTrSfycBKDnhFYA+mKa8iCsT65yv1OULxulfJ7+SfJLnF4FWNVN+nu69U284gOAHSC0AtAnFyn72/pgccGraeM5uuwgJZ5Pk/yVsnsVWL+D1gOwVX073XobF8ACYEcIrQD0zWmSd62H+ILblNNEHjR+3jDl9Oo0yR9xehU27VnrATZgGLtnv6RPp1tPYmUAADtCaAWgj7q6r3WxKuCi9SAdNUp5aeg/KadXn7QcBuidg5Qn225Svo/8M//1eUTXz+n66dZ38TMTgB0itALQRzcp0a5LrAr4tI/XAzxvOQzQWwcpT9T8kg+fpHmS8sTNPynBdbTlufpgcbr1x3TrScrb9G/3OgB8kdAKQF9dJvm59RApDxR/jFUBH1ucPJvGegCg3qt8fQXCy5QndCYRXD/lPOUJwa6s3zmNJycB2DFCKwB99jptXw55nfJg/rzhDF0zTPl8/C//PnkGtDNsPUClVZ7Mep4SXC/jxOTHpik/t1pfWPIq5Wc4AOwUoRWAvjtJCZ7b9i7lZNBlg4/dRaOUPXuL/atAtwxbD1DhKI970uZZyon6aQTXj50m+S5tfn4m/j4A2FFCKwB9t9g9t829c29SwqKrJN9f4OqvJC+aTgLsqoPKP/80guunXKZE7G2/MuTneJISgB0ltAKwCy6zvR2pP8YD9aR8Di7jAldAfwiu/7Z4svLnbOcJyzexMgCAHSa0ArArzlMewG3KbZLvYx/rSe4vcPW1C9MAdJHg+m+vU16hcLXBj/EmPt8A7DihFYBd8iqbeZB4lfuXyO+rk9wH1qdNJwFYD8H1Q5cpP+s28aTlz/E5BmAPCK0A7JJN7GtdRNZ93Sd3EoEVdsGw9QAdtgiui9C4z25Svu//kPX8LH2XctEt6wIA2AtCKwC7Zpr1nZrZ54tenURghV0ybD1ADzxL2Ts9ieB6kfI182uS60f8+Xcp63ZG2d8nKgHYQ0IrALvoIuXBYY3FLrl9i6wnEViB/fY8JbguYuO+uklymvI5+C7l5+q7fPqk63WStykrAr6NdTsA7Kn/th4AADbkNPfBcFW/zv/8PhmlXOhLXAUoXsxvv6f8TNi3J94euoyTqQDwVUIrALvsPOWB4euUE0pfc51yonOysYm6Z5QSEJb5/MDHbvPv+DL5xP1uPnG/dRrm0ycPj5IcfHQ/Tyawqp9Sfja8zv49CQcArEBoBWDXLS5uMkq5UNZRPoyKV/P7nGe/AutRlg/Q7I+H4fQy9yf4Jg/u8/D3+270lV8PI8x2wcHX77JxT5L8khJcX6WsFQAA+IDQCsC+mGS/QurnDFNOZL1sOwaNvJu/nXz0dpfi6Somn/n1xw5SnpxI7iPs4q0nKzbv6Ot32ZqnSf5M+bf0Kl5ODwA8ILQCwH44SIkCv7QehI1anEidzm+LgDppNtFuePg5nHzmPqPcB9nh/HaUchKyb66SPNvCx+lz3H+e5O/Y3woAPCC0AsDue5USAvoYfPi0RVCd5H7/6b6eSu2Kyfztxy8pX8TXRYBd/LrL/x638nV0eHa3C6dBF/tbT1PWsQAAe0xoBYDddZzywN+OyX57l/vTqYJq/yxOw04++v1FgB3lPsJu8hTpLkTNrnqS5Lfc72+dtBwGAGhHaAWA3eNCV/31Lh8GVXFsd30uwI5yf+p1lPU8UXIdF2/ahmdJ/op1AgCwt4RWANgdBykP7n9qPAfLuU6JbIugOmk5DJ0xyYdfCw9Pvo7yuLUDx/VjsYLFOoFXSc6bTgIAbJXQCgD/j727O27jytoG+szU3OFCegsBiBOBOBEIjkB0BKIiMJ0ATCMB0xGIimCoCAxGYDKCIQNAfeIFrv1ddMOkZf2ggW6cbmCtKpRkqXHOJvgzowe799kP5rD2320eQ7R5dLuxns91vj4NXif58vf9faqQdeid0UelC9jAsyTvUgWup6nGfwAAe07QCgDDNkk1JmAXJ4TTzHX+GqxCW1Zd0KvDl47yGLoepQr15qnGBexDoH9UuoAtvMrj5+q8bCkAQNcErQAwTM9T/cP9TelC+JOOVUq5S3WL+mXRKviSZ0l+StVdfJrhdxgDAF8gaAWA4TEmoB8eUnUMzrM/nYNAd14m+T3Jz9HdCgB7SdAKAMNxnKpjzZiAcm5ThapX0ZUGbEZ3KwDsKUErAPTf81TdTz8UruMQPeSxY1XXKrTnusG1zzurohzdrQCwhwStANBvJ6lmsb4oXcgBWY0EWD2Asva5i193KwDsEUErAPTT81RjAl4XruNQ3Oev81YBdkV3KwDsiX+WLgAA+JuzVKeIC1m79ZDkfZL/JDlK9boLWYFSfkr1Zs9R2TIAgE3paAWA/jhK1cX6qmwZe81YAKDPXqUaIXCW6n8PAIABEbQCQD+cpbpl9FnhOvbVh1TB6mXhOoBmjkoXUMCzJO+STFL9b4ND+ABgIAStAFDW81QBoC7W9t2mClYvI6iAoToqXUBBb1KFrSdxUBYADIIZrQBQzvNU8/iErO15Onf1OMlFhKzQR/PSBQzEi1QHZZ2VLgQA+DZBKwCUsQpZXxauY1/cJnmbqvvtNLq/gP3yS6q7H56XLgQA+DJBKwCUcRkh67Y+7V69jO5VYH+9TvUm0nHpQgCAzxO0AsDunaT6BzObuY/uVeAwvUh1N8Rp2TIAgM8RtALA7l2ULmCgPiT5LlXAehndq3AIvJHyd8+SvEv1cxAA6BFBKwDs1kmqjiTW85Dk1yT/TvXazYtWA+zax1Rd7PzdmyTnpYsAAB4JWgFgt05LFzAQ90l+TtW9epbkrmQxQOuadKpedlXEHvgpZrYCQG8IWgFgtyalC+i5p/NXz2M8AOyrJt/bF6m62/m889IFAAAVQSsA7M5xqtl6/N11ku/zOH8VYOVjzLb+mtdJnpcuAgAQtALALvmH8N9dpzrgapLkqmwpQI+dp/p5wedNShcAAAhaAYAyngas86KVAENxkuS2dBE9ZU4rAPSAoBUA2CUBK5BsNn/5Y6qfHe/bLQUAoB2CVgBgFwSswJ/Gs+XNhk/9mOQ01c8TowQeOTgQAHpA0AoAu3NXuoACBKxAF+apfq68TXJftJJ+2DS4BgBaJGgFgN25S/JQuogduU8VgEwiYAW6c5nkKMmPOZyfr596iJ+zANALglYA2K2r0gV07CFVwHqUKgAB2IWLVD93fi1cRwkXpQsAACqCVgDYrcvSBXTkIcnPEbAC5XxMcpbk3zmc+a33EbQCQG8IWgFgt+ZJbksX0bL3SY6TnMeBLMC3df0z8C7V2JLvst/zWx+SnMTPXQDojX+VLgAADtBZkt9KF9GC61Th6rxsGQzEUf3Y1k0ES0O3q8/fPNXX3Hmqn7vPdrTvrpzGIVgA0CuCVgDYvXmqOYI/FK5jUw+pQovLwnWwe0d5DEuPkzz/zJ+v/m6XodZ9qi7Gladh7Or3HyOUOlTnqX5eXSZ5VbKQFr3N/s/8BoDBEbQCQBnnqW5tfVm2jMZ+jREB+2ySKjw9fvLfye6D06Ze1I+Vb4Vpt3kMXj+mCmnvolt2n92l+no+SRW49vnr+VvexhtdANBLglYAKONjqts+fy9cx7quU3Wx6ggcvuNU3afHeexK3Zcuv3Wt3uD40sd9nccg9q5+zLsuip24yuM4gSHeVfBjhKwA0FuCVgAo5ybVP5p/KV3IVzykCiScaj08R3kMU1fh6tA6qEtZBbCvP/nz1YiCearv31UQSzOl37D5mOqNo6tUoeWLr17dH+/jZzEA9JqgFQDKukh1K2sfOwo/pOq6dSt1/x2lui36abA65Fuj+2o1ouDT79frPAavqwdf1pefKfNU3yvn6X936/tUP48BgB4TtAJAeSepuuL6Eozdp/oH/bxsGXzBaobqJI/hal++dg7Vq/w1fH1IFbbO89j92pdwkb8aQnerkBUABkLQCgDlrea1/rdwHYnDrvroeR5D1Unc/j8Ez/IYvv5U/9lt/hq+3hWoiy+bp5/drbcRsgLAYAhaAaAfrlKFnKX+ga+LtT8Eq/vpZf14U//3fR5D13kEr33wtLv1KuU7xW9T/QwAAAZC0AoA/XGeMsGaLtbyJvXjJILVQ/EiVei6Cl5v8xi6XpUpaWfuShfwDfNUc48v8/cD0XZlFbL6uQwAAyJoBYD+WI0Q+H1H+z2kCvbmO9qPR89TvfYnqcKU0p1zlLfqeF11tX/IY+h6t+Najjpe/67j9dvwMdX352mqQwt3+T0qZAWAgfpn6QIAgL+4SfLjDvb5kCpMme9gLypHqW5Lvkny/5K8S9UtJ2Tlc14n+SXJ/1IFkxfZ3W3kfTwQqpTLVK/77Y72e0gV7gpZAWCABK0A0D8XqU6Z7sJDkrepOrX8Q757x6k+n3epArNfYjQAzb1I1en6W6rv28tU38PPC9Z0SG5Sha1d/Vxeeaj3uel4HwCgI0YHAEA/nda/vvnaRQ3dpgpn7lpck787TvX5O4nOQNr3LH+d7fohj4c3efOkO6vRLvN0M0pAyAoAe0BHKwD012na66D6NVUAeNfSevzVUR47V39P1X0oZGUXXqcaQ/H/UoWtp+l/p+uQA+HLVIHofcvrnkTICgCD948//vijdA0AwNedpArxNgnu7vPYhUW7nqd6bU9jHAD98pDHLterpk9eTEed/gNhPFv+o8v1d+R5qtD1dQtrva3XAgAGTkcrAPTfVaqOybdZ/0CW2/r6owhZ23aS6nPy/2LmKv20Gi/w31Rdkn3vcB2ij6l+Fvy65TpCVgDYIzpaAWB4jlLdunqUKkA5ThWmfKx/vYkRAW07SnKWqnu17dmM0LX3eZz7/E06Whs7zWZzW4WsALBnBK0AAF92Wj9elS0DtvKQNbtaF9PRcao5w53Zw6A1qd7wusp6I14eUr1xc9llQQDA7hkdAADwV0dJzlN1CL+LkJXha9JpaczAZm5Sha0/pwpSv+R9fd3lDmoCAHbsX6ULAADoiUmqLrM2DrcBPm/dOdND9DHVmzTnqcLU41Rv3KzGuszLlAUA7IqgFQA4dKepAlaHWrGvrksX8MTH0gXsyGpeNgBwQAStAMAhep4qXD2Lw60AAIAWCFoBgENylCpcPY2AFQAAaJGgFQA4BEep5ia+KVsG9N6kdAEAAEMlaAUA9tlRBKxwV7oAAIBDIGgFAPbRUQSssHJXugAAgEMgaAUA9slRBKzQZzelCwAA6IqgFQDYB0cRsEIbnne8/seO1wcAKEbQCgAM2fMkFxGwwtfcNbj2uKsiAAD2naAVABii50nO6sezwrVA392VLgAA4BAIWgGAoTlN1cUqYAUAAHpD0AoADMUkVcD6snAdsM+6ntEKALC3BK0AQN8dpQpYXxeuA4Zq3uDart/IuOl4fQCAYgStAEBfreaw/lS6EKA1H0sXAADQFUErANBHJ6m6WF+ULgQAAGAdglYAoE+OklwmeVW2DNgb9+teuJiOjjqsY0VHKwCwt/5ZugAAgNp5qvmNQlZoz12Da486quFP49nSjFYAYG/paAUASjtO1cXa9SE8wLAcp5rVPC9cBwDAWnS0AgClPE81h/X3CFmhK3cNrn3eVRENPU/V3f57kt9SfQyTgvUAAKxF0AoAlDBJFaT8ULgO2Hd3Da497qqI2vWa153nr2++vEgVuF5lB+MNAAA2JWgFAHZp1cX6W6rwBOBTXwp8X6d6g+Z8d6UAAKzPjFYAYFfMYj1ct2n/tPnjJM9aXnMfNTl8quvRAW18DTxL8lOSkyRnMb8VAOgRQSsAsAvnqcIRhu8+1e3oH/MY4t3lr7eoz3dZUO15/toJuTpIKXmc73mUw+ukbhJudj06YN3Qd53A92WqzvhfU/18aTvIBwBoTNAKAHTpKFUX66uyZdDAKki9yWOY+vTXvvqYvwa8889f9qfJZ359nv3ruO7z5+xLmnwOfshjd+tVN+UAAKxH0AoAdGWSKvhwe3c/3eYxUL158vtDMf/k16eO6sfxk1+HOqqgyef0qKsiancdrfsiyX+TfEhymmGGywDAHhC0AgBdmKS6rZd+uE0VKN6lCt7mBWsZgrv6Mf/kz1fjCZ4+9qkDtuuxCncdr786LOskh/WmAQDQE4JWAKBtR3ELb0n3eQxThartWo0nmH/y56vQdZJ+ha+3pQso4EWqz89xug92AQD+QtAKALTtPMO8xXqoVt2qq1D1rmAth2o1fuHyyZ9NnjxKjR1Y+xb6xXTU9UFYyXpdppMW9nmW6s2eXXxMAAB/ErQCAG06SvKmdBF77j6PXZXzCFb7ap6/dr6uOl5Xj10Er01mlT7vrIraeLbc5ezUl6nmtV7ucE8A4MAJWgGANp2ULmBPXafq0JvH7MmhWnW9XtT//TR4fd3hnuvqOmh96Hj9zzmPoBUA2CFBKwDQJkFrOx5SBaurcNUp6vvn0+D1JFXoepL2DqVq8nXT9W32Jd4geJHq4/LmBACwE4JWAKBNZiJu7mm46jCxw7P6vJ+lGsGxCl636XYdYsA46WC9Ib4OAMAACVoBgDY5BKsZ4Sqfc5eq0/Ui1S39T7tdm3yP9amj9a7j9b+k89mzAAArglYAgN17H+Eq6/mYas7oZf3fJ08eXwtd79OvGa13Ha8PAFDcP0sXAADslevSBfTYbZK3Sf4v1WnoQlY2cZXq6+d5ku9ThfafekjzeclHW1UFAICOVgCgVXdJXpUuokceUnUiXkRHH+17Otf1JFVY+rH+s7uGa7V1ANeXrNtdO2l537uW1wMA+CJBKwDQpqskb0oX0QPX+evt3tCl1XiBjSymo6PWKvmyJvNi2zQvtC8AcIAErQBAm65SzYbsujuur96n6l51yjlDclS6gI5cR0crALBDZrQCAG07K13Ajj0k+TmPs1eFrAxN1wdhZTxbzrve4zPOC+wJABwwQSsA0LarfP6Ann1zn+pwq+epAp1St0bDto5LF/BEW7V8iLEBAMCOGR0AAHThtP51H+e1mr/Kvum8o7WBZy2scZvHn0EAADsjaAUAunJa/7ovYet1qs7VedkyoHVdd7Red7z+U/dJJtFhDgAUYHQAANCl0+w2ZOnCdZLvUoU386KVQDeOShfQkockJxGyAgCFCFoBgK6dpLqVd2gErByKF6ULaMFDqu9Vh9EBAMUIWgGArn1MFYAMJWxdHXI1iYCVPbeYjo52sM18zeu2GWFwGiErAFCYoBUA2IUhhK0PSX5MdRv1ZdFKYHeOShfwxKaHcr1NctVmIQAAmxC0AgC70uew9edUgdNF4Tpg17o+CKtrP8cbIwBATwhaAYBd6lvYep3k30nO4wAdDtOmXaRNdHVL//tU37sAAL0gaAUAdq0PYet9Hg+6uitYB5Q22cEeXbyJ8T7VXFYAgN4QtAIAJZQMW1djAuYF9oa+2UVHa9tuk5yVLgIA4FOCVgCglI+pOtIedrTf0zEBQOVl6QIauk31Jo1RHwBA7whaAYCSblKFJl2GrQ9JfowxAfAXi+loJwdhjWfLeUtLPUTICgD0mKAVACity7D1OtWp6hcdrA1DN6SxAUJWAKD3BK0AQB+0HbbqYoVvm5QuYE2rkPWmcB0AAF8laAUA+qKtsPU2ulhhHUelC/jEl4LUs6/8HQBAbwhaAYA+2TZs/TlVyHrXUj2wz452sEeT7+XPjQX4NcllO6UAAHRL0AoA9M1NqrD0usFz7pN8l+S8i4JgT73awR5NO1E/PPn9+1TdrAAAgyBoBQD66C5VZ+t3+Wvw8qnbJG9TdebNO64J9sZiOjoqXcMXnKWar/x9ktOypQAANPOv0gUAAHzFPI8B6nH+ekr6PC1YTEfPUwU6k/rxrP6r+yTn49nyso19oGeOShfwBXcxXxkAGChBKwAwFK0ehlN39J0nefOFS14kebeYjibj2fK0zb2hByalCwAA2DdGBwAAB2UxHT1fTEcXSf6XL4esT71ZTEen3VYFO3dcugAAgH0jaAUADsZiOpqk6oz9oeFT3y2mI8EU++SodAEAAPtG0AoAHITFdHSe5LdUIwE2cdlaMVDey9IFAADsG0ErALD3FtPRZZKftlzmZR3WwqDVnd27Mt/hXgAARQlaAYC9Voes68xiXcdZfYgWDNlR6QIAAPbRv0oXAADQlboDta2QNUmeJTlPctrimnttMR09z+PBS5M1n3aT5OPq9+PZ8uPXLqYx84YBADogaAUA9lJ9e/S24wI+581iOrocz5bzDtYerPr1PqofkyTP09Ic0MV0lCT3Se4+8xDENidoBQDogKAVANhXlx2ufZ71uzP3ypMO1Un963E2P2CsiRf149VnakqS6zwJX5PcjWfLmx3UNUR/ew0BANjeP/7444/SNQAAtGoxHR0n+b3jbb4fz5ZXHe9RXP1aTvIYru4iVG3TbR7D13mqM0lPHQAAIABJREFUAPauYD1F7eh746mfx7Pl+Q73AwAoRkcrALCPnu9gj4skexe0PglWV49nBctpw8v68Tr1KInFdPSQx+D10LpfjQ0AAOiIoBUAYDMvFtPR6Xi2vCxdyDb2MFhdx7NUt8//eQv9k/ED81Th682edr4KWgEAOiJoBQDY3Hm6nQXbunrG6kkeg9WhjQLo0qfh60Meg9f5nhyAtuugdb7j/QAAihG0AgBs7sViOjrv+wzKJ12rp6luo2c9z1KNHHid5KcnXa+rsQPz8Wz5sVh1m3EQFgBARxyGBQDsncV0NEny2462e0hy1LfAbTEdrbpWT6JrtUu3eQxdez2zd8ffFyvf7UknMADAN+loBQDYzrMkZ6nGCBRVh6urxyHMWu2D1WFbPzzpeL1KFbz27YAt81kBADokaAUA2N7ZYjq6KNHVKlztnT/nvC6mo/tUoetlT0LXSekCAAD2maAVANhHuw48n6XqaD3bxWb1LeCnEa723YskP6Tqdr1PcpEqdC01ZkJHKwBAh8xoBQD20mI6KvF/cv49ni3vulh4MR09TxWunsXM1SF7SHI2ni0vd7npYjo6SvK/Xe5ZM6MVADgY/yxdAADAHjnvcO27JL9EyDp0z1J1Iu9aqW7WXh0SBwDQJUErAEB73iymo64CrV6faE8j5wX2nBTYMz2ZTQsAsBOCVgCAdl10seh4tjxN8r6Ltdmpt4XCx0mBPQEADoqgFQDYV/eF9n1VH1bVujps/bmLtencQ6qQ9XLXG9fzfV/uel8AgEMjaAUA9tVdwb076WpNkvFseZ7k+1TBHcPwkGSySci6mI6O64OstjHZ8vkAAKxB0AoA0L6Xi+notKvFx7PlVZKjJB+62oPW3CY53mRcwGI6ukjye5L/Laaj+RaB62TD5wEA0ICgFQCgGxf1LdudGM+WH8ez5Ul0t/bZr+PZ8ng8W941fWId1P/w5I9eJbnZ8LC1yQbPAQCgIUErALCv7grv/yzJWdebPOlu/bXrvVjbQ5Lvx7PlRp//OmR995m/epbkqkmAX3g+a6k5yQAARQhaAYB9dVe6gCRnLczX/Ka6u/UsyX+SXHe9H1/1IclRHYA39pWQdeVFkpMGS042qaMldwX3BgDYOUErAEB3nqXDg7E+NZ4tb8az5STJ2+gm3LVVF+vJeLb8uMkC9ViAr4WsK5MGyza5FgCALQhaAQC69XoxHU12ueF4trwcz5ZHqQJX81u792u26GJNksV0dJJkvubldw2WnjStBQCAzQhaAYB9NS9dwBOXJTYdz5aXqea3/hyBaxeuk/xnPFuebdrFmvw5LuC/qTqg1zFfc92S81kBAA6OoBUAoHsvFtPReYmN6/mt56kCVyMF2nGf5LvxbDkZz5Y32yy0xkzWT/06ni3na17bZJYrAABbErQCAOzGTg7G+pI6cH06UkDg2tx9krfj2fKoQdj5RXX43iRkvU9y3uD6SYNruzAvvD8AwE79q3QBAAAd2arTsAOrg7GKdxnWIwUu69mxZ0leFy2o/+6TnNev29bqW/ovkrxp+NSmIwomDdcHAGAL//jjjz9K1wAA0InFdNTH/6Pz/TaHJnWh7rQ9rR8vStbSM9epAtZ5WwvWr/VVms9O/TCeLdcO6RfT0XGS3xvu0baf67EVAAAHwegAAIDduqg7GntjPFvejWfL83qswPdJPhQuqaSHJO+T/LuewTpva+G6g/gmzUPWh1QheBOThtcDALAlQSsAsM9uSxfwGS/SbM7mTo1ny6u6c/L/Us1yPZTQ9TrVx3s0ni1Px7PlXZuL1/NYf0s1QqKp04YjA5IejKhIcle6AACAXTI6AADYW4vpaJ7kVek6vuC7Nrslu1R34J7Uj32a53qb5DLJVdvB6kp9C/9lmnexrjQaGVDv+TzJ/9twvzYN5mscAKANDsMCACjjcjEdHW/QqbhzdY2XqWp+nuq29JP616HNdP2QZJ4Ow9WVuov1LJt1sSbVIVynGzxvsuF+AABsQdAKAOyzm/S3o3U1QuBs0wXq0PMyyfM8hoc3LdT2RXXoelU/Voc7TZ48+ha8Xqd6bea76q6sZ7FeZPMu1pVNRgYk/RgbAABwcIwOAAD2Vt1R+FPpOr5h49ur60Dvt0/++DrJ5Xi2vNyurM3U4e9xqtD1OMlRtg8c13Wdai7oTZKbXd+2Xn/sF0netLDcz+PZ8nzDOj5m8y7aNv27665hAIA+EbQCAHtrMR2dJfmldB3f8JDqAKbGnYvfmMV5n+S8VOD6qbrz9ShV+Pq8/v3Rk0u+1nn8kCo8XblJ8jFVqHqX5K5koFd/Hs6y3ZiAp27Hs+XxhrUcJ/m9hRq2Np4t/1G6BgCAXTI6AADYZ53eRt+SZ6lu/298u/d4tvy4mI6u8/mQ8kWSd3VXb/HAtQ5C71Ldxr83FtPRaaou1rY6SB+y3a3/py3VAQBAQ/8sXQAAAHldd99u4vwbf78KXO/qUJAWLKaj08V0dJfkXdq9Tf90y+5c81kBAAoxOgAA2FvfuLW+bx6STDY5zGoxHc2z/qFfvRopMCQdjAj41K/j2XKbw9F6MzYgW4w/AAAYKh2tAMDe2vDE9lKeJbmsw7ymThtc+7TD9WzD/Q7KYjo6WkxHl6lGH/yUbkLW221C1tqkjUJaMqTvPQCAVghaAYB9d1+6gAZeppr32Uh9q/nPDZ/2ItVBYXeL6eiyPqyKJ+rxAPMk/0vyJt0ErEndzdzCOqctrAEAwIaMDgAA9lrD2+r74sfxbNk4cG3hY71OdTDX1cC6gVtT335/Wj+6ClY/9d14tpxvs0AdlP+vlWrasdUYBACAIfpX6QIAADo2xMDwl8V0NN9gXutpkptsHhC+qh/vFtPR+1SB69WGaw3Gk3D1JFWn7y693TZkrfXtEKwhft8BAGxF0AoA7LubJK9LF7GB+WI6OmrSWTqeLe8W09FJkt9a2P9NkjeL6eghyTzJVfao03UxHU1ShZMlwtWV9y0eSnba0joAAGzI6AAAYK8tpqOzVLNIh+g2yaRpuLmYjk6TvOukoqqm+eoxlOC17lqdPHnsaizAl1yPZ8tJGwv1cGxA0sI4BACAodHRCgDsu6a33/fJ6nCs0yZPGs+Wl3XH5puOanqZ5IckWUxHt6le45skN30I1+rg8bh+TOpfSwerT92m3Vv9+zY2AADgIOloBQD2Wk+7/Zra6GChxXR0mW7C1m+5T3KXqus1T369abMDtg6TkypMfZ7HcLVPoeqnHlJ1Kbf2BsBiOrpLufEHX/KfNj9GAIAhELQCAHtvMR3tw//hedt0nudiOnqeKuR82UVBW7r+zJ/d5O+HKE0++e+j9C9UXFcXIetxkt/bWq8t49nyH6VrAADYNaMDAIBDcJ/hhnMr7xbT0cfxbHm17hPGs+XHuutznv6Fra/W/LN9ctpBl+dpy+sBALChf5YuAABgB+5KF9CSy7qDcW31rfqTVHNBKedtk5C8gT7OZ/1ctzIAwN4TtAIAh2BfZkU+SzIXtg5O47EP66i7lYfeqQ0AsDcErQDAIbgrXUCLniW5quevrk3YWsyPXYSstdOO1t3WvryxAQDQiKAVADgE+xb8vEjV2bpp2OrW7t14P54tL7pYuP7c93FsQPL3A80AAA6CoBUAOAT7FrQm1eFWG4Wt49lykuR9J1Wx8n48W552uP5Jqu7mPtrH7zcAgG8StAIAe6/u5HwoXUcHXia53OSJdQj4a5vF8KeuQ9akv2MDEh2tAMCBErQCAIdiX7vsXi+mo8tNnjieLc+SvG23nIP3Y9ch62I6Okryqss9trSv32sAAF8laAUADsU+hz9vtghbL5P8J/vZ8btrb7uayfqJsx3ssbG6gxwA4OAIWgGAQ7HPQWuyXdh6k+Q4yW2rFR2Wt3VovQt9PQQrcdAaAHDABK0AwKHY96A12S5svRvPlsdxSFZTD0m+21XIupiOTpK82MVeG9LNCgAcLEErAHAQ6q7NQ/BmMR1tfGt5PV/0bYwSWMdDksl4tpzvcM/THe61iUP5PgMA+BtBKwBwSA7ltuZfFtPR6aZPrrszjRL4utskR7sM8OtDsF7var8N3ZUuAACgFEErAHBI5qUL2KF3W4atq1ECP7dX0t54n6qTdde3yff6EKzaXekCAABKEbQCAIdkXrqAHdsqbE2S8Wx5nuS7JPdtFLQHfhzPlqcFQtak/2MDsuMxCgAAvSJoBQAOxoGGQO+2mdma/Pm6HSf50EpFw3Sf5D/j2fKixOZ1YP6sxN4NCOMBgIMmaAUADs2hzGl96pfFdHS5zQLj2fLjeLY8yWGOEviQ5LjwgWpDGBvgICwA4KAJWgGAQ3NVuoBC3mwbtiZ/GSXwsO1aA/CQalTASaFRAUmSxXQ0SfKy1P4NCFoBgIMmaAUADs2hBq1Je2HrPNUogdtt1+qx61RdrEVGBXzitHQBaxK0AgAH7R9//PFH6RoAAHZqMR3Nk7wqXUdB78ez5WkbC9XB7Zs21uqJhyTnPQlYs5iOjpL8r3Qda/r3eLa8K10EAEApOloBgEN0WbqAwt4spqObxXT0fNuF6sD2bfZjlMD7JEd9CVlrp6ULWNODkBUAOHQ6WgGAg7SYju6SvChdR2G3SSZtzB9dTEfHqQLsIcwS/dR1qi7WeelCnqqD8LskzwqXso7r8Ww5KV0EAEBJOloBgEN1WbqAHniZ5KYOSbcyni1vxrPlcZKfty9rZ+6TvB3PlpO+hay1kwwjZE2S+SZPWkxH54vpaL6Yjq7a+DoEAChJ0AoAHKqL7Mft7tt6kWTeVsg1ni3Pk3yXKsTsq1XAejSeLS9LF/MV56ULaKDxQVj1fN+fUs1Lfp3DPqgOANgDRgcAAINU31Z9kWSSKiz8MJ4tTxqucZbkl/arG6y3bQaPi+noPMlZ+tOVeZ3kYjxb9j7QW0xHp0nela6jgf9rMoLiKx+fA7UAgMHS0QoADNU81Wn3qzmrr5t2ZdaHHvW583LX3tXhaCvq7tbjVIdMlfJQ7//vekRA70PW2nnpAhq432DO7/kX/vxou1IAAMr5V+kCAACaqsPAzx26dJLmtzCfJvlty5L2yU+L6egoyVkbh2TV3Ymn9efsPFU43rWHVLehXw0oWP3TYjqaZFgHtc2bXLyYjk4yrI8PAGAtOloBgEGpRwacfeGvJ03Xqw9B+rBFSfvoTaq5rUdtLTieLe/Gs+Vpkn+nOjCr7U7i2yS/Jvl+PFs+H8+Wp0MMWWvnpQtoaN7w+kkHNQAAFKejFQAYmq/N/Hy14ZqnSe6+su4hepnkZjEdndRhdCvqDtfzJOf1qIeTVMHbcdZ//a9Tfb7uUoV8N2103/ZB3c266ddxKfOG1086qAEAoDiHYQEAg7KYju7y9duO/zOeLTc5Af0kyX83rWvP/VzPW+1U3a38pTm7d4dwSNJiOppnWEHr/Xi2PFr34vpz/P++csmP9exkAIDB0dEKAAxG3QH5rdmOx2k+pzXj2fJqMR19SPJ6k9r23E91p+VJl52j9drzrtbvuwPpZj35xt8/37AOAIDizGgFAIbkdI1rJluu3/bs0H3xKsldHQbSjfPSBWyg6RxcQSsAsLcErQDAkHwrpEm+fOv5N9UdlevscaieJfltMR25tbtli+noNMPrZk0adLTWYwO+1TG+8fcvAEBpglYAYBAW09FRvj02IKkOcdpYPd/17TZrHIAfFtPRTT3KgXacly5gA9cNR0ms8yaGjlYAYLAErQDAUKzdabrt7e3j2fIyyftt1jgAL5P8vpiOzksXMnR1N+s6byL0TdOxAadrXLPVGyUAACUJWgGAoZh0dO1njWfL0yTX265zAH7S3bq5+nb6oY5iWDtorTvS1xqNUL8mAACDI2gFAIZi0tG1X3OS5LaltfbZn92tQrLGzlLNvh2a+/Fsedfg+tMG1wrtAYBBErQCAL1Xd8M1CaNaOVToyeFYD22sdwB+SnKz7eiGQ1F/XZ+VrmNDXYwNWBG0AgCDJGgFAIZg0vQJbYV9ddfeJMLWdb1I8ttiOrqqg0S+7DzD7GZNkst1L1xMRydpNoNWVzQAMEiCVgBgCDbpcJu0tfl4tryJsLWp10n+Z5zA59VvBLwpXceG7uvviXWdNlx/0vB6AIBeELQCAEOwSdB60mYBwtaN/ZTkbjEdnZYupGfOSxewhct1L6y7ml83XP+o4fUAAL0gaAUAhmCTmasv2751Xdi6sWdJ3i2mI4Frkvo1aGWOcCGXDa7dZAZtkzEDAAC9IWgFAHpty1mr2zz3s4StW3mRAw9c6zEKF6Xr2MJ1Pbf4m+qP9XSTTRyoBgAMkaAVAOi7bU4gb3V8wIqwdWtPA9ezA5vhep7hHoCVNOtmPcnmH+s23/cAAEUIWgGAvpts8dzXXYV4T8LW+y7WPxAvkvySaobrRdujHvqm7tL8oXQdW7gfz5aXDa4/32Kvoy2eCwBQhKAVAOi7bTvbOulqTf4MW4+T3Ha1x4F4liqA/N9iOprv8ViBIY8MSJodgnWS7Wat6mgFAAZH0AoA9Fbd4bjtwTin21fyZePZ8mOqztYPXe5zQF6lGivwcZ+6XBfT0XmSl6Xr2MJDmgXFmxyC9dSQDwsDAA7UP/7444/SNQAAfFbdFfffFpb697oH+GxjMR1dJnnT9T4H6DZVN+VlHWwPSh0W32TYs1l/Hc+Wa4Wn9YiE31rY8z911zgAwCDoaAUA+mzS0jqnLa3zVePZ8jTJ213sdWBepprl+v8W09HVAEcLXGbYIWuy227WlUlL6wAA7ISgFQDos0lL65y2tM431YcF/SfVrda073UeRwtc1l3PvbWYjs4y/Nvg36/bEV53775uaV9zWgGAQRG0AgB91tZMyxe77IKsb3c+SnK9qz0P0LNUYxr+29fQtQ4dzwuX0Ybzjq79lkmLawEAdM6MVgCgl1qc87hyPZ4tJy2ut5b6EKSfdr3vAXtIcpXkajxbXpUsZDEdzTP8btYms1mPkvyv5f3/b4hzeQGAw/Sv0gUAAHzBpOX1Xi2mo+Omh+sspqPnqWZOTpJ8TBXgXa77/PFseV4HbpdJXjTZm42sOl3fLKajP0PXJPNdBnZ7MjLgIeW6WVcmqT5/AAC9Z3QAANBXkw7W3OSQnstUHamv8jgfdF4HsGsZz5bzVPMm32+wP5v7c7xAnhykVXdedmaPRgZcrBtO1x/zmw5qmHSwJgBAJwStAEBfdXEQzpsmAWntcwf7vEpy0zBs/TieLU+TfB8HZZXyOsm7JP9bTEc3i+nobDEddfF1dpkq5B2y+yQXDa4/76iOSUfrAgC0TtAKAPROHX51FVRt0tX6OS+SNOpsTZJ6buhRdLeW9jLJL0l+X0xHrd2aXs/kHfrIgCQ570E3a5K83ODNEQCAIgStAEAfTTpcu2nQ+rXu05fZYH7kk+7W71J1DlJWK0Fe/QbBPhx8dt1kDnGadb5uYtLx+gAArRC0AgB9NOlw7WeL6ei0wfXzb/z9q7qLsbHxbDkfz5ZHSX6OcQIlzbddoO663JdDm87XvXAxHU3y+fEabZp0vD4AQCsErQBAH3UxN/Op8wbXzte45qdtZn2OZ8vzOCyrpJsW1rhINU5i6H6tD29b13lHdTx1soM9AAC2JmgFAHqlnvfYdWD1ou7EW8flmtddbTNLcjxb3j0ZJ3C96TpsZL7Nk+sO6a5mlO7SQ5p1s55kN/NoX9Q/FwAAek3QCgD0zWRH+5yvc1F9INA6naYv1l3zG/vNx7PlJOa37sqHdQ99+py6k7nrGaW7ctrwtdjlxz3Z4V4AABsRtAIAfTPZ0T6vGnTJXa553Q8NOmW/6sn81rcRuHZp47mqdQfzZZJnrVVTzvV4tlz7tVhMR2fZ7agE4wMAgN4TtAIAfTPZ4V7n61xUz6xc93b+Vrv8xrPlZR24ft+gBtZzP54tL7d4/kWSly3VUtJDktN1L64D5vOuivmCyY73AwBoTNAKAPRGHeDsskvuTYOu1vM1r3u5mI7WvXZt49ny6slIAYdmteNy0yfu0VzWJDkfz5Z3Ta7P7rt4n21z4BwAwC4IWgGAPpkU2PN0nYsadrX+1FUoVI8UOE3y7yQ/x1iBTd1nw+7jPZvLej2eLdf+WOqP/YcO6/ka4wMAgF4TtAIAfTIpsOdZ3Um7jvMG6142L2V949nybjxbnj8ZK6DLtZnzTQ7B2rO5rI1GBtRKBsyCVgCg1wStAECfTArs+SzJ2ToX1l2tH9Zct5MRAp9TjxU4TfJ/qQ7PWrfGQ3W9xWzWy+zHXNYkOW0yMqAel/Cqs2q+7WWDN0UAAHZO0AoA9EIdoJQKsNYKWje4trMRAp8zni0/1odnnaQKXVedrg+7qmEANuniTJLUwfnrNosp6MN4trxa9+L6+7MP4xJ0tQIAvSVoBQD6ouRBN8/qbr1vqjsAf26w9mWJLrw6dL0az5an49nyeZL/pKr7dte19EyjLs6VxXR0kuSn9ssp4j7Nw+bz9GNcwqR0AQAAXyJoBQD6YlJ4//MG115k/UOoXqYHnYDj2fKmnul6nMdu119zWMHrj026OFfqruTL9ssp5qTJfNrFdDRJuQOwPqWjFQDorX/88ccfpWsAAMhiOpqn7PzHJHm77uzOusPxv12svWt1x+0kVVfxJOU/D134dTxbNhn7kOTP12ae/ZnL+uN4tmwU/C+mo7skL7opZyP/Gc+WN6WLAAD4lKAVAOiFxXTUh/9Tcj+eLY/WvbhhOPyQZDKUgKju4pykCl+PM+ygceOQuydvALTlQz2/d231XNq+jUz4eTxbnpcuAgDgU4JWAKC4+tbk30rXUWvS1XqU5H8N1n5IctTktu0+qcPX4yRHqULYo/Sr0/FT10nONg23F9PRZZI3rVZUzn2S44YjA46T/N5dSRu7rUdgAAD0iqAVACiuZ11zTbtaz9Os9ttUna2DDFs/pw7kVuMHnufxYLMSnaAPSa6SXI5ny/mmi9SHo71rqabSNuqmXkxHN+lvJ/P/7dP3EACwHwStAEBxi+noKsnr0nU88f26hybVMzxv0qyzc+/C1q95EsQ+DWFT//75J5cf5cuv5W2Sp6/ZXf34mOpzcDeeLe9aqHeS/nRYt6Hx6ISevfnxOb2deQwAHC5BKwBQ3GI6+pjkWek6nrgez5aTdS/eMJg7qLB1KOpQeJ5+fT1uo/EhYAMJmt+PZ8vT0kUAADz1z9IFAACHrQ62+hZqvarDprXUt6i/b7jHyyTzuiOWHqg/F/P07+txU9cbhKzPk1x2U06rJqULAAD4lKAVAChtUrqAL7hoeP1ZqlmYTQhbe2IPQ9bbJCcbPO8i/T7gbOVF/SYNAEBvCFoBgNL6Gpa8rA9EWks9AqBR9+Bqn1Rha19fh0Nxlf4e/NTUQ5LTpmMpFtPRSZI33ZTUiUnpAgAAnhK0AgClTUoX8BXnTS6uD+e53mAfYWtBi+noMsmr0nW0aDKeLW+aPGExHR1lGCMDnpqULgAA4ClBKwBQTB3u9Pk25RdNulprp2k+QiCpblmf112F7MhiOrrIsLo4v+Vt05C1dpXhjU2YlC4AAOApQSsAUNKkdAFrOG9y8Xi2vEvz+a4rz5L8d4Nwlw3Ur/MPpeto0Y91V3Ujddg8xLEJz5ocWgcA0DVBKwBQ0hBulW/c1TqeLc9THUa0qXf17ex0pP6cvitdR4vej2fLxgH/HoTNk9IFAACsCFoBgJImpQtY0/kGzzndcs83i+lovpiOnm+5Dp+oxzPsW8h62vRJ9UzgTbuv+2JSugAAgBVBKwBQRB0gDuV25ReL6ei8yRPqOZm/brnvqyQ3DslqT/1aXpauo0UfNgxZn2eYc1k/5XsDAOgNQSsAUMrQApKzDbpLz5Pcb7nvi1SHZJ1uuc7Bq0PWeYYfLq7cZvPO6av0+yC6dT3zRgQA0BeCVgCglEnpAhp6luSsyRPGs+XHps/5yt7v6kOL2MCehqyT+muskXr+76vWKypnUroAAIBE0AoAlDMpXcAGzhbT0VGTJ4xny6sk1y3t/4O5rc0JWR/VndFvWq+oLB2tAEAvCFoBgFKG2FH3LGUOxnrqVZI7t0uvpw7G5xGy7uMhYCu+FwCAXhC0AgA7N/CQ8E3T+sez5V2Sn1us4VmS3xfTURtjCfbWHh34tLJNyLpvh4A9NZRD9QCAPSdoBQBKmJQuYEuNZ6WOZ8vzbH8w1qd+WUxHV0YJ/F39msyzPyHctiHrPPsTOP/NYjqalK4BAEDQCgCUMOSO1iR5tWGwc9pyHUnyOsnNwLuEWyVkfbSHXb1f4usfAChO0AoAlDApXUALLps+YTxbzpP82nolyYsYJZBkL0PW9+PZ8niLkHWe6utj3+nqBgCKE7QCADtVhz/7EPy82DDYPE/y0HItK78spqP5oY4S2NOQ9XSTJ+7ha/Etk9IFAAAIWgGAXZuULqBF501Dzboz8bSbcpIkr5LcHdrMyj0MFn8WsjZykG8uAAD9ImgFAHZtn2YpPkvVodrIeLa8SvKh9WoePUvy22I6Ou9wj954ctjTvgSLb+vD0xo70JA1ObyPFwDoIUErALBrk9IFtOyHDQ+iOk13IwRWflpMRzeL6eio432K2bOQ9SHJd+PZ8nKTJx9wyAoA0AuCVgBg1/apo3XloukTdjBCYOVlkpvFdHSyg7126knI+qxwKW24TzKpD0xrTMj659cDAEAxglYAYGfqzsp9CMU+9WoxHZ02fdIORgisPEvy38V0dLUvB2XtWch6neR4PFvebPLkPevq3cZefG0DAMMlaAUAdmmfO84aH4xVO033IwRWXqfqbp3saL9O7FnI+ut4tpzUHc6NCVkBAPpD0AoA7NI+B60vstnBWLsaIbDyItVBWZdD7G6tO4fnGX7I+pDq0KuzTReox0HMM/zXAgBgLwhaAYBdmpQuoGMbHYy1wxECT71Jcjek2a11yPouww8Wb1PNY73cdIH6tfhvhv9aAABYyZ1eAAAgAElEQVTsDUErALBL+9zRutL4YKzaaXY3QmBlNbt1Xs/P7a0nIevQ/ZoqZN1oHmuSLKajy+zHawEAsFcErQDATtS3qR9C992mB2N9TFKqu/RVkv8tpqPzQvt/1Z4Eiw9Jvh/PlmdbzGN9vpiOblJ1IwMA0DOCVgBgVw6hm3XlYpP5p+PZcp6q47GUnxbT0V2fDsuqQ9ahB4sfkhzVIyI2Un9O7uLQKwCA3hK0AgC7ckhB67NsPkLgPNUMz1JWh2VdlRwnUHdvzjPskPUhyY/j2fJk0y7WJKk7jX/LYXSEAwAMlqAVANiVwZ1wv6U3m3SG1oHcaevVNPc6yU2JcQJ1N/A81UiDoVp1sW4auGcxHR3VYfNPrVUFAEBnBK0AAN253ORJ9UFJP7ZbykaepRoncLOYjnbSkVzvc5Ph3iJ/n2oW67ZdrCepXochh827tvHrDQDQBkErAEB3XmzaEVp3Qn5ot5yNvUwy3+SQrybqDuB5qvEFQ/RzkuMtZ7E+X0xHV0n+G6MCGqnfoAAAKEbQCgDsysbh08D9tEU36GmqDsk+eJbkXd1p2bo6xB3qHNIPSf49ni3Pt+xinaTqYn3dVmEHpC/fJwDAARO0AgA7UXeb9aVDc9cuN3lSHdp1EmxuofURAovp6CLJu7bX3YHrJN/VYwLuNl2k7mK9SBU0D7WbtzTdrABAcYJWAGCXTnOYYevLLUYI9GVea5LcJtn4cKdP1QHjZZIf2lpzR+6TvB3PlpPxbDnfZqEnXaxDew365rJ0AQAA//jjjz9K1wAAHJj69vOzHN5BP//ZdI5kPbez5C3lH5KcbnNr/FOL6eh5qnmsQzr06j7J+Xi2vNx2ofrjP4+AdVMPqcaRzJNctfV1CQCwDUErAFDMYjo6StXlepJhBW6buh3Plhvdel8wmHxIFS622cl6nOpjGco81tYC1uTPLtaLHMbXfJtuU4WrVw6+AgD6SNAKAPRCHSSeJJnUj32dVfnreLY82+SJBQLK61RdrHdtLVgfenWRYYSs10kuWwxYdbE29yGPXat3ZUsBAPg6QSsA0Et1t+skj+HrEIK5dX236WzPuhvyt1ar+buHJGdtBYwr9YFPQwgZ36cKWOdtLVh/3i6zv28gtOlDHjtXjQQAAAZD0AoADELdzXmaKnQd+i3XD0mONg2R6q7Qd61W9OjXVLfJtxZw1Z2cV+n3TN6HVJ22ly138D6v133T1pp7anXQmnAVABgsQSsAMDh1t+vqQK2hdghej2fLyaZP7qA79H2qgPWuxTVXAflV+vt5anU8wFMDG5NQwn2qLt9Ww20AgFIErQDAoNVB3lmq4HVogdbP49nyfNMnL6ajy2zfKdlJwJr0OmjsNOCr3wi4TL87eEt6n6pz9ap0IQAAbRK0AgB74clhWmcZ1miB77cJnDYMWx9SdZl2ErAmvZzHuvqYL7o6sb7+GjxL8lMX6w/cKty+MBoAANhXglYAYO886XIdwlzMhySTbcK/BqHmbR47OTsJu+qwcZ5+hN33eTyxvtPuybp79zz9HZFQSmejGQAA+kbQCgDsrScdhmfp3+3rT92mCls3Dj8X09FJqtv0nwZ9D0lu8niC+902Ra5Rw3GqYLPka31b13DZVefqU4vpaJIqYDUm4K/ep/oczEsXAgCwK4JWAOAgDKDjcKvDsVbqcPl41wFX/fq+2+WetYfUXatJ5rs6VKmew3qeYXRN71JnM38BAPpO0AoAHJSedyC+H8+Wp6WLaKrupv3vjrZbBavzVMFq512rT5nD+kUCVgDg4AlaAYCDVAeuZ0leFy7lUz+PZ8vz0kU0sZiO5ukuuL5ONf7gJjvsWP3UgMZQ7JqAFQCgJmgFAA5aT28Bfzukw4MW09FVtg+sb5Pc5TFUvdt1t+rnCFi/SMAKAPAJQSsAQHoZuA4mbK3DyNMkkyTP8/fu1tskq4O+burf360efQzrBKxfdJ3ktI+fMwCA0gStAABP9CxwHUzYui8ErF90naqDdV66EACAvhK0AgB8Ro8C1x/Hs+VF4Rr23pPP90kErE/dpwpYL0sXAgDQd4JWAICvqAO4y3R32NM63o9ny9OC+++tHh+KVtpDkouhHcwGAFCSoBUAYA11IHeecoHrdZKT8Wz58ZtX8lVPZsqeJXlRtppeep/kzNcaAEAzglYAgAbqwPUyZQK621QHEd0U2HvwFtPRSaqAVffq512nClh9fQEAbEDQCgCwgcV0dJqqw3XXgetDqpmZ5rauYTEdHafqXDV79cvMYQUAaIGgFQBgQ4VPqL9O1d16t+N9e68OV09ThatGA3zdz6lmsRoTAACwJUErAMCWnpxY/2bHWz8kuYigbDUWYBLh6roE9QAALRO0AgC0pOCBWQd363cdbk9SBauTGAuwrvtUAeu8dCEAAPtG0AoA0LJ6futFdh/+3ac6qGvvOlzrMQ2TJ4+XBcsZoodUXxfnpQsBANhXglYAgA48md/6U6ES3ie5Gs+WV4X234pgtVUfkpwZEwAA0C1BKwBAh+pb3C+z+3ECKw9JrpLMk8z7GLbVoepxqkD1uH6Ys7o9YwIAAHZI0AoAsAP1/NbLlA8Q71OFrjdJbnYZwtWh81GqIHX163HMV22bMQEAAAUIWgEAdmgxHZ2nGinQp3DxIVXwelc/kiqMferm07mvTzpRnzqqH6n/7nn936UD5kPxPtWYgL2a0QsAMASCVgCAHasDyoskb0rXwt64TRWwzksXAgBwqAStAACF1OMEzlNufivD95DkfDxbXpQuBADg0AlaAQAKW0xHp6k6XPs0ToD++zVVyGpMAABADwhaAQB6oB4ncJbkp9K10HvXSU7Hs+Vd6UIAAHgkaAUA6JHFdHSUqrv1deFS6J/7VHNYr0oXAgDA3wlaAQB6qJ7fepHkZeFSKO8hycV4tjwvXQgAAF8maAUA6DHzWw+eOawAAAMhaAUA6Lkn81vPInA9FB9SjQm4K10IAADrEbQCAAxEPb/1PMmbspXQoetUHazz0oUAANCMoBUAYGAW09FxqnECr0rXQmscdAUAMHCCVgCAgaoPzDqPwHXI7lN1sF6WLgQAgO0IWgEABq4+MOs8yYuyldCAgBUAYM8IWgEA9oTAdRAErAAAe0rQCgCwZwSuvSRgBQDYc4JWAIA9JXDtBQErAMCBELQCAOw5gWsR10kuxrPlVelCAADYDUErAMCBELjuxPskl+PZcl66EAAAdkvQCgBwYOrA9TTJq7KV7I2HJBepAta7wrUAAFCIoBUA4EAtpqNJqsD1TdlKBus6Vbh6WboQAADKE7QCABy4xXR0lOQsVej6rGgx/Xef5CrV/NW7wrUAANAjglYAAJIki+noeZKTVKHry8Ll9MlDqnD1yuFWAAB8iaAVAIC/WUxHx6k6XE9zuF2uH/IYsH4sXQwAAP0maAUA4KsW09FJqsD1deFSurbqXJ1HuAoAQEOCVgAA1vJktMBJ9id0vc1jsDovWwoAAEMmaAUAoLE6dJ3kMXgdyniBVbA6TzLXtQoAQFsErQAAbK2e6Tp58uhD8Hqf5KZ+zHWsAgDQJUErAACtq4PXTx9dha/XST6mClTvktwJVQEA2DVBKwAAO7OYjib1bydP/vg4yfPPXH6TKkB9al7/+nE8W960WRsAAGxD0AoAAAAAsKV/li4AAAAAAGDoBK0AAAAAAFsStAIAAAAAbEnQCgAAAACwJUErAAAAAMCWBK0AAAAAAFsStAIAAAAAbEnQCgAAAACwJUErAAAAAMCWBK0AAAAAAFsStAIAAAAAbEnQCgAAAACwJUErAAAAAMCWBK0AAAAAAFsStAIAAAAAbEnQCgAAAACwJUErAAAAAMCWBK0AAAAAAFsStAIAAAAAbEnQCgAAAACwJUErAAAAAMCWBK0AAAAAAFsStAIAAAAAbEnQCgAAAACwJUErAAAAAMCWBK0AAAAAAFsStAIAAAAAbEnQCgAAAACwJUErAAAAAMCWBK0AAAAAAFsStAIAAAAAbEnQCgAAAACwJUErAAAAAMCWBK0AAAAAAFsStAIAAAAAbEnQCgAAAACwJUErAAAAAMCWBK0AAAAAAFsStAIAAAAAbEnQCgAAAACwJUErAAAAAMCWBK0AAAAAAFsStAIAAAAAbEnQCgAAAACwJUErAAAAAMCWBK0AAAAAAFsStAIAAAAAbEnQCgAAAACwJUErAAAAAMCWBK0AAAAAAFsStAIAAAAAbEnQCgAAAACwJUErAAAAAMCWBK0AAAAAAFsStAIAAAAAbEnQCgAAAACwJUErAAAAAMCWBK0AAAAAAFsStPL/27vb4ziOc23At9/yf+JEQDgCwRFwTgSiI9AqAtERCIrAVARaRmAyAg8jMBGBwQgOEYHeH40t0hAB7u7T87HAdVWhRJGYp3sHs7OYe3q6AQAAAIAiQSsAAAAAQJGgFQAAAACgSNAKAAAAAFAkaAUAAAAAKBK0AgAAAAAUCVoBAAAAAIoErQAAAAAARYJWAAAAAIAiQSsAAAAAQJGgFQAAAACgSNAKAAAAAFAkaAUAAAAAKBK0AgAAAAAUCVoBAAAAAIoErQAAAAAARYJWgGkNSbZJPiX5/c7XhySXSc6W6do3DWl9/5A/9v33JNdJ3ibZLNG5PW3S+ni3759u/35YqmMAAAA8Ln/6/fffl+4DwGN0lhai/rTH996kBX4fJuzPIc7TAtYXB2zzMcnLrOc1nKUFqfu8hndpgeynDm1ubr++u/NvV7f9ed2hHQAAAFZI0AowjQ/5Y9j2kJu0gHPpEO4iyZjk2ZHb/5gW0i5tzGFB8VVa2H3s/n+Z9rq/td9ukrzKOvYR8LDdzZOXOex8cqrep90Qepv2xAIAAAcStAL09zr7jWS9602WfQy/GrLu/O9tnaVcJvn5iO3e57ipBDZJfjtwm1/TAldgnfa9efJY/ZJ2LgUA4ACCVoC+LpL8u7D9/2SZUa1naaNwn3eodZO2H6471DrUeZL/FLY/NCQekvxrpraAebxM8s+lO7ECS9/8AwA4ORbDAuirOkpx06MTR3idPiFr0kaAve5U61Cb4vaH/vwuC20ttY+A+53F1B47P8SoVgCAgxjRCtDXoXOz3nWVNhp0TuepjQK9z18z/+JY16kHxn/a8/uqo5eT5C8xFyKsySaHTwXymK1l/nAAgJNgRCtAX5WQdbf9eYd+HGKquUI3E9W9z3n6jcrdx9ChxnmHGkA/50t3YGWepU2lAADAHgStAOsz90XtVO3N/TqGmds761Bj7tHLwMOGpTuwQs5TAAB7ErQCrM8wY1sXmW4U6PPMe4E+zNgW8DjNPd3JKRC0AgDsSdAK0NdVhxpDhxr72px4/S8NM7aV9JmzUKgD63K9dAcAADhdglaAvnqEb88y3wiiqR/vHyauv3OWPiNz3x/wvT1C0usONYB+tmkLQAEAwMEErQB9jZ3qDJ3qPOQ80y8eNdfiXkOnOtcHfO+Y5GOhrfcHtgdM71OmWyAQAIBHTtAK0FevR8HnGNE612JVwwxt9Npfh/78LgttVbYFprNN8mOMbN25XroDAACnQtAK0FevoHXoVGfpNpJ5At2hU51Df37bJG+OaOfH9Bv9DPS3TbuB80v6zL19yswlDQCwpz/9/vvvS/cB4LG5Tp9H8v8nfeZ8vc+ntPlgp3aTNofqlHp9mP3pyO1epY1Q/db+vLn93u2R7QDc52WSf05Q968RtgIA7MWIVoD+xk51hk517qs9R8ia23aGCev3mjbgkIWw7np9249f8/V5W6/SRsadR8gK9HeRac4tHyNkBQDYm6AVoL+xU50p52kdJqw9d3u9ao/F7a/TRquep42M/fLrIm3E65QjlIGn6SzJ20xz8+xygpoAAI+WoBWgv7FTnaFTnblrz91er0B67FQHYE5j+kxXc9e7GIEPAHAQc7QCTOM6fS58j50z9CFnSf5vgrrfMtWcs9dZ774GmNI2yQ8T1L1JG51vFD4AwAGMaAWYRq857aaYPmCYoOZS7Z6lT8hamZ8VYAmvMk3ImrTztZAVAOBAglaAaYyd6gyd6kxdc6l2e9UcO9UBmMOQ5B8T1f4xFsACADiKoBVgGmOnOo9pROvLCWqanxV4ai7SFr+awpuYlxUA4GjmaAWYzqfUV4H+mDZPXi/nSf5T2P4mtdf0l7Q5VXsZk7zoUMf8rMApOEs77303Qe33We5GHADAo2BEK8B0xg41nqddWPcyFLffLtz+XT1C1qsONdbkLG0/7756Hj/Ast5mmpD1KtM8dQAA8KT8eekOADxiY5LvO9QZ0u8x0aG4/evbGsde6A/p91jq2qYNOEtymRZW3F2g6ypt3207tfU1L9MWx/la+Pz+tv3qcXR+287F7Z8fCrpv0uZ5/JC2j6d61HnXr+H265B+7fp2PV3XJneRzz+Pi7Tj8CKHjTzf7ZOk7Y9P+bx/LIi0Htv0ubl0101OY/Gr83w+3ofbv9tnf3xMe49/+OK/Y+e+9XaWdj7f5I+fJ+/SzqfbDu2cp+3Liy++Hjp3XKXtw/H26zHN5Tvk82fIefY/j77P53PmGOdNgCfP1AEA07lI8u8OdX5JC/B6uM4fL9r2tZvG4HWSn46scZN+Iyxfpc9iMH9LPQTcpO2Xb12UXd1+b++L0232W338Tdp+O+Qi8Cytz69y/LGTtJ/927T91Ov1b26/quHTLgh/m/VfIJ+nhd3D7Vd1epJvucrnUGXKsJyHbZL8NkHdXci61sBsd6x/7QZW1S6wXNv7/iLt/fat9/b7tP1yaN/P8vnGXHV09Me0z59tTu+G1XnafniZ/jcwrtL2yduc3n4BoEjQCjCtHvO09po3rxr8vkm72H+Z5J+FOn9Nn4v6t+kzYvh/UrvI3uSwAKR3sHFo8P0u+z0ifHZbe58A91Dv0/bb9ZHbb9JuPvQOXm7SXvPrrCt46RmMVOzC8ssID+bU66bd1/yY9S1+dZ7PN1F6v8fv8y7tfT/O1N599g1Zd66y/9Mdu1Gyrw6of4g3OY1zwybznkt7PVECwIkwRyvAtMYONXqNtBiK2+8uEsZinaG4/U6PqQOuUgvUztMuoA7xLH2ngjh0dPH3aReZD3mVdrE8RciatGP6wx79uOvidrvfMk0A8yzJz7dtDBPUP9RuOorrtNe8ZMiatP3zQ9qCetv0XaiPrzvPdOHfL1lXyHqe1p//pL0P5wpZk3Ze/Ffae20zY7t3bXNYCPpd9nviZZP22n4+sP4hfkg7d+7TnyXsPtfmPpe+SLs5fR3zIAM8CYJWgGmNneoMK6gx3v73U9oIjWP1uNA4T5+L8LG4/WWOu2h9nsNDxq85tsblPX9/lrZP/pHpH0l/dtvOds/vf5U2qm+OC+TnaaFLj5/RsXahwJTBSMUuVFlyHz12Z2k3ZaYcfbgGuxsK/8l0N3f29TwtiBvTbx7wfb3Mcee3V7l/Sp7dMfRb5jmP7G5WjQ/0aW4v086l/8i84f1dz9MC1zFuUgE8aoJWgGmNner0uOAbCtveHfk5Fmr1GKHb6wJ4LG5fCY03xbbPcvzUCc/yx+PhIu1idIrFdh7yQ74dtm7TZz7eQx0SBPeyG7U7R9hddWhYzmG2mebGwlXWE5APacf7zwv3464XaTd2Xme+wPDYz5Nn92y7O5f0mGLnUC+yTFj9pV3I/M8sG7DedewTHQCcCEErwLQ+pM1rWDV02L4S2tx91H0s1Er6vJ4exsK2+65IfJ/vUhvVUr2AHb748yaHzQvY231h61nae2jJUW4/ZL6Rf5u0n8PSUwQcap+wnMO8zjQB2U2OW0BpCpdpI8fXFILd9VPmCwzPC9sOd/5/N9frkvv2uyw3snXJkHkfX96kWsvIXwA6EbQCTG/sUKNnqHaM8Sv/XwmQq9MHrGF+1h59OC9sO3RoP/m8mNfSoyd/yH+P8NlNY7CG0PHnTD+33ibr+Dkc64ccPl8xX7fJ4XMv72vI8osV7UYarm0U6312geEwcTuVpwnOv/jzoQtqTelZ5g9bN1k+ZN7XD1nXNAsAdCBoBZje2KHG8ywbyo17/t2+hsK2SZ/H28fi9ucd+rD0xdXLtHBvLf6RzwH2mHWErDvbTPfz2mRdP4dj/RSLvVRdZLrA+se0UX5L2t1AWetIw/s8Sxt9u1m4H9+yppB1Z98Fu3rY5PRuWC058heACQhaAaY3dqpz7AjKs9SCyXf3/P1YqPldjr+oGArtfmnsVKdiyfnrLrLOx723mW5uyopnmSYsuMjjCFl35pzT8rHZhZBThES/Zvn3+5pGqR/rt6w3bJ3y+Kn6KdOPCF7bjcNDCFsBHhFBK8D0eo0gGmbebmc88O/3dezIt7UshHXqvs86L8i/y/Irj9/np/RdLXr3CPVj8jzrDaLWbMqQ7F3WsfDONqcdsu78lmVvkt1nzDrP6TuXE9Ze643DQ3yXx/d5APAkCVoB5vG+Q41jL+yGYrvjPX//IcnHQt1h5u2+VJ2fladr07HWq5zGPIKHWkOod2peZ5oQ8irrCL6nWtxrKWP63nSpepH1h9gvMs2o1t0NqzWHzPt6kfmmWQBgIn9eugMAT8SY+ryix24/FNr8mIdH5I45fvThcOR2PUYSjR1q8DS9TJ8L4bNME0hepR3fn/Lt43xIez8N6RtSPE/bT0Zn7edVphnFfZMWsi59U2nIdIt7vUv7jBq/8m/nacf3y/S/ofEs7fhe48jWNbtM/7B1m2luWL1LO66+9jvQeaY7tn6+bXfsXBeAmQhaAeYxps8Ky0MO++X7PLVRLt9qa8zxAcFuga/rA7Y5T5+LmrFDjafife6/6DtPu9BccqTam7S+Xd/5+yEtZOp9EfxdDj9uv+Zl+oWbN2kjBrc5rF/jF3/epIUgvfaXoHU/L9MWgZuq9hoWv+p9HHxMO1bfZr8Q+VVaKNY70N4t8nTZseZcHjqvX+RziNh7lOiL9Dl/7vT+/NmdS19n/2NrSDsGeizSubPNukZMA3AAQSvAPMZOdXYrCu9rKLb3rba+9e/f8jKHrbBtftZ5HHKxuU27IHybeR9d/SUP929Mu/h9mdbHnoHBRfoErT38mvY6q6MWt1989Qijhg41Hrsp55X8Mes4z12m73vv2OP9Q9rNhN0NiV7nqp9z+A2OJb1J23/XD3zPePvf3aj7V+n7Mzz0c/8hveokbd+8yuHH1ph2vhvSbwqD57d96fn6AJiJOVoB5tNjntZh4u+/61sjka7THlU+1jDx93/Nxyz/KO2aXeXzCJ1999P17TaVY2FfV0n+mv379zatbzcd+9Aj8B+K298k+VuOCwYeskmfn+NuxDpfN+W8km+yjoWBztNvyoBex/uHtPfemw592tl2rDWVqyR/SXt/X++5zad8ftS/5/mz102my/Qbgf9j6tNsjGnHfK/Pwcu08wQAJ0bQCjCfsUONQwOeodDWvgtGjYU2hgO/3/ys0/qY9jM55nHjT5l+EaRdCHxo/z6k7+O9PY7DSsB2k8+jp6bQ6+do/sr7jZlmXsn3WcfiV0m/91zv4/1T2j7qFbZOtchTL29SG4W/C6d76fGIfc85rn9Mv7D8U/rddHyWfqE0ADMStALMZ+xQ45BRYhepXciPnb/va57lsAu4HhdoY4caj9XL1Ef0vOvTlT/YhazH9u91WpDcQ3WU0VDcfpNp594c02cEvqD167aZZpqNq6wnmDlPv/lQN5nmeN+k3/nqslOd3t6kT/D+IW26ll7Oi9v3mj/21/QfkfwprX89RgFfdqgBwMwErQDzGTvV2Te8GIrtjJ2/7z5D5+/7lrFTncfmTfqEGdsONe66ST0ETvrNd1cNEK8L2/6SeRaZ2naoIWj9o036Lsi0c5P6o889XXaq82umPd436XMD5kXWd7y/S9/RzT3nCz0vbn/ZoQ+7RdWmcJ0+I26fZ92jpQH4CkErwLzmnKd13++7z74Xt59Se13Dnt/X4yL2Y05n0ZK59bqIniIUuUyfn1uvvlVHUl3nuNFOV5lvhNPYoYb5Bf/bkOS3iWpvMu0o50Ocpc/I2imDsJ3dNAI9TD11yiE+pv8UEp/SbwRw5dxQfVpnZ5Npb0xs02cKgU2HGgDMSNAKMK+xQ405RrQeGpyOhbZeZL+LrqHQxs7YocZjdJW+IU2PGwo7H9MvBL5O30VdKg4NfXcjFudynfq+WtsIvyVdZLqRmX+fsPYxej3WfZl5RuiO6XPOWsu0Dcl0+67XcVY5N2w6tH+VeX4f6PHZNXSoAcCMBK0A8xo71NhnntIhtQvdQy+mxkJbyX4XEhbCms526Q48oHeAtJZRf69yWJD5KvP3vdpej7DtMThLe49NsT/epO8j3T30Gs267VBnX5cdaqxl8aKrTLfvxonqHqLHPp7rPbNN/YbV87hpBXBSBK0A8xo71RmK//4t4xHfX7mYGL7x7+fp86jg2KHGYzSuuF7PWj1VL3x3q1PvMz/kmywThq9lvs9T9zbTLX61maBu1fcdaswdHo/p85j3GoLWKffddfotKniMHtMG3GTeEeDbDjWGDjUAmImgFWB+c6zmPRRq3+S4kWxjoc1vXZyan3Vaaxnl+TXjSuv1mH/0Q9qx/Uvuv1Hxa5YL09Z8XJyK19nvKYRDfcw6w5ehU50lpkLYdqgxdKhRNfW+u564/kOGDjXGzHsTaexQ47xDDQBmImgFmN/YocbwwL+dpXZhf+xF2lho83kevpAYCrV3xg41HqOe86n29jGPf1Tlp7THls+S/DXJ/37x9afMv8DOy7Rw8DrJzzO3/dhskvw0Qd2btJ/TGt8bQ4caV1kmzOsRUH7rs2xq7zP9cTFOXP8hQ4caY4cac7dn6gCAE/LnpTsA8ASNqQcYD/3SPRRrjzNvtzPk/hFF5medzhSjFntd6F93qnMqlhhBepEW2g2ZZuTlU3WR5LeJai8xX+++hg41llrY6zrt5k710fSLLHfuWutx0csp/i7wKS/F76oAABjrSURBVPXjqscTFADMxIhWgPn1uBB6aNTMUKw9Hrndh9Tmbhse+LceAdDYocZjdD1BzV4X+489NFjCkDaCdkwLAP6dduNHyNrPeaY73/ySdS9ed4pBWO+2lxx9OMco5+sZ2rhPj7nal/hcuS5uP8UczwBMRNAKML9P6bPoxn0Xc0OhZvWRzbGw7X3ztA6FmjvmZ73fmsPMNT4afUrO83kqgDHJ70n+lc/B6rOlOvaInaWNyJxi375JC8nXrMfrXvKc1KPtJYPWcYY2rmdo42uGDjV6/O51jHGhdgFYgKkDAJYxpj5CYcgfH7E8L9YdC9vutv/hyG2fpV2g3r3QHQr92Rk71GB+gtb9naW9f4bbr4sIUpewzTSjz64y/3y9hxo61LjJsu/7HkGrx7zXy2cKAJMTtAIsY0x9kZRhz787xLjw9kP+eKF76o+irt2aR7SuuW9L+jJUvbj96vFILTWXSb6foO5N2s/6KYRES7/ne+zjxz51wFKGDjVepI3sB4DJCFoBljF2qPG1UVNDseZY3P46beTVsSO6do85f2ko9Gdn6Yv3NXvMF+aPxXn+e6Sq+frWZ5P6Iof3GXIa79PzpTvQQY/PiiVHkvuse5zeL90BAPYnaAVYxm6e1h7TB4x3/v9Y79PnYn7M8a/r7oI856lftN7ExSen5zwtvNvEaNW1u8gfbxD18mNO5/x13qHG2KEGPDbXS3cAgP1ZDAtgOWOHGsMXf64+PjyWetKvznDPn481dqgBczlPm+fzP2kjJIWs63aWdo6ZYhTjr2nHAvC0jUt3AID9CVoBljN2qPHlXHBDsdbdhbWONRa3f/nFn83PylNxljYq8j85fkE55jVlyPou61/8CpjeTfr9fgbADAStAMsZO9QY7vnzoXo+Xv8ptfnEhnv+fKyxQw2Y0kXa+6+6QF4vH9NGU75ZuiMr9zrTzJd7lTZlBMCrnMYczQDcErQCLGc3T2vFs3yeF28o1BmL/ehZ77u0kWK7P1eYn5W126S9X5aeIuB9kr8n+WvaOeVVzAv4kFeZZuTxTdqofsEK8EtMHwJwciyGBbCsMX0WxLpO7fHV3o+ljamtwD2k38JcsFabJL8t0O5N2nvjw+1/xwX6cMpeJvnHRLWHCLjhqXuTNmLejWKAEyRoBVjWmPrjwhepr/Y8Frf/Wr2bHB/+vkyfsGHsUAOmcJH5Qtar/Hewej1Tu4/RRaYbYfZjTjtYue5Qo8e83HBKdk/efHnjy4h2gBMmaAVY1tihxpDaL+UfM03wMib5/shth/QJHMYONaC33SJKU3mfzxfsU7bz1Jyljf6fYvGrNzn9R4SvO9Q4+/a3TKpH0HvToQbTeJf/XnATALoTtAIsazdPa2X6gOrUA2Nx+4fqHhu0Pk/9gtv8rKzV6/QN627SQrq3EaxO6W2mmUv3fSx+tXO+cPs9gl6fO9PosV+XDvIBeAIErQDLGzPNytX76j0/685Y3L4aRFXbhykM6beI0k1aaPs60zxqOkxQ81Rtk7yYoO5VHs8Iu7FDjaUXhesxotVj39OwXwE4Cf9v6Q4AsPjol3Giuh/SpiVYyrhg23CfV53qXKUFoZcRQExtk37h+Jdubms/pp9fj8fmhw41jtUjaF36M/2x6rFfzQEMwOQErQDLGxds+yrTXuSPE9Zec9vwNec5fjqNL+1C1qkDnfOJ65+CIdMtWvYyjy+U6/F6hg41lmz7sf1M1+JT6kH+s5g+AICJCVoBlned5UZ+TjVtwM44cf37mJ+VNerxiPhN6gvg7Wvpx7iXdpHpzpF/z+O8GTR2qLHUVArn6XPM++yZztihhlGtAExK0AqwDuMjbXfq+mtrFx4ydKgx1Xysdz31MOIsbV7WnouW7bxJ+zk+RmOHGt9lmdHUPQLej2k3T5lGjxD7scyJDMBKCVoB1mFcoM2bGdq9TnvMeW5GFLFGPcLLbYca+xhmamettplmkcKrtHlZH6uxU50lwrBNhxpTPyXy1PXYv2sKWnej5n+/8/Uhj/s8AfCoCVoB1mF8xG3O1c7SbcK39Hgs+bpDjX0MM7WzRtv0mUv3ro95Gvv1XYcavRaN29eQPsH62KEG9/uQ+jytz7OO9+FF2vHytXPNd2lzQ29n7A8AnQhaAdbhOvPP0zo+snaWbhOmNtfo8LP0CxpPbQqCV0l+mKDuTdpIujmmfVhaj1GHzzPviL7LDjVuYkTrHHrs402HGhUv035P+dbUJD9k+b4CcCBBK8B6jI+0vbna2Xk/c3uwj6FDjfMONfbRczThKa3wvUnyjwlrP5UpTbapjzpMWvg5x/HzMsmLDnW2HWrwbT2C1h+yzDzASTsX/DP7z/+8mawnAExC0AqwHuOMbX3MfBf9nzJv+DnO2Bbsq8dIxmeZPng6T9+g9VRGtF5kugWqfsnTG+m47VDjefqMNH3IbtGzHh7rAmdr8zZ9ngDadqhxqE3alACH6HETAIAZCVoB1mN8pG3N3d6cbcG+et3YGDrVuc82+4+02sd5x1pTOct+j/Ee402mDwvXqFfo+FOmXbzobfr83N9nvvmT6XN8vci8cwG/zuEhKwAnSNAKsB7XmW+e1nGmdpZob862YG5TBgPb9B89dQojWnuFbXddZf5FndbiOi1k7mGbaY6jbfod75ed6rCfbfpNTzH1OWo3avqnI7fv8ToBmJGgFWBdxpnamfsx1jHzXCyYn5U167GY1YtMM8Jvm2kWgVr7Y69DpunjzW3tp7D41X0u0+e8/yztM6TXcb8Lvnod7+/jBt/cPqXPqNbdsTVV2Hp+W79yrI09OgLAfAStAOsyztDGVZa5+B8fSRtwrF7TB2zTLxi4SOvXFCHrzpSPfldtJ6r7LMn/Jfn9xL8+pd2Y2xyxD67TbwqBZ2kLCF2mNk/xRerB112bjrXY32X6PAW0C1uHDrW+9Crt3Ppdsc5Tm98Z4OQJWgHWZXwkbXzNHBcL4wxtwLHGTnV6jMI6Swsq/p16EPAtw8T1j3WWtuAS93uW5Pu0uSWvc/gxd5k+I7l3fk4LrzY5LHC9SAvVex/vv8TcrEvadKrzLMm/0m4MVBcc3IX5/0h9SpKPWWbRLgAKBK0A63Kd6edp3U5c/z7jxPVvZmgDKt6m3xQaz9JCo8scFzhdp4VWc1jriNZTmD92TZ6nnWPPD9xuM0E/fksbMfw27T0wfOVrkxacXae9V3qP2r6KuVmXNib5tWO9n9KOl8scHri+TDse/x1z/wI8aX9eugMA/MGY6R7jvUm/x5cPdZ12YTrV6LlxorrQy+4x7J7v75/THlF9m/YeuP7K91zcfg1ZZgTn87Rw7nqBth8iaD3cs7Tw8pDw/EOSHzPNiuvf337NddNg5ybrvYHw1Fymndt6/W7xLO14+jmf598d7/neIe3c9jL9F9S7itGsACdJ0AqwPr2DmLu1lzRG0MrTdpn+7+9ntzWnnGe16mX6zdfZy1NeqKri+yO22aaFUms+Rg8xZH03Dp6qT2nnlw/pH3a+uP1aIsjfzNwmAJ2YOgBgfcYJay8dtG4nrL30azvG0kFPr8fYpzLF/ulV89g61+n7qOvUeh0jQ6c6PV0v3YETNhyxzSbJm77dWMSPWe7JEL7uOu2YXPtn2r42cYwBnCxBK8D6fErybqLa40R19/Uh08xBe5XTDE2WvpBauv1vmaJ/vWpW6lxm+rmYe3iX9nh9j76u8TH9cekOPEGbnHbY+mPW+zh3z0XHTtGHPI6w9cec5o1jAG4JWgHWaYpfst9k+RGUyTSvbTtBzW9ZOqQcF27/IUvvm4es4T2we9R1rW6S/D2tj9fp8wjrEnPD7uOUQ78lVd5Hm5zWqO6kvSf+lmk/a6pB6VzntnGmdo5xymHrHMcYADMQtAKs0zb9LxTWMkJiO0HNJV7bdYcaY2HbHmFmpf2HfEp9FOT7Hh35ih77rUffdgsErc37tNGnX86nOub0grF9XS7dgRPUY1HFV2nH/ykEYldp4d3UnzPXxe3nvMFVPb+PPTpxjw9pC1Sd0gjfj5nnGANgBoJWgPXquXDMVdbzC/yH9A3R3mSZaQOq0yBUp4f4lPqF5JTHxFjcfsq+Vfd9r75ts56wdTeKdcjX30+XqR1vaw3UrrOen8Gp6PXZtE073tYciP2a1sc5QszqeWXs0YmZ2qpu/y2f0m4Y/TJxOz3spmhZ85MgABxA0AqwXq/Tbx7HTac6vbxKn+DlJsuOSNsWtu0R1lUCj6tMe2FXDWOmDFqrfdv26MQXtf43ywaRb9JGgD20Xz6lnUeO7edabvR8zTbC1n1dpe9NwA9pIdPfs64w/irtffkq8z2S/zbH74OPmfc9ti1sO+d0HZdJ/prpnpCo+Jh2jL3MOqa0AaATQSvAeu2Cjao1rpD8Ie0CtupVll0E63WOuzC+Sp+wbpvjR4P12P8P+ZDjR47+kml/rmOOv/D+Jf0vise0oHPuMOBNkr+knWf2eU0fctzcsjeZ/nir2qaFHmsMZNZi9wj9FKHQ67T3wC9ZNnD9mPaZeZH55yL9lONvHB673bHGHHd+X+Lm6G7e1r9lHaOnd8fYedY93y0AR/rT77//vnQfAHjYJslvR2675hWSk8fx2i6S/PuA77+53ea6Y/tjkmcHbPNr5gm+ztL69t0B21xlnhXqj+nb+7QL9ikNacf1VItH3aSNfLvM8cfgJvu/b28y36PXvVykvcaLJC+W7cribtLeJ28z3/n2LO38tMl8i6i9T3t925nae8g2yQ8HfP+bLPPUyjHn0DV8bg9p++uQfdzDu7TXvubR/QB0IGgFOA0Xab+c73vReZN2IXEKv9APOSxYWuNr2zfsvErre+/Q6SJtH+5zwfv39H3091vO0n5W+wRWbzLvo7pr7ttw2973neq9S3utb9PnNQy3tR465j+mjYA9pZCVddmF3i/TP3R9n8/vievOtau22S8InOum2X32PYfuRrVvp+7QAc7Sjqvh9r+H3Kzc17u03w22MT0AwJMhaAU4LZt8vjD42kVB7zBlTpvc/9p2q1xvs97X9tAorLlGS21uv+5e9H5Mu9i7zHKBwibt53s3ONyNsNxmuccoN1lv387S3hMXt/89z7cDp/dp75EPaf0eJ+zbq9uvL9+zu3k8txO1y9N0nvY+2L0Xkv1uknxMO+9dp70ndu+LtRvS3ltD/vv9tTsvvc56bmJs8vVz6G7u2NdZX5h913n+eHxdZL8AdneMffjiv2Pf7gFwKgStAAAAAABFFsMCAAAAACgStAIAAAAAFAlaAQAAAACKBK0AAAAAAEWCVgAAAACAIkErAAAAAECRoBUAAAAAoEjQCgAAAABQJGgFAAAAACgStAIAAAAAFAlaAQAAAACKBK0AAAAAAEWCVgAAAACAIkErAAAAAECRoBUAAAAAoEjQCgAAAABQJGgFAAAAACgStAIAAAAAFAlaAQAAAACKBK0AAAAAAEWCVgAAAACAIkErAAAAAECRoBUAAAAAoEjQCgAAAABQJGgFAAAAACgStAIAAAAAFAlaAQAAAACKBK0AAAAAAEWCVgAAAACAIkErAAAAAECRoBUAAAAAoEjQCgAAAABQJGgFAAAAACgStAIAAAAAFAlaAQAAAACKBK0AAAAAAEWCVgAAAACAIkErAAAAAECRoBUAAAAAoEjQCgAAAABQJGgFAAAAACgStAIAAAAAFAlaAQAAAACKBK0AAAAAAEWCVgAAAACAIkErAAAAAECRoBUAAAAAoEjQCgAAAABQJGgFAAAAACgStAIAAAAAFAlaAQAAAACKBK0AAAAAAEWCVgAAAACAIkErAAAAAECRoBUAAAAAoEjQCgAAAABQJGgFAAAAACgStAIAAAAAFAlaAQAAAACKBK0AAAAAAEWCVgAAAACAIkErAAAAAECRoBUAAAAAoEjQCgAAAABQJGgFAAAAACgStAIAAAAAFAlaAQAAAACKBK0AAAAAAEWCVgAAAACAIkErAAAAAECRoBUAAAAAoEjQCgAAAABQJGgFAAAAACgStAIAAAAAFAlaAQAAAACKBK0AAAAAAEWCVgAAAACAIkErAAAAAECRoBUAAAAAoEjQCgAAAABQJGgFAAAAACgStAIAAAAAFAlaAQAAAACKBK0AAAAAAEWCVgAAAACAIkErAAAAAECRoBUAAAAAoEjQCgAAAABQJGgFAAAAACgStAIAAAAAFAlaAQAAAACKBK0AAAAAAEWCVgAAAACAIkErAAAAAECRoBUAAAAAoEjQCgAAAABQJGgFAAAAACgStAIAAAAAFAlaAQAAAACKBK0AAAAAAEWCVgAAAACAIkErAAAAAECRoBUAAAAAoEjQCgAAAABQJGgFAAAAACgStAIAAAAAFAlaAQAAAACKBK0AAAAAAEWCVgAAAACAIkErAAAAAECRoBUAAAAAoEjQCgAAAABQJGgFAAAAACgStAIAAAAAFAlaAQAAAACKBK0AAAAAAEWCVgAAAACAIkErAAAAAECRoBUAAAAAoEjQCgAAAABQJGgFAAAAACgStAIAAAAAFAlaAQAAAACKBK0AAAAAAEWCVgAAAACAIkErAAAAAECRoBUAAAAAoEjQCgAAAABQJGgFAAAAACgStAIAAAAAFAlaAQAAAACKBK0AAAAAAEWCVgAAAACAIkErAAAAAECRoBUAAAAAoEjQCgAAAABQJGgFAAAAACgStAIAAAAAFAlaAQAAAACKBK0AAAAAAEWCVgAAAACAIkErAAAAAECRoBUAAAAAoEjQCgAAAABQJGgFAAAAACgStAIAAAAAFAlaAQAAAACKBK0AAAAAAEWCVgAAAACAIkErAAAAAECRoBUAAAAAoEjQCgAAAABQJGgFAAAAACgStAIAAAAAFAlaAQAAAACKBK0AAAAAAEWCVgAAAACAIkErAAAAAECRoBUAAAAAoEjQCgAAAABQJGgFAAAAACgStAIAAAAAFAlaAQAAAACKBK0AAAAAAEWCVgAAAACAIkErAAAAAECRoBUAAAAAoEjQCgAAAABQJGgFAAAAACgStAIAAAAAFAlaAQAAAACKBK0AAAAAAEWCVgAAAACAIkErAAAAAECRoBUAAAAAoEjQCgAAAABQJGgFAAAAACgStAIAAAAAFAlaAQAAAACKBK0AAAAAAEWCVgAAAACAIkErAAAAAECRoBUAAAAAoEjQCgAAAABQJGgFAAAAACgStAIAAAAAFAlaAQAAAACKBK0AAAAAAEWCVgAAAACAIkErAAAAAECRoBUAAAAAoEjQCgAAAABQJGgFAAAAACgStAIAAAAAFAlaAQAAAACKBK0AAAAAAEWCVgAAAACAIkErAAAAAECRoBUAAAAAoEjQCgAAAABQJGgFAAAAACgStAIAAAAAFAlaAQAAAACKBK0AAAAAAEWCVgAAAACAIkErAAAAAECRoBUAAAAAoEjQCgAAAABQJGgFAAAAACgStAIAAAAAFAlaAQAAAACKBK0AAAAAAEWCVgAAAACAIkErAAAAAECRoBUAAAAAoEjQCgAAAABQJGgFAAAAACgStAIAAAAAFAlaAQAAAACKBK0AAAAAAEWCVgAAAACAIkErAAAAAECRoBUAAAAAoEjQCgAAAABQJGgFAAAAACgStAIAAAAAFAlaAQAAAACKBK0AAAAAAEWCVgAAAACAIkErAAAAAECRoBUAAAAAoEjQCgAAAABQJGgFAAAAACgStAIAAAAAFAlaAQAAAACKBK0AAAAAAEWCVgAAAACAIkErAAAAAECRoBUAAAAAoEjQCgAAAABQJGgFAAAAACgStAIAAAAAFAlaAQAAAACKBK0AAAAAAEWCVgAAAACAIkErAAAAAECRoBUAAAAAoEjQCgAAAABQJGgFAAAAACgStAIAAAAAFAlaAQAAAACKBK0AAAAAAEWCVgAAAACAIkErAAAAAECRoBUAAAAAoEjQCgAAAABQJGgFAAAAACgStAIAAAAAFAlaAQAAAACKBK0AAAAAAEWCVgAAAACAIkErAAAAAECRoBUAAAAAoEjQCgAAAABQJGgFAAAAACgStAIAAAAAFAlaAQAAAACKBK0AAAAAAEWCVgAAAACAIkErAAAAAECRoBUAAAAAoEjQCgAAAABQJGgFAAAAACgStAIAAAAAFAlaAQAAAACKBK0AAAAAAEWCVgAAAACAIkErAAAAAECRoBUAAAAAoEjQCgAAAABQJGgFAAAAACgStAIAAAAAFAlaAQAAAACKBK0AAAAAAEWCVgAAAACAIkErAAAAAECRoBUAAAAAoEjQCgAAAABQJGgFAAAAACgStAIAAAAAFAlaAQAAAACKBK0AAAAAAEWCVgAAAACAIkErAAAAAECRoBUAAAAAoEjQCgAAAABQJGgFAAAAACgStAIAAAAAFAlaAQAAAACKBK0AAAAAAEWCVgAAAACAIkErAAAAAECRoBUAAAAAoEjQCgAAAABQJGgFAAAAACgStAIAAAAAFAlaAQAAAACKBK0AAAAAAEWCVgAAAACAIkErAAAAAECRoBUAAAAAoOj/AyEgjg/lTW0NAAAAAElFTkSuQmCC;" vertex="1" parent="1">
          <mxGeometry x="700" width="127" height="127" as="geometry" />
        </mxCell>
        <mxCell id="NUtuvDR6UvhZ3oM0A1vR-10" value="" style="endArrow=none;html=1;rounded=0;strokeWidth=0.2;strokeColor=#484747;" edge="1" parent="1">
          <mxGeometry width="50" height="50" relative="1" as="geometry">
            <mxPoint x="144.25" y="290" as="sourcePoint" />
            <mxPoint x="184.25" y="250" as="targetPoint" />
          </mxGeometry>
        </mxCell>
        <mxCell id="NUtuvDR6UvhZ3oM0A1vR-11" value="" style="endArrow=none;html=1;rounded=0;strokeWidth=0.2;strokeColor=#484747;" edge="1" parent="1">
          <mxGeometry width="50" height="50" relative="1" as="geometry">
            <mxPoint x="224.25" y="290" as="sourcePoint" />
            <mxPoint x="184.25" y="250" as="targetPoint" />
          </mxGeometry>
        </mxCell>
        <mxCell id="NUtuvDR6UvhZ3oM0A1vR-12" value="" style="endArrow=none;html=1;rounded=0;strokeWidth=0.2;strokeColor=#484747;" edge="1" parent="1">
          <mxGeometry width="50" height="50" relative="1" as="geometry">
            <mxPoint x="144.25" y="290" as="sourcePoint" />
            <mxPoint x="184.25" y="230" as="targetPoint" />
          </mxGeometry>
        </mxCell>
        <mxCell id="NUtuvDR6UvhZ3oM0A1vR-13" value="" style="endArrow=none;html=1;rounded=0;strokeWidth=0.2;strokeColor=#484747;" edge="1" parent="1">
          <mxGeometry width="50" height="50" relative="1" as="geometry">
            <mxPoint x="224.25" y="290" as="sourcePoint" />
            <mxPoint x="184.25" y="230" as="targetPoint" />
          </mxGeometry>
        </mxCell>
        <mxCell id="NUtuvDR6UvhZ3oM0A1vR-15" value="" style="endArrow=none;html=1;rounded=0;strokeWidth=0.2;strokeColor=#484747;" edge="1" parent="1">
          <mxGeometry width="50" height="50" relative="1" as="geometry">
            <mxPoint x="224.25" y="290" as="sourcePoint" />
            <mxPoint x="184.25" y="190" as="targetPoint" />
          </mxGeometry>
        </mxCell>
        <mxCell id="NUtuvDR6UvhZ3oM0A1vR-16" value="" style="endArrow=none;html=1;rounded=0;strokeWidth=0.2;strokeColor=#484747;" edge="1" parent="1">
          <mxGeometry width="50" height="50" relative="1" as="geometry">
            <mxPoint x="144.25" y="290" as="sourcePoint" />
            <mxPoint x="184.25" y="190" as="targetPoint" />
          </mxGeometry>
        </mxCell>
        <mxCell id="NUtuvDR6UvhZ3oM0A1vR-19" value="" style="shape=image;verticalLabelPosition=bottom;labelBackgroundColor=default;verticalAlign=top;aspect=fixed;imageAspect=0;image=data:image/png,iVBORw0KGgoAAAANSUhEUgAAAfQAAAH0CAYAAADL1t+KAAAACXBIWXMAAAsTAAALEwEAmpwYAAAAAXNSR0IArs4c6QAAAARnQU1BAACxjwv8YQUAAKKPSURBVHgB7Z0HgB1Vvf9/c3fv9pbNZtP7pm6yyWbTGwm9CGIBqRqEFwEBqYIgGnvj//Spz/b0ieX5VHx2RRAhlAQS0oBAID3ZJLsp23u78z9nZs7MOWfm1t0ASb4fDXvvzJwyc2fO9/f7nTJEAAAAAAAAAAAAAAAAAAAAAAAAAAAAAAAAAAAAAAAAAAAAAAAAAAAAAAAAAAAAAAAAAAAAAAAAAAAAAAAAAAAAAAAAAAAAAAAAAAAAAAAAAAAAAAAAAAAAAAAAAAAAAAAAAAAAAAAAAAAAAAAAAAAAAAAAAAAAAAAAAAAAAAAAAAAAAAAAAAAAAAAAAAAAAAAAAAAAAAAAAAAAAAAAAAAAAAAAAAAAAAAAAAAAAAAAAAAAAAAAAAAAAAAAAAAAAAAAAAAAAAAAAAAAAAAAAAAAAAAAAAAAAAAAAAAAAAAAAAAAAAAAAAAAAAAAAAAAAAAAAAAAAAAAAAAAAAAAAAAAAAAAAAAAAAAAAAAAAAAAAAAAAAAAAAAAAAAAAAAAAAAAAAAAAAAAAAAAAAAAAAAAAAAAAAAAAAAAAAAAAAAAAAAAAAAAAAAAAAAAAAAAAAAAAAAAAAAAAAAAAAAAAAAAAAAAAAAAAAAAAAAAAAAAAAAAAAAAAAAAAAAAAAAAAAAAAAAAAAAAAAAAAAAAAAAAAAAAAAAAAAAAAAAAAAAAAAAAAAAAAAAAAAAAAAAAAAAAAAAAAAAAAAAAAAAAAAAAAAAAAAAAAAAAAAAAAAAAAAAAAAAAAAAAAAAAAAAAAAAAAAAAAAAAAAAAAAAAAAAAAAAAAAAAAAAAAAAAAAAAAAAAAAAAAAAAAAAAAAAAAAAAAAAAAAAAAAAAAAAAAAAAAAAAAAAAAAAAAAAAAAAAAAAAAAAAAAAAAAAAAAAAAAAAAAAAAAAAAAAAAAAAAAAAAAAAAAAAAAAAAAAAAAAAAAAAAAAAAAAAAAAAAAAAAAAAAAAAAAAAAAAAAAAAAAAAAAAAAAAAAAAAAAAAAAAAAAAAAAAAAAAAAAAAAAAAAAAAAAAAAAAAAAAAAAAAAAAAAAAAAAAAAAAAAAAAAAAAAAAAAAAAAAAAAAAAAAAAAAAAAAAAAAAAAAAAAAAAAAAAAAAAAAAAAAAAAAAAAAAAAAAAAAAAAAAAAAAAAAAAAAAAAAAAAAAAAAAAAAAAAAAAAAAAAAAAAAAAAAAAAAAAAAAAAAAAAAAAAAAAAAAAwJmLQQAA4Me49tpr87Ozswv6+vq6amtrmx9//PFutt0kAMC7Egg6AMBlzZo1oR7DuGRWxfxVxSWlC7u6OktaW5p72ltbGltammpbm5oPt3W27W9raanu7e6u7upqr45EIoc7OzsbDh8+3L527dpeAgC8I0DQAQAc47bb7qqaPXf+msr5Sy8sHlySZm9WHXLTNKmnp4e6Ojuoo72NWpqbqLWlqZeJfntra8vR1tbmmo6W1sOtbc372tjf7r7uA90dHYd7e3uP7tixo2nz5s0dBC8fgJMCBB2AM5ybbrqlYunZ5z0weWr5+4aNGJVlGCFpb3LaywXfjESou7ubOjvamdg3E/PsTebRdzLBb+nu6jzK9h3p6mw/UN9Qd7C9uYGJvVnf19fd0NTRUbtnx46jGzZsaGVZRQgAkBQQdADOUK677sayRcuXrpldteiqEaPGSh653Cyk4EybiaVioXpiIX1qa23hok/tTPybGhu6mZd/nHn/NU0NdQdamhoPtXe2HzT7+vYZhlFz5EjD4UOHdtUyT7+HAAAKEHQAzjBWrFiRd+6F77l/8fJz7x03YTLzyKM1A0mKuSTkhrepH5jU19tLHczTb25uJBbTt7z95oaGjta2pqPtbW0Hm5ngNzfUH+ju7T4Q6aXqzs7W6iNHjtT861//amQZ9BEAZxAQdADOEK677rrhK86+6Npho0Z/etrMqsJQKKQdIbxz2UtPUJK1JP0V8kThXn5Pdxfz8lut/vy2thbep9/HPP961m9/pLO941BrU2N1a3vzMWYAnOjq6Kxr7+6o6W5vr25oaKirra1tZd5+LxH69cGpDwQdgNOcVatWFU2bMfvGijkLPjGhbOrojMysJFKbiR1i+Le53rrB+9YpCXTDwp+Y5yfnKwcZ9LJ4v35fH/P02/lAvlYm/jy0Xx9pb2ttZ3389S0tzUfYtiNtba3725qbq3t7u6t7enoOssgF0/vapgULFrSuWbMGffrgXQ8EHYDTlKqqqvAll1x22ex5Sz43dcas8uycvDgpgpRZbE8QTcj1bQll4BIs5omUnRRM8CMm9/S7WXi/wxL81uZGk4l9d0tLS2tbW9Px5samIx1trdVt7a372zvaDjEjobq1qekQiwIcO378eMvatWu7CF4+eIeBoANwmsHnknd29nxo2TkX3TFyzPgFRUXF1nMepDaxJdNM6KjAlLLnnLTQJq+LsleefEQgZs48R5ZfhHn5fdTZ2UGd7e32QL7W5khPV2cnC+83sXB+TVtLS01He0vNiRPH6js62up6unoPRiI9R443Nx85vHfvERbabycATiIQdABOH4yP33HH2QsXr/xS5dxFC/LyC60n3BeeppMosI6Tn5rARondx0phepGAgRPxoLqYcY8Wh0Qc4W9uarC8fT6Cv6mhsautpel4a1vLYeb5H2Qh/2pmDOxjhx7q6mo/WFPTfLix8XA9Ru+D/gBBB+A04MYbbyybv3TFl+ctWP7B4pJS77k2vT+pe67JD5LTjYjUyoveh55IuQPjqSfXBWAmENQwnfA+68Nnot9oiX4zC/E3NTU0sU792o729kN1dccPdnZ0VHd1dx5gJ1Ld2t5+5Pjhw0dYaL+ZMEcfRAGCDsCpi3HXXffPqJy/8KGyydM/OGL0mLRYB/dfXImSElizP4aELqT6Nu3okyLk0Qfk8V3GSSzfmqPPvHy+MA9fka+bj+Rva+Er8tXzOfodra3HGrkB0NZylEUADnZ1d1f3sX98ZH8Tswyc0fvw9s8wIOgAnIKsXr164ux5i++dWTH32lHjJuT75pLrTvWAe6sJHN2v8pKPCogyByYEH3ABE4gYDJxBEatOdub2lL1ua54+9/Zbmhv51L3elpbm1vaWlgbm/R9ua2+p7mhtPtjW1l5tmn3sb9uhvr6+mr179zZfeumlnRi9f3oBQQfgFIKF1ounTKtYPXfRsjvGjJs0PD2cnnBaS2woWVlWckj6UMXPTnn6mvicRMoBEdT4Ah4t1ckb7x69C0AxZpwNfCBfV1cXdVjz8605+mZzS1N3W3NTS2tzU21zS/ORjvaO6paWxv29fT3VHZ2dh3siker0vr465u03P/bYYz10Es8GDCwQdABOAa6//vrcmZXzPjl34fKbR48dVxoOZyaVPkgbU5Cp5FKkPPJcrqy8LbWyUye1epip2QFJkkQ9YhzOvfy+3h7q7Oy0wvqdne0sxN/e197Knfympjam9K1N9SyK33SsseHE4c7uzv19PT08tH+Qbav+61//eoQIgv9uAYIOwLuYK664ImPajIobquYtfXj6rLkjw+EwJdR+So257JmnEMTWvic/OK5/pDYwbuDQPWJ9W0BAfsDC/tHq4x99L49wcPcEH5paqdZb9rrF8ru0b/ebtHnD82bt0dov/f53v3uYwLsCCDoA71Juv/3285edffFXKuYsmJOVnSPtCRLZGK11wOC0JCUy6RRuygETdPE5fnmxVo1Lvfz49dA94oEX9QSNKAqoaeLDAOKyb/db9NQ//kQNdcepvr5u76Hqg5UbNmxoJvCOk3gHHADgpLN69erwsJFj3jNrzsIvTC2vKM/NK5D2Rus/jdM6ixHZkpjHODQgt9RHuQ8ciSnRwI50t3KkhI2KgEPMFC5b/AJkokQLpJH4pp40hXpwD716/x567pl/UM3hg46RaFJGRuaE/PyiC9khvyXwjgNBB+BdAF/draurb0n57KoHy2fNPXdQcUnAs9n/gJq8cluQxkRv68XRyfv1JJWZHKkp4MCPMk/suhvSB16+YlikXB/ZmEhku1MFQ/XOle9SPROpV2NDPa179p/05vatzvvuTfsv+19mZiZlZWd9hB32GPXjLMHAgJA7AO8wt9565+zFy8/6xKTpM68qHToyK8Ra3+gtYzQvPeAwI3oWQSF4ooSC2pQsqS0DK7u28jZ/TQc+zB6tPolFKk7u1DVfaRStDhy3Hil46O3tbbT5pefp1W0braVuDfa/vkif9dcUffdM3Juamtob6k9UPP3003sIvKPAQwfgHWLVqlWTlpx17ldnVS1+39BhIwzXs4uaIqhljiIsRpwsTFVwTrb2JC9wQQoUpUPACP6ul/d2iazwhl2v+B3wW+Vronvr9kbtuwQf+f7qlg30/DNPWEvY8pXtuHBHnAXqTCmRETJoxMjROcvOec/ZEPR3Hgg6AG8zN9xww5AZFVUPzF247JaxE6dky28li91jm4iYx4mjDmhMLsGY7YCWFb9Mn3fab8wEt3k1dPuxiU7CZdINu+AClP50ooS89MOHDtITf3mM6k4ctb5H+iKKgNvZ2B56OD1McxYspUnTKmr27ntrI4F3HAg6AG8TH/7wzSMXn7XoQ+MnTnt40tTyorQ0aaVW0y/kqvYGNeLir6kdF4MAsYutN9HNi0RVyuiXEaGLeIyaSqH3oDJTF3f9/KNfMb3YkxMV0EvxG3VccJO57EcOHaDNL6+jXW+8yjx00/LSxcA3Pe8w6zcvmzydZlbOPxrOyHj0z7/+8ee++c1vdhB4xxlQex0A4Ofaa68tqFqw6LYZFfPumDh5+tB0ay65REDoO3Gnzoy9K1bkOiWxSTKBmXQMIXZm8Y4w1ZD7wK7rLj7rxOhPJxpA7zyayRfbHJMPN7Q68ZfDbFy/lrZv20S9vT3We+F5eN0+xO+Zjxo7geYvXtGenZPzi/37dn/1hqvft5/AuwZ46ACcJFavXp0zauyk91dUVj0wtXxWeXZOrrdTdjwlAZJ3B6N7rDEadSP4u1hohk62mJ/UXILxLWk/IIXJP1RQ6D+OUTVgJPi7aynco6R7rbu7m17Z+hJtWv+cNeCNC7nwyq10huENfmP/HzR4CC1cupKGjhj9Ul1N7T0Xn73gRTq5PyVIAXjoAAwwpmkan/rUp65ads577hg7oWx+fkFRKH4i5U8CYfD4RyVdZlxvNprLn0BRZr9rm3TqkzcALsHYid690f8LkHR99D38Xe07tm+jLRvX07Haw9aodcUj137i3Nx8qpq/hEaMGbvVMNK//Kdf//gv3/nOd7oIvCuBoAMwcBh33XXfefOXnvX12VWLZuXk5iaXWmv0k5BLSkottHC7uxgLndwyoxkOA9K9ECuVlqx/Yfjkr5Cb6h0yMETZtTWHaO0//0bVB/a4U9D4fHJ5GpqAe+gzZ8+nyvmLG9pb2r7065/99T8ffXRNJ4F3NRB0AAaAW265pWLewuWfn7Nw2aWDioc4HnkCLXiAiCfvAycn5O7XlAQmuejAwM0RTz7hwI92F/VILNw98O9ol8tP/Hdobm6mdWufpNdf2eT2kUdMr7vAFnQnb/b/MePKaMnK87nU/3LHW2/dc8dHrzxO4JQAgg5AP7jzzvtmz1+y9M4Jk6ZfO3zk6PSk5ThIwcU88aQSJ+gxi6iqkYrnqnf8Jxdyd8tJKmW0esQvzxcJGFBRjV6mvk2ccP9D7/rNIm/3721lfePbNr1E2za/RO1tLcS9cd5Pbrij4A0nnWl55MOGj6aKqgW9w4aP/L/jdTVf/8CF52whcEqBQXEApMAd9903qXxKxUMzK+d9aMTosVmGwZ1yz+ux0VvugJY8QB8TmU5m74s3fSk4oZibrPuZyb+rnCghgT8pnqqMv2zfwirmQJYbfM4+MdeSmGbQjmTLjb5d+Nn8HehvvLaN1j37JLU0NbpCTu5RpvI3j/WTz1uygkaPnbitqbnxc8vnTf9Tf2oJ3jngoQOQBDfddNNQJuI3s/7FWyeUTS01QkHj3RIPywYm1XIxo+Yd/ai4xQhv0kmevNgmeY5mdDMnNRLsjDgpHnridXB/nQEN/wd56qaV7+Hq/dYKb4cP7rNE3J2GZhjSdbf/Gw5n0PQZc6i8cl59b1f3Vw/tOfSDG298bwuBUxYIOgAJcOmll+YsXrrivuXnXHhL6bBRQzMys6IIU3BjG5MgpQvoVzejJjZiZBSnaNl7TiqH5A2JoBC/LPRxUlN/w/0D35du5UqJdgG4DIxFI9XEpONHa+j5p/9B+/fsdEeuixeo6LdIiBmhZVPLae6i5d19PX1fqz1x/Lsffv8Fxwic8kDQAYhBVVVV+NL3fuAW1vh9prxizuC0UJqyP3q7nJrnLDe+iY08T1DoguwMLXkSEun8TVBgtbJPZj+276gBFM7+ln8yuhu6u7vo2X/9nV7bstEKtXOv3DSFH+4vrGTIMFpx7sVmTm7R4wcO7Lrlw1deepDAaQP60AEIgL/OtKOn59KquUu/ULVw2Uy+brXs5STvVSaIEfgxgQRxygmK0gdsSqymyfnyJ8dtSKy2qQ3+GzjkF6MM5BgC/sKU7a9sYV7549bgN54p98yJRGjdG73Ov2dmZdGCpWdT2ZQZbx0+WH3XRWdP/QcNaJwAvBuAhw6AxIoVK9KXr1x5SdW85V+YMr1iZk5entLPnBwJJpC1MSBpfA89RmL90ABhdwfIJX2OyYWdB85TT6zcgZsyF1R+0PgBtT76MrQDQaSvl3btfIOe+9fj1FhfZwm3/QIVrS7Ox6zsHOsFKlOmz9zd1NDw+Ud/8P9+89hjj3UTOC2BoANAtkfe3t591pz5C9dMq6haNqi4xHs2dM2MOcArKASegOBF0YjEIwHBtYlWTlA4P8lYQuqp5euX0kC85OIJVsoB9I69usQ/wtDLTv4iu9QcqaYXnnmCDu7bbQ94c8LrpjLYwi4gnUWUJk0pp9lzFzVTKO0/du577Zu3XnttA4HTGoTcwZmOcdf9908fM3HaAxVz5n9gSOmIbN+buoQAmsomq/30t81Bse0EWnAjoDwnafwcklAJkWdAkv5pXeKesluVpN2J5P0PUfbJWVwmtiHlbtVuiWTr0trSTJtfep62bdnA+sw7HTEPuPuckexDho7g09B6Bg8u/WvNoYOfu+r9F75K/f15wSkBBB2csdx8883j5sxf+uW5C5ddVVI6LFgtZM+ZSA1REyUw0j05t8wVICepoRWiBXWJEgm160iVlz1IeUB08n3pMY4yoiQzT77K6CHvgRH2aOedmLCbsbKQ6Onppo3rn6UNLzxtD3iT3oTmz90gFlWi5WdfxF+ksu7Qod33nDV/+gYCZxQQdHDGccUVVwxZuuKcNZVzl3xs3ITJaTEdP0P54xJb+DQLIAnZUoQ1IDJgxizHf0RCZRIp4ppcDsmF2sWfJAPmUlnJlR3LQ++fuMtlRz8jt8a6Z27EqrNJb77+CguvP04NDfXW4LZe1nceNOCNf8vIyKKqBUto8rRZh5qbm+5eNnfK7wge+RmJQQCcIdx5553Dx0+afu208tn3TymvKDGSjfmaifbipug5xzg8dnCXaCDa7+SXZ02tzMSm4yVSdvL96JzUhVz/XcU2mTi/UIw6cCGvOXKI1j/7JO3b/aaVl5hTLu5VeSoa7ycfN3EKLVp69rGeSN/Pt2/Y8qW77rqhkcAZCwQdnPasWrWqaPqsqpvmzlty/7iJk0vSw+Gk0ssDyYjUMHiCgXRKFDmcH5QyvhGRhFLp5/U2DVCzUg+I/5i8mJ88EjB/zOhCXnfiGD339N9p3663XBHnIXYbxzN3bg6+MMyEsqlUNX95V2ZWxi8PHnrr4es/8IEaAmc8EHRw2rJixYqs8y5+z3WzZi14YPK0GROzcsTrTPW4ZwKtvaRbrp9mxPM2U1ARU62WnENs2dQSRjs66DAiJRyeUkUTEfcoZfd/+lqMIyRjRXwf+Defyd9j18HUQi1tba20ddN62rbpRepoa7NE255PriJepFJcUkrzFp9lDh4y7Jn62mMPfvDys9FPDlwg6OC0Y/Xq1eEx48sun1FRdfvk6RXL8vILpL2y4CTZ/xtF/6PLWIxE8coirx/d+ixFBwYsFK5XPK6BkkgmCSZJLkVwBqmm7lfyIBGPF4Yn35S1PtYnvoP1k69/9p/U1NjAPPKIJeT6u8nF9+zsXKqct5gmTJr6Wk9H17df2fTG/95334fbCAAJCDo4rbjtzjvPXrHywkdmVi6ozHY9ck484UlS3ONvSqDMOGUEDJCLn0B8TqKopIyFaOWmYETEMCCSe5VrnCJNOgkLzGgnkmA9+HG7d+6gtU/+lRoaTljJ7AFvMl5+fKnh2XMX8/nk7c0tTff//pc//OGPfvSjHgIgAAg6OC245ZZbqhYsO/srs+csOm8wC0sK4nvPcRriIJ3UQuLBMhrNk0tO+JSQsZlIyD15oYmdbyL0w3AhSmEwnlxuEqn6fZ5xMo9D3fFj9MLaJ2nnjtfc0LppRjcwR4+dQEvPvjCSZoT++8ln/vLgVx588DgBEAMIOjhlsddbp4Wzq+beNmXqjA+WlI6wRrsZ+gA2kpvb1DwrIyCqmlgO/Q8PJ+d3J2EwCPSwflzvWM8oxW6FpCIQQRkkz8AOjguw8AJobGigjeueoe2vbqGe7i57PrlcEela8NHsw0aOoTnzl3QPKR325+aW5i9dsnL+NgIgATAPHZySMI98wqixUx6aWTX3mmHDx2SFQobXnvpEUBadJL1XChZzOSf3OBogDzDAYzXilpPYUcpuObWpDvSTD4l9TgkMxNOrKSUzpfKTI7WrPWC/kQ9/rh0d7bRt80u0ZcML1NbWRpGI/Ta0aMkKCgfR3MXLaczYidubGxvv/vbXHn76scce6yMAEgQeOjilWL36zuEzK8vvmDl7/upxEyYVp6U7NqmmrKK/0luAI4gkm3at31dsSiyhVLkEw8Pi8Ngjs3UhlxMniOYlJ++hOxWNJ+pSVQdmTrhcbpyjZSMp5TKj1UOtA39Zyt49b9Gz//wb1dcdtzxy+wUqppdEIiMzg6ZXVFFF5fza3t7e//f8k8/+aM2aO5oJgCSBoINTghtvvLG4fGbVJ+cvWXHjyDFjS/iiGhZaxDe+vPWjJY+iy/FD7imEpJ3DhdC6m+KKeoKespa/vPwrpRT+TsH31cpPKmGqQ/gGVMj9VB/YR8899XeqrTlkLdca2E/uGjMGlc+aSzNmVXUyz/2REy0d/37te5bhBSogZSDo4F0N7ydPC2d9fMGSsz87edqMwa5HrhNFN81AsZM/J9fC6x6sNutLLz7qlmTLlMsasH57zfpJLtQuH5GiwUL+spNIQf6rbyZVxsC92tSkpsZGWrf2CXr9ta3uFDRXyOWqOn+HjhhFy1ZeQNk5eb/ds3vHp2689oN7CYB+gj508G7FePDBh6+YWbXkS7PmLCjLzMqKfqQcCvd1IxtSU6/vTALNFhB5Jibm/ett1/OOnzLB/GWRIb+pEz8X+RoOUOQjYQztbwJXRYtADIS3zl+gsvXl9dbo9d6eHv/CMJqY8/nky86+iEaOHb/z2LHaey5aWf5XAmCAgIcO3lWsWrUqa9LU8svLK6o+xf5VZGVnJ5xWXzbV2hb9aEoJM3hTYgPVYmQSpSzduUsstV5ujKtgkm8VNfE5OZIPtwdNB+zfqnHRTRC9Dz1oezJlsb5uS8g3b3iBWpqbrH5yHmJ3F4bRfri8vEJrYZjxZVP31tUdu+9///u7f8KANzDQQNDBuwXj7rvvX7TorBVfmz6jcnFBUXFI2kUUa6CVOIQSFfXEw7Tu4XFi694h0URcSxCUf8C2oNHn8emH6ymda5KdEZRs5CFoOmD/DYnEQu+pDowzmXAf3L+HXnjmCTpy6KA1ap175RFTjtd4VUtLS6NJ02bS7KpF9RQyvne87uB/XHPZZScIgJMABB2849x774MV5bNmfWbG7HnvHTp8ZLphcC2P09pqHp4YXBV/oFpQ6Fv/m1jSWP3p0RMnJ3r6+cRfYEY+OoG8NUc+eVmOlnGSKfpXIKVqUCRDQ30dPfevv9Out16nSJ89BY175t5yrd6Pwwe8DR81lhYuWRnJyy98vK7x6APvv2DldgLgJII+dPCOcfvtt0+fM2/J5+cuWv6+ouKSkL9nOgaaKWpobXm0oW++xtc9iihuuXKmwnNOSMzlI5JUEal/WziB0UP7SRoNRpQqOn9TE/bUlNk3yiBhDzqx8oK6ExLtXuAh9Ref/ydtf2WzFWq3pqBJb1kxtToMHjKUFi8/lwaVlD65b9euuy85d9HrBMDbADx08LZz+eWXF5134aVfmTN/yY2jxkwIK6OVUvUNA7QsyBcPTpR6WdFfZqKFEFKc1qWH2jWHOn7iBI6MliTFq0OJpJS7EsT3/pO8dx7LcOAe+CtbXqJ1a/9J7e2t9itN9YVh3JJNCqeHad6SFTS1fPbB5saGhzY8+/dfrVmzJkIAvE1A0MHbxicefHDopFET/m1yecUDU6fPyjVCBqkLv8RqkBMQxJhCLquV/D1JrzYoqbYr+ODoR8Qti/znpG+LmjCJ6yYXkIjgBWeU/HVMrMsiSmLle4Ip4xza29tD+/fspOdZP/nxY7VWAj7gTS9Z/E0PZ9CkqTP4a00bu7t7/mvrun987r777sOb0MDbDgQdnHRWr76nZOasyR+rmLPgE+MmTh0SSkuztqtiK7YI+uGyqd2ZLsGD1pIUoTjJzIQSDJy3HmxApE70iEPclJQyAeeWVMIoJlzc1Ppvx/rDDx/cT+ufe4oOHthriTjfxj1zvUQOv4/HTZxMlXMXt+Xk5v34SE39169+79IjBMA7BPrQwUnjoosuylx57kXXVlTO/3TZlGnjs7JyrO26pNr034sN7BaXdumf1AySlDFtUFxiqaNULsHyKK6Yiz2plSHPEEg+F717QXxOLGn/pswlbyjJK+PxFM1NjfTSC0/T669tpp7uHmvQm6lbhOSdWVFxCS1ZcUFkyJBhz9XV1Xz2opXznyMA3mHgoYMB54orrkibMWvOVVULlt45YeKUufylE3qbG9uT7QcJh8FlEgxLa5qlTJGLGhHQM0jCm9SuV3KCl5qg95/UMhmYUe6c5Ayz9rY22rb5Rdq26SVqaWm2p6DxfvIoFcovKKTZ8xbTuAlTdrW3d3x2w9pX/rBmzQ2dBMC7AAg6GDBYY2g88MBnL56/ZPGXKuctnZWRkancYfHniKfgKetJnc96gFsc4i+nH2FwSiQErpepb0uunMQiAtHELTHDJTXjYWDGCaT46yedio9Uf/21LfTCM09SS3OjldruJw+2Ovm7AyrmzKc585c11NWfePjlZ//2fQx4A+82IOhgQPj4xz9evuSsC/5zVtX85YWDBqv3VZS21t+AD0A/c1K7E8xf1seA7UIA4w/u0s8rwciAONT5nnjq1A2jt9VbH5AyE79n+IIwTz3+R+sFKvxwq69cyYOUH3P8xKm0+Kzz+9LS03/x19/+8Y6vf/3+FgLgXQj60EHKcI/8M5/5zOLy2Qs/NqFsyrUjRo/1VnfTnTatrQ1ufvvh5QWUETsXM7EM9M0J6EYSfnfCRwb15UavSj/VWC/rZI50Jwp0K5I35wyKlQuv/1Em4Fs2rqcdr2+l3p5eaYU36Xinc50vDDNy9HiaWbkgMmrM2L/s3bf/i1e/d+UmAuBdDDx0kArGJz/5yanTZsz5ZEXVwitLh43IMXxreFJU1YnuYSYhsjp6pnHFPUXRkw2VKOcWXWSTlKmAfOPnlPiRMZOKTUldpui/bNQUJqX4HvZY5au0NDfTlg0v0JaX11FPT48l4kHzyUWtCwsH0cJl59CoMRO3Hj1e86lt6578J8Lr4FQAgg6S4uabby5lYfU7KuYs/Pio0eOLor7OVBBD2Mn9mrwQxC0zoHjylZJCSN+InXF8QUpS0APC/IlJdv+u49sV/pbLk88psfxjfbdD6du3baKXXniGmpsafEIuVnsTNeVv9JtVuYCmz6o62t3V8+W//PaJ//rmN+/uIABOESDoICGuuOKK4pXnXvjAzMr5V40YPW50ZmZW/ERBKmrEbrztw1LwZol8xkPsPu0EXPoky5P71JNKkGhZUb76xyGIrQEJk6B/bz5Lvqz+mXPeNeVC/ebrr1jh9ZrDB6nPeYEKn0/O/8ejSfy7KC8UCtH0mVVUPmtOc05u3jf37Nr7sw9fecE+AuAUA4IOYsJfZzp1esXH5i5c/uCU6RWlfHW3lAhQIN3TDD44hXICBpDJeKHdARJ1JfNoQhhdguPm73c+E6ht4uXJc8B9mSc0qp6iJ04i9N5/TDp2tIae/sefqfrgXnepVlM7QVvM7bqNHDOBVpx3CYXDmX/a/uqmez626qo9BMApCgQdRMNYs+YL75uzcNn/K59VNS4hjzwIWRROppBr5bmftV3qpxR9woBzknfFTDQA0YDExDzJ0fRBufTr50gxsZlayra2Fnrp+X/Rq1s2Ug9/gUpEfoEKeT+WaUeACgqKaNHy82j02AnbjtYcvvu9Fy59hgA4xYGgAwXukc+YVXnFlGmz75w0tXxOXkEh9Uv4iHw6pmuuF2aXD06ynDgD8KycFc88oHM6VUzlTwID1vpnuCS39nny19K9OgalMCguIJyQSErZiU5C1NvbWmnry+utfx0d7VEHvIlCcvPyqWrBcpo4Zfobba3tn9ux5Zk/3XHHHV0EwGkABB1YrFixIn3FOeesmDFr3kMzKuauyGMezIAIkKxy8jZJ3NWNQYkTLCdBLTH1SqTS3yydV2ILvQR5zKkZL0nIJCVNlIhKchnIxD9H+folNtLdpN7ePnrrjVdo/bNPUUNDnbfCWxT4wjAzZs2lmXMWNKeF076zc+9rj9zwvvc1EgCnERB0QHfeeee0+YtXfG3azMoLhpSOyBBT0MxAASIaiHCqP6eB8V6V7Ci6lCoH9bOc5AW2H33oREmMCI9mTSVQrJmqr516Crns6PtMa6Db+uf+Sfv37GYi3md55eqYCA/DCNHIUWNpwdKze/OLBv2u8cSJz15y7oKdBMBpCBaWOYO5/fbbZ81bdNaXZ1UtvHjwkGEkq4cYaa6Gw1P3+ARG8GbyXqPaD+81WtEJjUBPvQBDfKaE5ZISPj/nIgUtm5tYYpNSOWu9dgNoavlINKxfX3ec1q19gnnmr1neuC3kQYnt2hYPLqWVF1xGRUXFTx/av/veC1fM3UoAnMZA0M9AVq9ePbxq7uIHqxYt//jwkWMMr7UW8m2Q2rOdwhSrOLoc3eeP3kDHLVMcqn30h8RFyQMwNkDbFDtR6uXJo9CNhLLSTabEyxLJ5JB78lGIxJHPTddnvquzq5NefO4p2sL6yfnCMBwvvO6/0bKysmnxWefRpKkzjx4/dvyWhbPG/ZFo/MmyRwB415DCEw9OVe65556SydNn3zZl2ox7Jk6ZnhcKpfnaX79WpBAmDiJun3YCByaaf0CsWO03D/qcQnlaLD/xtdyDMohRjpapuympUe8poJWXXMLk7xflRTcseWdHB+3Z9Sate/ZJ5p2fsKI4fZaQB+fLZ2JMnFJOi5aed6Krq+0Hz/z9t19as2YN3oQGzhgg6GcAt95667DpFXM/PrOy6uZxEyaX8AFC0fRM7jf3muR+BF9jtO1+R15WL/moJDGD/VP/KetqmZzABy1XGn9QV5JiF3RJnO1m3ISaxREthX6xtDJTm76W3PWUjaGIGaG9u9+iZ//5N6pjYXYrvG4JebAxxvvJJ0+voPmLV7QyI/WXTTX1n7vkkvm1BMAZBgT9NIYJed64CVOumjN/0WcnTi4flZGZae/Q2nq1Pbe/BQteiviV27fb/60f4XBNR+JL28CcW+JSncQ5RrFM4stlNJVOsCzTnzK5cxMp5IzjmCBM1Y8ePUIvPvsU7dm5g3r5W9B8/eTqOZUOHUmLV5xHg0tKn6yrPfbQJecv2EwJnSwApx8Q9NMQFmYMpWdmXz1n3tJ7Jk6eNjsvv0CMdPOIqgZ6v3lyXquUjV9PHO81SFyDowH9LE/bZQYmSN2AUF4sQn67hSiW2PYDrcrxBV1OEJCBniRgE8WNPESrQwJHscOaGurola0b6dXNG6itrc0qT5+GJs9VLygspqoFS2l82dTXOrvav/a9bzzGWNNNAJzBYFDc6YXxwAMPvb9i7pIvzpqzYGpWdo62Vzs6UOkM7XM0MYhXk4DvprdZ5OwP5qcosjGcUb1Mf4IY4YMgnEMN53OUU42dWPmcpCEhUpmx9urnJ/bpx2qHRdlkJFxF3bKKkrFDX18vbVz/HPu3ljpYn7nrkZv++husEunhDJq/aAWVz57LutVrH1w0a/yPqN8WEgCnB/DQTxPu+uQn586bu+TrzGtZaa/ulgA+3VTFu18ec5SyrOY+wFMPPLif5QXl4vXVx7AAUihLyjyOx5yCsRJQXcUQ8nnPA3R+Zn+ujB6v0OIjrMK73nqDnnvqb9aAN3uFN+flKeSdjzwCnnUb0ZKzzusxQmk/2LJtyxfu+OiVx+kMYtWqNVltba9HWCgCkQgQCAT91IZ55A/MrVqw7L4Jk6d/YNiI0aGoRwY5huJzoFclhE8pjlJq4n3lqR9j+/5JCGD0OL7vkNj5pya2ib06NcVrKJJH/xonUYI94KYXYheCHvv3Sa5cHkY/XL2fNqxbS/v2vMU89IjWT24ofeb8TWgjRo2leYvP6h06dNRfDhzY+fUPXLzyJTrD+PkTT+ROGj55Y2Y4Y2xPT89+wzDeNM3InjQjdLixvelg8/G63QeO7z/UdOBAM97dfuYCQT9Fuf/++8unz6x6eGblvPeVDh/lru4WSLBex2yhZe/cXvQldV8tlqb4BSMxmU+oPPKH9P3lRKlYimXFjjoEDCrojw/si3IE/dAplKMlEVEVIfApZUJkeeLr1j7JPPPt1NPd4y4MY0axG0tKh9L8xStp5Jjxm47VHLnr0vMWrqP+XLBTmEf/8PeJM6bMejMtPS3d6uZx3noYYj8Mn37K3wjLjKVW1oVxkBlJe9k1faOro+PNhsb6nQ2N1ft+9eO19Y8//h3u2Z+R1+9MAYJ+inHXXXeNnFJecfvsOYtuHzl2Yk4okdeZ6tHPaPtIFwebfgu6mp3yVR0MpwvP2+nNJlmOVN3EPWUjyt/UypU3BR8U9Dm5svpndtipOzrarMFumzY8T62trc40NOn+MqRAESMrO5sqKhfQzDnzq9tb279ed+jYo1deubKVzmB+/X//mDOpfOYmgyk5N97dx9j5zKfuiXe9c3hkg//j3yORvk4zYh5lYr/f7Iu82d3TtaOtpe2ttrb2nZt2vnyMjh9vh1d/egBBP0W47LLL8t97+ZWfnVYx52oWghwRFlPQUiEBzezX28/8mcUpK7CXlfpVnu4MU7Cx0i9xlbPSIvaJzUWXM0igKJPU17UmVE4/0C5Tsm9e6+3tpe3bNtHLLz5HjQ113jQ0e7ebr/jMBWjW3EU0bWZlV1pa+BtHDu///tXvPf8IAfrdP54/d/y4if8MKUsGGpaxzTfZQm7Iu7wPzu3GjwkZtshzR4DZVOwn6a03I32HIoaxKys9fKizu6O2o6X9jSOH9+5bv/aJg4888kgbgVMGCPq7nIsuuijzrJXn3FW1cPmDU8tn5/NGz2ZgvVfP4tdDuf3w8AIK0F8sospprLKS7NeOsckfpk6xHJGDGWg/xEqRWFmaYZL8K0blcuTvCaD/ZkkJukl7d++kF555nGqPHLZC67yvXIcLCxd4nvfosWW07JyLzMyMzP99/oW1991/+40Qcoknnt32oZKhpb/mP4LheN4c2zs3XOG2rqnjqYvImvDoxc/HRd1NLD2EPIxve/ZWCJ/PQGjt6+ndz365t3q6u3f09nRt72xp3/f0Sy/uXnP3TQ3Ub4sRDDQQ9HcpfC65YaRfMXfxWf9vxux5I8PpYTIH8vkxpb5R6btAFXQK3BMt35j99Vp5wVIzQOdpRt884OWasb4GhcD7X5Z7SZP21FMwJCixGjc11lv95K+/tpUJQp89ct1XOa+AnLx8WnHuJayffMKrNdXVn7z8osVPUr8uzunJP57d/PGSIUO/a3nlhi28AnsQoyPwjqfuDmx0/xjed9cY8O5JK2RveiF7cZw968Auzxb8NHZcpLe7q+sI27yzp6v7za6uzu2GGdn9ysYX33ryyT/VPPbYY30E3hEg6O8yrrjiiozFy1ZcU14x546xEyZX5uUXkt6HnXKfdhQ3VW2/vW/RR7n3LzxtBuQmb0+pjGjerFZm9ET9iD4Q+a4nxSwv6AokWb4ZnGNi5SZwqLYttklgUnNTE21c/wy9ykLsXZ328unqcq0qBYVFVDlvKU2eNnN3ff2Jr/7hf37w8x/96Ec9BAJ56oVXP1NYXPw5O2wui7fdf+6Jt/3LcC9ePASycMvC79597jxSxxjQH0zy2hxDshIMO45vhe8N2+s3Wf98Iztsf0Y443B3d9fhrs6OnS1tHdsbDx/au7Opuube669vNwwjyZsdJAoE/V2C7ZEbF1RULfrs9BlV8/MKi1wjWzxI8t9+4wqC9JBKu/xim6KA6/pFFEP4Bt6TDdan4DNMNm+RhU+e43rMIgM5VRJlEinnNmBiLqeSwuyxzoe/QGX7K5to84bnqaGh3vLyPCH3zlF46RkZGTStYg7Nrlp0wjTSvvX6mxu+d+u11zYQiMnTG17/dkF+4e36IDjhqRuBHrizx06g5CfakZAwBnQBN8Rv5vTRi/xNqc3QBF8q1N0vognsb19vT29TxIzsM/v6dvMQfnt3x46G2rpdx480HfzpT19oWrt2TS+BfgFBf+cxHnjg4dmz58z7zIw58y4rHlwaChIhQUqiHi8MHqWcxMUuhmBI2QS909tUDtKVXz0qIYL0S8taNFT+hEQpCXzApYrvpcc+KmoyzZAwEiorSWNFSx4k5izsSgf27abnn/4H1RyptvrIg4RcPt9RY8bT4rPO784vKPpLzZ7qB9///mU7CSTEMxve/GVuXu611qC2kCfYtmcseeKSztohc3tqm/eLqMJLzn795nJHzWuGgtx9YijptPy9DerxzqFef33I7O3tbWP3zpG+3t69kb7e13t7ut863tCws6Xx0J7XNm48wZydLkr5Jj6zgKC/g9x5553TFi0795vTK+YsHVRckmu9zpT8XrP3mAUJXoqec8zd0oNNAxgRkIXIIN8AuZTFTi8nuNgo0tYP0QuwQ4Le5x1cZgrFmRS4djyRX0KDRbV/94r4eHD/bnrx+X9R9f691NPTa90fYj65N9DNG/BWOnwULTnrfBZmH/RsW1v73V/9zCdeXbt2LbyxJFi7YcfjuXl5F4o+dFvMpfC5EFdJ0H1euXuc810+WLqZgta0CNwmee2yZ+5+TUhdDLeabgjfOpUQRfr6WN+NWce6D46xPGu6O9v39fT07Oju7Njx6itv7HvyL784jFXzVCDo7wA333zzyDnzF3+ehR1XjRozIRSvrVWb4wHw0GM4o96rWQzts3ZgomXGV1Rtk1+aksb0F+tslnJOoGJJlCd/TP4VqgmWH+D9x17wRT/7FM5TyqK5qZEJ+dP02taN1N3T44TXZY+NlJH4/F0Ci5efRxOnTt9fd+zYfRevnPd/1K8Lfeby7MtvbszJyZ1na57dPy5Gt4fkUe4h2RVwfm/XCNDud2lkPCUQPleTeiPofe2JdJ+5hoB4MNS7V7p/TfVYNz81LzG/nm9k4t7ARH8PS/tmd3f3G6z7Z0ddQ93ev/3mr/u+9701Z+S6BRD0t5GPfvSj+RWz535i7sJlnxk/aVpYfhiEwOgNtCc+KQqrONwI2EZKIdrufpYZpR7BtkQ0+e2/Vxmk2WbUg1MoJ/D3SjJxgocHXbvETZIEDQbD/52PVt/68ou0/rl/Wm9C46F1eYU32XkTXvrsuYtozoKlnR2d7f/vNz/59ucw4C11rrjiirQ7PvWVHVmZmZNEGF1cckvcJM9bD5HLYXLVOyf3h9P7w5Vtpgi/c7QQPIlxPU6OAUaBItQC5wQ840+9i4PqE4zhGjaGJfT24Dzu2ff0dB1g29/q7Orc0dPW8XpHT/feP/zq7zu++c27G1nC03YRHQj628DHP/7xwbPnLLx7+qw5t4weWzYoPey85C6KfumCM2Bhb60cTVWVQwakbF3lpPOLUnTA1thHRk2ecDQgcUkMTBqlPD0nf1SAKBWDRVlr3SkovpDHsuaiJ+vu7qI3XttKG9Y9Qw31dZY3HjEjUaMPaWlpNHlaBVUtXNbJvMbvvln9xr9/7AMfqCHQL1gfcs65l123LzMzs1Rss+ai65+VwXD2d3lwmoznsftFN6YYu169mpfP2pRzCzD45PtSPBuirlZXTZA0GdE2+J9j25BxvHpP8M1IX6Sd9dHX9kb6djJDlc+vf7Oxvn5HY23d3tdee/aU76+HoJ9EuEc+o6LqIzNnV91bNnXG2Mys7KjHBjXU7r7+3l9BIq5vD9zcfwHyZRyz+GhhgxTKDdBq9/Sl72qCJAnw/OMbKrGPiFuk8IqJopxHzNSJHcU88EMH9zOP/Cnav28X9fbqL1CRczStBrN06Ehafu7FfF75ltoj1bdceek5GwkMCF/+7s8Gn7V4yd70jIwCEV4XAu6KuvDStfC6KfaRuPsMpWvE0AfM6V62rufqAcp2ZRCdXTCpqyGROnbG8NLJz4Xe3aeUFa0No4C6yIaGk4coW3Qz8EGGobQQN1R7IpG+433dvfv6In27Oru6dnR1tr1x4uiJ3fvf2nSkvr6+9VRYHhfvQz8J8NXdzj33gitmVi361PiyKdNz8/LVAwIE1jVapW3io3zTe49pEhja3zi6okspueVHsQCCCCpDS6qLufpwm1pmCZZnRtknH+aKYDSDJUHRNdTPhqmm8lfHCPic4G/pVMvQjJTYCUirSfzf7sTxY/TSC0/Trh2vUWdnp/ta02gMLill4fXFNHL0eKo5cph27XyrqO7E0WMEBoxRpcW5Rloo2/0NuSoxj5MbXvyvmJfuDkbk2yVxt1XM7nc3DckYdMTc9Yi1dzWajrWoC7vbFiltlfqQuaF4w91glyf30zjH+Y4hf2RQmSEjP6KyZavsNhzj1zMM5MGkfJYG38Y8dd6nxIsNs70jQunpI9KM8BLufIUGDabhI0ZHps+saOrt7a2+4iO37WFe/fY+iuwNUVptbfWBQ3/9/c8Pfuc732mhhB/kk4tBYCAxPvfFL142Z97SR8orqsr4oKC4xPGS7c9JCGmiZWnaFTXMRSkYEEFlis+CAM/WjFrJFMuN/pWiy27yZQYt/ZpYLtGlP+rhAVGHxIh9ZFtbK730/L/olc0vUVdXtxNej27EpYczaN6is6i8Yi4dPnyQjh87ah3HxaWrq+Ol3/9q9zLMKx4YfvW7xysmTpm+zXDmn4lFYwxptTh3jfeA/nThzQv01eBcY1H3ssUxmpcsf9dXlwtOY98/IgyubCbSnXglD/kJIS8rNwO73aIAZ8VzfoLyUaMCUplxFNGKcITE3PoQXx63g4n9AfbAvNXX172ru6tne3tHx861zz69f9v6p4693avmQdAHiPvuu29J1YLlX6moWrCsiFl2CZGAF+vtGqC+9KByDNKmkKkCp4ptkmXpShflEDPgm1yHlMtWHYcYB/cDkwKbh+jC3s/zi2EExk7khw944/3ka5/8K7UyUTetddf7SLkx5UaStXhTymfR0hUXUFNTE1Wz0Dxr1Jx95E6famis/8L9t9/4GQL95rd/f+6ssaPHruWflb5zScQVQXf2CU/V1Ww3RO8ItlhJzpDcXach0Nd/V8qTt2li7233yvT3m6sLZXlV8rdvQbNtXKF2og5q+YZUvppOfkoNrc1zTz3IMg/8rhsMprUsrhiYxyIAfT3dPUcjZt+uSG/vW5093a/1dHTtPFS9e99vfv5fB07WdDsIej/go0+rqhYsKps+485JU8o/MGToiMQS6kIeIDx+61I9MCVxj2VAuB6fqT04egYpouqC8t0MrGQ/RVZkFbApKEA3YOVq2ZjJHJxM/kRxytDPSz7SoAgT4b273qL1zz/FQuWHLBG3X6Ai3xhemlAonUaPnUCz5y2i7Jx8OlR9wArJk9Ow6nOj2Ze+YzWHPvzQfbf/ikC/+NvTL39g8JAhv7OuM99gCO9b7Ut313G3v1g/nfgsZM5wvGo1rSQDshfuiD43IoI9cSOGZ22qd59TN1nMXXMgARXyBuqRm6um4cKCIP9CDdEbPX2374hAK91n6pDfWJH2utPt7Mx6urqbWah/TyQS2ckMsd1pobQjzc1Nh45UH3zrwK4tNf3pr4egpwi74FOnlFd+eerM2ReXDh2ZqY8ajUtQOxt4mLdzQDx0O9NgB4x0qzaaJ5mC8AUYLETR5LQf4ipnTuqzHTuRTBJlm34JlHZR7AomeZ6SgBsxjaIoCcm+Hnxlt/XPPmm9Ea23t8cOr0dMrfHyci0qHkILl66kktIRdOTwIeaZN6oCLkK8TsMlGvAIc1Jqag8s+cy9d75MIGUef3bz6qKi4h+K6Vny0q6GPEhO++566crxIeUZ9wScAkVXeNgh10gwlTxFPqbhv//9IXyePqKUIx8rffFwbnCfEUBaFnoj4jvIuwam5Ir7n0TTV5doXQLB2wMqrxsPpmrohJznhqxHpq+lr7evurevZ2dPT89b3V1dbx45Xv3G1mef2pKIyBsEkuLuhx4aPa1s2t2sj/yjY8eXFcj9WEmRoIYIgZMfDj0kHlcQNJGjQC9PesiJSO97Sklco5UtcG9u/aCgg5MoS1O5IJ9zQIwHkZ8ZWGwiKSkppAKCyopdtkktzU20Yd1aem3by5Z3zT1yU5qGJpwbcaFyc/OsAW8TJ0+nHa9vp/17dtKY8WWUlp7mWhU8jbXCodO6hZwQrgiJdnZ27Dz41paFX/3qV7Fee4r8/emXHxw0uORL1qIxkuMgwu9CYIVA+P76+sw1QdPEWdEzsc95TvXV6fSZD77pcdpz7RN4kbk4WhQXRUTlfPXn2v2iC7oWW3ejFFHaHOUayEa0XpjPcJAS+Opp+r7LUQftZ7GPDNnPU0ZG2Dxx4tiDsyeN+CrFAYKeIDd94hNDF1fNv39aedX1o8aMK0kLhyllorTC4oeNJuyqCPUD3aqlQI2PujWl8jTFC3oYUxbYQAOFFC9WRy3BDNwas5yApHJ3Xvza9/96xo8+2Hs62ttp68vr6dWtG60XqPCFYex110mdU+6cW3paOs2snE9TplfQgf37aPdbO6i9vc3al5ObS2PHT7LmnItFTeywrN13aGVjeA05b+CbWhp/1nB4963Mw2gnkDRPPLf1GwWFRffy681/rpAm0hxD2mZo/elC1BVf0SDlWFUUPctOrBsvi42bIo7gkuH9dRe30cRS9K279SLVcIiZv/1BcQp8+iq+KK9f9J9zwGMQLZmyzW1ntLpFn/JrSKevdm8GbeN/05kBfexozZv/+P3Py+N56Zi2Foeqqqrwhz9600OzKhfeVTalvCCUlkYpI34l/V51fjlDHBMzST+EQM7QJCUrfwg3BWENKoco5oMvDiUKMlgSLN/wf5avpaFVyQzMwKS4ZRnRt6uDCmMxAL8fqeX5z8k+U37Mm29soxeefoLqThynPibidj+56hG4os7+jmL95GdfcGmks6Nz3TP/fGJpS2uzPbiaHcTv/XZmHPCQ/ajR40is1W4Y3h2qCwv/X2F+0YfNYROq2abPUL8vwJmHkZ42hF/LiDPVyn06JOH2DjYUj92dZy552K6XLG9zHg7vuZGF2PC2G+7dJQma4Yqzu0+InzhIx83LrotocwySui5FNoGC6Z6Ul8apryGHmpRGVY1wyr38hubcWOXIbbKoiGkq9Te083HPWaqfd5xdtjBt1JqpLb38bPPz6enumVo0oqyKfY3ZfQVBj4L1OtP09Our5i//fEXl/DHhcIbyU4jbXB78EZcgQYgi4KqkDeBqcV7l1fLFjWfqhyZ8dv5ypHzlbbpFau+Sw/uywKZYfpQqmW6pQfKbQllSm+ouWhEzF/kmUH/lhMoXxp8RS9QNOnzoAD331N+o+uA+1hj0+lZ4MyXDgDeCg4pLaNnZF9LQEaPerN6//6YPvffsdf/28Tu/nJWV8ylrBG+a7X1zcedruh/PqqWhQ0d4A+IMES6VBmA5tWKGgFFUNPjeb/3oF9vuXH39/xFICnaFrWkzhma5mu5+D8vwcvu6vfvKNGI0NIbcxsg5ezeZqZUv37nejSW3VjoBiunm5Wt0vGm0Ae2VaQSlN5y2S8w3N+QDfMeSMyVTGDimSeR/NmXvwMtIf/bkLA39UXYOipC0RK7btmmVI/95WU8Ry7S7u5uKCvOXEwQ9Ofgyi0VFQz44bdacT5VNmTE1JyfX2h7Ub52wmCt3f5Rtpv8QUYqw7PQ9KaOLrdS4G9JBAzIgL+Cc1XMMOjci/40/MKhGimcRxy4nyvU2/UfFThGtjPgPt36oz7smuxE8VnuEtmx8gXZs30YdfGGYiL7Cm3rjFRYNooqqhTR1esX2+oa6r3/zi/f/SsydDZvdX+5oN4bl5ObcIIfQ+e9Vd/yYFZofUjqM5LPW+1jFNtbvnlVUWPy9ez/9jS2PfPG+fQQShl3FwZ5PKYmuuBekcLr13RcTJlcYPJFxlNHVLEMRIOtjrI5sV8S88LgppryJzyJfUZ50QlY6UxZMw1pquKerk3p6e639vFsnPT1M2dk5tkEp113OzGknlKdHnGtQ2+s2RIb2xJlBp+grzm0nNQPZ1w9uqPsC8TV9srPh1Y8PXk1LC191xRVXfCvW3PZoxZxxcI88K7fgkukzZn92SvmsOQUFg3x2oBC5AfOWVcPW/1k51KR+C7k/U1KXSNT7sqQDB6CsoK/R5bQf1zmG9qqRASN+wnhlaBZ58M8Yq6wkf9OAZPxPe1sLbd20nja9tM7q7+bT0PwrvJnunOD09HSqqFxAFXPm1/X09nz3/5547pHvrfm47w1VrAEpHDR0zO+ys7LPlQdS2QN2QjRuwiTKKyh0sjeVUdjeW8C8RVC6Ozu2PfbLHy58/PHHuwjEhbdLKy7+0OuZmVlT+XdviVdJpB30PnQ9JG84n0N6qD5AcULSe9ZF2yD3yeuIEvh9EbREsCv6JJvs9rFt7N7t6uoido6UlZVl3ZvkdPPw7T1M6HuZyOflF1BGRgYFYyi5G9LmqJ6ze7js/svb1GnDersoIlK+ufAiG7lxM/TaGgFtkFyGt4+f8+uvbuXrRPQeOrJ/7j033/gKRQEeOrtqn3zooarJ0yvXzJwz78LBJUPTgkZmWgcOhJibye332u8B8pg1vL40T8j1agzIOes3t6mLuX4QpV6m9PPpYfAgae1vGfE3B4m5XqMEz1UYDs7hfayhe2P7VtrwwtPWsq28j7wvEpHKURPzdpqL8MKl50Sys/N+vXv/vjU3fPD8XdGKY95A06pbb70+M5L1r1CaMZ17TfaAOsMq5+CBvTShbApls0gWLy0kz/owbNEX4V7eqGfl5M5+z5Uf+QkT9OsIxGX//v0ZzBjK990iloPtCYA3Rc2vV/Ld53rPwtAiQ0mkGrzkdcEZ+kOlt5F2+2hPf1SNDKs8n4gSnwFBHR3tlM+EOi8v36m/V2P+mRmSzEO334HR2txMba0tVlRJvs+CHBC3PTMDnknXoDG98xHbDdXkkFtcWWS9UzSlx9cTd0PulPdXgJR+duk8TN+vZrcR/Flj+9OLCksuYxsg6EHcfffdlYvOOu/LU8srzxk8eEjYGtEZ0K7GMLRiE5QgQNiiteXqDRpsZCSNqtS+e87QylWTGNEzSKQ86R7Ww8XisRSmU8ICF6tcn1VsXzfT18zJD1EK5Qb8xqaZSII4N0CM5CZrOHe/9TptXP+MtchLb0+vtVSrGViwXd7QYSNp+TkXU25+3hN1J459Zv2//rQpkbmtj37ve7U33XrnB3Nz858yI5ER8hQpHgnYt3cXTZw0lTW+Oe6AJLEYCRleg2vXxKBBRYOv/e5Pfv3KbTde9Q0CMRk3a1YWi3nkk0nkG/kt3ePeYjHytfYOs77Lnrmb1nMnlRHoJP1umhBbZoDptEqa9+9rH01PqHiI3b49+BTKZgqHw8RX1RSOrt9EsMsSA9zyCgosY5Kn5SKfwTx68US7dbbqKpslnqdt56ktkqO0E7LIqgP1TOmKWE+s3G5K6b3szID8pedd+e3kfNQ2yBnaaIXcORnpaRMpBmekoN92220jquYv+cbMqoUfGjFyTJryoAS26cEeatzmP0j9/Y6o74eVR37ahyVlRsRH1xHfiXi3r9rFoJ9tAkKkleUWaaq7AxU4WfQszKCPhq9qvoPj5RuwzTeXO6mKJoiTrL7uBD3z5J9pz843qaenh3rdFd6C8+QvB1q8/DwaO2HSgcOHD9x20cq5f6Uk+fH3vrXjox+77b35BUVPp4XS84UWcE+JRwkOMFGfPLWceeTprvcUkp6rkCPw/H/cyx9UNOihLz7y3Q2fvve25whEZcqwCTms/zhT3ia/3zwiBsGR6n2Lz/q0NOXd6Pz3ECJsfSb/Y2BIMmZFBZwWiqczDeXxNvQbXxpRL9+ZfD0EHl7PzMoi9751RFvu+7e3mNI2O+JTWFhEzc2N1rnzfAzfc6ieI7mbHGPTIPUh9YmuvVG0gkE+idKEi3ZbdlTEZzlrUyzKo2YodDxoIS97wB7z0Hv7RPVjdlWluCrKqQnrD8z71re/96Urr1u954LLrrxm5KixvvA6STeEjP4zBx+VANFEXjnEoGA/awCE3fB/Nn1aYCgbBmS8gKH8cW90WWj7XY6euRG8m3y7jNhHxLvspmrkGzFy7Q8dLES59qm/06M/+Hd6643t1ktUeq1116WrKV1C3qBVzFlAV11/c0vJkOEP//6f/1d+xSUrkxZzwX//8Lub2pqbr2L3S49VYshrMLu7e6xV5OSyxfznkLR0qPicHg4Xjh1b9uOHvvifowlEpdM0CkKhNGvRCyX6ImYWkNp82OFtz1o2nW329DHT88S1vLy+cscAkELG3iA7Q3Ji7TwjAca6KRfuHW4ZDK0tzZaQ8396m2qLV8S9nb3ouyvt7rEFTNR537r9HgFSK0BOG2p60+BM6cE0pdG/pp7QvX7ifMUJev8Mg2K6NgaRMkBOztIIagyMGJmxz5FIn7duBHvUKAZnhId+5513Di+vnH/XjIo5t4wZV5bn9r/oQuZeyOCrHiTqCSGXo5cpbRfhKG/Cj/o5abmTVVP+K+13LUbTnzB6ib4ESVXHOx/Js4hyVH/L1h8svT7qJzNwb3DGpFZXSxJ4W6UIH+T22paN9PKG56m5qYkiVj+5OtDVeh2k4xGF08PEupGoct7iVlaTHx/c+fo3rr76vUdoAPjxD7/995vvvv/23Myc77HyQtY0Ked5aqw/YXnfo8aMs74HLnYikZWdPWnqlAl/WrPmx+euWXNTPQEfaenhEnaNQ2KBF29wmTfAUe/Tdo8Ry/k6yujdqkLwheiJ29j+pE75Ei9BEZmLP5rBa8r7nLbL8Erjn/kAt3A4k3nVmSR3q3srCxoBbZX4IoW+nXYyP7+QGhrqWNi+2BsoKARUa8MMwxN49So4BemKLPb5HB3SDBhpHj+RGyFQuj6CmiyftS9+R/n87bx7mXduPd8mH7/Sd+YK+qWXrs658JL5t06bOfsTE8qmj7JDPAG4v6l/BqW8bcA8Vfmm1QRB72/UR0ImNUDNCCjTKUepjqk+7nKo3T48lj2aYD1MTQOdh9cMPDgWZvTN2kMi2jlxjgnkkji63WGom4OeX1P5RhSvFly4d+54jV584V90tOaI5Y3bb0IjtQ+PnPuGneyo0eNp/uKzqKCo+PGaozWfvOo9K7fTAPODf//aD++67+FRaeHwp4WYi8a7vu641Tc6dPhI8g3YIlXkOUzUK0eWFd/HPn6KgI+CvLxB1gfTu47uwCspviq2u6PMDVVQ3DtO6hsyTFP7bQKbJE/+hCgahuLlirq59XArJdxS0xqs2dnZToUFg+QaK/U0lfA4i060tVN2bi4JsRODK8Vx/L+Digdbqx8WFRW7DpGotGKoCEvASWma7t1JpO4KQG6sxX+lB99Ur5QQeM+JcGphanaKXJ5hd3kYjoclj5rq7e2WrlEoZsj9tBT01atXh8eXTbm8YtbcT0+dWVmRk5tn7wi6UyXnLCikHU9eEsKI8V2qQ1D19H7sfo38Vm0Dd7u7IINTctDUiX5h+qsibzN9lfQdTXElOMZhfpHV3YAEy4iWsRE/qRlYk+Dz5dY4n0++/rmnaPdbb1iLSljLtWpWiSEZLnxKT9XCZTRu/CTav38vbd388s8/88AnBlzMBVtffv5zMyoXl2bnZK/26mM39MeO1hB/5gpZIys8GHfMhFNpb5SywQdGPfCNbz/6wn13rPobAYXMvJxCN9pteu/+tkPK/IupeunCO3U8a+uQiOkpNtl/hXElNX8kz++y3qHCpyY696OcxrOOvXC23Dfv3dWeqrawUHt+Qb5UH0MxMnjo/NixWupg0Sg+95wbrs8/8yRdcvkV1qJHaWnpck3Jba3Z1yzWj97FjIWs7BzpyqnnJvrNTa2FdVs4tw0W8+NNqemTnlvlLTSGtFcqT4i4MwhQDNJznSS9/Rfn4w6iMj07h/0G3Syy4XaB9PX1UAxOK0F3Vnd737yFK/5jxqy5I8P6nEVdLXWUdt37wb3bc4Dmn3tZks9bJsWOJFlw+l2+oRXklK+XElzR/hPfPJClPdpAvDhI52YEGEumcpAuqAkos3yo9t1roOIlCroR7UQNLGz9/NP/YH3kr1KXI+Q8dCpCkopjxL5kZGTR4rPOpSnTZ9HuXW/SxpfWWftCaemL2J9f00li7dq1vePGjftERuaEUenpoYtFfYRg73dGvucXFJIclpcXIbFe6kL2oK5xE8f/7v99+6cr77njhpcIuISNcKEexlUiaGKsgr3D3S/cw6CR8aZmXpJ/VJm9boDoe5cH2ZG3tKzbJ6+F/b2mxW5cent6KINFbcRLfLzR9va0y0PV+62upPFlk2n4iFFuxfh0Nm4UcgORD6Tj91OaWHrbKY8fyqI81NbWKoXU3RN11dp7Jr22XFwyUzfwpa4I0hVfalBUg0jLg7xoijxK3s1BPMeGtEH7nTh8ECA36L3fKBIz5H7aDIp7+OHPn1U+e8GLV11/y+9Y36Eq5noDK7fbBqkiacoHke8hSgpT+yz/M4IP0Zt8WdwHzJggNXNZUkx9pyv1Bg0kZuAWr6yUzjSGNnsPrryFyH9+SZynGfDXVNvH6AnVxLx/8YW1T9LP/+s/6LVXNlNHZ5fVd2YJOpHSMPPv/N3K02ZU0jUf/TjlFxbTuuefoRo+KM1qYEN8Za0ZyZ1M8jz66KOdtQdrruvt7bUiAeJtYIID+/ZYc43FojJyZWwx97amp6dnjRwz+rcPfulbQwm4MMMsR15MhmMNcpPcQXvQG9kaZuo3pZfGMgoM2fE0Fb2yUkj97/rsGu8JcdpEQ2oTo9z0/Fj+ciArdC5C5Y6hwEX6AIsm5RcU0czZVZSXm694sENKh1re+vDho2jM2An06taXqaWp0W0qTKkx5d08XZ2d6pkb/tobkqiKNlUeO2A410UYMKqxQ54KG/pc8qDz9zxyt1RDccrd1HIZ7u/g7OcGkRhk2meexoPiuEfOqCybMvP+mZXzP1gydLj/qka71tI+9yZSdN3fn06UpLAbUT4rZVOgR2ntM9UweMqCLhuPQfUSxqz72VR3DgTW+ajl6AcEWsu+yscuQ//uRrFIfZj9xMnfDM7f/StX01SNJH8G3l4+7Wwv86xfeOYfzBOptUKN1sIwbr2Fd2Sn4ELO+6cXLTvPelnKy8wjFx6c5zlZgjnz5pvXDPnBD9Yco5PIr371/YZVN998acngUf9MM6lM9OFaU6oifXSQNdgTJ0+1BuoJw0mED8Xb2eyR7xHuaY0unz79G6tWrVrNjQUC7BqZudaAKMf3EhFfZfEWJYFzp7kPmraTZF2SwuPuLen4koZ7kJtWjpiJUeSWsCmLyagiyDqKKD2crhbC/rS1tlqDPQeXlFABM0jFg6KPQBc5cS+8onIu7XpzB40el2692lc+q4yMTGpubLSOc4fU6+dlSAaPoTeGfg3wRvo7fz1LSGtL1W4GN5WIqJle+6OPfZGy8Mb8mF4ZfB9fJU+cgxHHQz9VBd14+OGHZ0ydWfWl8oqqS0pKh4YommpHEVLlu/zXd7gnpka0MlLFjPFdEVaZFEQ2QMD1U5GtdC9ElGQ5KRBbsuP8OPEyJUriF4tzXfV7Jso9FP1c1JpwseNh6ef/9TjV1By2hD3iCLl6rwlPyaTSoSNo4fJzWH95IW3dtMFaGY6LYfHgUqshCBmi0bfmeg8pHZ5Xyb4+QSeZR3/wg/2rVt18XumoURvZ1yGy2HQxD736wH7Wtz+R0tLTnVd/hiSP0V5iVITk83Lzrj/7kg8dYIL+MAE+ELI40xVi0xVq+e5wjT93rIKjDKbpzTO3Npue9+duEgJu+G9pIdSuEJqkht9FufIjod7nne0d1iqCssHZ1tZmiXlWVrY1/cxNFtAuuW0g+5MWSqeyKdPocPUBMkqJxNgo4QRkZLG+9K5OqxtKy0SzpYMcBlKeXzcdSddTVXtyp7RJ9oOXzPCMFCdXU0rmlm56ba8h1dHdbtgvZvGKDZ1e89A/+clPjvrpL3/z/fd88MPrl6288NKS0mGhZJpt9Yf10MVT9ohlURf7TgZyWN0rKcgiSSnzIAcxjoYZFPWCpVCufEMH2RiBT3QqRWrZuOVSNKPB1GoTByPKNuk8Y8EHvP39j7+mP/z6UapmjRN/YK3XmprqvSbyyc7JoUXLz6XzLnk/8+KP0tNPPm6JOYcbBnwKmxXCduog3oCWnp19Nr1NPProD/afOHHsY5GI2WY4oi3C/60stFpzuFo6Wnh0zqAhx9uzPZQQ5ebl3f+N//jxVQSYAWQWqVOuvHZCabMMSavI8xBlEQ9aRVB/FvUdXkidXMWRxUYJ8Qtlcqtkr3DmtiCGPcCrseGE5WHzgZyipY2KqX7hLwQqGTKUjtbWMGOxSzrGtNaB72HPkvesm654yka32CgMEFOqv7/nwNlrRtT6mOq1dy4yyWaNbIy420xTylMuxTtWtFeiPj09jqDzkHsfnR596KtuvXXYfz/6P1+49APXbzz3oss/NmbcxLx+v5ucY4g/hrbD26b8OOQX/6TL9ApwDTnhGctlGjGSJk1QZoZ0H2q7ZZFNyIAxY+9TLNEkkiaLXI4i6qa/Ut6VVrfHLyTgs+fARL1afFGNdWufoN/84of0ytZN1rvFeTjNXjRCN+bsUDTrSqL3XXVD0+CSoduff/Zp2rdnl9W4hELitaUhqxFzG3DXDGP9iulpy1esWPG2ReH++wff/kNXd+enWF3adIHhg/24ISOvOS5eyWo4RgjvTuDHZ7AO0QmTJv/HN7/5w+F0hhNKCxeb2uA2SwIjjmco9Sl5U7Y8IXc9b2mKmuc62tPclNC7gxBB32prznNlCmE0xEI15PU5O4fz7iP+ohXPYzWpqamBhg4bYY1qt6MyTiDf1MVPcftdA4LDDD4Wqh/C+ubldwkZUr1N9xlw7RDDq7vX7priREhfCtZ7Gg3vmst1lBtoU75q6jNs5R3yTsJ7OqV2Qjwo4tyVH8LwQu7EoxR0ak9bu/7663Pnzl9855yFSx+eOGl6pgjRpYx88Y1orpY4Qv9x+iHmAcWYcQTAK93Qksrz01OvjyJ+Tllq3sGGTiBBuijdtYbp3+V/Lvp3PspPKhtsmjEtdpvK1igJgjAoZh30XPhI3i0vr6MXn3uKWlnfodtPHiOTCWXTaOnK83ke//vKK1vv2fnmq2WF+YOe8xp3p7kx+CptnZbH4z0b9lQjIy1txuyFK0atXbt2P71NfOtrn//OXZ98uC83L/8/xY/B//Apd3wuPR/kxF+5KvoWvWMcb935npmZVTpywqS/33vvvUsfeeSRNjpDiZiREv5XDo2bQohdwSX3nnRHZ9tfnKVave/C6HPvdjFQTRmpLqZbSQYCkXrfi2L5IYbpRlrk8FhHZ7v16lNBa2sLu0/zqb3NfiGLl5VwmbzFZaw558pz5vXVW7M7MrOoneXX2tLCPP18EqKcEc6wIl4Z1uI10swQg4KfW+m6eRddlwbHcPGsHHez1OmtHO5Zs2JKnze2RHjh7uGaneBeV2ervBper3nqLixjfO1rj3xs9vylD02dMWtUJusXMbVmOLVcnb+m4c9KUhn5B9bnguvbky47+KtnaZMndLKl530yfdsSwoxRvlWYoR3aD/PFiL8rvqmQgsAHXzzfbrWCZpTPFCsD/2cnW3kE8t7db9K6Z59k/X4HLUu7ty/4VcbiXuIvq1hx3nt4v/iWmiOH7r7ysrOf5fuZp3187uKVh5jHM8pw43H2zdLnjIbn/dPumumm1eeYV5BXNI8dvJ/eRr759S/84L5Pf35BZmb2h8XlCTkjtWuPVFuNfEFRkWtMuq9cdUREDJbLzc+fXTF/5feJHvkI9fvBPzVhv+tgcaMZAbes5YUa0prphqHcliQZAiKZ4XrWcn6mlK3XVy8GXIqyXNElSYiFsLnHkWsMWF64I9C835wbczxSpdgZTqPnGitBf8l0PWdebmZGJvVmdlt5WYJu2vvSw2Hq7OggPstJEXPnNNxp5MpF8rDOUUiDbAA5omx4l8O5bBH7fpX7Lgz/NfOERc7A8FVE/ib+9klthnmqjXK3PPJFi66eOm32HZOnzpyZlZPr2m/9Rr9aumEl+qlMVayjCWjCddJvHvn3JP921RBW++5Tug6yyMnbKOi7bCf2o0wpO81gpaCq6aWS+xAkVoZyftr11h8b05dYPzIGBkXP2C3AZAK+nzase4b27HqTOlm/oTUNyIyeN3+n+PzFK2js+Enbmxrrv7Rs7uTfkFQZPu97/pJz/8HE7yax1Xo1qdXAmtb0sDzH6xGheL49IyvjfLbpMXp7iex/67V/Gz9lVpj1a17t9ZfbDeyBfbtp/MTJlF9YqI4kFg2o8NbZ5sFDSq//xf89vuf6D1z0OTrD4LN40tLSipSNhisrTmTdfk6EESRrq+zxuvvEQDlpwJwpXXcZZbtmGEjmgefNO+F31/kR67Iz+IIxfCQ6X3+dv1DFp6fiTZdyvck7V6k49zrwcSPcMLQWrcmz731uQIi56t7zpgkyEUXzppTIp6Fez+DxP961UTwyUWU1fk5uZ4BBqtNoePojp2ARGkvQxe/Y19NzagyK46u7ffUb37jkmutXb7jkvdf816w5ixwx9y6f3m4mhe8OknepN6tXnuHLIiUCvLig/epP769HUsIa71DDf6jpPoryvv6Jud0AaYapulsym0xpTxIEXU/pWsu5mlETp3RX+awR/ia0x//yW/rtL/+LdrzxGgs7dloPJH8wg64lb9zmLlhGH7z2xuNDho+6r2bvgaXvOXfhrymgqiyvx4UX5kZBHZHkDaXdUITsv9zrZQ1ednbuOQ888MAgept57LHHuv/1+B8+0tPTs1b2kqzwO4sm8MVEeq0FM4hEA2fPV3caSEdM+P8GFQ164Jvf/ckiOsPYvPlIVjg9nEdOdEPczO7Sp8KrJWkbX7dAPHeGoYVzPXEWHqgsKu6LXdwBiqJhkp5Q0xOsiKRupvof61jLO3eK5HPR+XvMe3p6be9Zf96cxZNI6pN3jQhxrFuWONc+65W9PO/o7ZRnGAi7w4zqzKgbDL0tDChCKdeUGjzxz81O/mKSugiOyFtdhpf/lV/MwjdEzN53v4f+xa9+dTnzyB+cMm3WOUOGDkuXm151MJr3V26zE8KItUt152J5UilhBhbq266bD6bPU46WWRxUhQ64FsL89OxUvxWSIqZaBdnijV3J1MvSt6ma652b/1xTKM95cHmY77Vtm+jlF9dSQ3293U/OR65HyZp712MnTKJFy8/pDYczHzty9NCaqy45d2es4pqOH3w2N2/KiVAovcR6+CMREouO8H42axBSOGyfG9uWZq/ENn7I6On//vVv/vA71Xtrdn/7259tMQxjgG/wYDZv3txTWXnBVcPHDtrAmpqx9lb7gvDRznt277TmqPN+T9t7JOkQz9NLSw9nlU2Z8T//9cu/L/+36y4+RGcIU6tGFDAXPdO6OL6hQ/bNJ8LVnl1q39WG9d5vIQ5S2yELtfRXGXgnC7lhuKFvYXh5uyQ1d+oojDfeveSG2x0Bs8U04rknpjAy5FPyBvN5Y+zkNtDr+uTT4bq6OhQPlufV5w4iEx6ztJ6HEc2rM8mzG7xltsVgOLls+Rdw71NRX+cay1GG4AbP0JTNUNoj0dXR16uOtQlFYofcU2zJBoZ77713wcKlZ39m2ozKc4pLSjNJC7MMSJhdRtcp2XVUQlNm1DoMRAg6/iFmFAFP2owJytyXlV/sTBqQsuQyA7ILPrMBKNOMtck/8C9qogTK4Z73a1tfpg3rn6G6EyesEecR4W1EsRVGjZ1AC5ecTTl5eU8cPnDkvuuuPG87JViB+x78/C8yMjOvc4pXss9hYcfsnDwn3G63UXwwdHZ2FuVkZ7F2yeRvX9vHdtZ0d3Rs7+hq29BYf2IrdTXvZ+HdXjpJ3HX/w+Wsn/OvaWnhcbbAhNxBVLybYNyEMssQEdEHGWGw8M0tLS3rm2p3X3rTTWfGm9n+879+Pa1y3rw3DEMLpDoPi9s94WyTRUcZFe+4e0q0M2Cbpcnu+Az1kbXLMBThdOvgWu1eXt3O9LEwM9a4scs9zdy8fGuJVrEojCH9l4T7LLYaan99NNpaW6wBch1tbVYEgMMH39kD5bwLpjY/kidNaovnf2a1+1FL6z7mvmbT0RS94VMODsLLWEzze/21be5qi4cO7V1w9y03bYyS+J3x0D9+zz1jF8xZ9LVZcxdeOXTYSMNv+XjL8A2opBtRPpOhFKSH+eXfSfWbB6A+mtgJW81UHyX5/hkYpOwNM2jHAIi6Zjzoz4p8TuZAlaln7Hz3Ro2q6yqnWhZvew7u322tu87Dx/x94PbCMJK5Z0gHs4eTL4SxePl5TMCmvFl7tOb+SxaU/yXZCvR0d/46IyvrWsO5aYUHweEhbCPHPqe+iGH1JaazcvnSkR3s+HA4PT89Pb2CNRQV2bk5F+Tm51FJyVDu4TT+9H//sqUn0vtaT1f3huO1x7Ye2f/anh/96Ec9NAB882tfeP3jd37qmiGlpX9iDdMQoUC8weKNb23NYWtpTxchFiEx7ci+kAX5hYt7e8d9nn28jc4ASkpLi4VIyh60PXBLNBiOcNiOKOnRRvHchcjzFmXNsULjcr6k6LLX+hgkDazzljT13AAnkfMI8+hRKD3d2s4HwxUXD9arJWmbrIr2ufJ7lhsDbp5E3pvkyLFWnfuIL/va3NvtGgC6DaDYHKSeoKl505JfR7rzJros5H50ZZyC4cwusb4b6g/gdsTLF8kkz4kVV1Jao58Mb9lXp7jeyLtopbh77rmnZOKUGZ+qqFxwy8RJU7KF5SlLuXqpYpNy069qZUDZ0k0bkGTARFXK3CtPP29T+m//ywku2ztzLzIRLUESaBcryDDVJdz+7N+SFHrSuHZCcmXwJSbXPfckbX9lM3V2dlkhP96AKS2J29CafD1uqpy7iKoWLOluaW796hd/+q0vP/6d73RRChyvaXk+Kyf/zfRw+jTLSJGm5vDxMs3NDdZKWTwE383671vbWqxGgdeBjwzmc3jzmKfEl8jkb6fi84RZaL6Iif/ZGUbm2ZSdS0XM05k4qax50dmXvhHpjWzu7unaQJ192//855+/8fjjj6dU7//81ldevPfBz99WUFD4v4Z48adhN5n1J46zCEIulQwd6rV5kj6QJTp2kqJBxbf88Ke/eepjN3zoj3SawwSxhDTBsXVAqJO30p4uEBbug21/sP4rDE7n3uSen3uYV4Ty2Li/hWkqBpbImaRj5GNDoiPYWTch4nQRqR6M5r0yXn7xBdr08jpaddPtzmpwkuFqivM2vAGBxKerZZIyAFAygLylaR13zPQaPU881fOR81KQNZmc9O7lV38nr89D7NMzMkj+bUhue/n1Cxn2CHep4WSnEtPINuht4PbbPzlqVlX5J2bOWnTT6HETirwXM9jI/SJ2pZIPayfUJMsNu55ANlu1OzulELuskqqtkJB2mIqdmGId1AxjbA4yXvohqHoZZuzTV0sIlvjEC4u+2Yh5SPwy+MskXnz+X/TGq1uYULZZfXURn5B7BXEPY2r5bJpdtbCVbf/2ru37vvmxj112gvrJTbfcW1E6bMhzaaFQoVus0zDyUGevtYysaa3SFXFWuOIrbPGFmKzIl/MSFf5KyvT0NCbsuZbQ86U4ucjz0cghJ5xLhuSlMQeBnfOx3r6+bb09vdvYly0nqve+un599cHHH0/MQLn3k5+5sahkyI+F9sj9jKPHjLNWARMNo/zPPsT+y655z779u5fe8pErN9JpzB//se6G0mHD/1s8AkJj1LC4Ok1ND7X7Qu/6Z0exDW+Ht1/zIL2+eLsOEVOE98mrnFNRHmbPyMywRqLzVQ1LhpRavyvfnpObK91TThqpzf/t//yEDh86SFde81Eaxe4Jt4Zy2+3UubW12QrlNzc1WsvI8m3WsrLsPvZmgegy57gNhuHXAFKqRGr7ayhOiRmQh7eNX4eQv/GLAj8sFDKU8Vs8wlbHjF3+Ahv7GLPv0ME90++5bXXUsTYn1UO///77CydMmHzL1IqqOydMmjo0zKwoP6Z0U4pLpwt8/ObWDNqgC6qckf4jmJqJSeQbiZiUtBgBn+V6kOpd+W85Q6lfygQZLa6h4jXWcv+5E+gkEQLqL4b2xQt/B1VWv8oJlq+0auSdn/NsyTn5f8fYZfA3oe14bQu9vP5ZOsYaJyHkpp5cOtHhI0fz5Vp7mUf5eE3Nkc9d+Z6zt9BAXEzGj7//yKu33P7JCwuKCj4dCqXPSksLDWP3kfUs80aAT2GL9EWsfkvRUFjVM1SR5OHB3l6T9UM2W//E9nRmiPDR93zJWT5nnP91DALm0IdHsP+OyMrKsl6ZWlAwu2/s1IrjV1x//g4WBt7Y0d6xpaO7643XNzy9O+gFK498/fM/ue+hz49j/Z2fdn8gp6E8VH3AMir4K1c9s9L+G3KWs7UELRQKjxwx+vc33P6pyp9+5yvH6TQlnJFhLSrjExchnOT8ps7xyhRAqY2Rw+yKZpmOh+8cYzu/0s3sPDw+QWTbIlrZnndqSCPuTethT7dC795xbtjc8Noa7+yIJk2ZTk2NDTS4pNQr0nmgPY/YMQKc6vK1GNzzEdfCKkJcCJL65Z3z055bpb03lJK9z6ZTU0Oqi7tXyldaAM3N1/0RpAZKVMFtp9zKWPe8vEoc3xgxjbffQ1+9enXO5PLyD5TPnHv/lGkV5Tk5eb5WVA9p66h9F8FNfVz0O5iCMlJ94aABcUmXG69O5BYYmLFfwI3EEiZTBzcLNdjv2R5yGQmWFyBs7i7Tv8uMXqnUMGPvii7kweVa06sO7qdnn/qr5TH0sH7yPmtakHwjmyR7J4WDBov55LuPHat96PHf//wPA9UXHQSf7mmG88bn5hZMD4dD81gIdV5LU3NpxOoDsJrUiDWBLT1cmB4OD2PCnMsE3jAkIeWIl6PYV0Ms5GFYjQo3CFh6JvKZlJmVw8LjOdZAJOGBuQ2kfUF4qcye6KuL9PXu6OuNbOvp7dnQ0HT89fpDTXu//vX7+Xqd5qc///VfMGPhOrdEx8vLyMigssnTLIPCbZSd62sJSMgToLbWlt9dfsGSD5G1ttfpxz+e2/q1gsLCT5LWUnoLrljf3G2kHUOO6ATu4395uD0ScX97+RlxowBEbiTFC/VLBqKXK8nTf7u7Oq17gw92bKyvo6LiEisZH8SWY61qqIo4kdwXb1pGdGZWFrkVc05VPt66B6xBdvnU2FBH+fmFlvHAt9lRACGi0jMqXzPSmiwpa3eD1HXmab3kbFndFob/MMdg9kL6klehC7oi9G7OVoSvmrU/R2uPWFsifX3dhw/vLLvn4x+XX4ygMKAeOjs54wtf+PLV8xYv/2L57Pnj+XQU5SKRdwKGsiqZ2n9suJdMTB/wskiqyZctAaWi6gf1tlQ/m5SifxxULpF6AqZ6qDzyOna3wwCYF27ZegxC/B7y8L8Ey4t6nWPtEues/1hJ/NpyMt36M0jppvMS6DVTy+JvdOKvNOXv9OaNi9VPrjy16l++ZsL8RWdR2ZTpR+rrG+9fMqfsf2hAfqjYOMbCTudfvH5l45prrhlTWDp6Rsikqoys7PmhNGN2OD3M10y3WnWvofXmEPPwPYvjU1tPN7WzroYG58KyyAAT+gzmxWfbffJM7LkQp2eEQ+G00BDWIg1hl2Z5DsuDh0PHjjEjj/72bzXsem1rbW3d1drcdLyvt2eIpB2smF7au3snTSibYr1sQ+6jtH/LiBtKZd0EH/z1n//5+asuO+8zdBqKOou2lIgnUtyf4k11UcXcMEj9qubgGQO24NjX1BNiK70iNFK/syOKbv+4KaaYhUh2Buy80qyXBqVThtXt42qYKS3epTUK8uAyS8yFyBnSgxzy8hDz5g37WlkRKfbJixCQE3lVxNy7GrIBIurmKoD1Uaqkry2Xp9epg1NFXb3xDabaErh967JxQlIdRb1IedMaO5VIZ3d3zNkoAyXoxv33P7TkT39/6j+vvem2ily+ak8sQfNt8m46gZ48SWlRE8qZupk5JRjkC617N6dBKfft61oUzbhwK6aWZUoJE5S1xDBVI9EvtLrZ2A90cfWqIG0ygiuZTPlGlL9OVv6c9HEJ3l5u3W9c9wxt2bieOlh/H/fII2LpRSV+b6fmj+zUmXNo0bJzurp6un/4yksbPn/bbR+po3cn5q9+9asD7C//9zdnW+j9779u6OiJ46rMvsjczJzsKuZZzWEN5HDDUQfPdlEFhPv/fCBeL/vX0txIQuTTWdca9+Z5uD6ThdD5P97gsgYulJWZPZI9byMzM7NZuL6IjtUetrw56zdxvMru7i46uH8PTZo63Skv5I7EFkaGGLddPGjIvT/737+89pGrL/0NnWaw32EQuYLBcUTDiJXKJDG/2/WqDfW72+XippC1TrQ/hn+JWPe74YqZeI7kZ8wQA7q6I27u9poJ0vQ7g5SWziD52ZKnrHm1lOvP4d1K1lLH5BkbruHjtO2uaBj6yUpulElKOa4uuOcsX3LVAfC6h8n9q3gSsuEvCbs3PEGqnP6dyBoHI9FndKSdPEHnHvl3vvOdeUNHjn1o2syqS0uHjVTPW9YGNxHFvCFVUUtBSOOVY2gfTNG8ywnt/XL5cn0SJkjUpe3e9Dz5ssmGhfy4JEHQuZuawWv6E8l95wMm7Pp9YAYbakpF+4uZzCH2xersaKfXX91MLz7/tNV/x9dcj+gLw0iuvsEEavTo8bRgyYre/MKif+3ev//OGz54wZt06hH5/e9/WcP+/tX5xwldccUVw0tHl80KZ4Tns37tOWlGaAR73CcYaUaRIbXybizN6Z/kA6X4qnX8hTF8ShrfyxtdHnrlg+0sgWdin848ez5Ir6R0GB0/esTyzIWRzUOYfPDUoYMHaMzY8d5TIDwp1xrlEYL0zGEjR377l3/85xvXXX7ea3Q6YVCJ1Wlif3YQ3iURmaZfpKW+Lbf/3JS+i1xMf9+4LuzKwlaGvw0yTclL1fLhv23EWUTGdPvoTWsgJp+BwX43rWzVvFfaZFF/Uhd64fcZjwpZh/AephA5ZaSp6UzyrgEJr10coCPGEpBXH/XCSDVVdcF0v4tvhmsQkNJdIZ2HKEA0zlJafl35AFfvOph9zUb6SRF044EHHp79q8f+8NmzL77iksFDhqYbelgjlh5IN5ghTtK1rnxFJS+k0bNSynetJVm4nQdAGwpBA4ZikBlKGZ6lp90URGQmI6xR9F9/Jk3lB1NvpiDvNWGkbBWHwvTt1nLvp/EQ5Z5Tz8S7wvw8u1kY+c3t22jj+metvio+CKXPmU/utABShnZDUDp0BBdyk/194fDhw5+65JyF66lfFX/XEXnssccOs7/839+dbQYT+dxBQ0eNL8wbVBVKT5ublp42i/0rZ400X2/c4A1lyGq4VTOV30s8dMjHIPA+VDF4iQt3utywG4ZyO/JXrvLGedTosd7lN7zuOHFoOCOztDC/4BerVq1aGDQQ71TFtF7M4j23rnCL/SQLs+neqvJYINUe1aapKenJFnEnfyHSbjRG9tbl50xCekqsv/aSpbZ3bu+3x0jwCEyWM+NCbguFp23K4Wr34TUVD99yOUzPyIuYYiyA4V4wV7w9i0A5H1G+aA3klkIVZ/l6kSvC7nWWoyjOf0xZQ0ypG8T0yjBiNHfi/CLyy5yYoJtGc8yupaQF/Z577hk7u2rhp6fOqrpu1MixWUYopNfEJlplpbvR/RFNrw9dPTRYzJNq9uU7zNC2S+UIK8rt3qAUDQkdI+B7jB/Ra668/6ZcD81w0bNRDYoBQL/GFN2uMn0J9aOTqJF+z/kMB8fzcw6yHxaimiMHaf2zT9GeXTvsfnJnVLgs4vIl5KO9FyxZSePLplZ3dnZ+8ec/+n8/PZkD3t5lmEzk+YC215x/j5Ij8iUlYydkDyqYnZmRvjA9LVzBRLiMhYv5EGUx2s266p7N7/wGLALSLcYmMPgrLz1xIUvw604cs/pTS61Xrgpvx2sg+fE8KpCXmzfrkg+u+m8m6NfQ6QEfuFgUNNXMjaUpD5d9ccUgLTmq6HmDBsmeohK+d/bpwqUuaGPvcIXeUze7bEOujXjzX8R97z1PyT33HuZ1ZmeT8rjL87TtptgZK2EvtkDCw5fzt+doO+l7I9ZSx/aYj4jvWNdBciqpzqWXHTrlEtl7HOPeO13RNnjbRbtimLJTZqjX00uqGK7SWUv77N+nV3p1Ksuvr+XgweDXNTokLOifuP/+MXNnz//YhIlTbhozcVKpu4qPjCTW0URE36bam3LTK/on/Fkk1NSLC2NE2W5q9Tb1wXemujvg80AhN3Led1lOUsTQPsc4Ce9XGABDxoi+XWlD3GrISqzb+UmUZ0bbLfcXmnTi+FHa/NLz9MZrW6355BG5n9xK4D3VPGs+wnvm7HlUXlHVmZYRfuTNg69/72Mf+EANASHyrzr/fk5c5G+9Nbc4LX9icUH+bCOcXpkRzpwaMcxR4bT0iawhzeJv1nKHC/GG3LRD9Ty8KIu66LevPXLYGllvTWcTHmRIeGamO2d+SOnQq3/1hyc3X/O+8/8fneKUl5eHWfSiiBzjUx6/YIW6Jc/WxiS3f1se5EaOkHoWkCWW4mGUB9nJHr9hSF19puc5y/mS7O266udt54LO+4DFokAiH76yWw+LhIXTw6Sb3aIbwY2Sys+0ZEB0dLS57zy3yuJhdsNeKjXNWedEbYb8jYNsj4jrpMSVTOebbNC45yuqrhsOqo65hgR5ho93WbVpckrzZ9rtUkRxyPuOH8/sn6BfeumlOWefe+En5y85677xZdNyQqEEXtCmO1py22zKf/TR7WKfqSRPiaA6RK2TOr7c9JkVatKk0cuTnxOSf0vvBlC/p4iUWL95RT1kgY2m9wlLawwhF3odJNfCmnUPUmqTJFLG8nnxz3zBiZdffJa2bnqRmpubPSH39UV4Xsj4sin8/eQmC8X/4sUX1z3w0F0fg5DHxnzse9/jIv+K8+9nznbmzd84aPT4kbNycvNmh8Jp80KmwUP2E0Oh9Ezi0RGyRZ33t8vtDBeg/fv30oSySdYqd3I/qhMAcH/rYSNGfv1nv/7zGx+56rLH6RRmxWWX5YczMrJ8zow0yI2jDBxTPEhSwstKz6/hCZX71EVMb0ogiSylRkMZIGcobapBRL4+ecN+kyB/5ixP2iTX4OALGbW3tVjCLjcahlSsFy6XdVOUblhdOAUsHxFFsKIAJl8zotO6R0T9VJEWpyZ1R2jaYMp+hTjSlNosU3Oqlbqbbv28cUjywEHJAJLP2DD8ng77Dx/Dw6+deBZYPZi7fih1QV/z+c9fM3/Ryu/MmruwmA9miIupXZ8YSqGKp5JF4gKSQH18Qh6IfNFVw2JAQu+6ijmfjQDx8Z97P8qW89fVTbuH5J16XCTpGkQx4qL9sKZykEyCd4J0TnLZ3kMYoR2vv0LP/evv1gtUrH7yvr6YWQ1hId4lKy6gwUOGvnLw4L4br33fBZsJ9Afmzf+Ev1TlGecfx7j00qsHT5o5aWZ2Rk4l87Iqe0yak2UYE1kEMNOQGpIICz1W799nvUedT5NTe9LFIDErTBsaOmzUf3znJ//7yu03Xn2ETlHGDh/HBx+GFFF1EDInPFoiQ9FdyzzmXRF8ZHnI8DxMMUbB5HP8pD5fx0BwhUay/r2fQBIjg0geve35RV4kwJQG7IWZJ82FlnediDaWz1Hn3jT3sgXifNwxa85ZimmKokvUWh3OWRJWHMm7zPj7WEyp7noL5ht9obXHQY2i0vctDCD5EGH/yEaBVp7cgvmiroZWF6ce/Nr19XaTYowYZs+gQYNiNohRVfpTn/705czS+UVHe0vorTdepeLBQ6x/4Ywsv6cnNaiGXF+/eUm6hHj+mdd4p+QdBqFcpGgIC0mvtvhvPwRVFrJo+9yvfkvSI8mrIJ9zkLCa/sPtQ2XjJcUrH0vEZZF1jSXvDvAnSrB8qTGTjaRIpJf27X6LXnrhGWteeSd76CNSn61bZanvcNCgEiqfNYemlFdubmtr/cG//vKrR0/mm8jOcMy//OV/T9BfVJG/bvWdwyZNGP8fOTm5V9jhX2uz5ZUdPLDXeZGL3biL9bzducemFaqclJ+Tey/7ejedoowbX2YNiHP7sskTSHsMgaEIr/vRkITL6Uu3rpA7/sDe76aXHjlbpz0RUloA4YEb3opy3vxzT5TcCIKTTzoLq3PRrmPdXEOyhrt58ymNTU31vmiM5+UbikMlDIQ+52Ul6elhEpnxaY98CeMeJoDWIEut3XVMHoqKItokJ/IiQWQoEVU5rXed/G2mqZXutWymm6d93mo9+G/X3aM2O3yWaENDQ2qD4moP1w5vqGsI1RypYdZQjrXIA3//LF/xp3TYKBo2fBQNGlxibbOH50s1ts9EuEekqgtJB5BrMylJfEfFwAzIVv4e1bjwDnAXBnB2REuSNLoumf79plwPrfIpjzQPuB5+b5wCJdT+rC4Fm1LZQrx9BQTHQdQfLrUrL48Grq05RBvXr6U3X3+Vurq77KUhyVSylquWwe7vOfOW0LSZlce7O7u+tem5F7531103NBJ4uzF/+aNv1axadefqCZPHb0rPCFfy0fTMex/LPLWcjvZ2yzgT/afWWvURU3xmwZhIb18k0tPe2pZBpzDZmZklspHirpZHhtrva9pzvj3hJft5JzFAy2lnRR+34hwaSj7eCHPPWBDGrtjmypPTFy9GntvlEZFcDjueT1FsaWm2Xg6kGCDsf4VFxUzojzMdGaysVidOxLHj7LqSYb2auL2tlb+gR2kq2tk9wV+d2srKKbDGWVDg4GblWrgXgaJqSJCHHWQXyEaPHD6Xz8Ukz3GVRZ3ENfNlxhdZ6tbqZXY/9thjMRvHqIJ+7FjNEwXsIjU2NVoXgA9g4KKem5vL+ijetF/kwP4VFg+mocNGMpEfwcKTw6xQiDvy3YxyBVxkwVAHJCSMEed7UFG+XUbAIcHfUgrBS1kp947pr0e08vuL/HDI2frsL+qHIaEVqBi+whIldYCa/0ki6s+582lRfAraq1tfZv3kTf5117US+XzYCWVTae6CZV0sNPiz6qOHv3ztJeccIPCO8uij3+LG1Nf5ZxYhCdU29QwfVlw0JS0js6qzvWOESX1NZqS3sa8v1NDX093Y09vR2EXU2NPZ3dpHXW37tnc20KlMKMN6ubfrSIvBXyHpiXVER6xwRpJBK6/rHrT0a/CAW9n698TdtsPtPnbZDLc/2KLu2etOGvFmNacefPoh7+qyPGtH7Pnxxcwp5G8ItFYZdJZ69dohEeK2X+rCp7sVWO88l50w0wrn8/LSnIFx4rop9RTnToba2BEFN0GSYSS3/r4+dNlBMOyEvgi2pnOOWWZ/dVa+I2l0vF3/kL1KnBKFifRQnIYxptpefc21B1jq0boRw38o3hDy1zFm52RTDn+Jg+PBD2Ie/OCSocyTH0yDS4dbC+xzY8BL7/nBsl8uD9rot4wFOXtRMzYDhVoerJd0mfGOi7nbf0BKRoR+s5r+ckS+8hSXfhN07cn/DJHve9ARwUcGldfZ2UnbNq2nVzZvoLq649bDYC1ZKqxlU34sbUaOGU+VcxebxSUlf+po7/nWT7//lReYBRxz0AkAbwd/e3bTJwYVDvqWUHR3NLozuj/agjLKaHhy+p9NU9suDHw1EO3mKQ2O80RZLVPpu5cHyxmkdGGJtNx7bm1p4YMWSR+xz+GeNxd8PnuKh+O54cJnMPA3HPIjbK3JkWtL/ELw/XwWCj8rnk6OGISk/n1D0RhDziLYqzHkNF77I8/AkE5PTe9DGTvv5qdeT5JtKUszq1kkSqzjzuns6nz5wx+8eD7FINZIN17WP1nmH5UrJk6GzyXkqzu1tbVZlbMX4k+3ppfksBB9Xl6evfwjs7yKmagPGTqCho0aY70ekf9oXoBbPe2TMvdbL0jb7BdzCvieQplJIH7moGvQ72tiBpQlPZQeUdQ/GaI8HGT6DwuwnaOUHL0+/KHf/ebr9OxTf6Pjx45a02H6entjJudW/tKVF9LwUWP21tUevW/lwpm/JwDeRaSHwkP4X6fpJ2WqFJHkPZvWCPVQyJC678jty46IF4RI212jgIj0sTtK37wIsZteW+06YWrc316QxiDX2FAG1hmGpQ/cA+8V09Vk4Wf7+cj0iKUr3axvvcHpSghZUxWtaWh6W+K8E52/W6CkdKi10qO3GA65Hq98nezrKRsdhpuf0hKKbYZJ8m/gnKpzTt5neQ13I0DUDddplY0JQxn3YW0yFWtCX/aVjIjZTXGIOXQ9Oyt7U3dP90et0ZKkV1IVAn4MH7XI/zU0NtjLPTIvnuXBfqyDlhfPQ/Zc5IsGl9LwEWOodPgIFnIpdV5iPwDCZWdCAZX19kU5D1VM/L5jSnWI7o4qhxFFswcSMiUo2aROZIjkUv3mVT/Qzz+umIvDzASO8jhWW0PPP/047dn1pjXKlYu53KqZUk78Hw/3zZ63iGZWzm9lHsPnPv2n//nWWgx4A+9CTLNvsHg+A/t87aM8UdcfFVlcDVK8dDFFzTfVjKRHV/aySWtWPc2RHBEpjfvcew1BLnPwOpjo8rei8Rkk2sm6b9bhK8llZBRLpyGE1PQZCq3NzZRXUGB56bxf3RVzuT5BI7ilV6oqU9hIvwh2hmrb6JhBpqFEIZRrI+dBqiFkShsNrf11nUvnx1QdE+tXjruIVUxBv+iD1/6BmUyXt7e3z2ltbR58pPqAwUMAHe2tZJpBja0kjkzg+VKPPPTZxC54yFp3OY0yrJDKAdrFvCou8nyuIh89X8B+kOLBQ1lIZpQ1WEKezpAUuocofddHZLrHkeqpJ+2dB9XBjJFYPGykPijyjTNg0+Xk+mjlkVKuKFUIa5JnbgaUp2VhBiYwY2QYvP3EsWO0eeMLtP2VTazPvM1+pam0AIOeko+knTytgiqrFjWmZ4T/+629r3733668ch8B8C4lPd1+F7qtX5o6uMjz8WVx8La5g9XIUEXdNN1n3V0jXx8YJ/IToX2peMPx3oWCRkR+UheAGMDnONSW6NYeqbZC79Zccb4nFHIydd1d8qwFMYXNcIVOiDp3IPlgOx6GF2sTWAMkHSPG1mKfovqugyFdL3egnxAOQ5ZZT5KlhM4/fh6GV3fT384GjUvyt4CGYoj1KKPcrXPqojjEFPQrL1lZy/5c+NWvfrVg9KTKWWPHT1rO+iiWMnGvqj9xdPCRQ0zgaw6zsHsLuS8RkCtHnhXCL3akJ2KF6tva26iu3l4akIdfsnMOUD6z4Pj8Ui7w/F22hYNKWEh0rLVuNhd899248VBMRlKuqmKHqQYXGT6ZS0HMg9Qy2nGkGRikVkru404K+bzkOklGhHxi+k2X8hh/I0pd5HKVw4POMfYV5+G1rZvW0ZYN66ixyR7w1qeupKSUwx+KMeMm0sJlZ5vZOflPHTqy787rLr/4DQLgXU6IDM9NJVtobE/QL9y2x0juQDhFtKVR5e48dJKfE0MKP9uipK8E5/NyhZdsqNOx3PqZFOD5m1bElrfnB/fvpdHjxlttvewY+r1p+Tylstm3I4ermYEwmMIZYctg51tD0lrvbqTAaftcm8HwohpCuOW8vTpohoVmFLjdEYZUgCFNbZOlJiBS4DmPUjUVLTL8IXcy+hdyF/V54IEHmtjf55x/9LWv/SR//PSxM0aMnbAknJ52TltL67z6uqPF1Qf2GSeO1lgDICK+hlax76yPfHEP/o8PaGposMP03IPPys6yvPf9e96y3tDE37XMB9qVsJuBj6gvKR3OBD4z4Eaj2MJCUhWEjJiyuPiTJYWhfQ4sNxi/qBnJly+Se5l6f4O2+3bLj3mKEQLdoNJ2EclnmNj0OL562Fs7XrNGr9cwC59HfsQLVKKlLGJRnnmLl9PYCZPfOHr0yKf/+z+/8WcMeAOnCswzHSS8W1cQpJCzOh1LamZc41kVLkOIkOvByoPbyBUuksrTPXr7OENVK+0JdNuMiDRCXgg/y4NHXkeNGUs1hw/RuPETPaPBORHPWyalHLkpq2FibvW5szYgixsFetmiZiLyQHI74Tc0vH510vrATaII+ZxCUzpvecqzoTku8tQ5ksr2pFzNUakXS+xf/KqfIfdo3H//jS3sz4vOv0f4tjVrvlE6d96yZUxoz+mLmIsaG0/MPFZzKO3IoWo6zkSeD3Ygzbp0cTbzH6izq9MS+MYGewown4rA+1Vyc/eyfphcymHizkU+JyeXSoaNYCH6MVafzCDWF88XFwgkUFTVkYdGHFFJGF2fAgTOlP5r30j6SHO9LinULage2m6Rs/drGFLtEiwvmhGlZud+VasmJw62APbueZPWrf0nVR/cZ0V3+voiUbp7bPi9sfScC2nCxKlHGurrP7N0zuSfEACnFnzc2hDX4XAGnFmzm8gWDj5gS31y9GifmG5mH2AYhq+fXR4oZrqGAvmeZyWZEH0xaI6HqMV0NlN6ojUv33uDGjEHLYeGDh1O27ZspGkzZtmeur8k99y88zEtMecD7DJ4JJdpgKrEUiviRia8lt6LwJtK/mI+eFCUltzT8AbZKZ66ZFZ5Hrty6hL+s1SaaMk4sF7M4vShuw6QET/kbtBJYs03vlE6Y8rcxTn5eef09fUuamqsLz9WeyTrMGuYjx+tdQTeI6aASLuEwOfkZFtz3rknn5ERtqbM8XnwpcyD5wPuigaXWN6+m4Hcn+LLXv2Bxc0jb0tKToMODtQr+XajqDd1v3DV0//Ii93+MuOccSwR1/ZLA2Z9+EvxvtXXnbBGru/e+Qa1t3f4VnhTvX27seAvUFmwdGWkubnp3zc8s/4La9bc0UwAnGKsWLEi/XNf/0F9OCODdzSTvGSr4SiuP1TttCWyV26QKzJKH7SbUEpvSmLk/jFIV3jfCHZ7o/tZMdF5XQxn5Ddpadh/+dsNd7/5hjXVuXTYMHJfmerk6bbFzGjg89D5KoF5+QWsfR/trN0u56lHFDWHTYTDAzVbjtCq18DV78D2zjMUgo7zledZO+RGUCQR9w6ydW7Lpg3K1LvOro5HP/zBS26gGKT6PvS4rLnvvmPszx+df/Tgl741tGpO5YJpM2afxU5gDut7LztxvHYEE/kQn6bQ3NToDmzyibt0UXgYooP9uPxfXV29HaZ3BP7woUOsH367NZKevwCAT5cbPnI0E/rhVFBYZN0Mae77gD3f1B8IiSYzCaIqtPLZN02E4hgzqaCbgM6HoHvSubVIl8iYGDHKlKMRoj0w1SRq0EAtq4X1jb+y5SXWV76eGuobrKiN2k8uF2QvDDOMPeDLVl7QlZtf+MTrr7zy4OpVH3ydADhFmTlzZk5aetiZdC0aDsP7JofJHcQ8dcVfND1DwAz2ZJy09nGu3uhNgfLwmspnUwqnex6+7B27FSTS+vS5aE0tn0mNjQ2WWPPB0EcOHaQJZVOs43hXW0dnh7VsLM9r9JhxLEqb7xTttKNO57aYYiZcWa8Vk1bZE+eoKa0aKZQOJNlYIpJPSu4udLMTVTCFcUVqOrfe5AQWTPu3MWQNMiwR73Nm7JhyJv2dtjaQfPmhO4+yP392/tFdd/179pwFkyZPmDJ9QVZm9rmdHW0L604cH3nk0IEQH2jX3Fjvhhw4yuhCb6Mdpu+0w/T1TACsRW/YjcJFPSdnnzWaPov1t3PRzysosqbJDWMiP2z4aEvkuSAECcuAod0PuqwmOzAsqTJ9D6T+dOrbTepX2cHuv/QxqHz7exd7cLe/8jK9/OJzdMJ6gYodXictndtfxf4NHTGKFi09N1JcUrJ+b/X+ez5y1tyNBMApTkXFssHM70gjSTC8kLLkQQb1cTuetkmywHl5u+HlkOFzMmQP04jpapIr7LI3Looj3yAw0xVaU8uT17uwcJC1dCt36A6wyC2fhsZHzXPnK4tFYCdPneGsS+/GIeSc3ZZBdRWklkJq3jxRJ83xsKN81mh9X5spXVdnpz+qS+pxejMadF3d7bJzaefNuxd9Z2aanRQHg94lrF69Ojx3yYXjB5eWrszKDJ/V3dlVVV93rIyJe+jIkYPUVF9nzzMOsJZiaZC9qIHtxVt98OwGEf3wPEzPB9gNHznG+juomI+aHKAloHVBNYN32591l7ofopqAXRAkq2a8CidatmToBm32dtlbIyzstuut12kjf4HKIf4ClW5rm/pAqDnwSMuc+UuobEr5wbaWps/s2Lrut3fffXcHAXAa8Kd/vlw5ZMjgLdYXQ27WJUEi/+qa8ihvZQeRG6pXRr2TQfrKcSKBFf6WFqGxtxleZqY06I28/nFZ4HXxlrsB5GNFnoZ6gr5uBUNXZV+bRYpwymMEnIqQ0qdPhiT0QceT2p5p3ro39oCUAXjk1lSaPaA3iHL+WgPJxwi0tTbTTtYdEXIiypyO9vZHPvKh99xHMXjXCLoOF/gFyy6ZUDqkZHE4K3N5W3vrlPoTx6afOH60kIdg6uuOU0dbG8UKJQUhBJ5Pd+CL3vAXz/AlAzPCYcph4ZzBpcOsqRVDWH98PrMa8wsK3Js1ZXxibvqsTJJupn6F4KOIqqrR6h3kjxL0AzPw3ie9ZP4gHKreR9s2vUhv7dhOra0t9vvJI/awUi+5l0mYGWEVlfNp+sw5LZRmfPvY3prvXX31+afsKzIBCOKnv/rz1KnTZ7zOo69CtzyH11A+u5+kUen6Wu72fpFWbfLlJWLtotQpbLLQyo+0LNyylyl/MkkIsYdIH3L7yw0pgSfWor5C2IX4yl66bNBIAwasI9x+ca2f2h1KZfqqrVRBTke6nxNDNeUR80T+6WpBKfTMeWSioaGe9u3dpVy/ltaWr3z06vc+GC+3U4bbb19TsPj8s+bk5WStCKdlLGlsrJvfUHe84BDrf+Fv12praw1OGEen3DA9C83zl8/wf3xt+jALx+excFDp0JE0ZNgIKh0+0poOJb/uL7AsXVB9Bppm5Sk/qK92FPcEgsoPylL6bgZUUBf1fk9dMwO/WiG1dWufYCH2zdTe0WG/QEVxydV68Yd/8vQKmr9kZYTV6efP/uOxu9asWYM3oYHTll889vjHCgsLr8zIzKrIyckdzLoGDbvd0UWP43mnqjfveZDCCxXbSUqqDn7znA196prrdWsh9WifZaNAqakm8srANme+vVcb6Zw0tTKUctTzkefty90P+sA/BWm/7OQYsmEhD9xza01uGn27F/3wF+f+PlIKMbbgaG0t1Rw+qBzf3Nj0uRuvf98aisEpJeg6t69ZU7B03srZ4VDa4uyczHPbWlrmnTh2tODg/t3EPHl7YX9TGlCVhDbxRRDswXY5LMSbZws88+Jz81k/fMkQa7ocH4w1qLjYCpG4+QeZsW4IidTBExRvulo/CRBzrxRV+f3bUihLO1/ViCHr9YdbXn6BNq5bS83NzfY0tEgfKbeh0gCY1voDS1dewMc+vHj40P57rnn/RS8SAGcIF110UeZZ511SVjJi9PSczOyFubl5c7OYyGfn5hbxpYz5Gu5yeFuTEWejFgKmKOIuDhfLwpImgKaan36sz6uXjhGD1/xRA1/pSjviecvSBiJVbOWDg0a+u0IdMK2OvOTKJfM1ZkTBYcdY3pNsdFAC2Hnw37X64H46fqxWScbazIduvPbyL8fL4bRh1apVWSsv/kBFcXHJ0vRwuKKp7sSs+voT5U2NDeHjR49Q3Ylj1lrzpuqmJoSYLsdXs+NvmOMC786HHzqchrB/RYOG0OAhpZSfn1iYXvWSxQ2obksoEyPOPjPocPVTyoZElIiAbNPw1xvu3f0mvfj8v6wFJawX+/Spyxp6MTCbQcVDqHLeIiqbNP21lpbm7774zF9+zLzyCAFwhsOntV3yvg9NHVw6qrywqGhGdlZmmWGkVWRmZo7LzMrO4UtsK142+fuLbVTxcxKogicGv9nK6tbB1+Q46YKNCy29HI0L6Dt3kULvInxOPmHXvPigyhkGGQGRSTWcrjaUWgxBLT+qagbkoZyyFoKXbQXyIgnpaem0d88uamqsVw5tbW6+76PXXv4IxeC0EnQd/h7lIWPGjBw2ZPyCjOzsFWakb2lTU8PkY7VHsg9X77emQ6Qq8PyH4V68FabPscP0mZkZ1kpIefmFTOBHWoPthgwdyr4XWceSFnZXp855n1MmSFytv3qvvVcH52yI+ltuQDY8OrJ/3x5a9+yTVL1/L3UxD72PCbk8IteNRzmCnp2dS7OrFtHUGbNOtHe1f+Fff3rmJ488cl8bAQCiwtu6lhYqLptRPiM3P6+yID+/KjMjay7T97EZzKXnIsGfL7evPGBOuljG1OfNh7wBb/Kj7qU1yNCPEAPnQvJgOdmrlo5zs5HUz+1WUAerKek1L1tfGc7nqct5yIPj9HzkdlnOM8Cg8OpIFOyckXI9dePKJN9pWMuh73zrDWutenlXS3PzJ5igf5ticFoLug6/6YvLZo4YPmhQVW52Ll/RbklzY/20o7WHs/kKRMeP1VgLGLhXOgmsfvj0NGvVo1w+kt55RzwfNZ/LPPYhpcNZH/woa+nawkGDmMdvzxgM6rcmSlLYg6xGXWQDNFu3Vgck7O9cuoYTx+ml9c/Qjte2Umtbm9NPHvHuYGXJSd5opNGEyVNo/qIVHSzy8Zs9B/d86aYr37ubAAApwdu7uq6uwVPLZswoKCyem19YUJUZzpydnZM7jrVTmTzqGHJC5rqgyyjLzhKRMkWNvKZHXQBHHT3vxgQkkXc22Pvd/L0GS1milsg36M/vu2hh+DjqZkiiLGmseoxSinyw3E1pH0nSdfSGLng1VKccki8aIb7zyO8b21+hjvY2ZXdrc9OtH732fd+nWOdEZzbGD3/4i2FDxo2rys3IndHR3bGgqbFucWtTU+nx47XWkrUN9SesVcqSzpiPpk8LUSZfiz4ry1r4Jisr2wrb8/nvfNGbIhZW5u+H5++K51PojJPxa2jCHuTEqwcmmbd2nzMrkrZsfIG2bX7J6ifvdfvJtTSSdz6+bAp/ExrlFxQ93tnV9oUNax/fgPA6AAPPFVdckTaufN6QccNHThs6dtT0zFDG5PTMjBnMK5yVk5s7OBzOcIXZndbmiq7IxRMoIVghWfQ1T9tL5njMhvrmNPl4a4Ec2cO2jH3vOOvVrwapbq3kycueuc/ikKbPuR67oY5mD5pyLxsKcjqvDMkikK6PamqQ0ga7pycJv8iT/wavbtvM2s5u+RSptaXt3z56zaU/phic6YLug9/wK86/dPLQ4WNWsLDVuS2trZVNjSfGcw++lv2rqzuelMB7P6tpDZ5LZ1Yx74fPcbx4vugNX9ymsHCwNZJ+xCh7Tnx+QSHFnPIQIKbuZ4F0Xyk3Dhm+uumRgmThi8DwN6HxAW982Vb+6j9LyP0mr+ul85Whlpx1Lg0dOWZ73dHau99/yYp/EgDgbYf3yy86//wJE0dNmpNfVLyYOR0V4fSM8ty8vBI+GFiZ2eOok62rnuCL0e/8X0TyooM8FXkaGscTOUP11J387Ld5mtoAO/IpmBfO1kU2ynESyjQ1krOXjIUoXrY7J5286+MPwUvGgKlFSKVrxK/31k0bSH9nRXt7+6qPfOg9P6MYQNDjwAV+2UVXTBk9ZvjSnHD28ra21iWtLc1jWB986PDBA0y8jvneLBcPeVEHHqbnbwzi8+H5ADsu8Ly/na9qN6R0hPUK2SFDhzHBL7bXL06sgAR2qRZ23ITR8mNJDu7bRS+sfZIO7t9DXV3d1vK8phZSl+GhvvlLVtKMWXObW1tbv/rinm3fXHPDDXFXQQIAvH2wti+jrHJB2ZSxkyrzBxUuyM3Lr8wIZ07Nyc1jnnzY0KfvKgvPcBRv1/BrYTShF4m9jEme4uXraycvNK5GsqOLvtonrnrILibFNgj0vLUIgCrcgU2hd7aSHcHb/y0vv6R0bfBPbc1t16269tL/oRhA0JOEW7IfWX13WWlpSVkoLX1BZ2fnMta3Mbu5ubHwyOGDdPTIYWuVn1hvBBPofdZ8wAoXbWs0PQvT8wVv+Ih6/pIZFo5mIfpiK0xfar1Cdpj1chr5prSIo82eN65uTdZD58s0Hj50kDase4b27NpB7W3t1prrpmzcaBEEPr5gavlsvjhMS2ZW1o+3rn/hkdtvvxELwwBwisCn0Z133vvKRk4YOyEczi7LyMqcl5GZWZGZlT0uh/Ub8mhjSAgwkRQ692TNkD1Y34A0TUdFX7XkcSteuGH4Bra5ZZJ9jKlvE4jiDW1RHjJ8bZeXt886CPbshQHiVtu/0I1XWbUsfv22bnnZ7saQ6Gzv+ND1H7rktxQDCPoA8JXvfW/Q5JGTZ4ezs5aFw5krWlubq+qOHys4dHAfHTt6hA9mCPTiVd9YFXci+ybg/Uc8BMP74flIerFsLR9Nz0PWfGW7kZYXP4JycvOteanRwtzqsoRyLZKjqaGBNq5fS6+/utnuJ+cD3qJFKfjNzAyVMeMm0IKl5/RlZ2X/ueb44YevuexCvEAFgNMA0S9fNnrstILBxVUs0jiHORtzmEMymrVTOenhdKsNkEVa9JcHCZrct+6JOVFwHzz5BNfeRyQMAOVYkr16778mSXof5Jn7ttmtaNDIdb+qysdG2S0XxdrSV7dtcdevFzBB/yAT9P+jGEDQTwJ8wZsF0+bPLCwuXBlKzziro6W5gvW9lx45dIBqa6qtN4olGqY3AwSeT0Gx5sM7ffFWmJ6Jfn7BIOa9j6ChI8ZQKQvTFxQOsrx+dXqavwQ/RuD2rs5O2rF9KxPzZ5mhUmvNJ+fnYZpm1OhUATM6lq48n4/uf6O5peXTl56z4I+UihUBADhl4JHMFRddVDqydMLkwpLihTk5eZVZmdmzc/Jyx7BIXRb35EV/O0ducWRdVdsvUvutA0P28mHqfj3M7nr75LWzijAHZ+odF2VfYFopU2VKm5LeNmR4l+X217b6PPTW9tb33fChy/5IMYCgvw2sYQI/Y/7KiUYobVpmWtqS1taW5b093VNPHKtNr3a8eL6KWiyihcPFsrU8TG958SJMb72MptAaUc8H2w0dPtp601xOLn8ro25KxurlIWs++RvsBnvpuafp6NEa6uRz9x0h9yqiJs1m3QGLlp1D4yZMqm2ub7qrsa/+79ddfDHeTw7AGQqfRpedXTxizMQpI0PZ4bGZ6RkLWcRudmZ2TgXz6ItZm2UIr93QvWuO7o1rI93lZs1vJtjffSPh3T3+l7OY+mGB4XdtwdfAgcwB3jwFdX/ay1zzhbjefOM1X14d7W2XffhDl/6FYgBBf2cwvvofPxw9bXr53HBaxrnsnl3a0tIwrfZQdfqhwwfoRG0tdXa2ByZMpJ/bertcOMML0zOB51MhuBc/aHAJ85ZHW+vSl1ph+tyoo+m5XvNug/XPPmm9KKCzo1Md8BZUNjMuZsyaS4uWn9PT2tT4rSf+/L+fe+SRR7AwDAAgEN4vf/aFH5g0ZFjp9MLCokU5eQVVmRkZM/PyCor4Oh4hPTRP/n5yCvT0NYdF6b92O9Adx9g/+0ezDkjdqS8dI31UBwGQam3Ix6uD/Hgd+Eyo9tYW2rVzR4CgN1/y4Q9d/neKAQT9XcLXvvOTEZMmTZ2XEQ6dkx5KX9bU3DDj6JHD6fyNZMdZeFteZEAgT3uIhfV2uTAfaJdpL3jDvHj2wFB6RtgaPW/1w48eZ72EJjc/37pVW1qa6OX1a2nrppeotbXVWqrVnjpCUepB3BunJWedx99h/OSGF1+4+b7b/20fAQBAkvCQ/cVXXDNjaPGw6XmFBQvzcvPnsbD99Oy83IKMcKY9N530bm11fJA6YFgSZ8Wb97xnkaH+2lb/q1aDhinp3rdnb7hT2uQxAQEd6XwTj7Y2NNTRgX179AP4Gh8XfvTay5+gGEDQ36WsWrUma+X5lZMHlZasSDcyVnZ1d1Q2NtSNOXLooMHnxDfWn6De3h4lTaID3fitIxa94eF5PtAui/3jb5fjLwbgt2VTYwM1NDZac+5Ff3/wgA6Dhg0fRYvOOpeKBpU8ebT20JorLz33JUrE0gAAgASxV77LGFwxqWxm/uDi2fn5+XOzs/OqsnKyx+Rk5WTxKcDEB98FefOBYk6+Uej+vm5t0WxZpAOauKBlY919hhF9PIDzgQ8gPFpbQ6yd9+Xd0tF6zkevvOxpigEE/RSB3cxZ4ycvYAJfsDQ9LWMZ62dZ1NRQP6r2SHXaoYP7fQKvjmhPTOC5mPMR9ensweju6qae3l7LYox2k+TlF9C8JSuobPK0/fX1dV/e/PwTP2P17CYAAHgb4CLf1VU8eMykYTOLi4vmFRQUzcnIzuGD78bmZGVnhtLSpYF3UqjbF65X+7lFKF7RXyNAMIOWlnMIFHfdeJC8db49nMHftHbAWqVUp6m95aybPvTe5ygGEPRTFC7wY8tmTyoaPGh+Tm7Bis72tin1DcfLWZg+p+7EUSbw9SxE470yPFHvPY2vZsdHoLIwPe8vF69nlG/OLBayn1Exl6bPrGwMpYcf2bln9w8/ds1lJwgAAN5h+DS68nnzhpQUjy4fNrR0XkFRcWVOTu5w1o5VZOfkFlr98mJRHP11q/K69k5T6b6CNRRfLvV55smsLc/JzMykPbt3sva7zrevofHoktXXX70+VnoI+mnE6vvvL7x45XvmsRtoORPds9pam+cdO1qTXX1wr2XxtTQ1uv1D0frf+QAULuh8cJsdajctkbdgd8ukqRW0ePnZvX2Rvv/et//AZ/7tmvceJQAAeJdTVbU6fPnl0yeMnjhhTn5R0eLCwsKKjIzM6SzSWMLX9rDnfXtC7Hrt7qC1qM646n1r8+BJWho3ega2McDr8daO7dTa4p8QdPT4sarbPnrVFooBBP005oorbs1739XvqcrNHXRudk7WUtYvPrv+xLEiPh++5kh1oMDb0+DSrTXn+U3NB8LxcPzwEaNp2TkXU15ewaYTJ2ru/MDFZ68jAAA4heEj7BeddV7Z6LFlc4oHF8/PycuvzM7ImpqbX1ActqbRGTEXsiGSe92lbdp8dyXCbgSn5sYAXzDsje3bqKPdP8vpcHX1rDtv/cirFAMI+hnErbfemrds5aVzBw0pnc++TmX97ouaWxrH1x8/nslfHXvieK01BzLkhN25tchf9zp5+kyaUDZ1W0P9iX+/7PwlvyQMeAMAnKasWLEi6+xLr5oybvSIytLho8vCaeHJ4XD6jIzMrDHZOdm5fKyROqXML+nqu9m11eR8eGOd+PLYr27dRD3Wm9a8fLu7u1/ctW/7ZWvuvTdm1yYE/Qxm9erV4dkLzh89bGhJVXZe7rmRvr6lLc1NZe3tbRmFhUU0eMjQXibquxpbmr9ff7D2Z9ddh4VhAABnHtbKdxdfXDJ86MRpRUWF8/LzCitz8vMq+fK22ew/PKqpT6WThyWTLObK4DhpgyXombR100a7u5NtikT6utpamr9zsO7QF9bccUfc9heCDlz4iNH8IWNGjhk9fha7sdI7ezqr39j03A62vZ0AAAC4cJE/99zLhpaMGj518OCh83Pz8ufk5uZXZOVmj8nOzPaWt+UHByyCIyP67vko980bX7QGJTMvvaGtqfHhw/t3fJ+1wQmtFQ5BBwAAAAYAHvWcMmXWsILS4VOHDhs+NSsruywtLW1WZlbmzJycvGLeR57GR9i7oi5PXTNYV2eItry8gViU9PkTR4/ddt+d//ZqMuVD0AEAAICTyIpVq7Iumb1kcunokdMK8/IX5+YWzMnMzp6Zn5dfyEVeTKPr6ugwn3/mqe/fXrvndkrQK5eBoAMAAABvM9ybnzV3UXnBoKHluTn5izJzM6c1HD320+s+9J7/IQw8BgAAAAAAAAAAAAAAAAAAAAAAAAAAAAAAAAAAAAAAAAAAAAAAAAAAAAAAAAAAAAAAAAAAAAAAAAAAAAAAAAAAAAAAAAAAAAAAAAAAAAAAAAAAAAAAAAAAAAAAAAAAAAAAAAAAAAAAAAAAAAAAAAAAAAAAAAAAAAAAAAAAAAAAAAAAAAAAAAAAAAAAAAAAAAAAAAAAAAAAAAAAAAAAAAAAAAAAAAAAAAAAAAAAAAAAAAAAAAAAAAAAAAAAAAAAAAAAAAAAAAAAAAAAAAAAAAAAAAAAAAAAAAAAAAAAAAAAAAAAAAAAAAAAAAAAAAAAAAAAAAAAAAAAAAAAAAAAAAAAAAAAAAAAAAAAAAAAAAAAAAAAAAAAAAAAAAAAAAAAAAAAAAAAAAAAAAAAAAAAAAAAAAAAAAAAAAAAAAAAAAAAAAAAAAAAAAAAAAAAAAAAAAAAAAAAAAAAAAAAAAAAAAAAAAAAAAAAAAAAAAAAAAAAAAAAAAAAAAAAAAAAAAAAAAAAAAAAAAAAAAAAAAAAAAAAAAAAAAAAAAAAAAAAAAAAAAAAAAAAAAAAAAAAAAAAAAAAAAAAAAAAAAAAAAAAAAAAAAAAAAAAAAAAAAAAAAAAAAAAAAAAAAAAAAAAAAAAAAAAAAAAAAAAAAAAAAAAAAAAAAAAAAAAAAAAAAAAAAAAAAAAAAAAAAAAAAAAAAAAAAAAAAAAAAAAAAAAAAAAAAAAAAAAAAAAAAAAAAAAAAAAAAAAAAAAAAAAAAAAAAAAAAAAAAAAAAAAAAAAAAAAAAAAAAAAAAAAAAAAAAAAAAAAAAAAAAAAAAAAAAAAAAAAAAAAAAAAAAAAAAAAAAAAAAAAAAAAAAAAAAAAAAAAAAAAAAAAAAAAAAAAAAAAAAAAAAAAAAAAAAAAAAAAAAAAAAAAAAAAAAAAAAAAAAAAAAAAAAAAAAAAAAAAAAAAAAAAAAAAAAAAAAAAAAAAAAAAAAAAAAAAAAAAAAAAAAAAAAAAACeX/w9t2TeiEY/bfAAAAABJRU5ErkJggg==;" vertex="1" parent="1">
          <mxGeometry y="370" width="128.5" height="128.5" as="geometry" />
        </mxCell>
        <mxCell id="NUtuvDR6UvhZ3oM0A1vR-22" value="Wima Zone" style="shape=process;whiteSpace=wrap;html=1;backgroundOutline=1;" vertex="1" parent="1">
          <mxGeometry x="124.25" y="290" width="120" height="60" as="geometry" />
        </mxCell>
        <mxCell id="NUtuvDR6UvhZ3oM0A1vR-23" value="" style="endArrow=none;html=1;rounded=0;exitX=1;exitY=0.5;exitDx=0;exitDy=0;entryX=0.5;entryY=1;entryDx=0;entryDy=0;strokeColor=#fc0303;" edge="1" parent="1" source="NUtuvDR6UvhZ3oM0A1vR-19" target="NUtuvDR6UvhZ3oM0A1vR-22">
          <mxGeometry width="50" height="50" relative="1" as="geometry">
            <mxPoint x="334.25" y="30" as="sourcePoint" />
            <mxPoint x="384.25" y="-20" as="targetPoint" />
            <Array as="points">
              <mxPoint x="184" y="434" />
            </Array>
          </mxGeometry>
        </mxCell>
        <mxCell id="NUtuvDR6UvhZ3oM0A1vR-30" value="Tres Haut Débit" style="edgeLabel;html=1;align=center;verticalAlign=middle;resizable=0;points=[];" vertex="1" connectable="0" parent="NUtuvDR6UvhZ3oM0A1vR-23">
          <mxGeometry x="0.1396" y="1" relative="1" as="geometry">
            <mxPoint x="2" as="offset" />
          </mxGeometry>
        </mxCell>
        <mxCell id="NUtuvDR6UvhZ3oM0A1vR-29" value="" style="image;aspect=fixed;perimeter=ellipsePerimeter;html=1;align=center;shadow=0;dashed=0;spacingTop=3;image=img/lib/active_directory/home.svg;" vertex="1" parent="1">
          <mxGeometry x="516.53" y="480" width="50" height="48.5" as="geometry" />
        </mxCell>
        <mxCell id="NUtuvDR6UvhZ3oM0A1vR-37" value="" style="endArrow=none;html=1;rounded=0;exitX=0.336;exitY=0.014;exitDx=0;exitDy=0;exitPerimeter=0;" edge="1" parent="1" source="NUtuvDR6UvhZ3oM0A1vR-29" target="NUtuvDR6UvhZ3oM0A1vR-104">
          <mxGeometry width="50" height="50" relative="1" as="geometry">
            <mxPoint x="514.65" y="490" as="sourcePoint" />
            <mxPoint x="514.65" y="459.57" as="targetPoint" />
          </mxGeometry>
        </mxCell>
        <mxCell id="NUtuvDR6UvhZ3oM0A1vR-38" value="" style="html=1;shape=mxgraph.flowchart.annotation_2;align=left;labelPosition=right;" vertex="1" parent="1">
          <mxGeometry x="190" y="120.63" width="20" height="61.25" as="geometry" />
        </mxCell>
        <mxCell id="NUtuvDR6UvhZ3oM0A1vR-43" value="" style="shape=xor;whiteSpace=wrap;html=1;rotation=120;direction=north;" vertex="1" parent="1">
          <mxGeometry x="225.69" y="169.57" width="30.84" height="10" as="geometry" />
        </mxCell>
        <mxCell id="NUtuvDR6UvhZ3oM0A1vR-44" value="" style="shape=xor;whiteSpace=wrap;html=1;rotation=120;direction=north;" vertex="1" parent="1">
          <mxGeometry x="235.69" y="179.57" width="30.84" height="10" as="geometry" />
        </mxCell>
        <mxCell id="NUtuvDR6UvhZ3oM0A1vR-45" value="" style="shape=xor;whiteSpace=wrap;html=1;rotation=120;direction=north;" vertex="1" parent="1">
          <mxGeometry x="245.69" y="189.57" width="30.84" height="10" as="geometry" />
        </mxCell>
        <mxCell id="NUtuvDR6UvhZ3oM0A1vR-46" value="" style="shape=xor;whiteSpace=wrap;html=1;rotation=120;direction=north;" vertex="1" parent="1">
          <mxGeometry x="255.69" y="199.57" width="30.84" height="10" as="geometry" />
        </mxCell>
        <mxCell id="NUtuvDR6UvhZ3oM0A1vR-47" value="" style="shape=xor;whiteSpace=wrap;html=1;rotation=120;direction=north;" vertex="1" parent="1">
          <mxGeometry x="265.69" y="209.57" width="30.84" height="10" as="geometry" />
        </mxCell>
        <mxCell id="NUtuvDR6UvhZ3oM0A1vR-48" value="" style="shape=xor;whiteSpace=wrap;html=1;rotation=120;direction=north;" vertex="1" parent="1">
          <mxGeometry x="275.69" y="219.57" width="30.84" height="10" as="geometry" />
        </mxCell>
        <mxCell id="NUtuvDR6UvhZ3oM0A1vR-49" value="" style="shape=xor;whiteSpace=wrap;html=1;rotation=120;direction=north;" vertex="1" parent="1">
          <mxGeometry x="285.69" y="229.57" width="30.84" height="10" as="geometry" />
        </mxCell>
        <mxCell id="NUtuvDR6UvhZ3oM0A1vR-50" value="" style="shape=xor;whiteSpace=wrap;html=1;rotation=120;direction=north;" vertex="1" parent="1">
          <mxGeometry x="295.69" y="239.57" width="30.84" height="10" as="geometry" />
        </mxCell>
        <mxCell id="NUtuvDR6UvhZ3oM0A1vR-51" value="" style="shape=xor;whiteSpace=wrap;html=1;rotation=120;direction=north;" vertex="1" parent="1">
          <mxGeometry x="305.69" y="249.57" width="30.84" height="10" as="geometry" />
        </mxCell>
        <mxCell id="NUtuvDR6UvhZ3oM0A1vR-52" value="" style="shape=xor;whiteSpace=wrap;html=1;rotation=120;direction=north;" vertex="1" parent="1">
          <mxGeometry x="315.69" y="259.57" width="30.84" height="10" as="geometry" />
        </mxCell>
        <mxCell id="NUtuvDR6UvhZ3oM0A1vR-53" value="" style="shape=xor;whiteSpace=wrap;html=1;rotation=120;direction=north;" vertex="1" parent="1">
          <mxGeometry x="325.69" y="269.57" width="30.84" height="10" as="geometry" />
        </mxCell>
        <mxCell id="NUtuvDR6UvhZ3oM0A1vR-54" value="" style="shape=xor;whiteSpace=wrap;html=1;rotation=120;direction=north;" vertex="1" parent="1">
          <mxGeometry x="335.69" y="279.57" width="30.84" height="10" as="geometry" />
        </mxCell>
        <mxCell id="NUtuvDR6UvhZ3oM0A1vR-55" value="" style="shape=xor;whiteSpace=wrap;html=1;rotation=120;direction=north;" vertex="1" parent="1">
          <mxGeometry x="345.69" y="289.57" width="30.84" height="10" as="geometry" />
        </mxCell>
        <mxCell id="NUtuvDR6UvhZ3oM0A1vR-56" value="" style="shape=xor;whiteSpace=wrap;html=1;rotation=120;direction=north;" vertex="1" parent="1">
          <mxGeometry x="355.69" y="299.57" width="30.84" height="10" as="geometry" />
        </mxCell>
        <mxCell id="NUtuvDR6UvhZ3oM0A1vR-57" value="" style="shape=xor;whiteSpace=wrap;html=1;rotation=120;direction=north;" vertex="1" parent="1">
          <mxGeometry x="365.69" y="310" width="30.84" height="9.14" as="geometry" />
        </mxCell>
        <mxCell id="NUtuvDR6UvhZ3oM0A1vR-58" value="" style="shape=xor;whiteSpace=wrap;html=1;rotation=120;direction=north;" vertex="1" parent="1">
          <mxGeometry x="375.69" y="319.57" width="30.84" height="10" as="geometry" />
        </mxCell>
        <mxCell id="NUtuvDR6UvhZ3oM0A1vR-59" value="" style="shape=xor;whiteSpace=wrap;html=1;rotation=120;direction=north;" vertex="1" parent="1">
          <mxGeometry x="385.69" y="329.57" width="30.84" height="10" as="geometry" />
        </mxCell>
        <mxCell id="NUtuvDR6UvhZ3oM0A1vR-60" value="" style="shape=xor;whiteSpace=wrap;html=1;rotation=120;direction=north;" vertex="1" parent="1">
          <mxGeometry x="395.69" y="339.57" width="30.84" height="10" as="geometry" />
        </mxCell>
        <mxCell id="NUtuvDR6UvhZ3oM0A1vR-61" value="" style="shape=xor;whiteSpace=wrap;html=1;rotation=120;direction=north;" vertex="1" parent="1">
          <mxGeometry x="405.69" y="349.57" width="30.84" height="10" as="geometry" />
        </mxCell>
        <mxCell id="NUtuvDR6UvhZ3oM0A1vR-62" value="" style="shape=xor;whiteSpace=wrap;html=1;rotation=120;direction=north;" vertex="1" parent="1">
          <mxGeometry x="415.69" y="359.57" width="30.84" height="10" as="geometry" />
        </mxCell>
        <mxCell id="NUtuvDR6UvhZ3oM0A1vR-63" value="" style="shape=xor;whiteSpace=wrap;html=1;rotation=120;direction=north;" vertex="1" parent="1">
          <mxGeometry x="425.69" y="369.57" width="30.84" height="10" as="geometry" />
        </mxCell>
        <mxCell id="NUtuvDR6UvhZ3oM0A1vR-64" value="" style="shape=xor;whiteSpace=wrap;html=1;rotation=120;direction=north;" vertex="1" parent="1">
          <mxGeometry x="435.69" y="380" width="30.84" height="9.14" as="geometry" />
        </mxCell>
        <mxCell id="NUtuvDR6UvhZ3oM0A1vR-65" value="" style="shape=xor;whiteSpace=wrap;html=1;rotation=120;direction=north;" vertex="1" parent="1">
          <mxGeometry x="445.69" y="389.57" width="30.84" height="10" as="geometry" />
        </mxCell>
        <mxCell id="NUtuvDR6UvhZ3oM0A1vR-66" value="" style="shape=xor;whiteSpace=wrap;html=1;rotation=120;direction=north;" vertex="1" parent="1">
          <mxGeometry x="455.69" y="399.57" width="30.84" height="10" as="geometry" />
        </mxCell>
        <mxCell id="NUtuvDR6UvhZ3oM0A1vR-69" value="" style="shape=xor;whiteSpace=wrap;html=1;rotation=120;direction=north;" vertex="1" parent="1">
          <mxGeometry x="465.69" y="409.57" width="30.84" height="10" as="geometry" />
        </mxCell>
        <mxCell id="NUtuvDR6UvhZ3oM0A1vR-70" value="" style="shape=xor;whiteSpace=wrap;html=1;rotation=120;direction=north;" vertex="1" parent="1">
          <mxGeometry x="475.69" y="419.57" width="30.84" height="10" as="geometry" />
        </mxCell>
        <mxCell id="NUtuvDR6UvhZ3oM0A1vR-71" value="" style="shape=xor;whiteSpace=wrap;html=1;rotation=120;direction=north;" vertex="1" parent="1">
          <mxGeometry x="485.69" y="429.57" width="30.84" height="10" as="geometry" />
        </mxCell>
        <mxCell id="NUtuvDR6UvhZ3oM0A1vR-72" value="" style="shape=xor;whiteSpace=wrap;html=1;rotation=120;direction=north;" vertex="1" parent="1">
          <mxGeometry x="495.69" y="439.57" width="30.84" height="10" as="geometry" />
        </mxCell>
        <mxCell id="NUtuvDR6UvhZ3oM0A1vR-73" value="" style="shape=xor;whiteSpace=wrap;html=1;rotation=120;direction=north;" vertex="1" parent="1">
          <mxGeometry x="225.69000000000003" y="169.57" width="30.84" height="10" as="geometry" />
        </mxCell>
        <mxCell id="NUtuvDR6UvhZ3oM0A1vR-74" value="" style="shape=xor;whiteSpace=wrap;html=1;rotation=120;direction=north;" vertex="1" parent="1">
          <mxGeometry x="235.69" y="179.57" width="30.84" height="10" as="geometry" />
        </mxCell>
        <mxCell id="NUtuvDR6UvhZ3oM0A1vR-75" value="" style="shape=xor;whiteSpace=wrap;html=1;rotation=120;direction=north;" vertex="1" parent="1">
          <mxGeometry x="245.69" y="189.57" width="30.84" height="10" as="geometry" />
        </mxCell>
        <mxCell id="NUtuvDR6UvhZ3oM0A1vR-76" value="" style="shape=xor;whiteSpace=wrap;html=1;rotation=120;direction=north;" vertex="1" parent="1">
          <mxGeometry x="255.69" y="199.57" width="30.84" height="10" as="geometry" />
        </mxCell>
        <mxCell id="NUtuvDR6UvhZ3oM0A1vR-77" value="" style="shape=xor;whiteSpace=wrap;html=1;rotation=120;direction=north;" vertex="1" parent="1">
          <mxGeometry x="265.69" y="209.57" width="30.84" height="10" as="geometry" />
        </mxCell>
        <mxCell id="NUtuvDR6UvhZ3oM0A1vR-78" value="" style="shape=xor;whiteSpace=wrap;html=1;rotation=120;direction=north;" vertex="1" parent="1">
          <mxGeometry x="275.69" y="219.57" width="30.84" height="10" as="geometry" />
        </mxCell>
        <mxCell id="NUtuvDR6UvhZ3oM0A1vR-79" value="" style="shape=xor;whiteSpace=wrap;html=1;rotation=120;direction=north;" vertex="1" parent="1">
          <mxGeometry x="285.69" y="229.57" width="30.84" height="10" as="geometry" />
        </mxCell>
        <mxCell id="NUtuvDR6UvhZ3oM0A1vR-80" value="" style="shape=xor;whiteSpace=wrap;html=1;rotation=120;direction=north;" vertex="1" parent="1">
          <mxGeometry x="295.69" y="239.57" width="30.84" height="10" as="geometry" />
        </mxCell>
        <mxCell id="NUtuvDR6UvhZ3oM0A1vR-81" value="" style="shape=xor;whiteSpace=wrap;html=1;rotation=120;direction=north;" vertex="1" parent="1">
          <mxGeometry x="305.69" y="249.57" width="30.84" height="10" as="geometry" />
        </mxCell>
        <mxCell id="NUtuvDR6UvhZ3oM0A1vR-82" value="" style="shape=xor;whiteSpace=wrap;html=1;rotation=120;direction=north;" vertex="1" parent="1">
          <mxGeometry x="315.69" y="259.57" width="30.84" height="10" as="geometry" />
        </mxCell>
        <mxCell id="NUtuvDR6UvhZ3oM0A1vR-83" value="" style="shape=xor;whiteSpace=wrap;html=1;rotation=120;direction=north;" vertex="1" parent="1">
          <mxGeometry x="325.69" y="269.57" width="30.84" height="10" as="geometry" />
        </mxCell>
        <mxCell id="NUtuvDR6UvhZ3oM0A1vR-84" value="" style="shape=xor;whiteSpace=wrap;html=1;rotation=120;direction=north;" vertex="1" parent="1">
          <mxGeometry x="335.69" y="279.57" width="30.84" height="10" as="geometry" />
        </mxCell>
        <mxCell id="NUtuvDR6UvhZ3oM0A1vR-85" value="" style="shape=xor;whiteSpace=wrap;html=1;rotation=120;direction=north;" vertex="1" parent="1">
          <mxGeometry x="345.69" y="289.57" width="30.84" height="10" as="geometry" />
        </mxCell>
        <mxCell id="NUtuvDR6UvhZ3oM0A1vR-86" value="" style="shape=xor;whiteSpace=wrap;html=1;rotation=120;direction=north;" vertex="1" parent="1">
          <mxGeometry x="355.69" y="299.57" width="30.84" height="10" as="geometry" />
        </mxCell>
        <mxCell id="NUtuvDR6UvhZ3oM0A1vR-87" value="" style="shape=xor;whiteSpace=wrap;html=1;rotation=120;direction=north;" vertex="1" parent="1">
          <mxGeometry x="365.69" y="309.57" width="30.84" height="10" as="geometry" />
        </mxCell>
        <mxCell id="NUtuvDR6UvhZ3oM0A1vR-88" value="" style="shape=xor;whiteSpace=wrap;html=1;rotation=120;direction=north;" vertex="1" parent="1">
          <mxGeometry x="375.32" y="319.35" width="30.84" height="10" as="geometry" />
        </mxCell>
        <mxCell id="NUtuvDR6UvhZ3oM0A1vR-89" value="" style="shape=xor;whiteSpace=wrap;html=1;rotation=120;direction=north;" vertex="1" parent="1">
          <mxGeometry x="385.69" y="329.57" width="30.84" height="10" as="geometry" />
        </mxCell>
        <mxCell id="NUtuvDR6UvhZ3oM0A1vR-90" value="" style="shape=xor;whiteSpace=wrap;html=1;rotation=120;direction=north;" vertex="1" parent="1">
          <mxGeometry x="395.69" y="339.57" width="30.84" height="10" as="geometry" />
        </mxCell>
        <mxCell id="NUtuvDR6UvhZ3oM0A1vR-91" value="" style="shape=xor;whiteSpace=wrap;html=1;rotation=120;direction=north;" vertex="1" parent="1">
          <mxGeometry x="405.69" y="349.57" width="30.84" height="10" as="geometry" />
        </mxCell>
        <mxCell id="NUtuvDR6UvhZ3oM0A1vR-92" value="" style="shape=xor;whiteSpace=wrap;html=1;rotation=120;direction=north;" vertex="1" parent="1">
          <mxGeometry x="415.69" y="359.57" width="30.84" height="10" as="geometry" />
        </mxCell>
        <mxCell id="NUtuvDR6UvhZ3oM0A1vR-93" value="" style="shape=xor;whiteSpace=wrap;html=1;rotation=120;direction=north;" vertex="1" parent="1">
          <mxGeometry x="425.69" y="369.57" width="30.84" height="10" as="geometry" />
        </mxCell>
        <mxCell id="NUtuvDR6UvhZ3oM0A1vR-94" value="" style="shape=xor;whiteSpace=wrap;html=1;rotation=120;direction=north;" vertex="1" parent="1">
          <mxGeometry x="435.69" y="379.57" width="30.84" height="10" as="geometry" />
        </mxCell>
        <mxCell id="NUtuvDR6UvhZ3oM0A1vR-95" value="" style="shape=xor;whiteSpace=wrap;html=1;rotation=120;direction=north;" vertex="1" parent="1">
          <mxGeometry x="445.69" y="390" width="30.84" height="9.14" as="geometry" />
        </mxCell>
        <mxCell id="NUtuvDR6UvhZ3oM0A1vR-96" value="" style="shape=xor;whiteSpace=wrap;html=1;rotation=120;direction=north;" vertex="1" parent="1">
          <mxGeometry x="455.69" y="399.57" width="30.84" height="10" as="geometry" />
        </mxCell>
        <mxCell id="NUtuvDR6UvhZ3oM0A1vR-97" value="" style="shape=xor;whiteSpace=wrap;html=1;rotation=120;direction=north;" vertex="1" parent="1">
          <mxGeometry x="465.69" y="409.57" width="30.84" height="10" as="geometry" />
        </mxCell>
        <mxCell id="NUtuvDR6UvhZ3oM0A1vR-98" value="" style="shape=xor;whiteSpace=wrap;html=1;rotation=120;direction=north;" vertex="1" parent="1">
          <mxGeometry x="475.69" y="419.57" width="30.84" height="10" as="geometry" />
        </mxCell>
        <mxCell id="NUtuvDR6UvhZ3oM0A1vR-99" value="" style="shape=xor;whiteSpace=wrap;html=1;rotation=120;direction=north;" vertex="1" parent="1">
          <mxGeometry x="485.69" y="429.57" width="30.84" height="10" as="geometry" />
        </mxCell>
        <mxCell id="NUtuvDR6UvhZ3oM0A1vR-100" value="" style="shape=xor;whiteSpace=wrap;html=1;rotation=120;direction=north;" vertex="1" parent="1">
          <mxGeometry x="495.69" y="439.57" width="30.84" height="10" as="geometry" />
        </mxCell>
        <mxCell id="NUtuvDR6UvhZ3oM0A1vR-102" value="" style="shape=mxgraph.cisco.wireless.wireless;html=1;pointerEvents=1;dashed=0;fillColor=#036897;strokeColor=#ffffff;strokeWidth=2;verticalLabelPosition=bottom;verticalAlign=top;align=center;outlineConnect=0;" vertex="1" parent="1">
          <mxGeometry x="207.25" y="120" width="12.75" height="61.88" as="geometry" />
        </mxCell>
        <mxCell id="NUtuvDR6UvhZ3oM0A1vR-104" value="" style="outlineConnect=0;dashed=0;verticalLabelPosition=bottom;verticalAlign=top;align=center;html=1;shape=mxgraph.aws3.redshift;fillColor=#2E73B8;gradientColor=none;" vertex="1" parent="1">
          <mxGeometry x="524.65" y="449.57" width="13.75" height="17.07" as="geometry" />
        </mxCell>
        <mxCell id="NUtuvDR6UvhZ3oM0A1vR-106" value="&lt;font style=&quot;font-size: 24px;&quot;&gt;5km&lt;/font&gt;" style="text;html=1;align=center;verticalAlign=middle;whiteSpace=wrap;rounded=0;rotation=45;" vertex="1" parent="1">
          <mxGeometry x="372.08" y="256.16" width="93.47" height="59.57" as="geometry" />
        </mxCell>
      </root>
    </mxGraphModel>
  </diagram>
</mxfile>
